<svg xmlns="http://www.w3.org/2000/svg" width="48" height="48" viewBox="0 -960 960 960"><path d="M286-360h50v-240H180v50h106v190Zm120 0h104q14.025 0 23.513-9.487Q543-378.975 543-393v-173q0-14.45-9.487-24.225Q524.025-600 510-600H406q-14.025 0-23.513 9.775Q373-580.45 373-566v173q0 14.025 9.487 23.513Q391.975-360 406-360Zm17-50v-140h70v140h-70Zm157 50h50v-90l84 90h66L668-480l112-120h-66l-84 90v-90h-50v240ZM180-120q-24 0-42-18t-18-42v-600q0-24 18-42t42-18h600q24 0 42 18t18 42v600q0 24-18 42t-42 18H180Zm0-60h600v-600H180v600Zm0-600v600-600Z"/></svg>