<svg xmlns="http://www.w3.org/2000/svg" width="48" height="48" viewBox="0 -960 960 960"><path d="M266-360h100q14.45 0 24.225-9.487Q400-378.975 400-393v-70q0-14.025-9.775-23.513Q380.45-496 366-496h-83v-54h117v-50H266q-14.025 0-23.512 9.775Q233-580.45 233-566v173q0 14.025 9.488 23.513Q251.975-360 266-360Zm17-33v-70h67v70h-67Zm183 33h50v-90l84 90h66L554-480l112-120h-66l-84 90v-90h-50v240Zm210-40h40v-63h64v-33h-64v-64h-40v64h-63v33h63v63ZM180-120q-24 0-42-18t-18-42v-600q0-24 18-42t42-18h600q24 0 42 18t18 42v600q0 24-18 42t-42 18H180Zm0-60h600v-600H180v600Zm0-600v600-600Z"/></svg>