<svg xmlns="http://www.w3.org/2000/svg" width="48" height="48" viewBox="0 -960 960 960"><path d="M267-360h103q14.025 0 23.513-9.487Q403-378.975 403-393v-173q0-14.45-9.487-24.225Q384.025-600 370-600H267q-14.45 0-24.225 9.775Q233-580.45 233-566v173q0 14.025 9.775 23.513Q252.55-360 267-360Zm16-33v-70h70v70h-70Zm0-103v-71h70v71h-70Zm183 136h50v-90l84 90h66L554-480l112-120h-66l-84 90v-90h-50v240Zm210-40h40v-63h64v-33h-64v-64h-40v64h-63v33h63v63ZM180-120q-24 0-42-18t-18-42v-600q0-24 18-42t42-18h600q24 0 42 18t18 42v600q0 24-18 42t-42 18H180Zm0-60h600v-600H180v600Zm0-600v600-600Z"/></svg>