<svg xmlns="http://www.w3.org/2000/svg" width="48" height="48" viewBox="0 -960 960 960"><path d="M810-680v-90h-90v-60h90v-90h60v90h90v60h-90v90h-60ZM626-533q22.5 0 38.25-15.75T680-587q0-22.5-15.75-38.25T626-641q-22.5 0-38.25 15.75T572-587q0 22.5 15.75 38.25T626-533Zm-292 0q22.5 0 38.25-15.75T388-587q0-22.5-15.75-38.25T334-641q-22.5 0-38.25 15.75T280-587q0 22.5 15.75 38.25T334-533Zm146 272q66 0 121.5-35.5T682-393H278q26 61 81 96.5T480-261Zm.266 181q-82.734 0-155.5-31.5t-127.266-86q-54.5-54.5-86-127.266T80-480.266Q80-563 111.599-636q31.6-73 85.77-127 54.17-54 127.401-85.5Q398-880 480-880q45.797 0 88.398 10Q611-860 650-842v152h80v80h128q11 31.417 16.5 63.375T880-480q0 82-31.5 155.23Q817-251.539 763-197.369t-127 85.77Q563-80 480.266-80Z"/></svg>