<svg xmlns="http://www.w3.org/2000/svg" width="48" height="48" viewBox="0 -960 960 960"><path d="M180-120h75v-135H120v75q0 24.75 17.625 42.375T180-120Zm135 0h135v-135H315v135Zm195 0h135v-135H510v135Zm195 0h75q24.75 0 42.375-17.625T840-180v-75H705v135ZM120-705h135v-135h-75q-24.75 0-42.375 17.625T120-780v75Zm0 195h135v-135H120v135Zm0 195h135v-135H120v135Zm195-390h135v-135H315v135Zm0 195h135v-135H315v135Zm0 195h135v-135H315v135Zm195-390h135v-135H510v135Zm0 195h135v-135H510v135Zm0 195h135v-135H510v135Zm195-390h135v-75q0-24.75-17.625-42.375T780-840h-75v135Zm0 195h135v-135H705v135Zm0 195h135v-135H705v135Z"/></svg>