<svg xmlns="http://www.w3.org/2000/svg" width="48" height="48" viewBox="0 -960 960 960"><path d="M397-524q16.575 0 27.788-11.213Q436-546.425 436-563t-11.212-27.787Q413.575-602 397-602q-16.575 0-27.788 11.213Q358-579.575 358-563t11.212 27.787Q380.425-524 397-524Zm0 167q16.575 0 27.788-11.212Q436-379.425 436-396q0-16.575-11.212-27.788Q413.575-435 397-435q-16.575 0-27.788 11.212Q358-412.575 358-396q0 16.575 11.212 27.788Q380.425-357 397-357ZM268-539q9.6 0 16.8-7.2 7.2-7.2 7.2-16.8 0-9.6-7.2-16.8-7.2-7.2-16.8-7.2-9.6 0-16.8 7.2-7.2 7.2-7.2 16.8 0 9.6 7.2 16.8 7.2 7.2 16.8 7.2Zm128.571 296q9.429 0 16.929-7.2 7.5-7.2 7.5-16.8 0-9.6-7.286-16.8-7.285-7.2-17-7.2Q387-291 380-283.8q-7 7.2-7 16.8 0 9.6 7.071 16.8 7.072 7.2 16.5 7.2ZM268-372q9.6 0 16.8-7.2 7.2-7.2 7.2-16.8 0-9.6-7.2-16.8-7.2-7.2-16.8-7.2-9.6 0-16.8 7.2-7.2 7.2-7.2 16.8 0 9.6 7.2 16.8 7.2 7.2 16.8 7.2Zm129-296q9.6 0 16.8-7.2 7.2-7.2 7.2-16.8 0-9.6-7.2-16.8-7.2-7.2-16.8-7.2-9.6 0-16.8 7.2-7.2 7.2-7.2 16.8 0 9.6 7.2 16.8 7.2 7.2 16.8 7.2Zm167 144q16.575 0 27.787-11.213Q603-546.425 603-563t-11.213-27.787Q580.575-602 564-602t-27.787 11.213Q525-579.575 525-563t11.213 27.787Q547.425-524 564-524Zm0-144q9.6 0 16.8-7.2 7.2-7.2 7.2-16.8 0-9.6-7.2-16.8-7.2-7.2-16.8-7.2-9.6 0-16.8 7.2-7.2 7.2-7.2 16.8 0 9.6 7.2 16.8 7.2 7.2 16.8 7.2Zm129 296q9.6 0 16.8-7.2 7.2-7.2 7.2-16.8 0-9.6-7.2-16.8-7.2-7.2-16.8-7.2-9.6 0-16.8 7.2-7.2 7.2-7.2 16.8 0 9.6 7.2 16.8 7.2 7.2 16.8 7.2Zm0-167q9.6 0 16.8-7.2 7.2-7.2 7.2-16.8 0-9.6-7.2-16.8-7.2-7.2-16.8-7.2-9.6 0-16.8 7.2-7.2 7.2-7.2 16.8 0 9.6 7.2 16.8 7.2 7.2 16.8 7.2ZM480-80q-83 0-156-31.5T197-197q-54-54-85.5-127T80-480q0-83 31.5-156T197-763q54-54 127-85.5T480-880q83 0 156 31.5T763-763q54 54 85.5 127T880-480q0 83-31.5 156T763-197q-54 54-127 85.5T480-80Zm.5-60q140.5 0 240-99.5T820-480q0-141-99.5-240.5t-240-99.5Q340-820 240-720.5T140-480q0 141 100 240.5T480.5-140ZM564-243q9.6 0 16.8-7.2 7.2-7.2 7.2-16.8 0-9.6-7.2-16.8-7.2-7.2-16.8-7.2-9.6 0-16.8 7.2-7.2 7.2-7.2 16.8 0 9.6 7.2 16.8 7.2 7.2 16.8 7.2Zm0-114q16.575 0 27.787-11.212Q603-379.425 603-396q0-16.575-11.213-27.788Q580.575-435 564-435t-27.787 11.212Q525-412.575 525-396q0 16.575 11.213 27.788Q547.425-357 564-357Zm-84-123Z"/></svg>