<svg xmlns="http://www.w3.org/2000/svg" width="48" height="48" viewBox="0 -960 960 960"><path d="M450-80v-120H160v-60h640v60H510v120h-60ZM325.175-503q12.825 0 21.325-8.675 8.5-8.676 8.5-21.5 0-12.825-8.675-21.325-8.676-8.5-21.5-8.5-12.825 0-21.325 8.675-8.5 8.676-8.5 21.5 0 12.825 8.675 21.325 8.676 8.5 21.5 8.5Zm310 0q12.825 0 21.325-8.675 8.5-8.676 8.5-21.5 0-12.825-8.675-21.325-8.676-8.5-21.5-8.5-12.825 0-21.325 8.675-8.5 8.676-8.5 21.5 0 12.825 8.675 21.325 8.676 8.5 21.5 8.5ZM200-616l66-192q5-14 16.5-23t25.5-9h344q14 0 25.5 9t16.5 23l66 192v272q0 10.5-6.75 17.25T736-320h-12q-10.5 0-17.25-6.75T700-344v-64H260v64q0 10.5-6.75 17.25T236-320h-12q-10.5 0-17.25-6.75T200-344v-272Zm77-42h407l-41-122H317l-40 122Z"/></svg>