<svg xmlns="http://www.w3.org/2000/svg" width="48" height="48" viewBox="0 -960 960 960"><path d="m140-840 74 152h130l-74-152h89l74 152h130l-74-152h89l74 152h130l-74-152h112q24 0 42 18t18 42v600q0 24-18 42t-42 18H140q-24 0-42-18t-18-42v-600q0-24 18-42t42-18Zm0 212v448h680v-448H140Zm0 0v448-448Zm180 388h320v-32q0-42-42.5-65T480-360q-75 0-117.5 23T320-272v32Zm160-180q30.525 0 52.263-21.737Q554-463.475 554-494t-21.737-52.263Q510.525-568 480-568t-52.263 21.737Q406-524.525 406-494t21.737 52.263Q449.475-420 480-420Z"/></svg>