<svg xmlns="http://www.w3.org/2000/svg" width="48" height="48" viewBox="0 -960 960 960"><path d="M680-330q-50 0-85-35t-35-85q0-50 35-85t85-35q50 0 85 35t35 85q0 50-35 85t-85 35ZM440-50v-116q0-21 10-39.5t28-29.5q28-17 58-29.5t62-20.5l82 106 82-106q32 8 61.5 20.5T881-235q18 11 28.5 29.5T920-166v116H440Zm-60-116v46H180q-24.75 0-42.375-17.625T120-180v-600q0-24.75 17.625-42.375T180-840h600q24.75 0 42.375 17.625T840-780v247q-23-45-66-71t-94-26v-50H280v60h341q-38 14-67.5 43T510-510H280v60h220q0 31 10 59t28 51H280v60h157q-27 20-42 50.5T380-166Z"/></svg>