<svg xmlns="http://www.w3.org/2000/svg" width="48" height="48" viewBox="0 -960 960 960"><path d="M400.08-734q-30.08 0-51.58-21.42-21.5-21.421-21.5-51.5 0-30.08 21.42-51.58 21.421-21.5 51.5-21.5 30.08 0 51.58 21.42 21.5 21.421 21.5 51.5 0 30.08-21.42 51.58-21.421 21.5-51.5 21.5Zm259.779 504Q706-230 738-261.859q32-31.859 32-78T738.141-418q-31.859-32-78-32T582-418.141q-32 31.859-32 78T581.859-262q31.859 32 78 32ZM864-94 757-201q-22 15-46.324 23-24.325 8-50.676 8-70.833 0-120.417-49.618Q490-269.235 490-340.118 490-411 539.618-460.5q49.617-49.5 120.5-49.5Q731-510 780.5-460.417 830-410.833 830-340q0 26.351-8 50.676Q814-265 799-243l107 107-42 42ZM447-80v-173q10 25 25 46.5t35 38.5v88h-60Zm-154 0v-533q-64.033-4.583-127.017-13.292Q103-635 40-650l15-60q85.268 20 171.044 28.5 85.776 8.5 174.09 8.5 88.314 0 174.09-8.5Q660-690 745-710l15 60q-63 15-125.983 23.708Q571.033-617.583 507-613v101q-35 32-56 76.5T430-340h-77v260h-60Z"/></svg>