<svg xmlns="http://www.w3.org/2000/svg" width="48" height="48" viewBox="0 -960 960 960"><path d="M450-141q-121-11-205.5-100T160-455q0-66 25-122.5T254-678l226-222 226 222q38 38 62 85t30 102h-59.83q-5.17-42-23.67-77T666-633L480-816 294-633q-36 36-55 80t-19 98q0 100 66.5 171T450-202.389V-141Zm29-368Zm55 159-20-46q25-13 51.5-21t54.942-8q22.558 0 44.058 5.5T707-406q18 8 37.5 14t39.27 6q22.736 0 44.483-7Q850-400 870-411l20 46q-25 13-51.5 21t-54.942 8Q761-336 739.5-341.5T697-355q-18-8-37.5-14t-39.27-6q-22.736 0-44.483 7Q554-361 534-350Zm0 130-20-46q25-13 51.5-21t54.942-8q22.558 0 44.058 5.5T707-276q18 8 37.5 14t39.27 6q22.736 0 44.483-7Q850-270 870-281l20 46q-25 13-51.5 21t-54.942 8Q761-206 739.5-211.5T697-225q-18-8-37.5-14t-39.27-6q-22.736 0-44.483 7Q554-231 534-220Zm0 130-20-46q25-13 51.5-21t54.942-8q22.558 0 44.058 5.5T707-146q18 8 37.5 14t39.27 6q22.736 0 44.483-7Q850-140 870-151l20 46q-25 13-51.5 21t-54.942 8Q761-76 739.5-81.5T697-95q-18-8-37.5-14t-39.27-6q-22.736 0-44.483 7Q554-101 534-90Z"/></svg>