<svg xmlns="http://www.w3.org/2000/svg" width="48" height="48" viewBox="0 -960 960 960"><path d="M480.5-330Q418-330 374-374.062 330-418.125 330-480q0-63 44.062-106.5Q418.125-630 480-630q63 0 106.5 43.5t43.5 106q0 62.5-43.5 106.5t-106 44Zm-.5-60q38 0 64-26.438 26-26.437 26-63.562 0-38-26-64t-63.5-26q-37.5 0-64 26T390-480.5q0 37.5 26.438 64Q442.875-390 480-390ZM681-80q18-56 29-109.5t16-79.5q-51 58-116 84.5T480-158q-136 0-238.5-19.5T80-214v-64q56 18 110.5 29t80.5 16q-55-45-84-113.5T158-480q0-137 19.5-239T214-880h64q-18 56-28.5 109.5T235-691q48-55 114-83t131-28q137 0 239 19.5T880-746v64q-56-18-109.5-29T691-726q57 49 84 115t27 131q0 137-19.5 239T746-80h-65ZM479.882-218Q589-218 665.5-294.382q76.5-76.383 76.5-185.5Q742-589 665.618-665.5q-76.383-76.5-185.5-76.5Q371-742 294.5-665.618q-76.5 76.383-76.5 185.5Q218-371 294.382-294.5q76.383 76.5 185.5 76.5Z"/></svg>