<svg xmlns="http://www.w3.org/2000/svg" width="48" height="48" viewBox="0 -960 960 960"><path d="M240-120v-40l60-40q-59 0-99.5-40.5T160-340v-380q0-83 77-121.5T480-880q172 0 246 37t74 123v380q0 59-40.5 99.5T660-200l60 40v40H240Zm-20-425h234v-155H220v155Zm294 0h226v-155H514v155ZM335.059-315Q358-315 374-331.059q16-16.059 16-39T373.941-409q-16.059-16-39-16T296-408.941q-16 16.059-16 39T296.059-331q16.059 16 39 16Zm290 0Q648-315 664-331.059q16-16.059 16-39T663.941-409q-16.059-16-39-16T586-408.941q-16 16.059-16 39T586.059-331q16.059 16 39 16Z"/></svg>