<svg xmlns="http://www.w3.org/2000/svg" width="48" height="48" viewBox="0 -960 960 960"><path d="M480-480ZM80-570v-170q0-24 18-42t42-18h680q24 0 42 18t18 42v260h-60v-260H140v170H80Zm60 410q-24 0-42-18t-18-42v-170h60v170h299v60H140ZM720-60l-81-69q-72-62-95.5-93.5T520-290q0-45 32-77.5t78-32.5q26 0 49.5 12t40.5 35q16-23 39.5-35t50.5-12q45 0 77.5 32.5T920-290q0 36-24.5 68.5T793-123l-73 63Zm0-79 32-28q66-56 87-79.5t21-43.5q0-20-15-35t-35-15q-12.19 0-22.095 5T767-319l-47 44-48-44q-11-11-21.075-16T630-340q-21 0-35.5 15T580-290q0 20 27.5 51t78.5 72l34 28ZM279.936-290Q271-290 264-294t-12-12l-71-144H80v-60h120q8.171 0 15.229 4.636Q222.286-500.727 226-493l54 106 133-266q4-8 11.381-11.5t15.5-3.5q8.119 0 15.619 3.5T467-653l71 143h132v60H520q-9 0-16.125-4T493-466l-54-106-133 266q-3.723 8-10.798 12-7.074 4-15.266 4ZM720-240Z"/></svg>