<svg xmlns="http://www.w3.org/2000/svg" width="48" height="48" viewBox="0 -960 960 960"><path d="M274.235-281Q226-281 192-315.5T158-398H80v-120q0-65 45-110.5T235-674h155v216h161l147-185v-138H575v-60h123q24.75 0 42.375 17.625T758-781v159L580-398H390q0 48-33.765 82.5-33.764 34.5-82 34.5ZM274-341q23 0 39.5-17t16.5-40H218q0 23 16.5 40t39.5 17Zm-74-393v-60h190v60H200Zm564.235 453Q716-281 682-314.765q-34-33.764-34-82Q648-445 681.765-479q33.764-34 82-34Q812-513 846-479.235q34 33.764 34 82Q880-349 846.235-315q-33.764 34-82 34ZM764-341q23 0 39.5-16.5T820-397q0-23-16.5-39.5T764-453q-23 0-39.5 16.5T708-397q0 23 16.5 39.5T764-341ZM520-41 291-157h153v-77l229 115H520v78Z"/></svg>