<svg xmlns="http://www.w3.org/2000/svg" width="48" height="48" viewBox="0 -960 960 960"><path d="M657.609-622Q667-613 679-613q12 0 21-9l73-73q9-9.067 9-21.533Q782-729 773-738q-9-9-21-9t-21 9l-74 74q-9 9-8.5 21t9.109 21ZM110-90q-24.75 0-42.375-17.625T50-150v-600q0-24.75 17.625-42.375T110-810h370v310q0 24.75 17.625 42.375T540-440h230v290q0 24.75-17.625 42.375T710-90H110Zm620-410q-31 0-59.5-10.5T616-538l-21 20q-9 8-21 8.5t-21-8.5q-9-9-9-21t9-21l22-22q-16-24-25.5-51.325Q540-660.651 540-690q0-78.85 55.575-134.425Q651.15-880 730-880h190v190q0 78.85-55.575 134.425Q808.85-500 730-500ZM214-247h60v-275h-60v275Zm166 0h60v-406h-60v406Zm166 0h60v-148h-60v148Z"/></svg>