<svg xmlns="http://www.w3.org/2000/svg" width="48" height="48" viewBox="0 -960 960 960"><path d="M450-197h60v-135h135v-60H510v-135h-60v135H315v60h135v135ZM220-80q-24.75 0-42.375-17.625T160-140v-434q0-24.75 17.625-42.375T220-634h70v-96q0-78.85 55.606-134.425Q401.212-920 480.106-920T614.5-864.425Q670-808.85 670-730v96h70q24.75 0 42.375 17.625T800-574v434q0 24.75-17.625 42.375T740-80H220Zm130-554h260v-96q0-54.167-37.882-92.083-37.883-37.917-92-37.917Q426-860 388-822.083 350-784.167 350-730v96Z"/></svg>