<svg xmlns="http://www.w3.org/2000/svg" width="48" height="48" viewBox="0 -960 960 960"><path d="m337-214 88-140h-53v-105l-87 140h52v105ZM220-552h269v-228H220v228Zm0 372h269v-312H220v312Zm-60 60v-660q0-24 18-42t42-18h269q24 0 42 18t18 42v288h65q20.714 0 35.357 14.643T664-442v219q0 22 17.5 36.5T722-172q23 0 43-14.5t20-36.5v-387h-15q-12.75 0-21.375-8.625T740-640v-90h20v-50h30v50h40v-50h30v50h20v90q0 12.75-8.625 21.375T850-610h-15v386.691Q835-180 801-150t-79.181 30q-44.155 0-75.987-30Q614-180 614-223v-219h-65v322H160Zm329-60H220h269Z"/></svg>