<svg xmlns="http://www.w3.org/2000/svg" width="48" height="48" viewBox="0 -960 960 960"><path d="M480-40q23 0 46-3t46-8q86 67 192.5 46.5T927-119q44-74 30-158t-78-142v-3q64-57 77.5-141T927-721q-37-63-101.5-94.5T689-838q-32-57-87.5-89.5T480-960q-66 0-121.5 32.5T271-838q-72-9-136.5 22.5T33-721q-43 74-29.5 158T81-422v3Q17-361 3-277t30 158Q89-25 195.5-4.5T388.414-51Q411-46 434-43t46 3Zm0-60q-142.375 0-241.188-98.812Q140-297.625 140-440q0-124 77-216.5T411-773q-1 6-1 11.5v11.5q0 97.837 68.582 166.418Q547.163-515 645-515q45 0 83-14.5t67-39.5q12 30 18.5 62.5T820-440q0 142.375-98.812 241.188Q622.375-100 480-100ZM353.775-343Q331-343 315.5-358.725q-15.5-15.726-15.5-38.5Q300-420 315.725-435.5q15.726-15.5 38.5-15.5Q377-451 392.5-435.275q15.5 15.726 15.5 38.5Q408-374 392.275-358.5q-15.726 15.5-38.5 15.5Zm253 0Q584-343 568.5-358.725q-15.5-15.726-15.5-38.5Q553-420 568.725-435.5q15.726-15.5 38.5-15.5Q630-451 645.5-435.275q15.5 15.726 15.5 38.5Q661-374 645.275-358.5q-15.726 15.5-38.5 15.5Z"/></svg>