<svg viewBox="0 0 1195 1195" xmlns="http://www.w3.org/2000/svg"><path d="M469.333 448l320 224-320 224V448zm533.806-154.924c-22.212-30.292-53.174-65.7-87.178-99.704s-69.412-64.964-99.704-87.178C764.683 68.374 739.665 64 725.333 64h-496c-44.112 0-80 35.888-80 80v864c0 44.112 35.888 80 80 80h736c44.112 0 80-35.888 80-80V384c0-14.332-4.372-39.35-42.194-90.924zm-132.432-54.45c30.7 30.7 54.8 58.398 72.58 81.374H789.333V166.054c22.984 17.78 50.678 41.878 81.374 72.572zM981.333 1008c0 8.672-7.328 16-16 16h-736c-8.672 0-16-7.328-16-16V144c0-8.672 7.328-16 16-16 0 0 495.956-.002 496 0v224c0 17.672 14.326 32 32 32h224v624z"/></svg>