<svg xmlns="http://www.w3.org/2000/svg" width="48" height="48" viewBox="0 -960 960 960"><path d="M870-779q0-44-25-77.5T779-890v-50q62 0 101.5 48T920-779h-50ZM220-40q-75 0-127.5-52.65T40-220h50q0 54 38.071 92Q166.143-90 220-90v50Zm182 0q-27 0-51.5-12.5T311-88L54-468l20-16q17-15 39.5-19t44.573 13.188L280-397v-413q0-12.75 8.675-21.375 8.676-8.625 21.5-8.625 12.825 0 21.325 8.625T340-810v528L166-410l195 288q7 11 17.5 16.5T402-100h288q38 0 64-26t26-64v-580q0-12.75 8.675-21.375 8.676-8.625 21.5-8.625 12.825 0 21.325 8.625T840-770v580q0 63-43.5 106.5T690-40H402Zm45-440v-410q0-12.75 8.675-21.375 8.676-8.625 21.5-8.625 12.825 0 21.325 8.625T507-890v410h-60Zm167 0v-370q0-12.75 8.675-21.375 8.676-8.625 21.5-8.625 12.825 0 21.325 8.625T674-850v370h-60ZM473-290Z"/></svg>