<svg xmlns="http://www.w3.org/2000/svg" width="48" height="48" viewBox="0 -960 960 960"><path d="M679-540 368-851q23-12 50.5-20.5T480-880q95.417 0 162.208 66.792Q709-746.417 709-651q0 30-7.5 59T679-540Zm-15 154-68-68q-23 15-54.574 23.5Q509.852-422 480-422q-95.417 0-162.208-66.792Q251-555.583 251-651q0-29 7.5-59t24.5-57l-60-60 42-42 441 441-42 42ZM831-97v-80h-80v-49h80v-80h49v80h80v49h-80v80h-49ZM527-80v-251h143q22 0 35.5 13t13.5 35v52q0 22-11.5 35T676-175l39 95h-53l-35-89h-52v89h-48Zm48-137h96v-66h-96v66ZM0-80v-251h48v87h93v-87h48v251h-48v-116H48v116H0Zm263 0v-251h140q22 0 35 13t13 35v155q0 22-13 35t-35 13H263Zm48-48h92v-155h-92v155Zm520 31v-80h-80v-49h80v-80h49v80h80v49h-80v80h-49ZM527-80v-251h143q22 0 35.5 13t13.5 35v52q0 22-11.5 35T676-175l39 95h-53l-35-89h-52v89h-48Zm48-137h96v-66h-96v66ZM0-80v-251h48v87h93v-87h48v251h-48v-116H48v116H0Zm263 0v-251h140q22 0 35 13t13 35v155q0 22-13 35t-35 13H263Zm48-48h92v-155h-92v155Z"/></svg>