<svg xmlns="http://www.w3.org/2000/svg" width="48" height="48" viewBox="0 -960 960 960"><path d="M215.955-455Q244-455 264-467.75T284-506q0-26-19.955-39t-48-13Q188-558 168-544.8t-20 38.5q0 25.3 19.955 38.3 19.955 13 48 13ZM80-616v-33h114v-57h42v57h115v33H80Zm135.526 195Q171-421 139-443.194 107-465.389 107-506q0-41.556 32.031-63.278Q171.061-591 216-591q45 0 77.5 21.722T326-506q0 41.556-32.5 63.278T215.526-421ZM148-260v-130h43v96h264v34H148Zm245-105v-341h41v150h69v34h-68v157h-42Zm311 45q32.494 0 63.247-15T824-377.508V-499q-29 4-51 8.5T731-480q-50 15.782-75 39.455-25 23.672-25 55.236Q631-356 650.909-338q19.909 18 53.091 18Zm-14 51q-54 0-86.5-31T571-383q0-50 34-83.5T709.719-520Q732-526 760.5-531.5T824-542q0-56-18.5-82.5T739-651q-26 0-53 9.5T621-609l-25-43q35-24 75-37.5t80-13.5q69 0 101 42.5T884-540v262h-50l-6-49q-30 28-66.5 43T690-269Z"/></svg>