<svg xmlns="http://www.w3.org/2000/svg" width="48" height="48" viewBox="0 -960 960 960"><path d="M140-80q-24 0-42-18t-18-42v-500q0-24 18-42t42-18h142l89-100h79q-3 15-5 32.029-2 17.029-2 32.971 0 21.474 4.5 46.737T463-640H140v500h680v-285q13.574-13.831 29.787-30.915Q866-473 880-490v350q0 24-18 42t-42 18H140Zm330-125q66 0 127.5-46.5T653-395q-18-17-40-36.5T571-471q13 17 18.5 37t5.5 44q0 52-36.5 88.5T470-265q-52.5 0-88.75-36.25T345-390q0-52 36.5-88.5T470-515q29 0 54 11t47 33q-20-25-38.5-50.5T497-573q-97-4-154.5 47.5T285-390q0 79 53 132t132 53Zm250-213q109.404-92.816 163.202-172.116Q937-669.415 937-737q0-103-65.575-163-65.574-60-151.5-60Q634-960 568.5-900 503-840 503-737q0 67.585 53.798 146.884Q610.596-510.816 720-418Zm0-78q-102.05-95.619-129.525-154.162Q563-708.704 563-737q0-79.536 50-121.268T720-900q57 0 107 41.628t50 120.967q0 28.405-27.475 87.029Q822.05-591.752 720-496Zm-59-153 22-73-60-49h73l24-72 24 72h73l-60 49 23 73-60-45-59 45ZM480-390Zm240-308Z"/></svg>