<svg xmlns="http://www.w3.org/2000/svg" width="48" height="48" viewBox="0 -960 960 960"><path d="M480-60q-78-69-170.5-106T120-203v-429q94 0 186.5 43T480-469q81-77 173.5-120T840-632v429q-97 0-189.5 37T480-60Zm0-77q71-51 146.5-81.5T780-257v-310q-68 11-143.5 54.5T480-392q-88-81-160-123t-140-52v310q78 8 153.5 38.5T480-137Zm3-475q-65 0-109.5-44.5T329-766q0-65 44.5-109.5T483-920q65 0 109.5 44.5T637-766q0 65-44.5 109.5T483-612Zm.159-60Q522-672 549.5-699.659q27.5-27.66 27.5-66.5Q577-805 549.341-832.5q-27.66-27.5-66.5-27.5Q444-860 416.5-832.341q-27.5 27.66-27.5 66.5Q389-727 416.659-699.5q27.66 27.5 66.5 27.5ZM482-768Zm-2 416Z"/></svg>