<svg xmlns="http://www.w3.org/2000/svg" width="48" height="48" viewBox="0 -960 960 960"><path d="M623-441 506-559q24-8 39-28.5t15-46.5q0-33-23.5-56.5T480-714q-26 0-47 15t-29 39L268-796q16-14 35.5-22.5T346-827q6 0 12.5.5t12.5.5q14-35 43.5-56.5T480-904q36 0 65.5 21.5T589-826q6 0 12.5-.5t12.5-.5q48 0 81.5 34t33.5 82q0 20-7.5 39.5T699-634q14 18 22 37.5t8 39.5q0 46-30.5 79T623-441ZM824-69 724-169q-50 48-113 76.5T480-64q0-69 28-131.5T584-308l-63-64q-10 4-20 6t-21 2q-36 0-65.5-21.5T371-442q-6 0-12.5.5t-12.5.5q-48 0-82-34t-34-82q0-19 8-38.5t22-37.5L85-807l43-43 739 738-43 43Zm-344 5q-70 0-135-30t-115-80q-50-50-80-115t-30-135q70 0 135 30t115 80q50 50 80 115t30 135Zm319-202L682-383q37-20 76.5-30.5T840-424q0 42-10.5 81.5T799-266Z"/></svg>