<svg xmlns="http://www.w3.org/2000/svg" width="48" height="48" viewBox="0 -960 960 960"><path d="M143-160q-25 0-44-18.5T80-220v-520q0-23 18-41.5t42-18.5h680q23 0 41.5 18.5T880-740v210h-60v-150L480-463 140-680v460h530v60H143Zm337-367 340-213H140l340 213ZM140-220v-520 520Zm625 60q-14 0-24.5-10.5T730-195v-120q0-14 11.5-24.5T770-350v-45q0-30.938 22.044-52.969 22.045-22.031 53-22.031Q876-470 898-447.969q22 22.031 22 52.969v45q17 0 28.5 10.5T960-315v120q0 14-10.5 24.5T925-160H765Zm35-190h90v-44.912Q890-414 877.088-427q-12.913-13-32-13Q826-440 813-427.062 800-414.125 800-395v45Z"/></svg>