<svg xmlns="http://www.w3.org/2000/svg" width="48" height="48" viewBox="0 -960 960 960"><path d="M233-360h50v-190h57v127h50v-127h56v190h50v-206q0-14.45-9.487-24.225Q477.025-600 463-600H266q-14.025 0-23.512 9.775Q233-580.45 233-566v206Zm317 0h50v-63h93q14.025 0 23.513-9.487Q726-441.975 726-456v-110q0-14.45-9.487-24.225Q707.025-600 693-600H550v240Zm50-113v-77h76v77h-76ZM180-120q-24 0-42-18t-18-42v-600q0-24 18-42t42-18h600q24 0 42 18t18 42v600q0 24-18 42t-42 18H180Zm0-60h600v-600H180v600Zm0-600v600-600Z"/></svg>