<svg xmlns="http://www.w3.org/2000/svg" width="48" height="48" viewBox="0 -960 960 960"><path d="M480-80q-83 0-141.5-58.5T280-280v-400q0-83 58.5-141.5T480-880q83 0 141.5 58.5T680-680v200H540q-24.75 0-42.375 17.625T480-420v20q-33 0-56.5 23.5T400-320q0 32 23.5 55t56.5 25v160Zm100 0v-13q0-48 46.818-68t103-20Q786-181 833-161t47 68v13H580Zm149.911-160Q701-240 680.5-260.589q-20.5-20.588-20.5-49.5Q660-339 680.589-359.5q20.588-20.5 49.5-20.5Q759-380 779.5-359.411q20.5 20.588 20.5 49.5Q800-281 779.411-260.5q-20.588 20.5-49.5 20.5Zm-249.823-35Q461-275 448-287.912q-13-12.913-13-32Q435-339 447.912-352q12.913-13 32-13Q499-365 512-352.088q13 12.913 13 32Q525-301 512.088-288q-12.913 13-32 13ZM480-560q33 0 56.5-23.5T560-640q0-33-23.5-56.5T480-720q-33 0-56.5 23.5T400-640q0 33 23.5 56.5T480-560Z"/></svg>