<svg xmlns="http://www.w3.org/2000/svg" width="48" height="48" viewBox="0 -960 960 960"><path d="M449-180h60v-81q85-11 144.5-74T713-486h-60q0 67-50.5 116.5T480.159-320q-71.84 0-123-49.5Q306-419 306-486h-60q0 88 59 151t144 74v81Zm31-240q29 0 47.5-18.5T546-486v-174q0-29-18.5-47.5T480-726q-29 0-48 18.5T413-660v174q0 29 19 47.5t48 18.5ZM140-120q-24 0-42-18t-18-42v-513q0-23 18-41.5t42-18.5h147l73-87h240l73 87h147q23 0 41.5 18.5T880-693v513q0 24-18.5 42T820-120H140Zm680-60v-513H645l-73-87H388l-73 87H140v513h680ZM480-437Z"/></svg>