<svg xmlns="http://www.w3.org/2000/svg" width="48" height="48" viewBox="0 -960 960 960"><path d="m671-361 207-207 42 42-207 207-42-42ZM30-170v-115q0-21.699 12.42-39.781Q54.84-342.863 76-351q26.339-9.867 50.169-23.433Q150-388 172-406l47 47q3 5 10 5t11.909-4.909Q245-363 244.5-369.5 244-376 241-381l-43-44q10-8 18.804-17.375Q225.609-451.75 235-463l43 43q3 5 10 5t12.25-5.25Q304-424 303.5-430.5T300-442l-45-45 16-22q8-11 13-25l52 54q3 6 10 5.5t12.25-5.75Q362-484 362-490.261q0-6.261-3-11.739l-62-61 62-110 207-207 284 284-426 426H30Zm369-60 367-366-367 366Zm-307 0h307l367-366-200-200-159 160-34 63 24 25q22 24 24 55t-20 53L279-318q-22.133 22-52.567 22Q196-296 175-318l-10-10q-18 10.8-36 18.9-18 8.1-37 16.1v63Z"/></svg>