<svg xmlns="http://www.w3.org/2000/svg" width="48" height="48" viewBox="0 -960 960 960"><path d="M180-120q-24.75 0-42.375-17.625T120-180v-600q0-24.75 17.625-42.375T180-840h600q24.75 0 42.375 17.625T840-780v600q0 24.75-17.625 42.375T780-120H180Zm0-60h600v-520H180v520Zm300.041-105Q400-285 337-328.152q-63-43.151-92-112Q274-509 336.959-552t143-43Q560-595 623-551.849q63 43.152 92 112.001Q686-371 623.041-328t-143 43Zm-.159-105Q459-390 444.5-404.618q-14.5-14.617-14.5-35.5Q430-461 444.618-475.5q14.617-14.5 35.5-14.5Q501-490 515.5-475.382q14.5 14.617 14.5 35.5Q530-419 515.382-404.5q-14.617 14.5-35.5 14.5Zm.118 30q33.6 0 56.8-23.2Q560-406.4 560-440q0-33.6-23.2-56.8Q513.6-520 480-520q-33.6 0-56.8 23.2Q400-473.6 400-440q0 33.6 23.2 56.8Q446.4-360 480-360Z"/></svg>