<svg xmlns="http://www.w3.org/2000/svg" width="48" height="48" viewBox="0 -960 960 960"><path d="M240-80v-172q-57-52-88.5-121.5T120-520q0-150 105-255t255-105q125 0 221.5 73.5T827-615l55 218q4 14-5 25.5T853-360h-93v140q0 24.75-17.625 42.375T700-160H600v80h-60v-140h160v-200h114l-45-180q-24-97-105-158.5T480-820q-125 0-212.5 86.5T180-522.46q0 64.417 26.324 122.392Q232.649-342.092 281-297l19 18v199h-60Zm257-370Zm-48 76h60l3-44q12-2 22.472-8.462Q544.944-432.923 553-441l42 14 28-48-30-24q5-14 5-29t-5-29l30-24-28-48-42 14q-8.333-7.692-19.167-13.846Q523-635 512-638l-3-44h-60l-3 44q-11 3-21.833 9.154Q413.333-622.692 405-615l-42-14-28 48 30 24q-5 14-5 29t5 29l-30 24 28 48 42-14q8.056 8.077 18.528 14.538Q434-420 446-418l3 44Zm30.118-84Q450-458 429.5-478.382q-20.5-20.383-20.5-49.5Q409-557 429.382-577.5q20.383-20.5 49.5-20.5Q508-598 528.5-577.618q20.5 20.383 20.5 49.5Q549-499 528.618-478.5q-20.383 20.5-49.5 20.5Z"/></svg>