<svg xmlns="http://www.w3.org/2000/svg" width="48" height="48" viewBox="0 -960 960 960"><path d="M478-80q-83 0-156-31.5T195-197q-54-54-85.5-127T78-480q0-83 31.5-156T195-763q54-54 127-85.5T478-880q88 0 166.5 36T780-742L478-440v-380q-142 0-241 98.812Q138-622.375 138-480t98.812 241.188Q335.625-140 478-140q81 0 153.5-36.5T757-276v83q-57 54-129 83.5T478-80Zm339-147v-327h60v327h-60Zm33.018 140Q836-87 826.5-96.483q-9.5-9.482-9.5-23.499 0-14.018 9.482-23.518 9.483-9.5 23.5-9.5 14.018 0 23.518 9.482 9.5 9.483 9.5 23.5Q883-106 873.518-96.5q-9.483 9.5-23.5 9.5Z"/></svg>