<svg xmlns="http://www.w3.org/2000/svg" width="48" height="48" viewBox="0 -960 960 960"><path d="M240-240v-480h480v480H240Zm60-60h360v-360H300v360ZM180-120q-24 0-42-18t-18-42h60v60Zm-60-660q0-24 18-42t42-18v60h-60Zm120 660v-60h125v60H240Zm0-660v-60h125v60H240Zm185 660v-60h110v60H425Zm0-660v-60h110v60H425Zm170 660v-60h125v60H595Zm0-660v-60h125v60H595Zm185 660v-60h60q0 24-18 42t-42 18Zm0-660v-60q24 0 42 18t18 42h-60ZM120-240v-125h60v125h-60Zm0-185v-111h60v111h-60Zm0-171v-124h60v124h-60Zm660 356v-125h60v125h-60Zm0-185v-111h60v111h-60Zm0-171v-124h60v124h-60Z"/></svg>