<svg xmlns="http://www.w3.org/2000/svg" width="48" height="48" viewBox="0 -960 960 960"><path d="M479.956-405Q449-405 427-427.044q-22-22.045-22-53Q405-511 427.044-533q22.045-22 53-22Q511-555 533-532.956q22 22.045 22 53Q555-449 532.956-427q-22.045 22-53 22ZM480-120q-150 0-255-105.5T120-481h60q0 125 87.5 213T480-180q125.357 0 212.679-87.321Q780-354.643 780-480t-87.321-212.679Q605.357-780 480-780q-69 0-129 30.5T246-667h104v60H142v-208h60v106q53-62 125.216-96.5T480-840q75 0 140.5 28.5t114 77q48.5 48.5 77 114T840-480q0 75-28.5 140.5t-77 114q-48.5 48.5-114 77T480-120Z"/></svg>