<svg xmlns="http://www.w3.org/2000/svg" width="48" height="48" viewBox="0 -960 960 960"><path d="M40-471v-244h83v-175q0-14 8-22t22-8q14 0 22 8t8 22v175h83v244H40Zm83 431v-170q-34-13-58.5-42.5T40-317v-94h226v94q0 35-24 64.5T183-210v170h-60Zm244-431v-244h83v-175q0-14 8-22t22-8q14 0 22 8t8 22v175h83v244H367Zm83 431v-170q-34-13-58.5-42.5T367-317v-94h226v94q0 35-24 64.5T510-210v170h-60Zm244-431v-244h83v-175q0-14 8-22t22-8q14 0 22 8t8 22v175h83v244H694Zm83 431v-170q-34-13-58.5-42.5T694-317v-94h226v94q0 35-24.5 64.5T837-210v170h-60Z"/></svg>