<svg xmlns="http://www.w3.org/2000/svg" width="48" height="48" viewBox="0 -960 960 960"><path d="M150-160q-28.875 0-49.438-20.562Q80-201.125 80-230v-450h60v460h580v60H150Zm160-160q-28.875 0-49.438-20.562Q240-361.125 240-390v-340q0-28.875 20.562-49.438Q281.125-800 310-800h348l-60 60H300v360h520v-298l60-60v348q0 28.875-20.562 49.438Q838.875-320 810-320H310Zm230-169q-21 0-39-9t-31-26q14 0 24.5-10.5T505-559q0-21.667 15.441-36.833Q535.882-611 557.941-611 580-611 595-595.758q15 15.242 15 37.016Q610-530 589.438-509.5 568.875-489 540-489Zm119-114-57-57 175-173q4.636-5 10.818-5 6.182 0 11.071 4.889l34.222 34.222Q838-794 838-787.818q0 6.182-5 10.818L659-603Z"/></svg>