<svg xmlns="http://www.w3.org/2000/svg" width="48" height="48" viewBox="0 -960 960 960"><path d="M250-120v-352q-52-14-91-53t-39-95q0-53 30.5-94t78.5-57q23-48 68.5-78T400-879q35 0 65.5 12t55.5 32q10-2 19-3.5t20-1.5q66 0 113 47t47 113q0 22-9 44t-23 36h92q25 0 42.5 17.5T840-540v280q0 25-17.5 42.5T780-200H670v80H250Zm-70-500q0 38 31 64t69 26q32 0 58-17.5t53-50.5q23-28 55-50t74-22h140q0-45-26.5-77.5T560-780q-18 0-35.5 5.5L507-769l-19-16q-18-16-41-25t-47-9q-35 0-67 18t-47 50l-14 30-32 11q-26 9-43 35.5T180-620Zm490 360h110v-280H670v280Z"/></svg>