<svg xmlns="http://www.w3.org/2000/svg" width="48" height="48" viewBox="0 -960 960 960"><path d="M482-482ZM371-185 184-372q-8 42-6 96.5t10 83.5q29 8 85 11.5t98-4.5Zm74-11q62-12 116.5-40t94.572-68.072Q695-343 722.5-395.5T764-515L515-764q-63 14-117.5 41.5T304-656q-39 39-65.5 93.5T196-445l249 249Zm-77-130-42-42 266-266 42 42-266 266Zm408-262q8-42 6-96.5T772-768q-29-8-85-11.5t-98 4.5l187 187ZM296-120q-54 0-96.5-7.5T146-145.522Q135-157 127.5-199.5T120-296q0-125 36-232.5T258-702q66-66 173.423-102Q538.847-840 664-840q54 0 96.5 7.5t53.5 18.022Q825-803 832.5-760.5T840-664q0 125-36 232.5T702-258q-66 66-173.5 102T296-120Z"/></svg>