<svg xmlns="http://www.w3.org/2000/svg" width="48" height="48" viewBox="0 -960 960 960"><path d="M620-420h240v-160H620v160Zm-60 140v-330q0-12.75 8.625-21.375T590-640h300q12.75 0 21.375 8.625T920-610v220q0 12.75-8.625 21.375T890-360H640l-80 80ZM260-40q-24.75 0-42.375-17.625T200-100v-760q0-24.75 17.625-42.375T260-920h440q24.75 0 42.375 17.625T760-860v146h-60v-56H260v580h440v-56h60v146q0 24.75-17.625 42.375T700-40H260Zm0-90v30h440v-30H260Zm0-700h440v-30H260v30Zm0 0v-30 30Zm0 700v30-30Zm360-290v-160 160Z"/></svg>