<svg xmlns="http://www.w3.org/2000/svg" width="48" height="48" viewBox="0 -960 960 960"><path d="M629.823-80Q605-80 587.5-97.677t-17.5-42.5Q570-165 587.677-182.5t42.5-17.5Q655-200 672.5-182.323t17.5 42.5Q690-115 672.323-97.5t-42.5 17.5Zm-390 0Q215-80 197.5-97.677t-17.5-42.5Q180-165 197.677-182.5t42.5-17.5Q265-200 282.5-182.323t17.5 42.5Q300-115 282.323-97.5t-42.5 17.5ZM281-260q-26 0-36.5-23t6.5-43l397-467q17-20 43.5-33.5T746-840q56 0 95 39t39 95v26h-60v-26q0-31-21.5-52.5T746-780q-16.893 0-29.946 8Q703-764 689-748l-29 33v395q0 24.75-17.625 42.375T600-260H281Zm131-317L213-776q36-27 88-42.5T407-834q47 0 93.5 12.5T590-786L412-577Z"/></svg>