<svg xmlns="http://www.w3.org/2000/svg" width="48" height="48" viewBox="0 -960 960 960"><path d="M110-80q-12 0-21-9t-9-21v-327l85-253q5-14 17-22t26-8h125v-73h153q-9 32-8 66.5t9 66.5H218l-54 166h478q23 8 42.5 12t44.5 4q18 0 36-2.5t35-7.5v378q0 12-9 21t-21 9h-21q-12 0-21-9t-9-21v-54H161v54q0 12-9 21t-21 9h-21Zm136-194q23 0 39.5-15.5T302-328q0-23-16.5-39.5T246-384q-23 0-38.5 16.5T192-328q0 23 15.5 38.5T246-274Zm483-264q-79 0-135-56t-56-135q0-80 56-135.5T729-920q80 0 135.5 55.5T920-729q0 79-55.5 135T729-538Zm-95 264q23 0 39.5-15.5T690-328q0-23-16.5-39.5T634-384q-23 0-38.5 16.5T580-328q0 23 15.5 38.5T634-274Zm98-340q9 0 15.5-6t6.5-16q0-10-6.5-16t-15.5-6q-10 0-16 6t-6 16q0 10 6 16t16 6Zm-18-85h35v-143h-35v143Z"/></svg>