<svg xmlns="http://www.w3.org/2000/svg" width="48" height="48" viewBox="0 -960 960 960"><path d="M160-408q0-100 79.5-217.5T480-880q131 111 207.5 209T789-486h-64q-24-69-86-148.5T480-800Q353-688 286.5-587.5T220-408.322Q220-293 294-216.5T480-140q8 0 15-.5t15-1.5v61q-8 1-15 1h-15q-137 0-228.5-94T160-408Zm313-62ZM597-74l-13-29q-8-17-11-34.179-3-17.178-3-34.821 0-21.662 5.5-42.831Q581-236 591-256q8-17 13.5-34.824Q610-308.648 610-328q0-16.395-3.5-31.698Q603-375 596-389l-9-21 36-16 12 28q8 17 11.5 34.362Q650-346.276 650-328q0 20.969-5 40.984Q640-267 631-248q-8.4 17.988-14.7 37.035-6.3 19.046-6.3 39.151 0 14.814 3.5 29.314T623-114l11 24-37 16Zm120 0-13-29q-8-17-11-34.179-3-17.178-3-34.821 0-21.662 5.5-42.831Q701-236 711-256q8-17 13.5-34.824Q730-308.648 730-328q0-16.395-3.5-31.698Q723-375 716-389l-9-21 36-16 12 27q7 17 11 35t4 36q0 20.969-5 40.984Q760-267 751-248q-8.4 17.988-14.7 37.035-6.3 19.046-6.3 39.151 0 14.814 3.5 29.314T743-114l11 24-37 16Zm120 0-13-29q-8-17-11-34.179-3-17.178-3-34.821 0-21.662 5.5-42.831Q821-236 831-256q8-17 13.5-34.824Q850-308.648 850-328q0-16.395-3.5-31.698Q843-375 836-389l-9-21 36-16 13 27q8 17 11 34.812 3 17.813 3 36.563Q890-307 885-287t-14 39q-8.4 18.2-14.7 36.935-6.3 18.736-6.3 39.077 0 14.988 3.5 29.488T863-114l11 24-37 16Z"/></svg>