<svg viewBox="0 0 1195 1195" xmlns="http://www.w3.org/2000/svg"><path d="M924.19 290.286q16 16 27.43 43.429t11.428 50.286v658.286q0 22.857-16 38.857t-38.857 16h-768q-22.857 0-38.857-16t-16-38.857V128.001q0-22.857 16-38.857t38.857-16h512q22.857 0 50.286 11.429t43.43 27.429zM670.476 150.857v214.857h214.857q-5.714-16.571-12.57-23.429L693.904 163.428q-6.857-6.857-23.429-12.571zM889.904 1024V438.857H652.19q-22.857 0-38.857-16t-16-38.857V146.286H158.476V1024h731.43zM359.62 512q4.571-6.286 12-7.143t13.714 3.714l29.143 21.714q6.286 4.571 7.143 12t-3.714 13.714l-104 138.857 104 138.857q4.571 6.286 3.714 13.714t-7.143 12l-29.143 21.714q-6.286 4.571-13.714 3.714t-12-7.143l-129.143-172q-8-10.857 0-21.714zm458.285 172q8 10.857 0 21.714l-129.143 172q-4.57 6.286-12 7.143t-13.714-3.714l-29.143-21.714q-6.286-4.571-7.143-12t3.714-13.714l104-138.857-104-138.857q-4.57-6.286-3.714-13.714t7.143-12l29.143-21.714q6.286-4.571 13.714-3.714t12 7.143zM463.62 947.429q-7.429-1.143-11.714-7.429t-3.143-13.714l78.857-474.857q1.143-7.429 7.43-11.714t13.713-3.143l36 5.714q7.43 1.143 11.714 7.429t3.143 13.714l-78.857 474.857q-1.143 7.429-7.429 11.714t-13.714 3.143z"/></svg>