<svg viewBox="0 0 1195 1195" xmlns="http://www.w3.org/2000/svg"><path d="M924.19 290.286q16 16 27.43 43.429t11.428 50.286v658.286q0 22.857-16 38.857t-38.857 16h-768q-22.857 0-38.857-16t-16-38.857V128.001q0-22.857 16-38.857t38.857-16h512q22.857 0 50.286 11.429t43.43 27.429zM670.476 150.857v214.857h214.857q-5.714-16.571-12.57-23.429L693.904 163.428q-6.857-6.857-23.429-12.571zM889.904 1024V438.857H652.19q-22.857 0-38.857-16t-16-38.857V146.286H158.476V1024h731.43zM218.476 512v61.143h40l93.714 377.714h90.857l73.143-277.143q4-11.429 5.714-26.286 1.143-9.143 1.143-13.714h2.286l1.714 13.714q.571 1.714 2 11.429t3.143 14.857l73.143 277.143h90.857l93.714-377.714h40V512H658.475v61.143h51.43l-56.572 250.286q-2.857 11.429-4 26.286l-1.143 12h-2.286l-1.714-12q-.57-2.857-2.286-12t-2.857-14.286L556.761 512h-65.143l-82.286 311.429q-1.143 5.143-2.57 14t-2 12.286l-2.287 12h-2.286l-1.143-12q-1.143-14.857-4-26.286l-56.57-250.286h51.428V512H218.475z"/></svg>