<svg viewBox="0 0 1195 1195" xmlns="http://www.w3.org/2000/svg"><path d="M924.19 290.286q16 16 27.43 43.429t11.428 50.286v658.286q0 22.857-16 38.857t-38.857 16h-768q-22.857 0-38.857-16t-16-38.857V128.001q0-22.857 16-38.857t38.857-16h512q22.857 0 50.286 11.429t43.43 27.429zM670.476 150.857v214.857h214.857q-5.714-16.571-12.57-23.429L693.904 163.428q-6.857-6.857-23.429-12.571zM889.904 1024V438.857H652.19q-22.857 0-38.857-16t-16-38.857V146.286H158.476V1024h731.43zM323.047 890.286v60.571h186.857v-60.571h-53.143v-95.429h78.286q43.43 0 67.43-8.571 38.285-13.143 60.856-49.714t22.571-83.429q0-46.286-21.143-80.571t-57.143-49.714q-27.429-10.857-74.286-10.857H323.046v61.143h52.571v317.143h-52.57zm201.715-160h-68V577.143h68.571q29.714 0 47.43 10.286 32 18.857 32 65.714 0 50.857-35.43 68.571-17.714 8.571-44.57 8.571z"/></svg>