<svg viewBox="0 0 1195 1195" xmlns="http://www.w3.org/2000/svg"><path d="M924.19 290.286q16 16 27.43 43.429t11.428 50.286v658.286q0 22.857-16 38.857t-38.857 16h-768q-22.857 0-38.857-16t-16-38.857V128.001q0-22.857 16-38.857t38.857-16h512q22.857 0 50.286 11.429t43.43 27.429zM670.476 150.857v214.857h214.857q-5.714-16.571-12.57-23.429L693.904 163.428q-6.857-6.857-23.429-12.571zM889.904 1024V438.857H652.19q-22.857 0-38.857-16t-16-38.857V146.286H158.476V1024h731.43zM439.62 558.857q11.43 4.571 11.43 17.143v310.857q0 12.571-11.43 17.143-4.57 1.143-6.857 1.143-6.857 0-13.143-5.143l-94.857-95.429h-74.857q-8 0-13.143-5.143t-5.143-13.143V676.571q0-8 5.143-13.143t13.143-5.143h74.857l94.857-95.429q9.143-8.571 20-4zm238.285 393.715q17.714 0 28.571-13.714 73.714-90.857 73.714-207.429T706.475 524q-9.143-12-24.57-13.714t-26.858 8q-12 9.714-13.429 24.857t8.286 27.143q57.143 70.286 57.143 161.143t-57.143 161.143q-9.714 12-8.286 27.143t13.43 24.286q10.285 8.571 22.856 8.571zM557.334 868q15.428 0 26.856-11.429 49.714-53.143 49.714-125.143T584.19 606.285q-10.286-10.857-25.714-11.429t-26.286 9.714-11.429 25.429 10.286 26.571q29.714 32.571 29.714 74.857t-29.714 74.857q-10.857 11.429-10.286 26.571t11.43 25.429q11.428 9.714 25.142 9.714z"/></svg>