<svg viewBox="0 0 1195 1195" xmlns="http://www.w3.org/2000/svg"><path d="M924.19 290.286q16 16 27.43 43.429t11.428 50.286v658.286q0 22.857-16 38.857t-38.857 16h-768q-22.857 0-38.857-16t-16-38.857V128.001q0-22.857 16-38.857t38.857-16h512q22.857 0 50.286 11.429t43.43 27.429zM670.476 150.857v214.857h214.857q-5.714-16.571-12.57-23.429L693.904 163.428q-6.857-6.857-23.429-12.571zM889.904 1024V438.857H652.19q-22.857 0-38.857-16t-16-38.857V146.286H158.476V1024h731.43zM330.476 890.286v60.571h160.571v-60.571H448.19l58.857-92q2.857-4 5.714-9.429t4.286-7.714 2-2.286h1.143q.571 2.286 2.857 5.714 1.143 2.286 2.571 4.286t3.43 4.571 3.713 4.857l61.143 92h-43.429v60.571h166.286v-60.571h-38.857l-109.714-156 111.43-161.143h38.285v-61.143H558.476v61.143h42.286l-58.857 90.857q-2.286 4-5.714 9.429t-5.143 7.714l-1.143 1.714h-1.143q-.57-2.286-2.857-5.714-3.429-6.286-9.714-13.143l-60.57-90.857h43.428v-61.143H333.335v61.143h38.857l108 155.429-110.857 161.714h-38.857z"/></svg>