<svg viewBox="0 0 1195 1195" xmlns="http://www.w3.org/2000/svg"><path d="M924.19 290.286q16 16 27.43 43.429t11.428 50.286v658.286q0 22.857-16 38.857t-38.857 16h-768q-22.857 0-38.857-16t-16-38.857V128.001q0-22.857 16-38.857t38.857-16h512q22.857 0 50.286 11.429t43.43 27.429zM670.476 150.857v214.857h214.857q-5.714-16.571-12.57-23.429L693.904 163.428q-6.857-6.857-23.429-12.571zM889.904 1024V438.857H652.19q-22.857 0-38.857-16t-16-38.857V146.286H158.476V1024h731.43zM524.19 512q29.714 0 51.43 21.714t21.713 51.429v219.429q0 29.714-21.714 51.429t-51.429 21.714H304.761q-29.714 0-51.429-21.714t-21.714-51.429V585.143q0-29.714 21.714-51.429T304.762 512H524.19zm281.143 1.143q11.43 4.571 11.43 17.143v329.143q0 12.571-11.43 17.143-4.57 1.143-6.857 1.143-8 0-13.143-5.143l-151.429-152v-51.429l151.43-152Q790.475 512 798.475 512q2.286 0 6.857 1.143z"/></svg>