<svg viewBox="0 0 1195 1195" xmlns="http://www.w3.org/2000/svg">
<path  d="M 1003.14,293.076 C 980.927,262.784 949.965,227.376 915.961,193.372 881.957,159.368 846.549,128.408 816.257,106.194 764.683,68.374 739.665,64 725.333,64 l -496,0 c -44.112,0 -80,35.888 -80,80 l 0,864 c 0,44.112 35.888,80 80,80 l 736,0 c 44.112,0 80,-35.888 80,-80 l 0,-624 c 0,-14.332 -4.372,-39.35 -42.194,-90.924 z m -132.433,-54.45 c 30.7,30.7 54.8,58.398 72.58,81.374 l -153.954,0 0,-153.946 c 22.984,17.78 50.678,41.878 81.374,72.572 z M 981.333,1008 c 0,8.672 -7.328,16 -16,16 l -736,0 c -8.672,0 -16,-7.328 -16,-16 l 0,-864 c 0,-8.672 7.328,-16 16,-16 0,0 495.956,-0.002 496,0 l 0,224 c 0,17.672 14.326,32 32,32 l 224,0 z"/>
 <path d="m 869.92134,745.03716 -196.30763,0 0,246.44034 -121.17757,0 0,-246.44034 -196.30764,0 256.89643,-261.22677 z"/>
</svg>
