<svg viewBox="0 0 1195 1195" xmlns="http://www.w3.org/2000/svg"><path d="M451.047 292.572v-73.143h-73.143v73.143h73.143zm73.143 73.142v-73.143h-73.143v73.143h73.143zm-73.143 73.143v-73.143h-73.143v73.143h73.143zM524.19 512v-73.143h-73.143V512h73.143zm400-221.714q16 16 27.43 43.429t11.428 50.286v658.286q0 22.857-16 38.857t-38.857 16h-768q-22.857 0-38.857-16t-16-38.857V128.001q0-22.857 16-38.857t38.857-16h512q22.857 0 50.286 11.429t43.43 27.429zM670.476 150.857v214.857h214.857q-5.714-16.571-12.57-23.429L693.904 163.428q-6.857-6.857-23.429-12.571zM889.904 1024V438.857H652.19q-22.857 0-38.857-16t-16-38.857V146.286H524.19v73.143h-73.143v-73.143h-292.57V1024h731.428zM531.62 612l61.143 199.429q4.571 15.429 4.571 29.714 0 47.429-41.429 78.571t-104.857 31.143-104.857-31.143-41.429-78.571q0-14.286 4.571-29.714 12-36 68.571-226.286V512h73.143v73.143h45.143q12.571 0 22.286 7.429t13.143 19.429zm-80.572 265.714q30.286 0 51.714-10.857t21.43-25.714-21.43-25.714-51.714-10.857-51.714 10.857-21.429 25.714 21.43 25.714 51.713 10.857z"/></svg>