<svg viewBox="0 0 1195 1195" xmlns="http://www.w3.org/2000/svg"><path d="M924.19 290.286q16 16 27.43 43.429t11.428 50.286v658.286q0 22.857-16 38.857t-38.857 16h-768q-22.857 0-38.857-16t-16-38.857V128.001q0-22.857 16-38.857t38.857-16h512q22.857 0 50.286 11.429t43.43 27.429zM670.476 150.857v214.857h214.857q-5.714-16.571-12.57-23.429L693.904 163.428q-6.857-6.857-23.429-12.571zM889.904 1024V438.857H652.19q-22.857 0-38.857-16t-16-38.857V146.286H158.476V1024h731.43zM596.19 685.143q18.857 14.857 48 32 33.714-4 66.857-4 84 0 101.143 28 9.143 12.571 1.143 29.714 0 .571-.57 1.143l-1.144 1.143v.571q-3.429 21.714-40.57 21.714-27.43 0-65.715-11.429t-74.286-30.286q-126.286 13.714-224 47.429-87.429 149.714-138.286 149.714-8.57 0-16-4l-13.714-6.857q-.57-.571-3.429-2.857-5.714-5.714-3.429-20.571 5.143-22.857 32-52.286t75.43-55.143q8-5.143 13.142 3.429 1.143 1.143 1.143 2.286 29.714-48.571 61.143-112.571 38.857-77.714 59.43-149.714-13.715-46.857-17.43-91.143t3.714-72.857q6.286-22.857 24-22.857h12.571q13.143 0 20 8.571 10.286 12 5.143 38.857-1.143 3.429-2.286 4.571.571 1.714.571 4.571v17.143q-1.143 70.286-8 109.714 31.43 93.714 83.43 136zM267.047 920q29.714-13.714 78.286-90.286-29.143 22.857-50 48T267.047 920zm227.43-525.714q-8.572 24-1.144 75.429.571-4 4-25.143 0-1.714 4-24.571.571-2.286 2.286-4.571-.57-.571-.57-1.143t-.287-.857-.286-.857q-.57-12.571-7.429-20.571 0 .571-.57 1.143v1.143zM423.618 772q77.143-30.857 162.286-46.286-1.143-.571-7.429-5.429t-9.143-7.714Q525.904 674.285 496.763 612q-15.43 49.143-47.43 112.571-17.143 32-25.714 47.429zm369.143-9.143q-13.714-13.714-80-13.714 43.43 16 70.857 16 8 0 10.286-.571 0-.571-1.143-1.714z"/></svg>