<svg viewBox="0 0 1195 1195" xmlns="http://www.w3.org/2000/svg"><path d="M1003.14 421.076c-22.21-30.292-53.175-65.7-87.179-99.704s-69.412-64.964-99.704-87.178C764.683 196.374 739.665 192 725.333 192h-368c-44.114 0-80 35.888-80 80v736c0 44.112 35.886 80 80 80h608c44.112 0 80-35.888 80-80V512c0-14.332-4.372-39.35-42.194-90.924zm-132.433-54.45c30.7 30.7 54.8 58.398 72.58 81.374H789.333V294.054c22.982 17.78 50.678 41.878 81.374 72.572zM981.333 1008c0 8.672-7.328 16-16 16h-608c-8.672 0-16-7.328-16-16V272c0-8.672 7.328-16 16-16 0 0 367.956-.002 368 0v224c0 17.672 14.324 32 32 32h224v496zM688.257 106.196C636.683 68.374 611.665 64 597.333 64h-368c-44.112 0-80 35.888-80 80v736c0 38.632 27.528 70.958 64 78.39V144c0-8.672 7.328-16 16-16H716.21c-9.646-7.92-19.028-15.26-27.952-21.804z"/></svg>