<svg viewBox="0 0 1195 1195" xmlns="http://www.w3.org/2000/svg"><path d="M775.553 535.682c-60.668-28.652-137.97-34.42-194.834 6.048 69.14-6.604 144.958 4.838 195.106 57.124 48-55.08 124.116-65.406 192.958-59.732-57.488-38.144-133.22-33.024-193.23-3.44zM750.98 669.75c-68.376-1.578-134.434 23.172-191.1 60.104-107.176-45.588-242.736-37.124-334.002 38.982 26.33-.934 52.006-7.446 78.056-10.792 95.182-9.488 196.588 14.142 268.512 79.824 29.772-43.542 71.644-78.242 119.652-99.922 63.074-30.52 134.16-33.684 202.82-34.52-41.688-28.648-94.614-33.954-143.938-33.676zm252.16-376.674c-22.21-30.292-53.174-65.7-87.178-99.704s-69.412-64.964-99.704-87.178C764.683 68.374 739.665 64 725.333 64h-496c-44.112 0-80 35.888-80 80v864c0 44.112 35.886 80 80 80h736c44.112 0 80-35.888 80-80V384c0-14.332-4.372-39.35-42.194-90.924zm-132.432-54.45c30.7 30.7 54.8 58.398 72.58 81.374H789.333V166.054c22.982 17.78 50.678 41.878 81.374 72.572zM981.333 1008c0 8.672-7.328 16-16 16h-736c-8.672 0-16-7.328-16-16V144c0-8.672 7.328-16 16-16 0 0 495.956-.002 496 0v224c0 17.672 14.324 32 32 32h224v624z"/></svg>