<svg viewBox="0 0 1344 1344" xmlns="http://www.w3.org/2000/svg"><path d="M1184 320h-64v-64c0-35.2-28.8-64-64-64H160c-35.2 0-64 28.8-64 64v768c0 35.2 28.8 64 64 64h64v64c0 35.2 28.8 64 64 64h896c35.2 0 64-28.8 64-64V384c0-35.2-28.8-64-64-64zm-960 64v640h-63.886a.891.891 0 0 1-.114-.116v-767.77c.034-.04.076-.082.114-.114h895.77c.04.034.082.076.116.116V320H288c-35.2 0-64 28.8-64 64zm960 767.884c-.034.04-.076.082-.116.116h-895.77a.891.891 0 0 1-.114-.116v-767.77c.034-.04.076-.082.114-.114h895.77c.04.034.082.076.116.116v767.768zM1056 544c0 53.02-42.98 96-96 96s-96-42.98-96-96 42.98-96 96-96 96 42.98 96 96zm64 544H352V960l224-384 256 320h64l224-192z"/></svg>