<svg viewBox="0 0 2240 2240" xmlns="http://www.w3.org/2000/svg"><path d="M544 1552v96q0 16-16 16h-96q-16 0-16-16v-96q0-16 16-16h96q16 0 16 16zm128-256v96q0 16-16 16H432q-16 0-16-16v-96q0-16 16-16h224q16 0 16 16zm-128-256v96q0 16-16 16h-96q-16 0-16-16v-96q0-16 16-16h96q16 0 16 16zm1024 512v96q0 16-16 16H688q-16 0-16-16v-96q0-16 16-16h864q16 0 16 16zm-640-256v96q0 16-16 16h-96q-16 0-16-16v-96q0-16 16-16h96q16 0 16 16zm-128-256v96q0 16-16 16h-96q-16 0-16-16v-96q0-16 16-16h96q16 0 16 16zm384 256v96q0 16-16 16h-96q-16 0-16-16v-96q0-16 16-16h96q16 0 16 16zm-128-256v96q0 16-16 16h-96q-16 0-16-16v-96q0-16 16-16h96q16 0 16 16zm384 256v96q0 16-16 16h-96q-16 0-16-16v-96q0-16 16-16h96q16 0 16 16zm384 256v96q0 16-16 16h-96q-16 0-16-16v-96q0-16 16-16h96q16 0 16 16zm-512-512v96q0 16-16 16h-96q-16 0-16-16v-96q0-16 16-16h96q16 0 16 16zm256 0v96q0 16-16 16h-96q-16 0-16-16v-96q0-16 16-16h96q16 0 16 16zm256 0v352q0 16-16 16h-224q-16 0-16-16v-96q0-16 16-16h112v-240q0-16 16-16h96q16 0 16 16zm128 752V896H288v896h1664zm128-896v896q0 53-37.5 90.5T1952 1920H288q-53 0-90.5-37.5T160 1792V896q0-53 37.5-90.5T288 768h1664q53 0 90.5 37.5T2080 896z"/></svg>