<svg viewBox="0 0 1195 1195" xmlns="http://www.w3.org/2000/svg"><path d="M1045.845 313.728c-21.76-35.968-48.576-71.168-81.344-103.808-33.216-32.896-68.992-59.968-105.6-81.6L923.221 64s93.056 0 139.648 46.528c46.464 46.592 46.464 139.648 46.464 139.648l-63.488 63.552zM472.533 895.232H278.101V700.8l23.36-23.36c39.552 18.56 78.784 44.928 114.176 80.32 35.392 35.328 61.696 74.688 80.32 114.176l-23.424 23.296zm519.552-527.744l-440 448.32c-22.72-37.632-50.688-74.304-84.992-108.352-34.688-34.432-72.064-62.72-110.336-85.312L805.91 181.248c37.824 17.856 75.456 42.944 109.312 76.864s59.008 71.424 76.864 109.376zM213.333 192v767.936h768V640l128-127.936v482.88c0 51.392-41.6 93.056-93.056 93.056H178.39c-51.392 0-93.056-41.664-93.056-93.056V157.12c0-51.456 41.664-93.12 93.056-93.12h482.944l-128 128h-320z"/></svg>