<svg viewBox="0 0 1195 1195" xmlns="http://www.w3.org/2000/svg"><path d="M405.973 1002.026c-139.307-66.133-239.36-201.6-254.507-362.027h-64c21.76 262.827 241.493 469.333 509.867 469.333 9.6 0 18.773-.853 28.16-1.493l-162.56-162.773-56.96 56.96zm37.973-278.4c-8.107 0-15.573-1.067-22.4-3.627-6.613-2.347-12.373-5.76-17.067-10.027s-8.32-9.6-10.88-15.573c-2.56-6.187-3.84-12.8-3.84-20.053h-55.467c0 15.36 2.987 28.8 8.96 40.533s13.867 21.547 23.893 29.227c10.027 7.893 21.547 13.653 34.773 17.707 13.227 4.267 26.88 6.187 41.387 6.187 15.787 0 30.507-2.133 44.16-6.4s25.387-10.667 35.413-18.987 17.707-18.56 23.467-30.72c5.547-12.16 8.533-26.027 8.533-41.6 0-8.32-1.067-16.213-2.987-23.893-2.133-7.68-5.333-14.933-9.6-21.76-4.48-6.827-10.24-12.8-17.28-18.347-7.04-5.333-15.787-9.813-25.813-13.44 8.533-3.84 16-8.533 22.4-14.08s11.733-11.52 16-17.707c4.267-6.4 7.467-12.8 9.6-19.627s3.2-13.653 3.2-20.267c0-15.573-2.56-29.227-7.68-40.96s-12.373-21.547-21.76-29.44c-9.387-7.893-20.48-13.867-33.707-17.92-13.653-4.267-28.16-6.187-43.947-6.187-15.36 0-29.653 2.347-42.667 6.827s-24.107 10.88-33.493 18.987c-9.387 8.107-16.64 17.707-21.973 28.8s-7.893 23.253-7.893 36.267h55.467c0-7.253 1.28-13.653 3.84-19.2 2.56-5.76 6.187-10.667 10.667-14.507 4.48-4.053 10.027-7.253 16.213-9.387s13.013-3.413 20.267-3.413c17.067 0 29.653 4.48 37.973 13.227s12.373 21.12 12.373 36.907c0 7.68-1.067 14.507-3.413 20.693s-5.76 11.52-10.453 16-10.667 7.893-17.493 10.453c-7.04 2.56-15.36 3.84-24.747 3.84H405.12v43.733h32.853c9.387 0 17.92 1.067 25.387 3.2s13.867 5.333 19.2 10.027c5.333 4.48 9.387 10.24 12.373 17.067 2.773 6.827 4.267 14.933 4.267 24.32 0 17.28-4.907 30.507-14.933 39.68-9.6 8.96-23.04 13.44-40.32 13.44zm365.227-252.8c-13.44-14.08-29.653-24.96-48.427-32.64-18.987-7.68-39.68-11.52-62.507-11.52H597.332v341.333h97.92c23.68 0 45.013-3.84 64.427-11.52s35.84-18.56 49.493-32.64c13.653-14.08 24.32-31.147 31.573-50.987 7.467-19.84 11.093-42.24 11.093-66.987v-16.853c0-24.747-3.84-46.933-11.307-66.987s-17.92-37.12-31.36-51.2zM792.32 606.08c0 17.707-1.92 33.92-6.187 48-4.053 14.293-10.027 26.24-18.133 36.053s-18.133 17.28-30.293 22.613c-12.16 5.12-26.24 7.893-42.453 7.893h-38.613V474.452h41.6c30.72 0 53.973 9.813 70.187 29.227 16 19.627 24.107 47.787 24.107 84.907v17.493zM597.333 85.333c-9.6 0-18.773.853-28.16 1.493l162.56 162.773 56.747-56.747c139.52 65.92 239.573 201.387 254.72 361.813h64C1085.44 291.838 865.707 85.332 597.333 85.332z"/></svg>