<svg viewBox="0 0 76.00 76.00" xmlns="http://www.w3.org/2000/svg">
<path d="M 30.350212,13.156615 H 74.37488 v 8.466282 H 30.350212 Z m 5.079767,13.546052 H 74.37488 v 8.466282 H 35.429979 Z m 0,13.546053 H 74.37488 v 8.466282 H 35.429979 Z M 30.350212,53.79477 H 74.37488 v 8.466284 H 30.350212 Z M 10.031132,33.475693 a 6.7730261,6.7730261 0 0 0 6.773028,6.773027 h 3.386512 V 33.475693 L 31.620153,44.481861 20.190672,55.488028 V 48.715002 H 16.80416 A 15.239309,15.239309 0 0 1 1.5648494,33.475693 V 28.395922 A 15.239309,15.239309 0 0 1 16.80416,13.156615 h 3.386512 v 8.466282 H 16.80416 a 6.7730261,6.7730261 0 0 0 -6.773028,6.773025 z"/>
</svg>
