<svg  xmlns="http://www.w3.org/2000/svg"  viewBox="0 0 250 210">
  <rect rx="10" width="230" height="190" x="10" y="10" style="fill:none;stroke-width:5pct" />
  <path d="m 45.986838,27.969319 c -2.300312,-2.382129 -5.076172,-3.573194 -8.327574,-3.573194 -3.251403,0 -6.038321,1.202515 -8.360752,3.607551 -2.289255,2.370675 -3.450469,5.256715 -3.450469,8.623765 0,3.367046 1.161214,6.253087 3.450469,8.623762 l 36.13039,37.415457 -36.097213,37.38109 c -2.322432,2.40504 -3.483646,5.29108 -3.516823,8.65812 0.03317,3.36705 1.194391,6.2531 3.483646,8.62377 2.322431,2.37068 5.109349,3.57319 8.327575,3.60754 3.284579,0 6.071497,-1.20251 8.393928,-3.60754 L 86.164896,95.722557 c 8.427105,-8.692478 8.427105,-17.419316 0,-26.146155 l -40.178058,-41.607083 0,0 z M 203.34814,120.11647 c -2.32244,-2.40504 -5.14253,-3.60755 -8.42711,-3.60755 l 0,-0.0173 -77.50285,0 0,0.0173 c -3.28458,0 -6.0715,1.20251 -8.39393,3.60755 -2.32243,2.40503 -3.48364,5.29108 -3.48364,8.69248 0,3.4014 1.16121,6.3218 3.48364,8.72683 2.32243,2.40504 5.10935,3.60756 8.39393,3.60756 l 0,-0.0173 77.50285,0 0,0.0173 c 3.28458,0 6.10467,-1.20252 8.42711,-3.60756 2.32243,-2.40503 3.48364,-5.32543 3.48364,-8.72683 0,-3.4014 -1.16121,-6.28745 -3.48364,-8.69248 l 0,0 0,0 z" />
</svg>
