<svg viewBox="0 0 1195 1195" xmlns="http://www.w3.org/2000/svg"><path d="M1077.595 935.396L835.043 729.102c-25.074-22.566-51.89-32.926-73.552-31.926 57.256-67.068 91.842-154.078 91.842-249.176 0-212.078-171.922-384-384-384-212.076 0-384 171.922-384 384s171.922 384 384 384c95.098 0 182.108-34.586 249.176-91.844-1 21.662 9.36 48.478 31.926 73.552L956.73 1056.26c35.322 39.246 93.022 42.554 128.22 7.356s31.892-92.898-7.354-128.22zM469.333 704c-141.384 0-256-114.616-256-256s114.616-256 256-256 256 114.616 256 256-114.614 256-256 256zm-192-320h384v128h-384z"/></svg>