<svg
  viewBox="0 0 0 0"
  xmlns:xlink="http://www.w3.org/1999/xlink"
  xmlns="http://www.w3.org/2000/svg">
  <g
    id="group-0">
    <rect
      id="rect-0"
      style="fill:#FFFFFF;"
      x="50"
      y="100"
      width="240"
      height="140" />
    <path
      id="path-1"
      style="stroke:none;fill:#0000007F;"
      d="M80 170C80 148.0567 98.05665 130 120 130H220C230.6046 130 240.7857 134.2172 248.2843 141.7157C255.7829 149.2143 260 159.3954 260 170C260 191.9434 241.9434 210 220 210H120C98.05665 210 80 191.9434 80 170z" />
    <path
      id="path-2"
      style="stroke:#0000007F;stroke-opacity:1.0000001;fill:none;"
      d="M80 170C80 148.0567 98.05665 130 120 130H220C230.6046 130 240.7857 134.2172 248.2843 141.7157C255.7829 149.2143 260 159.3954 260 170C260 191.9434 241.9434 210 220 210H120C98.05665 210 80 191.9434 80 170z" />
    <path
      id="path-3"
      style="stroke:#0000007F;stroke-opacity:0.9776712;fill:none;"
      d="M79 170C79 147.5081 97.50806 129 120 129H220C230.8697 129 241.3054 133.3226 248.9914 141.0086C256.6774 148.6947 261 159.1303 261 170C261 192.4919 242.4919 211 220 211H120C97.50806 211 79 192.4919 79 170z" />
    <path
      id="path-4"
      style="stroke:#0000007F;stroke-opacity:0.95380294;fill:none;"
      d="M78 170C78 146.9595 96.95948 128 120 128H220C231.1348 128 241.825 132.428 249.6985 140.3015C257.572 148.175 262 158.8652 262 170C262 193.0405 243.0405 212 220 212H120C96.95948 212 78 193.0405 78 170z" />
    <path
      id="path-5"
      style="stroke:#0000007F;stroke-opacity:0.9284024;fill:none;"
      d="M77 170C77 146.4109 96.4109 127 120 127H220C231.3999 127 242.3446 131.5334 250.4056 139.5944C258.4666 147.6554 263 158.6001 263 170C263 193.5891 243.5891 213 220 213H120C96.4109 213 77 193.5891 77 170z" />
    <path
      id="path-6"
      style="stroke:#0000007F;stroke-opacity:0.90149117;fill:none;"
      d="M76 170C76 145.8623 95.86231 126 120 126H220C231.6651 126 242.8643 130.6389 251.1127 138.8873C259.3611 147.1358 264 158.335 264 170V170C264 194.1377 244.1377 214 220 214H120C95.86231 214 76 194.1377 76 170z" />
    <path
      id="path-7"
      style="stroke:#0000007F;stroke-opacity:0.8731057;fill:none;"
      d="M75 170C75 145.3137 95.31373 125 120 125H220C231.9302 125 243.3839 129.7443 251.8198 138.1802C260.2557 146.6161 265 158.0699 265 170V170C265 194.6863 244.6863 215 220 215H120C95.31373 215 75 194.6863 75 170z" />
    <path
      id="path-8"
      style="stroke:#0000007F;stroke-opacity:0.8432981;fill:none;"
      d="M74 170C74 144.7652 94.76514 124 120 124H220C232.1953 124 243.9035 128.8497 252.5269 137.4731C261.1503 146.0965 266 157.8047 266 170V170C266 195.2348 245.2348 216 220 216H120C94.76514 216 74 195.2348 74 170z" />
    <path
      id="path-9"
      style="fill:none;stroke:#0000007F;stroke-opacity:0.8121358;"
      d="M73 170C73 144.2166 94.21656 123 120 123H220C232.4604 123 244.4232 127.9552 253.234 136.766C262.0449 145.5768 267 157.5396 267 170V170C267 195.7834 245.7834 217 220 217H120C94.21656 217 73 195.7834 73 170z" />
    <path
      id="path-10"
      style="stroke:#0000007F;stroke-opacity:0.77970165;fill:none;"
      d="M72 170C72 143.668 93.66798 122 120 122H220C232.7255 122 244.9428 127.0606 253.9411 136.0589C262.9394 145.0572 268 157.2745 268 170V170C268 196.332 246.332 218 220 218H120C93.66798 218 72 196.332 72 170z" />
    <path
      id="path-11"
      style="stroke:#0000007F;stroke-opacity:0.7460935;fill:none;"
      d="M71 170C71 143.1194 93.1194 121 120 121H220C232.9906 121 245.4625 126.166 254.6483 135.3518C263.834 144.5375 269 157.0094 269 170V170C269 196.8806 246.8806 219 220 219H120C93.11939 219 71 196.8806 71 170z" />
    <path
      id="path-12"
      style="stroke:#0000007F;stroke-opacity:0.7114234;fill:none;"
      d="M70 170C70 142.5708 92.57082 120 120 120H220C233.2557 120 245.9821 125.2714 255.3553 134.6447C264.7286 144.0179 270 156.7443 270 170V170C270 197.4292 247.4292 220 220 220H120C92.57081 220 70 197.4292 70 170z" />
    <path
      id="path-13"
      style="stroke:#0000007F;stroke-opacity:0.6758161;fill:none;"
      d="M69 170C69 142.0222 92.02223 119 120 119H220C233.5209 119 246.5018 124.3769 256.0625 133.9376C265.6231 143.4982 271 156.4792 271 170V170C271 197.9778 247.9778 221 220 221H120C92.02222 221 69 197.9778 69 170z" />
    <path
      id="path-14"
      style="stroke:#0000007F;stroke-opacity:0.63940865;fill:none;"
      d="M68 170C68 141.4736 91.47365 118 120 118H220C233.786 118 247.0214 123.4823 256.7696 133.2305C266.5177 142.9786 272 156.2141 272 170V170C272 198.5264 248.5264 222 220 222H120C91.47364 222 68 198.5264 68 170z" />
    <path
      id="path-15"
      style="stroke:#0000007F;stroke-opacity:0.6023483;fill:none;"
      d="M67 170C67 140.9251 90.92506 117 120 117H220C234.0511 117 247.5411 122.5877 257.4767 132.5233C267.4123 142.459 273 155.9489 273 170V170C273 199.0749 249.0749 223 220 223H120C90.92506 223 67 199.0749 67 170z" />
    <path
      id="path-16"
      style="stroke:#0000007F;stroke-opacity:0.5647906;fill:none;"
      d="M66 170C66 140.3765 90.37648 116 120 116H220C234.3162 116 248.0607 121.6932 258.1838 131.8163C268.3069 141.9393 274 155.6838 274 170V170C274 199.6235 249.6235 224 220 224H120C90.37647 224 66 199.6235 66 170z" />
    <path
      id="path-17"
      style="stroke:#0000007F;stroke-opacity:0.52689755;fill:none;"
      d="M65 170C65 139.8279 89.8279 115 120 115H220C234.5813 115 248.5804 120.7986 258.8909 131.1091C269.2014 141.4197 275 155.4187 275 170V170C275 200.1721 250.1721 225 220 225H120C89.82789 225 65 200.1721 65 170z" />
    <path
      id="path-18"
      style="fill:none;stroke:#0000007F;stroke-opacity:0.48883557;"
      d="M64 170C64 139.2793 89.27931 114 120 114H220C234.8464 114 249.1 119.904 259.598 130.402C270.096 140.9001 276 155.1536 276 170V170C276 200.7207 250.7207 226 220 226H120C89.2793 226 64 200.7207 64 170z" />
    <path
      id="path-19"
      style="stroke:#0000007F;stroke-opacity:0.4507736;fill:none;"
      d="M63 170C63 138.7307 88.73073 113 120 113H220C235.1115 113 249.6196 119.0095 260.3051 129.6949C270.9906 140.3804 277 154.8885 277 170V170C277 201.2693 251.2693 227 220 227H120C88.73072 227 63 201.2693 63 170z" />
    <path
      id="path-20"
      style="stroke-opacity:0.41288054;fill:none;stroke:#0000007F;"
      d="M62 170C62 138.1821 88.18214 112 120 112H220C235.3767 112 250.1393 118.1149 261.0122 128.9878C271.8851 139.8608 278 154.6234 278 170V170C278 201.8179 251.8179 228 220 228H120C88.18214 228 62 201.8179 62 170z" />
    <path
      id="path-21"
      style="stroke:#0000007F;stroke-opacity:0.37532282;fill:none;"
      d="M61 170C61 137.6336 87.63356 111 120 111H220C235.6418 111 250.6589 117.2203 261.7193 128.2807C272.7797 139.3411 279 154.3582 279 170V170C279 202.3664 252.3664 229 220 229H120C87.63355 229 61 202.3664 61 170z" />
    <path
      id="path-22"
      style="stroke:#0000007F;stroke-opacity:0.3382625;fill:none;"
      d="M60 170C60 137.085 87.08498 110 120 110H220C235.9069 110 251.1786 116.3257 262.4264 127.5736C273.6743 138.8215 280 154.0931 280 170V170C280 202.915 252.915 230 220 230H120C87.08497 230 60 202.915 60 170z" />
    <path
      id="path-23"
      style="stroke:#0000007F;stroke-opacity:0.30185506;fill:none;"
      d="M59 170C59 136.5364 86.53639 109 120 109H220C236.172 109 251.6982 115.4312 263.1335 126.8665C274.5689 138.3018 281 153.828 281 170V170C281 203.4636 253.4636 231 220 231H120C86.53638 231 59 203.4636 59 170z" />
    <path
      id="path-24"
      style="stroke:#0000007F;stroke-opacity:0.26624778;fill:none;"
      d="M58 170C58 135.9878 85.98781 108 120 108H220C236.4371 108 252.2178 114.5366 263.8406 126.1594C275.4634 137.7822 282 153.5629 282 170V170C282 204.0122 254.0122 232 220 232H120C85.9878 232 58 204.0122 58 170z" />
    <path
      id="path-25"
      style="stroke:#0000007F;stroke-opacity:0.23157766;fill:none;"
      d="M57 170C57 135.4392 85.43922 107 120 107H220C236.7022 107 252.7375 113.642 264.5477 125.4523C276.358 137.2625 283 153.2978 283 170V170C283 204.5608 254.5608 233 220 233H120C85.43922 233 57 204.5608 57 170z" />
    <path
      id="path-26"
      style="stroke-opacity:0.19796954;fill:none;stroke:#0000007F;"
      d="M56 170C56 134.8906 84.89064 106 120 106H220C236.9673 106 253.2571 112.7475 265.2549 124.7452C277.2526 136.7429 284 153.0327 284 170V170C284 205.1094 255.1094 234 220 234H120C84.89064 234 56 205.1094 56 170z" />
    <path
      id="path-27"
      style="stroke-opacity:0.16553538;fill:none;stroke:#0000007F;"
      d="M55 170C55 134.3421 84.34206 105 120 105H220C237.2325 105 253.7768 111.8529 265.962 124.0381C278.1472 136.2233 285 152.7676 285 170V170C285 205.6579 255.6579 235 220 235H120C84.34206 235 55 205.6579 55 170z" />
    <path
      id="path-28"
      style="stroke:#0000007F;stroke-opacity:0.1343731;fill:none;"
      d="M54 170C54 133.7935 83.79347 104 120 104H220C237.4976 104 254.2964 110.9583 266.6691 123.331C279.0417 135.7036 286 152.5024 286 170V170C286 206.2065 256.2065 236 220 236H120C83.79347 236 54 206.2065 54 170z" />
    <path
      id="path-29"
      style="stroke:#0000007F;stroke-opacity:0.1045655;fill:none;"
      d="M53 170C53 133.2449 83.24489 103 120 103H220C237.7627 103 254.816 110.0637 267.3762 122.6239C279.9363 135.184 287 152.2373 287 170V170C287 206.7551 256.7551 237 220 237H120C83.24489 237 53 206.7551 53 170z" />
    <path
      id="path-30"
      style="stroke:#0000007F;stroke-opacity:0.07618004;fill:none;"
      d="M52 170C52 132.6963 82.6963 102 120 102H220C238.0278 102 255.3357 109.1692 268.0833 121.9168C280.8309 134.6643 288 151.9722 288 170V170C288 207.3037 257.3037 238 220 238H120C82.6963 238 52 207.3037 52 170z" />
    <path
      id="path-31"
      style="stroke:#0000007F;stroke-opacity:0.049268797;fill:none;"
      d="M51 170C51 132.1477 82.14772 101 120 101H220C238.2929 101 255.8553 108.2746 268.7904 121.2096C281.7254 134.1447 289 151.7071 289 170V170C289 207.8523 257.8523 239 220 239H120C82.14772 239 51 207.8523 51 170z" />
    <path
      id="path-32"
      style="stroke:#0000007F;stroke-opacity:0.023868266;fill:none;"
      d="M50 170C50 131.5991 81.59914 100 120 100H220C238.558 100 256.375 107.38 269.4975 120.5025C282.62 133.6251 290 151.442 290 170V170C290 208.4009 258.4009 240 220 240H120C81.59914 240 50 208.4009 50 170z" />
    <path
      id="path-33"
      style="stroke:none;fill:#FFFFFF;"
      d="M70 164C70 136.5708 92.57082 114 120 114H220C233.2557 114 245.9821 119.2714 255.3553 128.6447C264.7286 138.0179 270 150.7443 270 164V164C270 191.4292 247.4292 214 220 214H120C92.57081 214 70 191.4292 70 164z" />
    <path
      id="path-34"
      style="fill:none;stroke:#75777F;stroke-width:0px;"
      d="M70 164C70 136.5708 92.57082 114 120 114H220C233.2557 114 245.9821 119.2714 255.3553 128.6447C264.7286 138.0179 270 150.7443 270 164V164C270 191.4292 247.4292 214 220 214H120C92.57081 214 70 191.4292 70 164z" />
  </g>
</svg>
