<?xml version="1.0" encoding="UTF-8" standalone="no"?>
<svg
   xmlns:dc="http://purl.org/dc/elements/1.1/"
   xmlns:cc="http://creativecommons.org/ns#"
   xmlns:rdf="http://www.w3.org/1999/02/22-rdf-syntax-ns#"
   xmlns:svg="http://www.w3.org/2000/svg"
   xmlns="http://www.w3.org/2000/svg"
   xmlns:sodipodi="http://sodipodi.sourceforge.net/DTD/sodipodi-0.dtd"
   xmlns:inkscape="http://www.inkscape.org/namespaces/inkscape"
   version="1.1"
   width="8.5in"
   height="11in"
   viewBox="0 0 1912.5 2475"
   id="svg2"
   inkscape:version="0.91 r13725"
   sodipodi:docname="fig_deepleabra_wwi_train_lcurve.svg"
   inkscape:export-filename="/Users/oreilly/svn_docs/figs/fig_deepleabra_wwi_train_lcurve.png"
   inkscape:export-xdpi="149.95799"
   inkscape:export-ydpi="149.95799">
  <metadata
     id="metadata130">
    <rdf:RDF>
      <cc:Work
         rdf:about="">
        <dc:format>image/svg+xml</dc:format>
        <dc:type
           rdf:resource="http://purl.org/dc/dcmitype/StillImage" />
        <dc:title></dc:title>
      </cc:Work>
    </rdf:RDF>
  </metadata>
  <defs
     id="defs128">
    <marker
       inkscape:stockid="Arrow1Mend"
       orient="auto"
       refY="0.0"
       refX="0.0"
       id="Arrow1Mend"
       style="overflow:visible;"
       inkscape:isstock="true">
      <path
         id="path4681"
         d="M 0.0,0.0 L 5.0,-5.0 L -12.5,0.0 L 5.0,5.0 L 0.0,0.0 z "
         style="fill-rule:evenodd;stroke:#000000;stroke-width:1.0pt;"
         transform="scale(0.4) rotate(180) translate(10,0)" />
    </marker>
    <marker
       inkscape:isstock="true"
       style="overflow:visible;"
       id="marker6905"
       refX="0.0"
       refY="0.0"
       orient="auto"
       inkscape:stockid="Arrow1Mend">
      <path
         transform="scale(0.4) rotate(180) translate(10,0)"
         style="fill-rule:evenodd;stroke:#000000;stroke-width:1pt;stroke-opacity:1;fill:#000000;fill-opacity:1"
         d="M 0.0,0.0 L 5.0,-5.0 L -12.5,0.0 L 5.0,5.0 L 0.0,0.0 z "
         id="path6907" />
    </marker>
    <marker
       inkscape:stockid="Arrow1Mend"
       orient="auto"
       refY="0.0"
       refX="0.0"
       id="marker6499"
       style="overflow:visible;"
       inkscape:isstock="true">
      <path
         id="path6501"
         d="M 0.0,0.0 L 5.0,-5.0 L -12.5,0.0 L 5.0,5.0 L 0.0,0.0 z "
         style="fill-rule:evenodd;stroke:#000000;stroke-width:1pt;stroke-opacity:1;fill:#000000;fill-opacity:1"
         transform="scale(0.4) rotate(180) translate(10,0)" />
    </marker>
    <marker
       inkscape:isstock="true"
       style="overflow:visible;"
       id="marker5623"
       refX="0.0"
       refY="0.0"
       orient="auto"
       inkscape:stockid="Arrow1Mend">
      <path
         transform="scale(0.4) rotate(180) translate(10,0)"
         style="fill-rule:evenodd;stroke:#000000;stroke-width:1pt;stroke-opacity:1;fill:#000000;fill-opacity:1"
         d="M 0.0,0.0 L 5.0,-5.0 L -12.5,0.0 L 5.0,5.0 L 0.0,0.0 z "
         id="path5625" />
    </marker>
    <marker
       inkscape:isstock="true"
       style="overflow:visible;"
       id="marker5211"
       refX="0.0"
       refY="0.0"
       orient="auto"
       inkscape:stockid="Arrow1Mend">
      <path
         transform="scale(0.4) rotate(180) translate(10,0)"
         style="fill-rule:evenodd;stroke:#000000;stroke-width:1pt;stroke-opacity:1;fill:#000000;fill-opacity:1"
         d="M 0.0,0.0 L 5.0,-5.0 L -12.5,0.0 L 5.0,5.0 L 0.0,0.0 z "
         id="path5213" />
    </marker>
    <marker
       inkscape:stockid="Arrow1Mend"
       orient="auto"
       refY="0.0"
       refX="0.0"
       id="marker4949"
       style="overflow:visible;"
       inkscape:isstock="true">
      <path
         id="path4951"
         d="M 0.0,0.0 L 5.0,-5.0 L -12.5,0.0 L 5.0,5.0 L 0.0,0.0 z "
         style="fill-rule:evenodd;stroke:#000000;stroke-width:1pt;stroke-opacity:1;fill:#000000;fill-opacity:1"
         transform="scale(0.4) rotate(180) translate(10,0)" />
    </marker>
    <marker
       inkscape:stockid="Arrow1Mend"
       orient="auto"
       refY="0.0"
       refX="0.0"
       id="marker4907"
       style="overflow:visible;"
       inkscape:isstock="true">
      <path
         id="path4909"
         d="M 0.0,0.0 L 5.0,-5.0 L -12.5,0.0 L 5.0,5.0 L 0.0,0.0 z "
         style="fill-rule:evenodd;stroke:#000000;stroke-width:1pt;stroke-opacity:1;fill:#000000;fill-opacity:1"
         transform="scale(0.4) rotate(180) translate(10,0)" />
    </marker>
  </defs>
  <sodipodi:namedview
     pagecolor="#ffffff"
     bordercolor="#666666"
     borderopacity="1"
     objecttolerance="10"
     gridtolerance="10"
     guidetolerance="10"
     inkscape:pageopacity="0"
     inkscape:pageshadow="2"
     inkscape:window-width="640"
     inkscape:window-height="480"
     id="namedview126"
     showgrid="false"
     units="in"
     inkscape:zoom="1.9725"
     inkscape:cx="182.10392"
     inkscape:cy="228.00314"
     inkscape:current-layer="svg2" />
  <rect
     style="opacity:1;fill:#ffffff;fill-opacity:1;fill-rule:nonzero;stroke:#ffffff;stroke-width:1.25;stroke-linecap:butt;stroke-linejoin:miter;stroke-miterlimit:4;stroke-dasharray:none;stroke-dashoffset:0;stroke-opacity:1"
     id="rect7432"
     width="1069.1741"
     height="933.84698"
     x="19.716539"
     y="1454.2211" />
  <path
     d="m 186.93687,2246.4121 0,-747.5 747.5,0 0,747.5 -747.5,0"
     id="path4"
     inkscape:connector-curvature="0"
     style="fill:none;stroke:#000000;stroke-width:2" />
  <text
     style="font-size:37.90000153px;font-family:Arial;text-anchor:start;fill:#000000"
     id="text8"
     font-size="37.9"
     y="2310.0122"
     x="902.4986">1000</text>
  <text
     style="font-size:37.90000153px;font-family:Arial;text-anchor:middle;fill:#000000"
     id="text10"
     font-size="37.9"
     y="2370.7134"
     x="561.57953">
    <tspan
       style="font-size:49.99999925px"
       id="tspan4303">epoch</tspan>
  </text>
  <text
     style="font-size:37.90000153px;font-family:Arial;text-anchor:middle;fill:#000000"
     id="text12"
     font-size="37.9"
     y="2310.0122"
     x="186.93686">0</text>
  <text
     style="font-size:37.90000153px;font-family:Arial;text-anchor:middle;fill:#000000"
     id="text14"
     font-size="37.9"
     y="2310.0122"
     x="261.63687">100</text>
  <text
     style="font-size:37.90000153px;font-family:Arial;text-anchor:middle;fill:#000000"
     id="text16"
     font-size="37.9"
     y="2310.0122"
     x="336.43686">200</text>
  <text
     style="font-size:37.90000153px;font-family:Arial;text-anchor:middle;fill:#000000"
     id="text18"
     font-size="37.9"
     y="2310.0122"
     x="411.13687">300</text>
  <text
     style="font-size:37.90000153px;font-family:Arial;text-anchor:middle;fill:#000000"
     id="text20"
     font-size="37.9"
     y="2310.0122"
     x="485.93686">400</text>
  <text
     style="font-size:37.90000153px;font-family:Arial;text-anchor:middle;fill:#000000"
     id="text22"
     font-size="37.9"
     y="2310.0122"
     x="560.63684">500</text>
  <text
     style="font-size:37.90000153px;font-family:Arial;text-anchor:middle;fill:#000000"
     id="text24"
     font-size="37.9"
     y="2310.0122"
     x="635.43689">600</text>
  <text
     style="font-size:37.90000153px;font-family:Arial;text-anchor:middle;fill:#000000"
     id="text26"
     font-size="37.9"
     y="2310.0122"
     x="710.23688">700</text>
  <text
     style="font-size:37.90000153px;font-family:Arial;text-anchor:middle;fill:#000000"
     id="text28"
     font-size="37.9"
     y="2310.0122"
     x="784.93689">800</text>
  <text
     style="font-size:37.90000153px;font-family:Arial;text-anchor:middle;fill:#000000"
     id="text30"
     font-size="37.9"
     y="2310.0122"
     x="859.73688">900</text>
  <path
     style="fill:none;stroke:#000000;stroke-width:2"
     inkscape:connector-curvature="0"
     id="path34"
     d="m 186.93687,2246.4121 747.5,0 m -747.5,18.7 0,-37.3 m 74.7,37.3 0,-37.3 m 74.8,37.3 0,-37.3 m 74.7,37.3 0,-37.3 m 74.8,37.3 0,-37.3 m 74.7,37.3 0,-37.3 m 74.8,37.3 0,-37.3 m 74.8,37.3 0,-37.3 m 74.7,37.3 0,-37.3 m 74.8,37.3 0,-37.3 m 74.7,37.3 0,-37.3" />
  <path
     style="fill:none;stroke:#000000;stroke-width:2"
     inkscape:connector-curvature="0"
     id="path36"
     d="m 186.93687,1498.9121 747.5,0 m -747.5,18.7 0,-37.4 m 74.7,37.4 0,-37.4 m 74.8,37.4 0,-37.4 m 74.7,37.4 0,-37.4 m 74.8,37.4 0,-37.4 m 74.7,37.4 0,-37.4 m 74.8,37.4 0,-37.4 m 74.8,37.4 0,-37.4 m 74.7,37.4 0,-37.4 m 74.8,37.4 0,-37.4 m 74.7,37.4 0,-37.4" />
  <text
     style="font-size:37.90000153px;font-family:Arial;text-anchor:end;fill:#000000"
     id="text40"
     font-size="37.9"
     y="2261.4121"
     x="160.73686">0</text>
  <text
     style="font-size:37.90000153px;font-family:Arial;text-anchor:end;fill:#000000"
     id="text42"
     font-size="37.9"
     y="2186.6123"
     x="160.73686">0.1</text>
  <text
     style="font-size:37.90000153px;font-family:Arial;text-anchor:end;fill:#000000"
     id="text44"
     font-size="37.9"
     y="2111.9121"
     x="160.73686">0.2</text>
  <text
     style="font-size:37.90000153px;font-family:Arial;text-anchor:end;fill:#000000"
     id="text46"
     font-size="37.9"
     y="2037.1123"
     x="160.73686">0.3</text>
  <text
     style="font-size:37.90000153px;font-family:Arial;text-anchor:end;fill:#000000"
     id="text48"
     font-size="37.9"
     y="1962.4121"
     x="160.73686">0.4</text>
  <text
     style="font-size:37.90000153px;font-family:Arial;text-anchor:end;fill:#000000"
     id="text50"
     font-size="37.9"
     y="1887.6122"
     x="160.73686">0.5</text>
  <text
     style="font-size:37.90000153px;font-family:Arial;text-anchor:end;fill:#000000"
     id="text52"
     font-size="37.9"
     y="1812.9122"
     x="160.73686">0.6</text>
  <text
     style="font-size:37.90000153px;font-family:Arial;text-anchor:end;fill:#000000"
     id="text54"
     font-size="37.9"
     y="1738.1122"
     x="160.73686">0.7</text>
  <text
     style="font-size:37.90000153px;font-family:Arial;text-anchor:end;fill:#000000"
     id="text56"
     font-size="37.9"
     y="1663.3123"
     x="160.73686">0.8</text>
  <text
     style="font-size:37.90000153px;font-family:Arial;text-anchor:end;fill:#000000"
     id="text58"
     font-size="37.9"
     y="1588.6122"
     x="160.73686">0.9</text>
  <text
     style="font-size:37.90000153px;font-family:Arial;text-anchor:end;fill:#000000"
     id="text60"
     font-size="37.9"
     y="1513.8123"
     x="160.73686">1</text>
  <path
     style="fill:none;stroke:#000000;stroke-width:2"
     inkscape:connector-curvature="0"
     id="path62"
     d="m 186.93687,2246.4121 0,-747.5 m -18.7,747.5 37.3,0 m -37.3,-74.7 37.3,0 m -37.3,-74.8 37.3,0 m -37.3,-74.7 37.3,0 m -37.3,-74.8 37.3,0 m -37.3,-74.7 37.3,0 m -37.3,-74.8 37.3,0 m -37.3,-74.8 37.3,0 m -37.3,-74.7 37.3,0 m -37.3,-74.8 37.3,0 m -37.3,-74.7 37.3,0" />
  <text
     style="font-size:37.90000153px;font-family:Arial;text-anchor:start;fill:#008000;"
     id="text66"
     font-size="37.9"
     y="2261.4121"
     x="960.63684">0</text>
  <text
     style="font-size:37.90000153px;font-family:Arial;text-anchor:start;fill:#008000;"
     id="text68"
     font-size="37.9"
     y="2186.6123"
     x="960.63684">0.1</text>
  <text
     style="font-size:37.90000153px;font-family:Arial;text-anchor:start;fill:#008000;"
     id="text70"
     font-size="37.9"
     y="2111.9121"
     x="960.63684">0.2</text>
  <text
     style="font-size:37.90000153px;font-family:Arial;text-anchor:start;fill:#008000;"
     id="text72"
     font-size="37.9"
     y="2037.1123"
     x="960.63684">0.3</text>
  <text
     style="font-size:37.90000153px;font-family:Arial;text-anchor:start;fill:#008000;"
     id="text74"
     font-size="37.9"
     y="1962.4121"
     x="960.63684">0.4</text>
  <text
     style="font-size:37.90000153px;font-family:Arial;text-anchor:start;fill:#008000;"
     id="text76"
     font-size="37.9"
     y="1887.6122"
     x="960.63684">0.5</text>
  <text
     style="font-size:37.90000153px;font-family:Arial;text-anchor:start;fill:#008000;"
     id="text78"
     font-size="37.9"
     y="1812.9122"
     x="960.63684">0.6</text>
  <text
     style="font-size:37.90000153px;font-family:Arial;text-anchor:start;fill:#008000;"
     id="text80"
     font-size="37.9"
     y="1738.1122"
     x="960.63684">0.7</text>
  <text
     style="font-size:37.90000153px;font-family:Arial;text-anchor:start;fill:#008000;"
     id="text82"
     font-size="37.9"
     y="1663.3123"
     x="960.63684">0.8</text>
  <text
     style="font-size:37.90000153px;font-family:Arial;text-anchor:start;fill:#008000;"
     id="text84"
     font-size="37.9"
     y="1588.6122"
     x="960.63684">0.9</text>
  <text
     style="font-size:37.90000153px;font-family:Arial;text-anchor:start;fill:#008000;"
     id="text86"
     font-size="37.9"
     y="1513.8123"
     x="960.63684">1</text>
  <path
     style="fill:none;stroke:#000080;stroke-width:2"
     inkscape:connector-curvature="0"
     id="path88"
     d="m 934.43687,2246.4121 0,-747.5 m -18.7,747.5 37.4,0 m -37.4,-74.7 37.4,0 m -37.4,-74.8 37.4,0 m -37.4,-74.7 37.4,0 m -37.4,-74.8 37.4,0 m -37.4,-74.7 37.4,0 m -37.4,-74.8 37.4,0 m -37.4,-74.8 37.4,0 m -37.4,-74.7 37.4,0 m -37.4,-74.8 37.4,0 m -37.4,-74.7 37.4,0" />
  <path
     style="fill:none;stroke:#000000;stroke-width:2.49999996;stroke-miterlimit:4;stroke-dasharray:none"
     d="m 187.63687,1589.2121 0.8,8.8 0.7,10.5 0.7,11.6 0.8,14.3 0.7,14.8 0.8,17 0.7,16.8 0.8,16.5 0.7,17.3 0.8,15.6 0.7,13.8 0.8,10.8 0.7,8.6 0.8,7.2 0.7,6.2 0.8,4.6 0.7,3.4 0.8,4.3 0.7,4.8 0.8,5.1 0.7,5.2 0.8,5.7 0.7,5.1 0.7,5.6 0.8,4.9 0.7,4.2 0.8,4.7 0.7,3.5 0.8,4.4 0.7,4 0.8,4.4 0.7,4.7 0.8,6.2 0.7,6.9 0.8,6.3 0.7,6.2 0.8,6.1 0.7,4.8 0.8,4.8 0.7,4.4 0.8,4.4 0.7,4.3 0.8,4.7 0.7,4.9 0.7,5.6 0.8,6 0.7,7.6 0.8,7.3 0.7,7 0.8,5.8 0.7,5.4 0.8,4.2 0.7,3 0.8,2.2 0.7,0.9 0.8,0.1 0.7,-0.5 0.8,-0.5 0.7,0.6 0.8,0.4 0.7,1.6 0.8,2.9 0.7,3.7 0.8,4.2 0.7,5.8 0.7,6.8 0.8,6.9 0.7,6.5 0.8,6.9 0.7,6.4 0.8,6.1 0.7,5.7 0.8,4.7 0.7,3.8 0.8,2.2 0.7,1.6 0.8,1.2 0.7,0.3 0.8,0.4 0.7,-0.3 0.8,0.6 0.7,0.7 0.8,0.4 0.7,1.5 0.8,2.2 0.7,2.4 0.7,3.1 0.8,3 0.7,3 0.8,3.4 0.7,2.7 0.8,3.3 0.7,1.4 0.8,2.4 0.7,1.6 0.8,0.7 0.7,0.6 0.8,0.2 0.7,0.1 0.8,1 0.7,1.7 0.8,2 0.7,1.7 0.8,2.7 0.7,2.9 0.8,3 0.7,2.9 0.7,3.1 0.8,2.9 0.7,3.4 0.8,2 0.7,2.7 0.8,3.1 0.7,2.6 0.8,2.6 0.7,2.6 0.8,1.7 0.7,0.6 0.8,0.4 0.7,0.4 0.8,-0.7 0.7,-0.7 0.8,-0.6 0.7,-1.3 0.8,-1 0.7,-0.7 0.7,-0.1 0.8,0 0.7,-0.3 0.8,0.8 0.7,0.9 0.8,1.3 0.7,1.6 0.8,1.7 0.7,2.1 0.8,1.9 0.7,1.7 0.8,1.6 0.7,0.8 0.8,0.1 0.7,0 0.8,-0.5 0.7,-0.8 0.8,-1 0.7,-0.3 0.8,0.8 0.7,0 0.7,1.1 0.8,1.2 0.7,2.3 0.8,2.4 0.7,2.4 0.8,2 0.7,2.2 0.8,2.2 0.7,2.3 0.8,2.2 0.7,1.7 0.8,1.8 0.7,1 0.8,1.5 0.7,1.1 0.8,0 0.7,0.3 0.8,0 0.7,-0.2 0.8,-0.4 0.7,0.2 0.7,0.2 0.8,0.3 0.7,-0.1 0.8,0.1 0.7,0.1 0.8,0 0.7,-0.2 0.8,-0.4 0.7,-1.3 0.8,-1.5 0.7,-1.4 0.8,-1.1 0.7,-0.8 0.8,-0.5 0.7,-0.3 0.8,0.6 0.7,0.7 0.8,1.8 0.7,1.8 0.8,2.4 0.7,1.9 0.7,2.1 0.8,1.2 0.7,1.4 0.8,0.2 0.7,0.7 0.8,0 0.7,-0.1 0.8,-0.1 0.7,0.1 0.8,0.5 0.7,0.5 0.8,0.9 0.7,1.8 0.8,1.5 0.7,2.4 0.8,1.8 0.7,2.5 0.8,2.3 0.7,2.7 0.8,1.9 0.7,2.5 0.7,1.8 0.8,1.6 0.7,1.1 0.8,0.5 0.7,0.6 0.8,-0.2 0.7,-0.1 0.8,-1.1 0.7,-1.7 0.8,-1.5 0.7,-1.5 0.8,-1.8 0.7,-1.8 0.8,-1.8 0.7,-1.1 0.8,-1.1 0.7,-0.6 0.8,0.1 0.7,0.4 0.7,0.7 0.8,1.3 0.7,1 0.8,0.8 0.7,0.6 0.8,0.9 0.7,0 0.8,-0.2 0.7,-0.3 0.8,0.1 0.7,0 0.8,0.6 0.7,0.4 0.8,1.6 0.7,1.4 0.8,1.6 0.7,1.6 0.8,1.1 0.7,0.4 0.8,0 0.7,0 0.7,-0.7 0.8,-1 0.7,-0.3 0.8,-0.3 0.7,-0.3 0.8,-0.1 0.7,0.8 0.8,0.6 0.7,0.6 0.8,0.2 0.7,0.4 0.8,-0.2 0.7,-0.1 0.8,-0.3 0.7,0.1 0.8,0.2 0.7,0.5 0.8,0.9 0.7,1.3 0.8,1.2 0.7,1.4 0.7,1.3 0.8,1.4 0.7,0.2 0.8,-0.4 0.7,-0.6 0.8,-1.1 0.7,-1.7 0.8,-1.3 0.7,-1.7 0.8,-1.5 0.7,-1.4 0.8,-1.4 0.7,-0.7 0.8,-0.3 0.7,-0.4 0.8,-0.4 0.7,-0.3 0.8,0.1 0.7,-0.1 0.8,0.3 0.7,0.9 0.7,0.5 0.8,0.9 0.7,1.2 0.8,1.1 0.7,1.7 0.8,1.5 0.7,1.4 0.8,1.3 0.7,0.8 0.8,1 0.7,1.3 0.8,0.9 0.7,0.4 0.8,-0.2 0.7,-0.1 0.8,-0.2 0.7,-0.3 0.8,-0.4 0.7,-0.9 0.8,-0.9 0.7,-0.4 0.7,-0.5 0.8,0.1 0.7,0.3 0.8,1.1 0.7,0.5 0.8,1 0.7,0.9 0.8,0.8 0.7,0.7 0.8,0.5 0.7,-0.2 0.8,-0.2 0.7,-0.4 0.8,-0.5 0.7,-0.1 0.8,0 0.7,-0.4 0.8,-0.1 0.7,0.5 0.7,0.3 0.8,0.3 0.7,0.4 0.8,-0.3 0.7,-0.6 0.8,-0.1 0.7,-0.4 0.8,-0.6 0.7,-0.6 0.8,-0.6 0.7,-1 0.8,-0.4 0.7,-0.3 0.8,-0.2 0.7,0.5 0.8,0.6 0.7,0.3 0.8,0.5 0.7,0.8 0.8,0.5 0.7,0.5 0.7,0.9 0.8,-0.4 0.7,-0.5 0.8,-0.5 0.7,-0.5 0.8,-0.5 0.7,-0.2 0.8,-0.2 0.7,0.1 0.8,-0.1 0.7,0 0.8,0 0.7,0.3 0.8,0.4 0.7,0 0.8,0.4 0.7,0.2 0.8,-0.4 0.7,0.8 0.8,0.4 0.7,0 0.7,-0.1 0.8,-0.3 0.7,-0.4 0.8,-0.8 0.7,-0.5 0.8,-0.4 0.7,-0.3 0.8,-0.1 0.7,0.4 0.8,0.7 0.7,0.9 0.8,0.9 0.7,1 0.8,0.9 0.7,0 0.8,0 0.7,0.1 0.8,0 0.7,-0.5 0.8,-0.4 0.7,-0.3 0.7,-0.4 0.8,-0.3 0.7,-0.1 0.8,-0.6 0.7,-1.4 0.8,-1.3 0.7,-1.3 0.8,-1.5 0.7,-1.5 0.8,-1.6 0.7,-0.5 0.8,-0.1 0.7,0.1 0.8,1.2 0.7,1.9 0.8,2.1 0.7,2.4 0.8,2.1 0.7,1.9 0.8,1.4 0.7,1.3 0.7,1 0.8,0.2 0.7,0.2 0.8,-0.3 0.7,0 0.8,0.3 0.7,-0.2 0.8,-0.6 0.7,-0.1 0.8,-0.5 0.7,-0.6 0.8,-0.6 0.7,-0.7 0.8,-0.3 0.7,0.1 0.8,-0.1 0.7,0.2 0.8,0.2 0.7,0.1 0.7,0.1 0.8,0.1 0.7,-0.9 0.8,-0.9 0.7,-1.1 0.8,-0.7 0.7,-0.9 0.8,-0.4 0.7,0.3 0.8,0.4 0.7,0.8 0.8,0.8 0.7,0.4 0.8,0.9 0.7,0.5 0.8,0 0.7,-0.4 0.8,-0.8 0.7,-0.7 0.8,-0.5 0.7,-0.7 0.7,0 0.8,0.1 0.7,0.4 0.8,0.7 0.7,0.5 0.8,1.2 0.7,0.3 0.8,0.3 0.7,0.4 0.8,-0.2 0.7,-0.5 0.8,-0.8 0.7,-0.5 0.8,-0.9 0.7,-1 0.8,-0.9 0.7,-0.6 0.8,-0.2 0.7,-0.4 0.8,-0.5 0.7,-0.1 0.7,0.1 0.8,-0.1 0.7,0.2 0.8,0.1 0.7,-0.2 0.8,0.1 0.7,0.2 0.8,-0.2 0.7,0.1 0.8,0.4 0.7,0.8 0.8,0.6 0.7,0.9 0.8,0.8 0.7,1.1 0.8,1.1 0.7,0.6 0.8,0.7 0.7,0.5 0.8,0.1 0.7,-0.3 0.7,-0.3 0.8,-0.8 0.7,-0.5 0.8,-0.8 0.7,-1.2 0.8,-0.6 0.7,-0.5 0.8,-0.2 0.7,-0.1 0.8,0.5 0.7,0.9 0.8,1.3 0.7,1.1 0.8,1.5 0.7,1.4 0.8,0.9 0.7,0.5 0.8,0.1 0.7,-0.2 0.8,-0.9 0.7,-0.7 0.7,-1.2 0.8,-1.1 0.7,-1.2 0.8,-0.5 0.7,-0.5 0.8,0 0.7,0.3 0.8,0.8 0.7,0.9 0.8,0.9 0.7,1.1 0.8,1.7 0.7,1.1 0.8,0.9 0.7,0.5 0.8,0.2 0.7,0.1 0.8,-0.4 0.7,-0.7 0.7,-0.4 0.8,-0.5 0.7,-0.4 0.8,-0.2 0.7,0 0.8,0.4 0.7,0.6 0.8,0.3 0.7,0.2 0.8,-0.1 0.7,-0.5 0.8,-0.2 0.7,-0.6 0.8,-0.6 0.7,-0.7 0.8,-0.6 0.7,-0.5 0.8,-0.3 0.7,-0.3 0.8,0.2 0.7,0 0.7,-0.2 0.8,-0.3 0.7,-0.1 0.8,0.2 0.7,-0.3 0.8,0 0.7,-0.2 0.8,-0.4 0.7,0.1 0.8,-0.1 0.7,-0.2 0.8,0.3 0.7,0.2 0.8,0.3 0.7,0.2 0.8,-0.2 0.7,0 0.8,-0.3 0.7,-0.4 0.8,-1.1 0.7,-0.9 0.7,-0.6 0.8,-0.6 0.7,0.2 0.8,0.3 0.7,0.6 0.8,1.2 0.7,1.4 0.8,1 0.7,1.1 0.8,0.5 0.7,0.6 0.8,0.2 0.7,-0.4 0.8,-0.1 0.7,-0.7 0.8,-0.1 0.7,-0.3 0.8,0 0.7,-0.1 0.8,-0.7 0.7,-0.5 0.7,-0.5 0.8,-0.4 0.7,-0.3 0.8,-0.2 0.7,0.2 0.8,0.4 0.7,1 0.8,1.5 0.7,1.7 0.8,1.6 0.7,1.8 0.8,1.3 0.7,0.8 0.8,0.3 0.7,-0.1 0.8,-0.6 0.7,-1.1 0.8,-1.2 0.7,-1.4 0.8,-1.4 0.7,-1.1 0.7,-0.8 0.8,-0.4 0.7,0 0.8,0.6 0.7,0.9 0.8,1.1 0.7,1 0.8,1 0.7,1 0.8,0.6 0.7,0.5 0.8,0.3 0.7,-0.1 0.8,-0.3 0.7,-0.3 0.8,-0.1 0.7,0.2 0.8,-0.3 0.7,0.2 0.8,-0.2 0.7,-0.4 0.7,-0.2 0.8,-0.8 0.7,-1 0.8,-1 0.7,-1.1 0.8,-0.8 0.7,-1.1 0.8,-1 0.7,-0.7 0.8,-0.2 0.7,0 0.8,-0.3 0.7,-0.3 0.8,0.2 0.7,0.2 0.8,0.2 0.7,0.4 0.8,0.3 0.7,0.9 0.7,0.4 0.8,0.6 0.7,0.5 0.8,0.2 0.7,0.6 0.8,0.5 0.7,0.4 0.8,0.2 0.7,0.5 0.8,0.9 0.7,0.9 0.8,0.6 0.7,0.2 0.8,0.5 0.7,-0.2 0.8,-0.1 0.7,-1 0.8,-0.7 0.7,-1 0.8,-0.9 0.7,-0.6 0.7,-0.1 0.8,0.2 0.7,0.8 0.8,1.1 0.7,1 0.8,1 0.7,0.5 0.8,0.5 0.7,0.1 0.8,-0.5 0.7,-0.7 0.8,-1.2 0.7,-1.2 0.8,-1.4 0.7,-1 0.8,-0.6 0.7,0.1 0.8,-0.3 0.7,0.5 0.8,0.4 0.7,0.7 0.7,0.7 0.8,0.8 0.7,0.9 0.8,0.3 0.7,0.1 0.8,0.2 0.7,0.2 0.8,0.2 0.7,0.3 0.8,0.1 0.7,-0.1 0.8,0.2 0.7,0 0.8,-0.1 0.7,-0.2 0.8,-0.2 0.7,0.1 0.8,-0.4 0.7,-0.1 0.8,0 0.7,0 0.7,-0.2 0.8,0 0.7,-0.1 0.8,0.1 0.7,0 0.8,0.3 0.7,-0.1 0.8,-0.1 0.7,-0.1 0.8,0.1 0.7,-0.3 0.8,-0.3 0.7,-1 0.8,-0.7 0.7,-0.9 0.8,-0.8 0.7,-0.5 0.8,-0.3 0.7,-0.2 0.8,0.1 0.7,0.4 0.7,0.6 0.8,0.4 0.7,0.8 0.8,0.6 0.7,0.4 0.8,0.2 0.7,0.3 0.8,-0.4 0.7,0 0.8,-0.5 0.7,-0.3 0.8,-0.2 0.7,-0.1 0.8,0.3 0.7,0.3 0.8,0.5 0.7,1.1 0.8,1.4 0.7,1.4 0.7,1.5 0.8,1.4 0.7,1.4 0.8,1.2 0.7,0.9 0.8,1 0.7,0.3 0.8,0.3 0.7,-0.1 0.8,-0.1 0.7,-0.3 0.8,-0.7 0.7,-1 0.8,-1 0.7,-1.2 0.8,-1.6 0.7,-1.1 0.8,-1.5 0.7,-1.1 0.8,-0.9 0.7,-0.6 0.7,-0.4 0.8,-0.1 0.7,0.2 0.8,0 0.7,0.1 0.8,-0.2 0.7,-0.3 0.8,-0.3 0.7,-0.1 0.8,-0.4 0.7,-0.5 0.8,0 0.7,0 0.8,0.4 0.7,0.4 0.8,0.2 0.7,-0.1 0.8,-0.1 0.7,-0.3 0.8,-1 0.7,-1 0.7,-1 0.8,-0.6 0.7,-0.3 0.8,-0.3 0.7,0.4 0.8,1 0.7,1.4 0.8,1.5 0.7,1.3 0.8,1.4 0.7,1.3 0.8,0.9 0.7,0.6 0.8,0.2 0.7,-0.4 0.8,0 0.7,-0.2 0.8,-0.4 0.7,-0.4 0.8,-0.6 0.7,-0.2 0.7,0 0.8,0.2 0.7,0.5 0.8,0.9 0.7,1.1 0.8,1.1 0.7,1 0.8,1.3 0.7,1.1 0.8,0.4 0.7,0.1 0.8,-0.7 0.7,-1.2 0.8,-1.5 0.7,-1.6 0.8,-1.7 0.7,-1.6 0.8,-1.7 0.7,-1.5 0.8,-0.8 0.7,-0.7 0.7,-0.5 0.8,-0.2 0.7,0.1 0.8,-0.3 0.7,-0.2 0.8,0.2 0.7,0.1 0.8,0.5 0.7,0.2 0.8,0.6 0.7,0.6 0.8,0.8 0.7,1 0.8,1.1 0.7,1.3 0.8,1.1 0.7,1.2 0.8,1.1 0.7,1 0.7,1 0.8,0.6 0.7,0.4 0.8,-0.2 0.7,-0.1 0.8,-0.5 0.7,-0.6 0.8,-1 0.7,-1 0.8,-1 0.7,-1 0.8,-0.5 0.7,-0.4 0.8,-0.1 0.7,-0.1 0.8,0.3 0.7,0 0.8,0.1 0.7,0.2 0.8,-0.4 0.7,-0.4 0.7,-1.2 0.8,-1 0.7,-1 0.8,-1 0.7,-0.9 0.8,-0.8 0.7,-0.6 0.8,-0.3 0.7,-0.1 0.8,0.1 0.7,0.4 0.8,0.3 0.7,0.3 0.8,0.5 0.7,0.6 0.8,0.3 0.7,0.5 0.8,0.6 0.7,0.1 0.8,0.5 0.7,0.5 0.7,0.4 0.8,0.3 0.7,0.7 0.8,0.4 0.7,0.5 0.8,0.7 0.7,0.6 0.8,0.3 0.7,0.1 0.8,-0.4 0.7,-0.5 0.8,-0.2 0.7,-0.5 0.8,-0.4 0.7,-0.1 0.8,-0.3 0.7,0.3 0.8,0.9 0.7,1 0.8,0.8 0.7,0.7 0.7,0.7 0.8,0.3 0.7,0 0.8,-0.1 0.7,-0.3 0.8,-0.4 0.7,-0.6 0.8,-0.7 0.7,-0.7 0.8,-0.5 0.7,-0.3 0.8,-0.6 0.7,-0.7 0.8,-0.8 0.7,-0.6 0.8,-0.4 0.7,-0.4 0.8,-0.3 0.7,-0.1 0.8,0.4 0.7,0.8 0.7,0.6 0.8,0.8 0.7,1.3 0.8,1.1 0.7,0.7 0.8,0.4 0.7,-0.3 0.8,0 0.7,-0.6 0.8,-0.6 0.7,-0.5 0.8,-0.6 0.7,-0.5 0.8,-0.5 0.7,-0.3 0.8,-0.4 0.7,-0.5 0.8,-0.7 0.7,-0.8 0.7,-1.7 0.8,-1.8 0.7,-1.5 0.8,-1.6 0.7,-1 0.8,-0.6 0.7,0 0.8,0.6 0.7,0.9 0.8,1.7 0.7,1.9 0.8,2.2 0.7,1.8 0.8,1.9 0.7,1.2 0.8,1 0.7,0.6 0.8,0.6 0.7,0.6 0.8,0.3 0.7,0.3 0.7,0.5 0.8,0.3 0.7,0.5 0.8,0.6 0.7,0.7 0.8,0.3 0.7,0.6"
     id="path4998" />
  <path
     style="fill:none;stroke:#000000;stroke-width:2.49999996;stroke-miterlimit:4;stroke-dasharray:7.49999989,7.49999989;stroke-dashoffset:0"
     d="m 190.63687,1665.6121 3.7,7.1 3.8,7.5 3.7,7.2 3.7,6.2 3.8,5.6 3.7,5.9 3.8,4.8 3.7,3.7 3.7,3.4 3.8,3.2 3.7,3.5 3.8,4.7 3.7,4.2 3.7,5.6 3.8,6.9 3.7,6.7 3.7,8.7 3.8,8.3 3.7,7.9 3.8,8.1 3.7,7.9 3.7,6.4 3.8,5 3.7,4.7 3.7,4.7 3.8,4.9 3.7,2.4 3.8,3 3.7,3.4 3.7,4.3 3.8,3.9 3.7,3.9 3.7,5.4 3.8,6.1 3.7,6.4 3.8,6.1 3.7,6 3.7,5.6 3.8,5.3 3.7,4.5 3.8,3.4 3.7,3.4 3.7,1.7 3.8,1.1 3.7,0.9 3.7,-0.4 3.8,0.5 3.7,0.7 3.8,1 3.7,0.9 3.7,0.8 3.8,2.1 3.7,2.2 3.7,2.8 3.8,3.4 3.7,4.1 3.8,3.9 3.7,4.2 3.7,4.8 3.8,5.2 3.7,5.2 3.7,3.5 3.8,4.1 3.7,3.5 3.8,2.4 3.7,1.9 3.7,1.5 3.8,2 3.7,1.5 3.7,1.9 3.8,2.3 3.7,3.3 3.8,3.4 3.7,3.2 3.7,3.5 3.8,1.9 3.7,2.1 3.8,0.9 3.7,0.8 3.7,0 3.8,-0.6 3.7,0.5 3.7,-0.4 3.8,0.3 3.7,0.8 3.8,2 3.7,2.4 3.7,2.6 3.8,2.7 3.7,3 3.7,4.1 3.8,3.1 3.7,4 3.8,3.9 3.7,3.5 3.7,2.3 3.8,2.3 3.7,2.4 3.7,1.5 3.8,2.3 3.7,0.8 3.8,0.6 3.7,0.4 3.7,0.7 3.8,-0.4 3.7,-0.5 3.7,-0.7 3.8,-1 3.7,-0.9 3.8,-1.1 3.7,-0.2 3.7,0.9 3.8,1.6 3.7,1.6 3.8,2.2 3.7,1.8 3.7,1.3 3.8,1.7 3.7,0.1 3.7,-0.8 3.8,-1.4 3.7,-1.4 3.8,-2.3 3.7,-1.8 3.7,-2.2 3.8,-0.5 3.7,-0.1 3.7,-0.2 3.8,0.2 3.7,0.1 3.8,0.8 3.7,-0.5 3.7,0.3 3.8,-0.9 3.7,-1.4 3.7,-1.2 3.8,-1.1 3.7,-1.5 3.8,-1.4 3.7,0.7 3.7,0.6 3.8,2 3.7,1.8 3.8,2.5 3.7,2.4 3.7,2.6 3.8,2.2 3.7,0.8 3.7,1.3 3.8,0.3 3.7,0.7 3.8,0.3 3.7,-0.1 3.7,0.9 3.8,1.5 3.7,1.6 3.7,-0.2 3.8,0.2 3.7,-0.4 3.8,-0.4 3.7,-0.9 3.7,-1.7 3.8,-1.8 3.7,-2 3.7,-1.1 3.8,-1.7 3.7,-1.1 3.8,-1 3.7,-2 3.7,-1.3 3.8,-2.4 3.7,-2.9 3.7,-2.6 3.8,-2.2 3.7,-2.7 3.8,-2.1 3.7,-1.7 3.7,-1.1 3.8,0.6 3.7,0.9 3.8,2 3.7,2.3 3.7,2.9 3.8,3.8 3.7,3.5 3.7,3.6 3.8,3 3.7,2.1 3.8,2.1 3.7,1.7 3.7,1.1 3.8,0.8 3.7,0.3 3.7,0.5 3.8,0.7 3.7,0.7 3.8,0.8 3.7,1.5 3.7,1.6"
     id="path118" />
  <path
     style="fill:none;stroke:#ff0000;stroke-width:2.49999996;stroke-miterlimit:4;stroke-dasharray:none"
     d="m 187.63687,1569.2121 0.8,13.6 0.7,16.1 0.7,17 0.8,19 0.7,19.7 0.8,22.2 0.7,22.1 0.8,21.4 0.7,23.1 0.8,20.3 0.7,17.7 0.8,14.1 0.7,12.6 0.8,10.4 0.7,8.8 0.8,6.7 0.7,5.4 0.8,5.2 0.7,4 0.8,4.5 0.7,4.1 0.8,3.7 0.7,2.5 0.7,3.3 0.8,3.3 0.7,2.5 0.8,3.2 0.7,3 0.8,3.1 0.7,3.5 0.8,3.8 0.7,4.2 0.8,4.2 0.7,4.1 0.8,3.6 0.7,3.1 0.8,1.9 0.7,1.5 0.8,1.6 0.7,1.2 0.8,1.1 0.7,2 0.8,2.7 0.7,3.7 0.7,4.8 0.8,5.4 0.7,6.4 0.8,6.5 0.7,6.2 0.8,6.2 0.7,5.2 0.8,3.6 0.7,3.5 0.8,2.4 0.7,0.6 0.8,-0.6 0.7,-1 0.8,-1.1 0.7,-1.5 0.8,-1.5 0.7,-1.2 0.8,0.3 0.7,1.1 0.8,1.7 0.7,2.8 0.7,3.5 0.8,3.4 0.7,4.1 0.8,4.8 0.7,4.4 0.8,5.3 0.7,4.8 0.8,5.3 0.7,4.7 0.8,4.1 0.7,4.1 0.8,3 0.7,2.3 0.8,1.1 0.7,0.3 0.8,0.8 0.7,0.2 0.8,0.3 0.7,1.4 0.8,1.6 0.7,2.3 0.7,4 0.8,3.5 0.7,4 0.8,4.1 0.7,3.4 0.8,3 0.7,2.5 0.8,2.8 0.7,1.8 0.8,0.9 0.7,1.7 0.8,0.5 0.7,1.2 0.8,1.5 0.7,1.1 0.8,1.6 0.7,1.2 0.8,0.6 0.7,0.7 0.8,0.5 0.7,0.1 0.7,0.5 0.8,1.1 0.7,0.4 0.8,0.6 0.7,1.2 0.8,1.5 0.7,0.9 0.8,1.8 0.7,1.3 0.8,1 0.7,0.3 0.8,0 0.7,-0.1 0.8,-0.4 0.7,-0.3 0.8,0 0.7,-1.8 0.8,-1.9 0.7,-2.1 0.7,-1.6 0.8,-2.5 0.7,-2.8 0.8,-2.1 0.7,-1.5 0.8,-0.1 0.7,0.3 0.8,1.3 0.7,2.7 0.8,3.3 0.7,3.5 0.8,4.4 0.7,3.9 0.8,3.2 0.7,3.9 0.8,2.9 0.7,1.7 0.8,1.3 0.7,1.8 0.8,1.8 0.7,1.7 0.7,1 0.8,1.2 0.7,2.7 0.8,2.1 0.7,2 0.8,2.4 0.7,3.3 0.8,2.2 0.7,2.6 0.8,2 0.7,1.6 0.8,1.5 0.7,0.8 0.8,1 0.7,0.1 0.8,-0.6 0.7,-1 0.8,0.2 0.7,-1.2 0.8,-0.5 0.7,0.4 0.7,0.4 0.8,0.3 0.7,0.5 0.8,1.3 0.7,1.3 0.8,1.7 0.7,1.2 0.8,0.5 0.7,0 0.8,-1.3 0.7,-1.5 0.8,-1.3 0.7,-2.4 0.8,-2.3 0.7,-1.6 0.8,-1.2 0.7,-0.5 0.8,0.9 0.7,2.1 0.8,2.9 0.7,3 0.7,2.9 0.8,2.4 0.7,2.4 0.8,1.1 0.7,0.6 0.8,-0.5 0.7,-0.7 0.8,-1.2 0.7,-1.1 0.8,-1.2 0.7,-0.5 0.8,-0.3 0.7,1 0.8,1.2 0.7,1.6 0.8,1.7 0.7,2.7 0.8,3.2 0.7,3.3 0.8,2.6 0.7,3.7 0.7,3.1 0.8,3.1 0.7,1.6 0.8,1.6 0.7,1.5 0.8,0.4 0.7,0.2 0.8,-0.5 0.7,-1.3 0.8,-1.4 0.7,-1.4 0.8,-1.6 0.7,-1.7 0.8,-2.2 0.7,-1.7 0.8,-1.4 0.7,-1.7 0.8,-1.1 0.7,-0.6 0.7,0.1 0.8,0.9 0.7,1.4 0.8,1 0.7,1.6 0.8,2 0.7,1.8 0.8,1.4 0.7,0.9 0.8,0.9 0.7,-0.1 0.8,0 0.7,-0.8 0.8,-0.4 0.7,-0.6 0.8,-0.9 0.7,-1.2 0.8,-1.1 0.7,-1.3 0.8,-1.3 0.7,-0.4 0.7,-0.7 0.8,-0.5 0.7,0 0.8,0.4 0.7,0.6 0.8,0.5 0.7,1.3 0.8,0.9 0.7,1.2 0.8,1 0.7,1 0.8,1.5 0.7,1.4 0.8,1.2 0.7,1.6 0.8,1.6 0.7,1.6 0.8,1.1 0.7,1.6 0.8,0.9 0.7,0.5 0.7,0.3 0.8,-0.2 0.7,-0.6 0.8,-1.3 0.7,-1.3 0.8,-1.7 0.7,-1.5 0.8,-1.7 0.7,-1.2 0.8,-1.4 0.7,-1.3 0.8,-1.1 0.7,-0.7 0.8,-0.9 0.7,-1.4 0.8,-1 0.7,-1.5 0.8,-0.5 0.7,-0.6 0.8,-0.4 0.7,0.5 0.7,0.5 0.8,1.2 0.7,1.6 0.8,1.8 0.7,1.5 0.8,1.8 0.7,1.8 0.8,1.6 0.7,0.9 0.8,1.3 0.7,1.1 0.8,0.8 0.7,0.7 0.8,-0.9 0.7,-0.5 0.8,-0.6 0.7,-1.1 0.8,-1.5 0.7,-1.8 0.8,-1.8 0.7,-1 0.7,-1.4 0.8,-0.4 0.7,0 0.8,0.8 0.7,1.1 0.8,1.2 0.7,2.1 0.8,2.3 0.7,2 0.8,2.9 0.7,2.1 0.8,2.4 0.7,2.1 0.8,1.2 0.7,1.1 0.8,1.3 0.7,0.5 0.8,0.6 0.7,-0.4 0.7,-0.5 0.8,-0.8 0.7,-0.5 0.8,-1 0.7,-2.1 0.8,-2.2 0.7,-1.7 0.8,-2.7 0.7,-2.3 0.8,-2.1 0.7,-2.2 0.8,-0.8 0.7,-0.8 0.8,0.1 0.7,1.1 0.8,2 0.7,2.1 0.8,2.1 0.7,1.6 0.8,1.2 0.7,0.7 0.7,1 0.8,-0.3 0.7,-0.8 0.8,-0.9 0.7,-0.6 0.8,-1.3 0.7,0 0.8,-0.1 0.7,0.2 0.8,-0.2 0.7,0 0.8,0.1 0.7,0.2 0.8,0.4 0.7,0.3 0.8,0.4 0.7,0.8 0.8,0.6 0.7,1.1 0.8,0.4 0.7,0.5 0.7,-0.7 0.8,-0.2 0.7,-1.3 0.8,-2.1 0.7,-2.1 0.8,-2 0.7,-1.7 0.8,-1 0.7,-0.4 0.8,0.3 0.7,1.3 0.8,2 0.7,2 0.8,2.3 0.7,2 0.8,1.9 0.7,1.8 0.8,1.5 0.7,0.8 0.8,0.8 0.7,0.9 0.7,0.5 0.8,0.5 0.7,0.1 0.8,-0.6 0.7,-1.5 0.8,-1.9 0.7,-2.5 0.8,-3.3 0.7,-3.2 0.8,-3.7 0.7,-2.7 0.8,-2.5 0.7,-1.9 0.8,-0.1 0.7,1.1 0.8,1.4 0.7,1.8 0.8,2.4 0.7,2.3 0.8,2.2 0.7,2.3 0.7,1.8 0.8,1.1 0.7,0.9 0.8,0.6 0.7,0.5 0.8,1.1 0.7,0.4 0.8,0.2 0.7,0.2 0.8,-0.2 0.7,-0.2 0.8,-0.1 0.7,-0.5 0.8,-0.6 0.7,-0.4 0.8,-0.6 0.7,-0.8 0.8,-0.2 0.7,-0.9 0.7,-0.8 0.8,-0.6 0.7,-0.9 0.8,-0.7 0.7,-0.5 0.8,0.5 0.7,0.4 0.8,1.2 0.7,2.1 0.8,2.1 0.7,2.1 0.8,1.6 0.7,0.7 0.8,0.6 0.7,-0.5 0.8,-1.5 0.7,-1.8 0.8,-2.6 0.7,-2.4 0.8,-2 0.7,-1.6 0.7,-0.2 0.8,-0.2 0.7,1.1 0.8,1.4 0.7,1.6 0.8,1.7 0.7,1.7 0.8,1.1 0.7,0.8 0.8,0.2 0.7,-0.3 0.8,-1.1 0.7,-1 0.8,-1 0.7,-1.7 0.8,-1.5 0.7,-0.8 0.8,-0.4 0.7,0 0.8,-0.7 0.7,0.1 0.7,0.8 0.8,1 0.7,1.1 0.8,1.1 0.7,1 0.8,0.6 0.7,0.9 0.8,0.8 0.7,0.7 0.8,0.8 0.7,1.2 0.8,1.3 0.7,0.8 0.8,0.8 0.7,0.8 0.8,1.2 0.7,0.2 0.8,-0.4 0.7,-0.7 0.8,-1.6 0.7,-1.5 0.7,-2.2 0.8,-2.5 0.7,-1.9 0.8,-1.8 0.7,-1.6 0.8,-0.7 0.7,-0.2 0.8,0.1 0.7,0.9 0.8,1.5 0.7,1.9 0.8,1.5 0.7,1.8 0.8,1.8 0.7,1.3 0.8,0.3 0.7,0 0.8,-0.3 0.7,-0.9 0.8,-1.4 0.7,-1.3 0.7,-1.8 0.8,-1.8 0.7,-1.9 0.8,-1 0.7,-1.1 0.8,-0.6 0.7,-0.8 0.8,0.1 0.7,0.1 0.8,0 0.7,1.4 0.8,1.6 0.7,1.3 0.8,1.4 0.7,2 0.8,1.4 0.7,1.9 0.8,1.6 0.7,1.2 0.7,0.9 0.8,0.6 0.7,0.5 0.8,0.1 0.7,0.2 0.8,-0.3 0.7,-0.1 0.8,-0.3 0.7,-0.8 0.8,-0.4 0.7,-0.4 0.8,0.2 0.7,-0.6 0.8,0.1 0.7,-0.4 0.8,0.4 0.7,-0.4 0.8,0.2 0.7,-0.1 0.8,0 0.7,0.1 0.7,0.4 0.8,0.2 0.7,0.4 0.8,1.2 0.7,1.4 0.8,0.7 0.7,0.9 0.8,0.7 0.7,0.8 0.8,0.2 0.7,-0.2 0.8,-0.5 0.7,-0.1 0.8,-1.1 0.7,-1.7 0.8,-1.2 0.7,-1.3 0.8,-1.9 0.7,-1.7 0.8,-1.8 0.7,-1.5 0.7,-1.2 0.8,0.1 0.7,0.1 0.8,0.7 0.7,1.8 0.8,1.7 0.7,1.9 0.8,1.7 0.7,1.5 0.8,1 0.7,0.8 0.8,-0.2 0.7,-0.5 0.8,-0.6 0.7,-0.4 0.8,-0.7 0.7,-0.7 0.8,-0.2 0.7,-0.5 0.8,-0.7 0.7,-0.1 0.7,-0.4 0.8,-0.3 0.7,-0.4 0.8,0.1 0.7,0.1 0.8,0.5 0.7,1 0.8,1.1 0.7,1.1 0.8,1.4 0.7,0.7 0.8,1.4 0.7,0.4 0.8,0.2 0.7,0.1 0.8,-0.3 0.7,-1 0.8,-0.7 0.7,-0.2 0.8,-0.2 0.7,0.1 0.7,0 0.8,0.6 0.7,0.5 0.8,1.3 0.7,1.1 0.8,0.6 0.7,0.4 0.8,-0.6 0.7,-0.4 0.8,-1.2 0.7,-1.2 0.8,-1.3 0.7,-1 0.8,-0.8 0.7,-0.4 0.8,0.1 0.7,0.8 0.8,1.3 0.7,1.2 0.8,0.8 0.7,0.3 0.7,0.4 0.8,-0.2 0.7,-0.7 0.8,-0.6 0.7,-1.5 0.8,-1.1 0.7,-1.1 0.8,-0.6 0.7,-0.6 0.8,0.2 0.7,0.2 0.8,0.1 0.7,0.4 0.8,0.5 0.7,0.8 0.8,0.4 0.7,0.1 0.8,-0.1 0.7,-0.6 0.7,-0.7 0.8,-1.3 0.7,-0.6 0.8,-1.3 0.7,-0.8 0.8,-0.7 0.7,-0.2 0.8,-0.3 0.7,0.1 0.8,0.4 0.7,0.3 0.8,0.2 0.7,-0.6 0.8,-0.4 0.7,-1.1 0.8,-1.3 0.7,-0.9 0.8,-0.6 0.7,-0.1 0.8,0.2 0.7,1 0.7,1.6 0.8,2.1 0.7,2.4 0.8,2.7 0.7,2.2 0.8,2.3 0.7,1.1 0.8,1.1 0.7,0.3 0.8,0 0.7,-0.5 0.8,-0.5 0.7,-0.7 0.8,-1.2 0.7,-0.5 0.8,-0.4 0.7,-0.3 0.8,-0.3 0.7,-0.2 0.8,-0.1 0.7,-0.2 0.7,-0.4 0.8,-0.8 0.7,-0.8 0.8,-1.1 0.7,-0.7 0.8,-0.8 0.7,-0.2 0.8,-0.5 0.7,-0.2 0.8,0.4 0.7,0.1 0.8,0.4 0.7,0.2 0.8,0 0.7,0.2 0.8,-0.1 0.7,0.5 0.8,0.3 0.7,0.5 0.8,1.1 0.7,0.8 0.7,0.5 0.8,0.7 0.7,0.6 0.8,0.1 0.7,-0.3 0.8,-0.4 0.7,-0.8 0.8,-1 0.7,-0.8 0.8,-0.6 0.7,-1 0.8,-0.6 0.7,-0.6 0.8,0.2 0.7,0.1 0.8,0.5 0.7,0.9 0.8,1.3 0.7,1.3 0.8,1.1 0.7,1.7 0.7,1 0.8,0.7 0.7,0.7 0.8,0.3 0.7,0.1 0.8,0 0.7,0.3 0.8,-0.2 0.7,0.4 0.8,0.1 0.7,0.4 0.8,0.3 0.7,0.1 0.8,0.4 0.7,0.2 0.8,0.3 0.7,0.3 0.8,0.6 0.7,0.5 0.7,1 0.8,1.1 0.7,0.6 0.8,0.8 0.7,1 0.8,0.8 0.7,0.3 0.8,0.3 0.7,0 0.8,-0.1 0.7,0 0.8,-0.9 0.7,-1 0.8,-1 0.7,-1.1 0.8,-1.7 0.7,-1.5 0.8,-1.6 0.7,-1.5 0.8,-1.3 0.7,-1 0.7,-1 0.8,-0.7 0.7,-0.4 0.8,-0.9 0.7,-0.6 0.8,-1.1 0.7,-1.3 0.8,-0.9 0.7,-0.3 0.8,-0.6 0.7,-1 0.8,0.6 0.7,0.5 0.8,0.9 0.7,0.8 0.8,1 0.7,0.3 0.8,0.6 0.7,0 0.8,-0.6 0.7,-0.3 0.7,-0.2 0.8,0.2 0.7,0.6 0.8,1.1 0.7,1.1 0.8,2.1 0.7,2.1 0.8,1.5 0.7,1.1 0.8,0.7 0.7,0.2 0.8,-1.1 0.7,-1.5 0.8,-1.9 0.7,-2 0.8,-1.6 0.7,-1.4 0.8,-1 0.7,0 0.8,0.4 0.7,0.9 0.7,1.4 0.8,1.4 0.7,1.3 0.8,0.9 0.7,0.9 0.8,0.3 0.7,0.2 0.8,0.2 0.7,-0.1 0.8,-0.1 0.7,0.3 0.8,0.3 0.7,0.2 0.8,-0.1 0.7,0.2 0.8,0.5 0.7,0.2 0.8,-0.1 0.7,-0.6 0.8,-0.2 0.7,-0.5 0.7,-0.6 0.8,-0.3 0.7,-0.5 0.8,-0.7 0.7,-0.6 0.8,-0.1 0.7,0.2 0.8,0.5 0.7,0.8 0.8,1 0.7,0.7 0.8,1 0.7,1 0.8,0.5 0.7,0.4 0.8,-0.3 0.7,-0.1 0.8,-0.4 0.7,-0.1 0.7,0 0.8,0.3 0.7,0.7 0.8,0.2 0.7,0.5 0.8,0.6 0.7,0.4 0.8,0 0.7,-1 0.8,-1.3 0.7,-1 0.8,-0.8 0.7,-1 0.8,-1 0.7,-1 0.8,-0.2 0.7,0.1 0.8,0.3 0.7,0.3 0.8,0 0.7,0.5 0.7,-0.4 0.8,-0.6 0.7,-0.7 0.8,-0.7 0.7,-1.3 0.8,-1.7 0.7,-1.8 0.8,-1.7 0.7,-1.1 0.8,-0.8 0.7,-0.5 0.8,-0.7 0.7,0.3 0.8,1 0.7,1.5 0.8,1.5 0.7,1.3 0.8,1.6 0.7,1 0.8,0.8 0.7,0.3 0.7,0.5 0.8,-0.2 0.7,-0.5 0.8,-0.1 0.7,0.1 0.8,0.4 0.7,0.9 0.8,0.9 0.7,0.7 0.8,1 0.7,0.6 0.8,0.8 0.7,0.5 0.8,0 0.7,0 0.8,-0.4 0.7,0.1 0.8,-0.4 0.7,-0.2 0.8,0.4 0.7,-0.5 0.7,-0.8 0.8,-0.5 0.7,-0.7 0.8,-0.9 0.7,-1 0.8,-0.9 0.7,-0.7 0.8,-0.4 0.7,-0.4 0.8,0 0.7,0.2 0.8,0.4 0.7,0.2 0.8,0.3 0.7,0.3 0.8,-0.1 0.7,0.2 0.8,0.2 0.7,-0.6 0.8,0.1 0.7,0.1 0.7,-0.1 0.8,-0.3 0.7,0.1 0.8,0.1 0.7,0.1 0.8,0.4 0.7,0.3 0.8,0.7 0.7,0.8 0.8,1.3 0.7,1.3 0.8,1.3 0.7,1.8 0.8,1.2 0.7,1 0.8,0.4 0.7,-0.1 0.8,-0.9 0.7,-1.1 0.7,-2 0.8,-2.5 0.7,-2 0.8,-2.4 0.7,-1.6 0.8,-1.2 0.7,-1 0.8,0.2 0.7,0.3 0.8,1.2 0.7,1.6 0.8,1.8 0.7,1.8 0.8,1.8 0.7,1.8 0.8,1.5 0.7,1.1 0.8,1 0.7,0.9 0.8,0 0.7,0 0.7,-0.2 0.8,-0.1 0.7,-0.1 0.8,-0.5 0.7,-0.1 0.8,-0.6 0.7,-0.3"
     id="path4994" />
  <path
     style="fill:none;stroke:#ff0000;stroke-width:2.49999996;stroke-miterlimit:4;stroke-dasharray:7.49999989,7.49999989;stroke-dashoffset:0"
     d="m 190.63687,1719.1121 3.7,7.2 3.8,7.7 3.7,6.7 3.7,6 3.8,4.5 3.7,4 3.8,3.1 3.7,1.2 3.7,0.7 3.8,-0.2 3.7,-0.7 3.8,0.2 3.7,-0.7 3.7,0.6 3.8,1.4 3.7,0.7 3.7,2.7 3.8,2.8 3.7,2.8 3.8,3.3 3.7,3.2 3.7,2.7 3.8,2 3.7,2.1 3.7,3.3 3.8,3.6 3.7,1.6 3.8,1.7 3.7,2.1 3.7,3.6 3.8,3.1 3.7,2.7 3.7,4 3.8,3.4 3.7,3.2 3.8,3 3.7,2.6 3.7,2.1 3.8,1.4 3.7,0.3 3.8,-0.3 3.7,-1.1 3.7,-1.5 3.8,-1.1 3.7,-1 3.7,-1.9 3.8,-1.2 3.7,0.1 3.8,0.1 3.7,0.8 3.7,0.9 3.8,1.5 3.7,1.3 3.7,1.1 3.8,1 3.7,1.3 3.8,0.2 3.7,-0.4 3.7,0.1 3.8,0 3.7,-0.2 3.7,-1.1 3.8,-0.3 3.7,0.2 3.8,0 3.7,0.6 3.7,0.4 3.8,1.6 3.7,1.9 3.7,2 3.8,3.2 3.7,3.2 3.8,3.6 3.7,3.4 3.7,3.2 3.8,1.6 3.7,1.1 3.8,0.2 3.7,0 3.7,-1.1 3.8,-1.8 3.7,-1.3 3.7,-0.9 3.8,-0.7 3.7,-0.2 3.8,1.1 3.7,2.2 3.7,2 3.8,2.2 3.7,1.6 3.7,3.9 3.8,2 3.7,4 3.8,3.4 3.7,3.4 3.7,1.9 3.8,2.1 3.7,2 3.7,1.2 3.8,0.3 3.7,-1.8 3.8,-2.2 3.7,-3 3.7,-2.6 3.8,-3.3 3.7,-2.6 3.7,-1.4 3.8,-1.6 3.7,0.2 3.8,-0.3 3.7,1.2 3.7,2.3 3.8,2.9 3.7,2.4 3.8,1.3 3.7,2.2 3.7,2 3.8,2.6 3.7,1.3 3.7,1.1 3.8,0.7 3.7,1.4 3.8,0.3 3.7,-0.1 3.7,-1.4 3.8,0.2 3.7,-0.9 3.7,-1.5 3.8,-1.5 3.7,-1.9 3.8,-2.1 3.7,-0.7 3.7,-0.7 3.8,-1.3 3.7,-0.9 3.7,0.1 3.8,0.3 3.7,1 3.8,1.3 3.7,3.3 3.7,2.2 3.8,3.3 3.7,1.6 3.8,2.6 3.7,1.7 3.7,1.5 3.8,1.8 3.7,0.5 3.7,-0.8 3.8,-0.6 3.7,0.3 3.8,-0.2 3.7,-1.1 3.7,-0.3 3.8,-0.7 3.7,-0.6 3.7,-1.6 3.8,-0.9 3.7,-1.1 3.8,-0.4 3.7,-1.2 3.7,-0.6 3.8,-0.3 3.7,-1.3 3.7,-0.2 3.8,-1.2 3.7,-1.4 3.8,-1.2 3.7,-1.6 3.7,-1.4 3.8,-1.5 3.7,-1.8 3.7,-1.5 3.8,-1.1 3.7,-0.7 3.8,-0.3 3.7,-0.2 3.7,0.1 3.8,0.1 3.7,0.1 3.8,1 3.7,1.2 3.7,0.5 3.8,1.4 3.7,0.6 3.7,1.2 3.8,1.1 3.7,-0.2 3.8,0.9 3.7,1.3 3.7,1 3.8,1 3.7,0.8 3.7,1.2 3.8,1.8 3.7,1.8 3.8,1.5 3.7,2.4 3.7,1.7"
     id="path120" />
  <path
     style="fill:none;stroke:#0000ff;stroke-width:2.49999996;stroke-miterlimit:4;stroke-dasharray:none"
     d="m 187.63687,1564.1121 0.8,11.8 0.7,12.9 0.7,13.8 0.8,16.3 0.7,16.7 0.8,17.4 0.7,17.6 0.8,15.9 0.7,17.3 0.8,14.3 0.7,12.3 0.8,9.8 0.7,8.1 0.8,6.3 0.7,5.2 0.8,5.1 0.7,4 0.8,5.1 0.7,5.2 0.8,5.5 0.7,5.3 0.8,5.9 0.7,5.7 0.7,5.3 0.8,5.4 0.7,4.6 0.8,4.7 0.7,4 0.8,3.5 0.7,4 0.8,4.1 0.7,4.8 0.8,4.6 0.7,5.7 0.8,5.2 0.7,5.5 0.8,5.8 0.7,4.6 0.8,5.6 0.7,5.6 0.8,5.7 0.7,6.5 0.8,5.7 0.7,7 0.7,6.9 0.8,8.3 0.7,7.6 0.8,7 0.7,5.8 0.8,5.7 0.7,4.2 0.8,2.3 0.7,3.5 0.8,2 0.7,1.9 0.8,0.7 0.7,1 0.8,1.4 0.7,0.7 0.8,1.4 0.7,0.5 0.8,1.4 0.7,0.4 0.8,1.4 0.7,2.6 0.7,2.2 0.8,3.6 0.7,4.4 0.8,5.7 0.7,5 0.8,6.4 0.7,6.4 0.8,6.1 0.7,5.7 0.8,5 0.7,4.1 0.8,3 0.7,3.3 0.8,2 0.7,1.2 0.8,1.2 0.7,0.6 0.8,1.4 0.7,-0.4 0.8,0.7 0.7,0.8 0.7,1.5 0.8,1.1 0.7,2 0.8,2.2 0.7,3.1 0.8,3 0.7,4.1 0.8,4.3 0.7,3.1 0.8,3.8 0.7,3.6 0.8,2.4 0.7,1.7 0.8,0.7 0.7,1.3 0.8,-0.6 0.7,-1.2 0.8,-1.9 0.7,-2.1 0.8,-2.5 0.7,-1.4 0.7,-1.9 0.8,-0.4 0.7,0 0.8,1.1 0.7,2.4 0.8,2.6 0.7,2.3 0.8,3.5 0.7,3.1 0.8,2.6 0.7,1.4 0.8,0.9 0.7,0.9 0.8,0.4 0.7,1.4 0.8,1.4 0.7,0.1 0.8,0.6 0.7,0.9 0.7,0.4 0.8,-0.1 0.7,-0.5 0.8,-0.1 0.7,-0.7 0.8,-0.5 0.7,0.4 0.8,0.3 0.7,1.5 0.8,1.9 0.7,1.6 0.8,1.9 0.7,0.9 0.8,0 0.7,0.8 0.8,-0.8 0.7,-1.6 0.8,-1.4 0.7,-1.5 0.8,-0.8 0.7,-1 0.7,0 0.8,-0.3 0.7,0.6 0.8,0.5 0.7,0.7 0.8,0.2 0.7,1 0.8,0.3 0.7,0.8 0.8,0.2 0.7,0.5 0.8,1.2 0.7,1 0.8,1.2 0.7,2 0.8,1.2 0.7,1.4 0.8,2.2 0.7,1.8 0.8,1.7 0.7,2.7 0.7,2.2 0.8,2.5 0.7,1.3 0.8,1.6 0.7,1.4 0.8,1.1 0.7,-0.7 0.8,-0.8 0.7,-1.6 0.8,-3 0.7,-3.1 0.8,-2.2 0.7,-2.5 0.8,-2.4 0.7,-1.4 0.8,-0.4 0.7,0 0.8,1.1 0.7,1.5 0.8,1.9 0.7,1.9 0.7,1.1 0.8,1.2 0.7,1.7 0.8,0.4 0.7,1 0.8,1.7 0.7,2.2 0.8,2.6 0.7,3.8 0.8,3.8 0.7,4 0.8,4.3 0.7,4.3 0.8,3.5 0.7,2.9 0.8,1.9 0.7,1.2 0.8,0.6 0.7,0.5 0.8,0.1 0.7,1.1 0.7,1.1 0.8,1.2 0.7,1 0.8,2.3 0.7,2 0.8,2.6 0.7,2 0.8,1.2 0.7,0.5 0.8,0.5 0.7,-0.1 0.8,-0.8 0.7,-0.4 0.8,-0.9 0.7,-1.5 0.8,-0.9 0.7,-1 0.8,-0.7 0.7,0.2 0.7,0.2 0.8,0.5 0.7,0.7 0.8,0.6 0.7,0.9 0.8,1.1 0.7,0.9 0.8,0.1 0.7,0.1 0.8,0.3 0.7,-1.1 0.8,-0.6 0.7,-1 0.8,-1.4 0.7,-1.2 0.8,-1.7 0.7,-1.8 0.8,-1.3 0.7,-2 0.8,-1.1 0.7,-0.4 0.7,-0.1 0.8,0.4 0.7,1.2 0.8,2 0.7,2.2 0.8,1.9 0.7,2.6 0.8,2.1 0.7,1.5 0.8,1 0.7,0.6 0.8,0.1 0.7,-0.1 0.8,-0.1 0.7,0 0.8,-0.5 0.7,0 0.8,0 0.7,0.2 0.8,0.3 0.7,0.4 0.7,0.5 0.8,0.7 0.7,0 0.8,0.2 0.7,0.5 0.8,0 0.7,-0.4 0.8,0.3 0.7,-0.2 0.8,-0.9 0.7,-0.5 0.8,-0.9 0.7,-1 0.8,-1 0.7,-0.9 0.8,-1.4 0.7,-1.4 0.8,-1.2 0.7,-0.9 0.8,-0.8 0.7,-0.2 0.7,-0.4 0.8,0.1 0.7,0.4 0.8,-0.2 0.7,0.5 0.8,1 0.7,0.5 0.8,0.9 0.7,0.1 0.8,0.6 0.7,1.2 0.8,1.1 0.7,1.2 0.8,1 0.7,0.7 0.8,0.5 0.7,0.5 0.8,0.4 0.7,0 0.8,-0.6 0.7,-0.7 0.7,-0.8 0.8,-0.8 0.7,-0.8 0.8,-0.4 0.7,-0.3 0.8,0.2 0.7,-0.1 0.8,0.6 0.7,0.5 0.8,0.6 0.7,0.9 0.8,1.1 0.7,0.6 0.8,0.6 0.7,0.9 0.8,0.8 0.7,0.6 0.8,-0.2 0.7,0.5 0.7,0 0.8,-0.2 0.7,0 0.8,-1.2 0.7,-0.5 0.8,-1.2 0.7,-0.5 0.8,-0.5 0.7,-0.6 0.8,-0.2 0.7,-0.1 0.8,0.2 0.7,0.1 0.8,0.7 0.7,0.9 0.8,0.9 0.7,0.4 0.8,0.4 0.7,0.3 0.8,-0.1 0.7,0.5 0.7,0.1 0.8,0.1 0.7,-0.5 0.8,-0.1 0.7,-0.1 0.8,0 0.7,-0.3 0.8,-0.1 0.7,-0.1 0.8,-0.4 0.7,0 0.8,0.3 0.7,0.3 0.8,0.6 0.7,0.3 0.8,0.6 0.7,0.3 0.8,0.1 0.7,-0.1 0.8,-0.8 0.7,-1.1 0.7,-1.8 0.8,-1.7 0.7,-1.9 0.8,-2 0.7,-1.9 0.8,-1.6 0.7,-0.7 0.8,-0.1 0.7,0.8 0.8,1 0.7,1.9 0.8,1.6 0.7,1.9 0.8,2.3 0.7,1.5 0.8,1.6 0.7,1.2 0.8,1.4 0.7,0.6 0.8,0.8 0.7,1 0.7,1 0.8,0.9 0.7,0.1 0.8,0.3 0.7,-0.3 0.8,-0.5 0.7,-1.3 0.8,-1.2 0.7,-1.3 0.8,-1.7 0.7,-1.2 0.8,-1.1 0.7,-1 0.8,-0.5 0.7,-0.3 0.8,0.1 0.7,-0.2 0.8,-0.2 0.7,0.4 0.8,0 0.7,-0.3 0.7,0.3 0.8,0.2 0.7,0.9 0.8,0.7 0.7,1 0.8,1.5 0.7,1.4 0.8,1.4 0.7,1.3 0.8,0.9 0.7,0.8 0.8,0 0.7,-0.3 0.8,-0.3 0.7,-0.7 0.8,-1 0.7,-0.8 0.8,-1 0.7,-0.8 0.7,-1.1 0.8,-0.7 0.7,-0.7 0.8,-0.5 0.7,-0.3 0.8,0.2 0.7,0.6 0.8,0.8 0.7,1.7 0.8,1.7 0.7,1.2 0.8,1.1 0.7,0.6 0.8,0.1 0.7,-0.3 0.8,-1.3 0.7,-1.2 0.8,-1.2 0.7,-1.5 0.8,-1 0.7,-0.5 0.7,0.3 0.8,0.3 0.7,0.4 0.8,0.8 0.7,-0.1 0.8,-0.2 0.7,-0.1 0.8,-0.9 0.7,-0.9 0.8,-0.3 0.7,-1 0.8,-0.6 0.7,-0.4 0.8,0.1 0.7,0.4 0.8,0.4 0.7,-0.2 0.8,0.1 0.7,-0.1 0.8,-0.8 0.7,-1.3 0.7,-0.7 0.8,-0.9 0.7,-0.9 0.8,-0.4 0.7,-0.5 0.8,-0.7 0.7,0.6 0.8,0.7 0.7,0.9 0.8,1.2 0.7,1.8 0.8,1.3 0.7,2.2 0.8,1.5 0.7,1.8 0.8,2.1 0.7,1.4 0.8,0.3 0.7,0.2 0.8,-0.6 0.7,-0.7 0.7,-1.1 0.8,-1.4 0.7,-1.8 0.8,-1.5 0.7,-1.3 0.8,-0.5 0.7,-0.5 0.8,0.2 0.7,0.3 0.8,0.8 0.7,0.8 0.8,1 0.7,0.5 0.8,0.4 0.7,-0.1 0.8,-0.3 0.7,-0.9 0.8,-0.7 0.7,-0.7 0.8,-0.8 0.7,-0.5 0.7,-0.4 0.8,0.2 0.7,0.5 0.8,1 0.7,0.4 0.8,0.4 0.7,-0.1 0.8,0.3 0.7,-0.1 0.8,-0.2 0.7,-0.6 0.8,-0.3 0.7,-0.6 0.8,0 0.7,0 0.8,0.2 0.7,0.1 0.8,0.7 0.7,0.4 0.7,0.6 0.8,0.5 0.7,1.2 0.8,1.1 0.7,1.3 0.8,1.5 0.7,1.2 0.8,0.9 0.7,0.7 0.8,0 0.7,-0.3 0.8,-0.8 0.7,-1.2 0.8,-1.4 0.7,-1.2 0.8,-1.4 0.7,-1.3 0.8,-0.2 0.7,-0.5 0.8,-0.2 0.7,0.3 0.7,0.6 0.8,0 0.7,0.6 0.8,0.7 0.7,0.1 0.8,0.3 0.7,0.1 0.8,-0.3 0.7,0 0.8,-0.5 0.7,-0.5 0.8,-0.1 0.7,0 0.8,-0.3 0.7,0.5 0.8,0.5 0.7,0.3 0.8,0 0.7,0.2 0.8,-0.1 0.7,-0.6 0.7,-0.6 0.8,-0.9 0.7,-1 0.8,-0.7 0.7,-0.2 0.8,0 0.7,0.4 0.8,1 0.7,1.5 0.8,1.9 0.7,1.9 0.8,2.4 0.7,2.4 0.8,2.2 0.7,1.7 0.8,1.4 0.7,0.5 0.8,0.4 0.7,-1.2 0.8,-1.3 0.7,-2.3 0.7,-2.3 0.8,-2 0.7,-2.2 0.8,-1.5 0.7,-0.3 0.8,0.4 0.7,0.9 0.8,1.3 0.7,1.5 0.8,1.7 0.7,1.4 0.8,0.5 0.7,-0.2 0.8,-0.7 0.7,-0.9 0.8,-1.7 0.7,-1.8 0.8,-1.5 0.7,-0.8 0.8,-0.7 0.7,0 0.7,-0.2 0.8,0.5 0.7,0.8 0.8,1 0.7,1.3 0.8,0.7 0.7,0.5 0.8,0.6 0.7,0.6 0.8,-0.2 0.7,0.5 0.8,0.1 0.7,0.7 0.8,0.5 0.7,0.4 0.8,1.4 0.7,1.2 0.8,1.4 0.7,1.2 0.8,1.1 0.7,0.7 0.7,0.4 0.8,0.1 0.7,-0.5 0.8,-0.8 0.7,-1.2 0.8,-0.5 0.7,-0.9 0.8,-0.7 0.7,-0.7 0.8,-0.2 0.7,0.3 0.8,-0.2 0.7,0.2 0.8,0.2 0.7,0.1 0.8,-0.3 0.7,-0.5 0.8,-0.7 0.7,-1.4 0.7,-0.9 0.8,-1.2 0.7,-1.3 0.8,-1.8 0.7,-0.9 0.8,-0.6 0.7,-0.4 0.8,-0.4 0.7,-0.2 0.8,0.7 0.7,1 0.8,0.9 0.7,1.1 0.8,1.1 0.7,0.7 0.8,0.6 0.7,0.3 0.8,-0.1 0.7,-0.4 0.8,-0.1 0.7,-0.6 0.7,-0.4 0.8,-0.5 0.7,0.3 0.8,0.6 0.7,0.8 0.8,0.6 0.7,0.4 0.8,1 0.7,0.4 0.8,-0.1 0.7,-0.3 0.8,-0.2 0.7,-0.3 0.8,-0.5 0.7,0 0.8,0.2 0.7,0.8 0.8,0.5 0.7,1.1 0.8,0.9 0.7,0.4 0.7,0 0.8,0 0.7,-0.5 0.8,-0.9 0.7,-0.8 0.8,-0.2 0.7,0 0.8,0 0.7,0.7 0.8,1.3 0.7,0.9 0.8,1.1 0.7,0.6 0.8,-0.1 0.7,-0.3 0.8,-1.3 0.7,-0.6 0.8,-1.4 0.7,-2.1 0.8,-1.8 0.7,-1.6 0.7,-1.4 0.8,-1.2 0.7,-0.6 0.8,-0.1 0.7,0.1 0.8,0.9 0.7,1.1 0.8,1 0.7,1 0.8,1.1 0.7,0.3 0.8,0.1 0.7,-1.3 0.8,-0.9 0.7,-1 0.8,-0.8 0.7,-1 0.8,0.1 0.7,0.9 0.8,1 0.7,1.4 0.7,1.7 0.8,1.6 0.7,1.1 0.8,1.1 0.7,0.7 0.8,-0.1 0.7,-0.7 0.8,-0.5 0.7,-0.5 0.8,-0.7 0.7,-0.5 0.8,-0.7 0.7,-0.4 0.8,-0.8 0.7,-0.4 0.8,0.1 0.7,0 0.8,-0.2 0.7,0 0.7,1.2 0.8,1.1 0.7,1.2 0.8,2 0.7,1.9 0.8,2.3 0.7,2.3 0.8,2.1 0.7,1.5 0.8,1.1 0.7,1 0.8,-0.2 0.7,-1.2 0.8,-1.4 0.7,-1.8 0.8,-2.2 0.7,-2.2 0.8,-2.4 0.7,-1.9 0.8,-1.2 0.7,-0.7 0.7,-0.1 0.8,-0.3 0.7,0.6 0.8,0.4 0.7,0.6 0.8,0 0.7,-0.5 0.8,0 0.7,0.1 0.8,-0.3 0.7,-0.1 0.8,0.8 0.7,0.6 0.8,1 0.7,0.9 0.8,0.9 0.7,0.3 0.8,0.4 0.7,-0.4 0.8,-1.3 0.7,-1.1 0.7,-1.4 0.8,-0.9 0.7,-1.2 0.8,-0.9 0.7,-0.7 0.8,0.5 0.7,0.8 0.8,0.8 0.7,1 0.8,1.4 0.7,1.5 0.8,1 0.7,0.5 0.8,0.2 0.7,-0.2 0.8,-0.7 0.7,-1.3 0.8,-1.4 0.7,-1.2 0.8,-0.8 0.7,-0.5 0.7,-0.1 0.8,0.5 0.7,0.8 0.8,1.2 0.7,1.3 0.8,1 0.7,0.7 0.8,0.6 0.7,-0.1 0.8,-0.8 0.7,-0.5 0.8,-1.1 0.7,-0.8 0.8,-1.2 0.7,-0.7 0.8,-0.9 0.7,-0.3 0.8,-0.1 0.7,-0.8 0.8,-0.2 0.7,-0.5 0.7,0 0.8,-0.2 0.7,0.1 0.8,-0.3 0.7,0.6 0.8,1 0.7,1.2 0.8,1.7 0.7,1.3 0.8,1.9 0.7,1.6 0.8,1.6 0.7,0.5 0.8,0.3 0.7,0.2 0.8,-0.4 0.7,-0.5 0.8,-1.1 0.7,-0.9 0.7,-0.7 0.8,-0.6 0.7,-0.5 0.8,-0.8 0.7,-0.2 0.8,0.1 0.7,0 0.8,-0.1 0.7,-0.5 0.8,0.2 0.7,0.6 0.8,0.7 0.7,0.6 0.8,0.6 0.7,0.6 0.8,0.6 0.7,0.7 0.8,0.2 0.7,0 0.8,0 0.7,-0.3 0.7,-1.1 0.8,-0.8 0.7,-0.5 0.8,-0.6 0.7,-0.6 0.8,-0.8 0.7,-0.8 0.8,-0.5 0.7,-0.5 0.8,-0.5 0.7,-0.5 0.8,0 0.7,-0.2 0.8,0.1 0.7,0 0.8,-0.1 0.7,0.4 0.8,0.3 0.7,-0.3 0.8,-0.2 0.7,-0.2 0.7,0.1 0.8,-0.2 0.7,0.2 0.8,0.3 0.7,1 0.8,1 0.7,1 0.8,0.9 0.7,1.2 0.8,0.5 0.7,0.1 0.8,-0.1 0.7,-0.2 0.8,-0.5 0.7,-0.5 0.8,-0.6 0.7,-0.4 0.8,-0.6 0.7,-0.2 0.8,0.1 0.7,0.2 0.7,0.2 0.8,0.5 0.7,0 0.8,-0.1 0.7,0.2 0.8,0.1 0.7,-0.2 0.8,-0.1 0.7,-0.9 0.8,-0.4 0.7,-0.7 0.8,-0.7 0.7,-0.4 0.8,0.6 0.7,0.1 0.8,1 0.7,0.1 0.8,0.6 0.7,0.6 0.8,0.8 0.7,0.1 0.7,-0.6 0.8,-0.7 0.7,-1.3 0.8,-1.1 0.7,-0.8 0.8,-1 0.7,-0.8 0.8,-0.3 0.7,-0.2 0.8,0 0.7,0.8 0.8,0.2 0.7,1.4 0.8,0.3 0.7,0.8 0.8,0.6 0.7,0.6 0.8,0.3 0.7,0.2 0.7,-0.3 0.8,-1 0.7,-0.8 0.8,-1 0.7,-0.8 0.8,-1.1 0.7,-0.9 0.8,-0.4 0.7,-0.6 0.8,0.7 0.7,0.5 0.8,0.8 0.7,0.6 0.8,0.9 0.7,0.9 0.8,0.9 0.7,0.3 0.8,0.3 0.7,0.6 0.8,0.4 0.7,0.3 0.7,0.4 0.8,0.4 0.7,0.7 0.8,0.6 0.7,1.1 0.8,0.3 0.7,0.7"
     id="path4990" />
  <path
     style="fill:none;stroke:#0000ff;stroke-width:2.49999996;stroke-miterlimit:4;stroke-dasharray:7.49999989,7.49999989;stroke-dashoffset:0"
     d="m 190.63687,1672.9121 3.7,5.3 3.8,6.1 3.7,5.9 3.7,5.6 3.8,5 3.7,5 3.8,4.5 3.7,3.2 3.7,3 3.8,2.8 3.7,2.1 3.8,3.3 3.7,2.3 3.7,2.9 3.8,3.2 3.7,2.6 3.7,4.2 3.8,4.2 3.7,3.3 3.8,3.8 3.7,3.2 3.7,2.5 3.8,1.5 3.7,1.3 3.7,2.2 3.8,1.6 3.7,-0.8 3.8,-0.9 3.7,-0.8 3.7,0.4 3.8,-0.1 3.7,-0.1 3.7,1.6 3.8,1.1 3.7,2.2 3.8,2.9 3.7,2.4 3.7,3 3.8,2.7 3.7,1.8 3.8,0.7 3.7,-1 3.7,-0.6 3.8,-1.2 3.7,-2.4 3.7,-3.3 3.8,-3.3 3.7,-2.5 3.8,-2.3 3.7,-2.1 3.7,-0.9 3.8,-0.6 3.7,0.2 3.7,0.8 3.8,1.4 3.7,2 3.8,1.4 3.7,1.9 3.7,2.1 3.8,1.4 3.7,1.5 3.7,0.6 3.8,1.1 3.7,1.4 3.8,1.1 3.7,0.8 3.7,0.9 3.8,2 3.7,1.4 3.7,1.4 3.8,2 3.7,2.1 3.8,1.4 3.7,1.3 3.7,0.1 3.8,-0.3 3.7,-1.3 3.8,-1.4 3.7,-1.3 3.7,-3.1 3.8,-3 3.7,-2.4 3.7,-1.6 3.8,-1.1 3.7,-0.8 3.8,0.7 3.7,1.8 3.7,1.4 3.8,1.8 3.7,2.9 3.7,4.4 3.8,3.4 3.7,3.7 3.8,4.1 3.7,2.9 3.7,2 3.8,1.9 3.7,1.3 3.7,0.4 3.8,-0.6 3.7,-2 3.8,-1.7 3.7,-2.2 3.7,-1.8 3.8,-1.6 3.7,-0.7 3.7,-0.1 3.8,0.2 3.7,1.6 3.8,1.5 3.7,2.4 3.7,3.6 3.8,4 3.7,3.6 3.8,2.7 3.7,3.3 3.7,3.2 3.8,3.1 3.7,1 3.7,0.7 3.8,-0.7 3.7,-1.1 3.8,-2.4 3.7,-2.7 3.7,-4.5 3.8,-3.4 3.7,-3.4 3.7,-3.7 3.8,-3.3 3.7,-2.6 3.8,-1.7 3.7,-1.1 3.7,-0.6 3.8,-0.6 3.7,0.1 3.7,1.4 3.8,2.2 3.7,3.1 3.8,3.5 3.7,5.2 3.7,4.4 3.8,4.9 3.7,4.1 3.8,3.6 3.7,2 3.7,1.1 3.8,0.2 3.7,-0.6 3.7,-1.5 3.8,-1.3 3.7,-0.6 3.8,-0.6 3.7,-0.4 3.7,0.2 3.8,-0.5 3.7,0.2 3.7,-2.3 3.8,-0.7 3.7,-0.7 3.8,-1.9 3.7,-1.5 3.7,-0.2 3.8,0.6 3.7,0.2 3.7,1.3 3.8,1.6 3.7,0.9 3.8,1.7 3.7,0.4 3.7,0.3 3.8,-0.6 3.7,-1.2 3.7,-1.1 3.8,-0.3 3.7,-1.6 3.8,-1 3.7,-0.2 3.7,0 3.8,-0.4 3.7,-0.7 3.8,-0.5 3.7,-0.2 3.7,-1.5 3.8,-1.2 3.7,-2.2 3.7,-2 3.8,-2.4 3.7,-2.1 3.8,-0.6 3.7,0.1 3.7,0.9 3.8,2.1 3.7,2.7 3.7,3.6 3.8,4.3 3.7,4.6 3.8,4.7 3.7,5.1 3.7,3.6"
     id="path122" />
  <path
     style="fill:none;stroke:#008000;stroke-width:2.49999996;stroke-miterlimit:4;stroke-dasharray:none"
     d="m 187.63687,2035.8121 0.8,-18.5 0.7,-20.2 0.7,-22.2 0.8,-23.7 0.7,-24.9 0.8,-25.7 0.7,-25.7 0.8,-25 0.7,-26.6 0.8,-23.9 0.7,-21.3 0.8,-18.7 0.7,-16.5 0.8,-14.7 0.7,-13.6 0.8,-12.4 0.7,-11.1 0.8,-10.5 0.7,-9.6 0.8,-8.7 0.7,-8.1 0.8,-7.3 0.7,-6.3 0.7,-5.8 0.8,-4.9 0.7,-4.1 0.8,-3.3 0.7,-3 0.8,-2.8 0.7,-2.5 0.8,-2.6 0.7,-2.3 0.8,-2.4 0.7,-2.7 0.8,-2.4 0.7,-2.3 0.8,-2.3 0.7,-1.9 0.8,-1.8 0.7,-1.5 0.8,-1.1 0.7,-1.1 0.8,-1.1 0.7,-1.2 0.7,-1 0.8,-1.1 0.7,-1 0.8,-0.9 0.7,-0.8 0.8,-0.5 0.7,-0.3 0.8,-0.2 0.7,0 0.8,0.2 0.7,0.2 0.8,0.2 0.7,0 0.8,-0.4 0.7,-0.2 0.8,-0.5 0.7,-0.6 0.8,-0.6 0.7,-0.6 0.8,-0.6 0.7,-0.8 0.7,-0.6 0.8,-0.6 0.7,-0.5 0.8,-0.7 0.7,-0.7 0.8,-0.9 0.7,-1 0.8,-1.2 0.7,-1.2 0.8,-1.3 0.7,-1.6 0.8,-1.5 0.7,-1.7 0.8,-1.7 0.7,-1.8 0.8,-1.6 0.7,-1.7 0.8,-1.7 0.7,-1.3 0.8,-1.2 0.7,-1 0.7,-1 0.8,-0.4 0.7,-0.4 0.8,-0.2 0.7,0 0.8,0 0.7,0.2 0.8,0 0.7,0.3 0.8,0.2 0.7,0.2 0.8,0.2 0.7,0.2 0.8,0.3 0.7,0.2 0.8,0.3 0.7,0.3 0.8,0.3 0.7,0.2 0.8,0.2 0.7,0.2 0.7,0.2 0.8,0.2 0.7,0.2 0.8,0 0.7,0.1 0.8,0 0.7,0 0.8,-0.1 0.7,0 0.8,-0.1 0.7,-0.1 0.8,-0.1 0.7,0 0.8,0 0.7,-0.1 0.8,-0.3 0.7,-0.2 0.8,-0.3 0.7,-0.4 0.7,-0.4 0.8,-0.3 0.7,-0.2 0.8,-0.1 0.7,0.1 0.8,0.2 0.7,0.4 0.8,0.4 0.7,0.5 0.8,0.5 0.7,0.3 0.8,0.3 0.7,0.1 0.8,-0.1 0.7,-0.1 0.8,0 0.7,-0.1 0.8,0 0.7,-0.1 0.8,0 0.7,0.1 0.7,0 0.8,0.1 0.7,0.1 0.8,0.1 0.7,-0.1 0.8,0 0.7,-0.1 0.8,0 0.7,0 0.8,0.1 0.7,0.2 0.8,0.1 0.7,0.3 0.8,0.3 0.7,0.2 0.8,0.1 0.7,0 0.8,-0.1 0.7,-0.4 0.8,-0.6 0.7,-0.7 0.7,-0.8 0.8,-0.9 0.7,-0.9 0.8,-0.8 0.7,-0.6 0.8,-0.7 0.7,-0.4 0.8,-0.1 0.7,0.1 0.8,0.3 0.7,0.5 0.8,0.8 0.7,0.7 0.8,0.9 0.7,0.7 0.8,0.7 0.7,0.6 0.8,0.3 0.7,0.1 0.8,0 0.7,-0.3 0.7,-0.4 0.8,-0.8 0.7,-1.2 0.8,-1.4 0.7,-1.7 0.8,-1.9 0.7,-2.4 0.8,-2.7 0.7,-2.9 0.8,-2.8 0.7,-2.8 0.8,-2.6 0.7,-2.2 0.8,-1.7 0.7,-1.4 0.8,-1.1 0.7,-0.7 0.8,-0.4 0.7,-0.1 0.8,0.1 0.7,-0.1 0.7,-0.1 0.8,-0.2 0.7,-0.1 0.8,-0.1 0.7,-0.2 0.8,-0.1 0.7,-0.1 0.8,-0.1 0.7,0 0.8,0 0.7,0 0.8,0.1 0.7,0.1 0.8,-0.1 0.7,0 0.8,0 0.7,0 0.8,-0.1 0.7,0 0.7,-0.1 0.8,0 0.7,-0.1 0.8,0 0.7,0 0.8,0 0.7,0 0.8,-0.1 0.7,0 0.8,0 0.7,0.1 0.8,0.1 0.7,0 0.8,0 0.7,0.1 0.8,0.2 0.7,0 0.8,0.1 0.7,0.1 0.8,0.1 0.7,0.1 0.7,0.2 0.8,0.1 0.7,0.1 0.8,0 0.7,0 0.8,0 0.7,-0.2 0.8,-0.1 0.7,-0.1 0.8,-0.1 0.7,-0.1 0.8,-0.1 0.7,0.1 0.8,0 0.7,0.2 0.8,0.3 0.7,0.1 0.8,0.3 0.7,0.3 0.8,0.4 0.7,0.3 0.7,0.2 0.8,0.4 0.7,0.2 0.8,0.2 0.7,0.1 0.8,0 0.7,-0.1 0.8,-0.2 0.7,-0.1 0.8,-0.2 0.7,-0.3 0.8,-0.2 0.7,-0.1 0.8,-0.1 0.7,0 0.8,0 0.7,0.1 0.8,0.2 0.7,0 0.8,0.1 0.7,0 0.7,0 0.8,0.1 0.7,0 0.8,0 0.7,-0.1 0.8,0 0.7,0.1 0.8,0 0.7,0.1 0.8,0.1 0.7,0 0.8,-0.1 0.7,0.1 0.8,0 0.7,0.1 0.8,0.2 0.7,0 0.8,0.2 0.7,0.1 0.8,0.2 0.7,0.1 0.7,0.1 0.8,0 0.7,-0.1 0.8,-0.1 0.7,-0.1 0.8,-0.2 0.7,-0.1 0.8,0 0.7,-0.1 0.8,-0.1 0.7,0 0.8,0 0.7,0.2 0.8,0.1 0.7,0.2 0.8,0.2 0.7,0.3 0.8,0.3 0.7,0.3 0.7,0.3 0.8,0.2 0.7,0.2 0.8,0.1 0.7,-0.1 0.8,-0.1 0.7,-0.2 0.8,-0.3 0.7,-0.3 0.8,-0.3 0.7,-0.3 0.8,-0.1 0.7,-0.2 0.8,-0.1 0.7,0 0.8,0 0.7,0.2 0.8,0.1 0.7,0.3 0.8,0.2 0.7,0.4 0.7,0.4 0.8,0.3 0.7,0.5 0.8,0.5 0.7,0.3 0.8,0.3 0.7,0.3 0.8,0.1 0.7,0 0.8,-0.1 0.7,0 0.8,-0.3 0.7,-0.3 0.8,-0.3 0.7,-0.3 0.8,-0.4 0.7,-0.3 0.8,-0.4 0.7,-0.3 0.8,-0.3 0.7,-0.3 0.7,-0.1 0.8,-0.2 0.7,-0.1 0.8,0.1 0.7,0.1 0.8,0.1 0.7,0.2 0.8,0.3 0.7,0.2 0.8,0.1 0.7,0.2 0.8,0 0.7,0 0.8,0 0.7,0 0.8,0 0.7,0 0.8,0.1 0.7,0.1 0.8,0.2 0.7,0.1 0.7,0.1 0.8,0 0.7,0 0.8,0 0.7,0 0.8,0 0.7,0 0.8,0.1 0.7,0.3 0.8,0.3 0.7,0.4 0.8,0.3 0.7,0.4 0.8,0.3 0.7,0.2 0.8,0 0.7,0 0.8,0 0.7,-0.1 0.8,-0.1 0.7,-0.1 0.7,-0.1 0.8,-0.1 0.7,0 0.8,-0.1 0.7,-0.2 0.8,-0.2 0.7,-0.2 0.8,-0.3 0.7,-0.2 0.8,-0.3 0.7,-0.2 0.8,-0.1 0.7,-0.1 0.8,-0.2 0.7,-0.1 0.8,-0.1 0.7,-0.1 0.8,0 0.7,0.1 0.7,0.1 0.8,0.2 0.7,0.2 0.8,0.3 0.7,0.2 0.8,0.2 0.7,0 0.8,0 0.7,-0.1 0.8,-0.2 0.7,-0.2 0.8,-0.2 0.7,-0.2 0.8,-0.1 0.7,0.1 0.8,0.2 0.7,0.3 0.8,0.3 0.7,0.3 0.8,0.3 0.7,0.2 0.7,0.1 0.8,-0.1 0.7,-0.1 0.8,-0.2 0.7,-0.2 0.8,-0.3 0.7,-0.3 0.8,-0.1 0.7,-0.2 0.8,-0.1 0.7,-0.1 0.8,-0.1 0.7,-0.1 0.8,0 0.7,0 0.8,0.1 0.7,0.1 0.8,0.2 0.7,0.3 0.8,0.3 0.7,0.3 0.7,0.2 0.8,0.2 0.7,0.1 0.8,0 0.7,-0.2 0.8,-0.1 0.7,-0.2 0.8,-0.2 0.7,-0.2 0.8,-0.1 0.7,-0.1 0.8,0 0.7,0 0.8,0.1 0.7,0.1 0.8,0.1 0.7,0.1 0.8,0.2 0.7,0 0.8,0.1 0.7,0.1 0.7,0 0.8,-0.1 0.7,0 0.8,0 0.7,0 0.8,-0.1 0.7,0 0.8,0.1 0.7,0 0.8,0 0.7,0 0.8,0 0.7,0.1 0.8,-0.1 0.7,-0.1 0.8,0.1 0.7,0 0.8,-0.1 0.7,0.1 0.8,0.1 0.7,0 0.7,0 0.8,0 0.7,0 0.8,0 0.7,-0.1 0.8,0 0.7,-0.1 0.8,-0.1 0.7,-0.1 0.8,-0.1 0.7,0 0.8,-0.2 0.7,0 0.8,-0.1 0.7,-0.1 0.8,0 0.7,0.1 0.8,0 0.7,0.1 0.7,-0.1 0.8,0.2 0.7,0 0.8,0.1 0.7,0.2 0.8,0 0.7,0.1 0.8,0 0.7,0.1 0.8,0.1 0.7,0.1 0.8,0.1 0.7,0 0.8,0 0.7,0 0.8,0 0.7,0.1 0.8,-0.1 0.7,-0.1 0.8,0 0.7,0 0.7,0 0.8,0.1 0.7,0 0.8,0.2 0.7,0.1 0.8,0.2 0.7,0.1 0.8,0.1 0.7,0 0.8,0 0.7,0 0.8,-0.1 0.7,-0.1 0.8,-0.2 0.7,-0.1 0.8,-0.4 0.7,-0.3 0.8,-0.2 0.7,-0.3 0.8,-0.3 0.7,-0.2 0.7,-0.1 0.8,0 0.7,0 0.8,0.1 0.7,0.2 0.8,0.1 0.7,0.2 0.8,0.1 0.7,0 0.8,0 0.7,0 0.8,0 0.7,-0.1 0.8,-0.1 0.7,0.1 0.8,0 0.7,0 0.8,-0.1 0.7,0.2 0.8,0 0.7,0.1 0.7,0.1 0.8,0.1 0.7,0 0.8,0.1 0.7,0.1 0.8,0.1 0.7,0 0.8,-0.1 0.7,0 0.8,0 0.7,-0.1 0.8,0 0.7,0 0.8,0.1 0.7,0.2 0.8,0.1 0.7,0.3 0.8,0.1 0.7,0.2 0.8,0.1 0.7,0 0.7,0 0.8,-0.1 0.7,-0.1 0.8,-0.2 0.7,-0.3 0.8,-0.2 0.7,-0.2 0.8,-0.1 0.7,-0.1 0.8,-0.1 0.7,-0.2 0.8,0 0.7,0 0.8,0 0.7,0 0.8,0 0.7,-0.1 0.8,0 0.7,0 0.8,-0.1 0.7,0 0.7,0 0.8,-0.1 0.7,0 0.8,-0.1 0.7,0 0.8,-0.1 0.7,-0.2 0.8,-0.1 0.7,-0.1 0.8,-0.2 0.7,-0.1 0.8,0 0.7,0 0.8,0 0.7,0.1 0.8,0 0.7,0.2 0.8,0.2 0.7,0.3 0.7,0.3 0.8,0.3 0.7,0.4 0.8,0.3 0.7,0.3 0.8,0.3 0.7,0.2 0.8,0.1 0.7,-0.1 0.8,-0.1 0.7,-0.2 0.8,-0.1 0.7,-0.2 0.8,0 0.7,-0.1 0.8,0 0.7,0 0.8,-0.1 0.7,-0.1 0.8,-0.1 0.7,-0.2 0.7,-0.3 0.8,-0.3 0.7,-0.3 0.8,-0.3 0.7,-0.1 0.8,-0.2 0.7,0 0.8,0.1 0.7,0.1 0.8,0.1 0.7,0.2 0.8,0.1 0.7,0.1 0.8,0 0.7,0 0.8,0 0.7,-0.1 0.8,-0.1 0.7,-0.1 0.8,-0.1 0.7,-0.2 0.7,-0.1 0.8,-0.1 0.7,0 0.8,0 0.7,-0.1 0.8,0 0.7,0 0.8,0.1 0.7,0 0.8,0 0.7,-0.1 0.8,-0.1 0.7,0 0.8,-0.2 0.7,0 0.8,0 0.7,0.1 0.8,0 0.7,0.3 0.8,0.2 0.7,0.3 0.7,0.3 0.8,0.3 0.7,0.2 0.8,0.1 0.7,0 0.8,-0.1 0.7,-0.1 0.8,-0.1 0.7,-0.2 0.8,0 0.7,-0.1 0.8,0.1 0.7,0 0.8,0.2 0.7,0.2 0.8,0.1 0.7,0.3 0.8,0 0.7,0.1 0.8,-0.1 0.7,-0.1 0.7,-0.1 0.8,0 0.7,-0.1 0.8,0 0.7,-0.1 0.8,0 0.7,0 0.8,-0.1 0.7,0 0.8,-0.1 0.7,-0.2 0.8,-0.2 0.7,-0.2 0.8,-0.1 0.7,-0.1 0.8,0 0.7,0.1 0.8,0.1 0.7,0.2 0.7,0.1 0.8,0.1 0.7,0.2 0.8,0.1 0.7,-0.1 0.8,-0.1 0.7,-0.1 0.8,-0.2 0.7,-0.2 0.8,-0.2 0.7,-0.2 0.8,-0.2 0.7,0 0.8,-0.1 0.7,0 0.8,0.1 0.7,0.1 0.8,0.3 0.7,0.1 0.8,0.2 0.7,0.1 0.7,0.1 0.8,0 0.7,0 0.8,0 0.7,-0.1 0.8,-0.1 0.7,0 0.8,-0.1 0.7,0 0.8,0 0.7,0.1 0.8,0 0.7,0 0.8,0 0.7,0.1 0.8,-0.1 0.7,0 0.8,-0.1 0.7,0.1 0.8,0 0.7,0.1 0.7,0 0.8,0.1 0.7,0.1 0.8,0.2 0.7,0.1 0.8,0 0.7,0.1 0.8,0.1 0.7,0 0.8,0 0.7,-0.1 0.8,0.1 0.7,-0.1 0.8,0 0.7,-0.1 0.8,0 0.7,0.1 0.8,-0.1 0.7,0 0.8,-0.1 0.7,-0.1 0.7,0 0.8,-0.3 0.7,-0.1 0.8,-0.3 0.7,-0.2 0.8,-0.2 0.7,-0.2 0.8,-0.2 0.7,-0.1 0.8,-0.1 0.7,-0.1 0.8,0 0.7,0.1 0.8,0.1 0.7,0.1 0.8,0.1 0.7,0.1 0.8,0.2 0.7,0.1 0.8,0.1 0.7,0.1 0.7,0 0.8,0.1 0.7,0 0.8,0 0.7,0 0.8,0.1 0.7,-0.1 0.8,0 0.7,0 0.8,-0.1 0.7,0 0.8,0 0.7,0 0.8,0.1 0.7,0.1 0.8,0.1 0.7,0.1 0.8,0 0.7,0.1 0.7,0 0.8,0 0.7,-0.1 0.8,-0.2 0.7,0 0.8,-0.2 0.7,0.1 0.8,0 0.7,0.2 0.8,0 0.7,0.2 0.8,0.2 0.7,0.2 0.8,0.1 0.7,0.1 0.8,0.1 0.7,0 0.8,0 0.7,0 0.8,0 0.7,0 0.7,0 0.8,0 0.7,-0.1 0.8,-0.2 0.7,-0.1 0.8,-0.1 0.7,-0.3 0.8,-0.2 0.7,-0.3 0.8,-0.2 0.7,0 0.8,0 0.7,0.1 0.8,0.2 0.7,0.2 0.8,0.3 0.7,0.3 0.8,0.4 0.7,0.3 0.8,0.2 0.7,0.2 0.7,0 0.8,0.1 0.7,0 0.8,0 0.7,-0.1 0.8,-0.1 0.7,-0.2 0.8,-0.1 0.7,-0.2 0.8,-0.1 0.7,-0.2 0.8,-0.2 0.7,-0.2 0.8,-0.3 0.7,-0.1 0.8,-0.2 0.7,-0.1 0.8,-0.1 0.7,0 0.8,-0.1 0.7,0 0.7,0.1 0.8,0 0.7,0.1 0.8,0 0.7,0.1 0.8,0.1 0.7,0.1 0.8,0.1 0.7,0.2 0.8,0.3 0.7,0.1 0.8,0.2 0.7,0 0.8,0 0.7,0 0.8,-0.1 0.7,0.1 0.8,-0.1 0.7,-0.1 0.8,0 0.7,-0.1 0.7,-0.1 0.8,0 0.7,0 0.8,0 0.7,-0.1 0.8,-0.1 0.7,0 0.8,0 0.7,0.1 0.8,0 0.7,0.1 0.8,0.1 0.7,0 0.8,-0.1 0.7,-0.1 0.8,-0.2 0.7,-0.2 0.8,-0.2 0.7,-0.3 0.7,-0.2 0.8,-0.1 0.7,0 0.8,0.1 0.7,0.2 0.8,0.1 0.7,0.2 0.8,0.1 0.7,0.2 0.8,-0.1 0.7,0 0.8,-0.1 0.7,-0.1 0.8,-0.2 0.7,-0.1 0.8,-0.2 0.7,0.1 0.8,-0.1 0.7,-0.1 0.8,-0.1 0.7,0 0.7,-0.1 0.8,-0.1 0.7,-0.1 0.8,-0.1 0.7,-0.2 0.8,-0.2 0.7,-0.2"
     id="path4986" />
  <path
     style="fill:none;stroke:#008000;stroke-width:2.49999996;stroke-miterlimit:4;stroke-dasharray:7.49999989,7.49999989;stroke-dashoffset:0"
     d="m 190.63687,1791.1121 3.7,-18 3.8,-18.5 3.7,-18.5 3.7,-18.2 3.8,-17.4 3.7,-16.2 3.8,-14.8 3.7,-13 3.7,-14.1 3.8,-10.2 3.7,-7.7 3.8,-6 3.7,-5 3.7,-4.3 3.8,-4 3.7,-3.1 3.7,-2.5 3.8,-1.9 3.7,-1.3 3.8,-1.1 3.7,-0.7 3.7,-0.5 3.8,-0.3 3.7,-0.3 3.7,-0.2 3.8,-0.4 3.7,-0.5 3.8,-0.7 3.7,-0.6 3.7,-0.7 3.8,-1.3 3.7,-1.4 3.7,-2 3.8,-2.7 3.7,-3.3 3.8,-3.8 3.7,-4.2 3.7,-4.4 3.8,-4.7 3.7,-4.5 3.8,-4 3.7,-3.4 3.7,-2.6 3.8,-2 3.7,-1.4 3.7,-0.8 3.8,-0.3 3.7,0.4 3.8,0.3 3.7,0.5 3.7,0.7 3.8,0.6 3.7,0.8 3.7,0.7 3.8,0.8 3.7,0.7 3.8,0.7 3.7,0.7 3.7,0.5 3.8,0.4 3.7,0.2 3.7,0.2 3.8,-0.1 3.7,-0.1 3.8,-0.1 3.7,-0.2 3.7,-0.2 3.8,-0.2 3.7,0.1 3.7,0 3.8,0.2 3.7,0.2 3.8,0.2 3.7,0.3 3.7,0.1 3.8,0.2 3.7,0.1 3.8,0 3.7,-0.1 3.7,-0.2 3.8,-0.1 3.7,-0.1 3.7,0 3.8,0.1 3.7,0.1 3.8,0.1 3.7,0.1 3.7,0.1 3.8,0.1 3.7,0.1 3.7,-0.1 3.8,-0.2 3.7,-0.2 3.8,-0.4 3.7,-0.2 3.7,-0.3 3.8,-0.3 3.7,-0.2 3.7,-0.1 3.8,0 3.7,0.1 3.8,0.1 3.7,0.3 3.7,0.3 3.8,0.2 3.7,0.1 3.7,0.2 3.8,0 3.7,0 3.8,-0.1 3.7,-0.1 3.7,-0.2 3.8,-0.2 3.7,-0.1 3.8,-0.2 3.7,-0.1 3.7,-0.2 3.8,-0.1 3.7,-0.1 3.7,-0.1 3.8,-0.1 3.7,-0.1 3.8,-0.1 3.7,-0.1 3.7,0.1 3.8,0.1 3.7,0 3.7,0.2 3.8,0.2 3.7,0.1 3.8,0 3.7,0.1 3.7,-0.1 3.8,-0.1 3.7,-0.2 3.7,-0.3 3.8,-0.2 3.7,-0.2 3.8,-0.2 3.7,-0.2 3.7,-0.1 3.8,0.1 3.7,0 3.8,0.2 3.7,0 3.7,0.1 3.8,0 3.7,0 3.7,0 3.8,0 3.7,-0.1 3.8,0 3.7,-0.1 3.7,-0.1 3.8,0 3.7,-0.1 3.7,0 3.8,-0.1 3.7,-0.2 3.8,-0.2 3.7,-0.2 3.7,-0.3 3.8,-0.2 3.7,-0.1 3.7,-0.1 3.8,-0.2 3.7,0.1 3.8,0.1 3.7,0.2 3.7,0.3 3.8,0.3 3.7,0.3 3.7,0.4 3.8,0.2 3.7,0.4 3.8,0.3 3.7,0.2 3.7,0.2 3.8,0.1 3.7,0 3.8,-0.1 3.7,-0.1 3.7,-0.3 3.8,-0.2 3.7,-0.3 3.7,-0.4 3.8,-0.3 3.7,-0.3 3.8,-0.2 3.7,-0.1 3.7,-0.1 3.8,0 3.7,0 3.7,0.1 3.8,0.2 3.7,0.2 3.8,0.2 3.7,0.2 3.7,0"
     id="path124" />
  <text
     xml:space="preserve"
     style="color:#000000;font-style:normal;font-variant:normal;font-weight:normal;font-stretch:normal;font-size:37.5px;line-height:100%;font-family:Arial;-inkscape-font-specification:Arial;text-indent:0;text-align:start;text-decoration:none;text-decoration-line:none;letter-spacing:0px;word-spacing:0px;text-transform:none;direction:ltr;block-progression:tb;writing-mode:lr-tb;text-anchor:start;display:inline;overflow:visible;visibility:visible;fill:#000000;fill-opacity:1;fill-rule:nonzero;stroke:none;stroke-width:1px;stroke-linecap:butt;stroke-linejoin:miter;stroke-opacity:1;marker:none;enable-background:accumulate"
     x="-2115.6064"
     y="77.019318"
     id="text4299"
     sodipodi:linespacing="100%"
     transform="matrix(0,-1,1,0,0,0)"><tspan
       sodipodi:role="line"
       id="tspan4301"
       x="-2115.6064"
       y="77.019318"
       style="font-size:50px">Obj feat decode err %</tspan></text>
  <text
     sodipodi:linespacing="100%"
     id="text4305"
     y="-1042.6671"
     x="1621.8931"
     style="color:#000000;font-style:normal;font-variant:normal;font-weight:normal;font-stretch:normal;font-size:37.5px;line-height:100%;font-family:Arial;-inkscape-font-specification:Arial;text-indent:0;text-align:start;text-decoration:none;text-decoration-line:none;letter-spacing:0px;word-spacing:0px;text-transform:none;direction:ltr;block-progression:tb;writing-mode:lr-tb;text-anchor:start;display:inline;overflow:visible;visibility:visible;fill:#008000;fill-opacity:1;fill-rule:nonzero;stroke:none;stroke-width:1px;stroke-linecap:butt;stroke-linejoin:miter;stroke-opacity:1;marker:none;enable-background:accumulate;"
     xml:space="preserve"
     transform="matrix(0,1,-1,0,0,0)"><tspan
       style="font-size:50px;fill:#008000;"
       y="-1042.6671"
       x="1621.8931"
       id="tspan4307"
       sodipodi:role="line">V1p minus-plus cosine</tspan></text>
  <text
     xml:space="preserve"
     style="color:#000000;font-style:normal;font-variant:normal;font-weight:normal;font-stretch:normal;font-size:37.5px;line-height:100%;font-family:Arial;-inkscape-font-specification:Arial;text-indent:0;text-align:start;text-decoration:none;text-decoration-line:none;letter-spacing:0px;word-spacing:0px;text-transform:none;direction:ltr;block-progression:tb;writing-mode:lr-tb;text-anchor:start;display:inline;overflow:visible;visibility:visible;fill:#000000;fill-opacity:1;fill-rule:nonzero;stroke:none;stroke-width:1px;stroke-linecap:butt;stroke-linejoin:miter;stroke-opacity:1;marker:none;enable-background:accumulate"
     x="562.37628"
     y="2067.8303"
     id="text4313"
     sodipodi:linespacing="100%"><tspan
       sodipodi:role="line"
       id="tspan4315"
       x="562.37628"
       y="2067.8303">TEO </tspan></text>
  <text
     sodipodi:linespacing="100%"
     id="text4865"
     y="1920.8087"
     x="561.82678"
     style="color:#000000;font-style:normal;font-variant:normal;font-weight:normal;font-stretch:normal;font-size:37.5px;line-height:100%;font-family:Arial;-inkscape-font-specification:Arial;text-indent:0;text-align:start;text-decoration:none;text-decoration-line:none;letter-spacing:0px;word-spacing:0px;text-transform:none;direction:ltr;block-progression:tb;writing-mode:lr-tb;text-anchor:start;display:inline;overflow:visible;visibility:visible;fill:#ff0000;fill-opacity:1;fill-rule:nonzero;stroke:none;stroke-width:1px;stroke-linecap:butt;stroke-linejoin:miter;stroke-opacity:1;marker:none;enable-background:accumulate"
     xml:space="preserve"><tspan
       y="1920.8087"
       x="561.82678"
       id="tspan4867"
       sodipodi:role="line">V4</tspan></text>
  <text
     xml:space="preserve"
     style="color:#000000;font-style:normal;font-variant:normal;font-weight:normal;font-stretch:normal;font-size:37.5px;line-height:100%;font-family:Arial;-inkscape-font-specification:Arial;text-indent:0;text-align:start;text-decoration:none;text-decoration-line:none;letter-spacing:0px;word-spacing:0px;text-transform:none;direction:ltr;block-progression:tb;writing-mode:lr-tb;text-anchor:start;display:inline;overflow:visible;visibility:visible;fill:#0000ff;fill-opacity:1;fill-rule:nonzero;stroke:none;stroke-width:1px;stroke-linecap:butt;stroke-linejoin:miter;stroke-opacity:1;marker:none;enable-background:accumulate"
     x="561.4729"
     y="1778.9797"
     id="text4883"
     sodipodi:linespacing="100%"><tspan
       sodipodi:role="line"
       id="tspan4885"
       x="561.4729"
       y="1778.9797">V3</tspan></text>
  <text
     sodipodi:linespacing="100%"
     id="text6475"
     y="1593.3103"
     x="384.29242"
     style="color:#000000;font-style:normal;font-variant:normal;font-weight:normal;font-stretch:normal;font-size:37.5px;line-height:100%;font-family:Arial;-inkscape-font-specification:Arial;text-indent:0;text-align:start;text-decoration:none;text-decoration-line:none;letter-spacing:0px;word-spacing:0px;text-transform:none;direction:ltr;block-progression:tb;writing-mode:lr-tb;text-anchor:start;display:inline;overflow:visible;visibility:visible;fill:#008000;fill-opacity:1;fill-rule:nonzero;stroke:none;stroke-width:1px;stroke-linecap:butt;stroke-linejoin:miter;stroke-opacity:1;marker:none;enable-background:accumulate"
     xml:space="preserve"><tspan
       y="1593.3103"
       x="384.29242"
       id="tspan6477"
       sodipodi:role="line">V1p prediction </tspan></text>
  <g
     id="layer1"
     inkscape:label="Layer 1"
     transform="matrix(2.5,0,0,2.5,-22.798823,56.071583)">
    <g
       id="g4940"
       transform="matrix(0.40000001,0,0,0.40000001,1.7218354,-81.033728)">
      <text
         xml:space="preserve"
         style="color:#000000;font-style:normal;font-variant:normal;font-weight:normal;font-stretch:normal;font-size:37.5px;line-height:100%;font-family:Arial;-inkscape-font-specification:Arial;text-indent:0;text-align:start;text-decoration:none;text-decoration-line:none;letter-spacing:0px;word-spacing:0px;text-transform:none;direction:ltr;block-progression:tb;writing-mode:lr-tb;text-anchor:start;display:inline;overflow:visible;visibility:visible;fill:#000000;fill-opacity:1;fill-rule:nonzero;stroke:none;stroke-width:1px;stroke-linecap:butt;stroke-linejoin:miter;stroke-opacity:1;marker:none;enable-background:accumulate"
         x="832.57562"
         y="1861.0986"
         id="text4830"
         sodipodi:linespacing="100%"><tspan
           sodipodi:role="line"
           id="tspan4832"
           x="832.57562"
           y="1861.0986">test</tspan></text>
      <text
         xml:space="preserve"
         style="color:#000000;font-style:normal;font-variant:normal;font-weight:normal;font-stretch:normal;font-size:37.5px;line-height:100%;font-family:Arial;-inkscape-font-specification:Arial;text-indent:0;text-align:start;text-decoration:none;text-decoration-line:none;letter-spacing:0px;word-spacing:0px;text-transform:none;direction:ltr;block-progression:tb;writing-mode:lr-tb;text-anchor:start;display:inline;overflow:visible;visibility:visible;fill:#000000;fill-opacity:1;fill-rule:nonzero;stroke:none;stroke-width:1px;stroke-linecap:butt;stroke-linejoin:miter;stroke-opacity:1;marker:none;enable-background:accumulate"
         x="832.57562"
         y="1818.9769"
         id="text6242"
         sodipodi:linespacing="100%"><tspan
           sodipodi:role="line"
           id="tspan6244"
           x="832.57562"
           y="1818.9769">train</tspan></text>
      <path
         style="opacity:1;fill:none;fill-opacity:1;fill-rule:nonzero;stroke:#000000;stroke-width:2.5;stroke-linecap:butt;stroke-linejoin:miter;stroke-miterlimit:4;stroke-dasharray:none;stroke-dashoffset:0;stroke-opacity:1"
         d="m 819.13256,1810.0149 -34.95205,0"
         id="path4884"
         inkscape:connector-curvature="0" />
      <path
         inkscape:connector-curvature="0"
         id="path4886"
         d="m 819.13256,1847.6556 -34.95205,0"
         style="opacity:1;fill:none;fill-opacity:1;fill-rule:nonzero;stroke:#000000;stroke-width:2.5;stroke-linecap:butt;stroke-linejoin:miter;stroke-miterlimit:4;stroke-dasharray:7.49999989, 7.49999989;stroke-dashoffset:0;stroke-opacity:1" />
    </g>
  </g>
</svg>
