<svg xmlns="http://www.w3.org/2000/svg" width="48" height="48" viewBox="0 -960 960 960"><path d="M300-80q-6 0-10.5-4.5T285-95v-120q0-6 4.5-10.5T300-230h95v30h-80v30h65q6 0 10.5 4.5T395-155v60q0 6-4.5 10.5T380-80h-80Zm165 0v-150h90v30h-60v30h40v30h-40v60h-30Zm160 0v-120h-40v-30h110v30h-40v120h-30Zm-310-30h50v-30h-50v30ZM200-282 80-402l120-120 35 35-55 55h600l-55-55 35-35 120 120-120 120-35-35 55-55H180l55 55-35 35ZM80-575v-13q0-21.081 11.408-38.649Q102.816-644.216 123-653q25.078-10.522 51.603-16.261Q201.128-675 230.064-675t55.417 5.739Q311.963-663.522 337-653q20.184 8.784 31.592 26.351Q380-609.081 380-588v13H80Zm500 0v-13q0-21.081 11.408-38.649Q602.816-644.216 623-653q25.078-10.522 51.603-16.261Q701.128-675 730.064-675t55.417 5.739Q811.963-663.522 837-653q20.184 8.784 31.592 26.351Q880-609.081 880-588v13H580ZM229.956-730Q199-730 177-752.044q-22-22.045-22-53Q155-836 177.044-858q22.045-22 53-22Q261-880 283-857.956q22 22.045 22 53Q305-774 282.956-752q-22.045 22-53 22Zm500 0Q699-730 677-752.044q-22-22.045-22-53Q655-836 677.044-858q22.045-22 53-22Q761-880 783-857.956q22 22.045 22 53Q805-774 782.956-752q-22.045 22-53 22Z"/></svg>