<svg xmlns="http://www.w3.org/2000/svg" width="48" height="48" viewBox="0 -960 960 960"><path d="M233-360h136.757q14.243 0 23.743-9.487Q403-378.975 403-393v-173q0-14.45-9.487-24.225Q384.025-600 370-600H266q-14.025 0-23.512 9.775Q233-580.45 233-566v70q0 14.025 9.488 23.513Q251.975-463 266-463h87v53H233v50Zm50-136v-71h70v71h-70Zm183 136h50v-90l84 90h66L554-480l112-120h-66l-84 90v-90h-50v240Zm210-40h40v-63h64v-33h-64v-64h-40v64h-63v33h63v63ZM180-120q-24 0-42-18t-18-42v-600q0-24 18-42t42-18h600q24 0 42 18t18 42v600q0 24-18 42t-42 18H180Zm0-60h600v-600H180v600Zm0-600v600-600Z"/></svg>