<svg xmlns="http://www.w3.org/2000/svg" width="48" height="48" viewBox="0 -960 960 960"><path d="M494-300q-40 40-97 40t-97-40q-40-40-40-96.5t40-96.5l166-167q40-40 97-40t97 40q40 40 40 96.5T660-467L494-300Zm-152-43q23 23 54.5 23.5T451-342l62-63-108-108-63 62q-23 22.937-23 53.968Q319-366 342-343Zm276-274q-23-23-54.5-23.5T509-618l-62 63 108 108 63-62q23-23 22.5-54T618-617ZM180-120q-24.75 0-42.375-17.625T120-180v-600q0-24.75 17.625-42.375T180-840h205q5-35 32-57.5t63-22.5q36 0 63 22.5t32 57.5h205q24.75 0 42.375 17.625T840-780v600q0 24.75-17.625 42.375T780-120H180Zm0-60h600v-600H180v600Zm300-617q14 0 24.5-10.5T515-832q0-14-10.5-24.5T480-867q-14 0-24.5 10.5T445-832q0 14 10.5 24.5T480-797ZM180-180v-600 600Z"/></svg>