<svg xmlns="http://www.w3.org/2000/svg" width="48" height="48" viewBox="0 -960 960 960"><path d="M120-120v-610q0-45.833 32.5-77.917Q185-840 230-840h170q45.833 0 77.917 32.083Q510-775.833 510-730v610H120Zm270-220h60v-240h-60v240ZM180-180h270v-100h-60q-24.75 0-42.375-17.625T330-340v-240q0-24.75 17.625-42.375T390-640h60v-90q0-21.25-14.375-35.625T400-780H230q-20 0-35 14.375T180-730v550Zm520.347-247q-23.347 0-45.306-5.88Q633.081-438.76 612-448l19-56q18 8 35.5 12.5T701-487q13.667 0 27.333-4.5Q742-496 756-505q23-15 44.943-21 21.943-6 42.057-6 22.115 0 45.558 6Q912-520 933-512l-20 57q-20.403-6.8-37.702-11.9Q858-472 844-472t-29.467 4.95Q799.067-462.1 782-450q-20 14-40.5 18.5t-41.153 4.5ZM701-593q-22 0-45-6t-44-15l19-57q23 9 39.5 13.5T701-653q13.667 0 27.333-4Q742-661 756-671q23-15 45.5-21t42.5-6q21 0 43.368 5.417Q909.737-687.167 933-678l-19 57q-23-8-39.5-12.5T844-638q-14 0-29.5 4.5T781-616q-17 11-37.846 17-20.845 6-42.154 6Zm0 332q-22.911 0-45.381-5.88Q633.148-272.76 612-282l19-57q20 8 37.593 13 17.592 5 32.407 5 13.667 0 27.333-4Q742-329 756-339q21.547-14.897 45.905-20.948Q826.263-366 845-366q21 0 44 6t44 14l-19 57q-23-8-40.39-12.5T844-306q-15.302 0-31.151 5.5T781-284q-15 11-36.196 17-21.195 6-43.804 6Zm-251 81v-560.5 10.5-10.5V-180Z"/></svg>