<svg xmlns="http://www.w3.org/2000/svg" width="48" height="48" viewBox="0 -960 960 960"><path d="M229.882-200Q184-200 152-232.083 120-264.167 120-310H40v-380q0-28.875 20.563-49.438Q81.124-760 110-760h576l234 234v216h-80q0 45.833-32.118 77.917-32.117 32.083-78 32.083Q684-200 652-232.083 620-264.167 620-310H340q0 46-32.118 78-32.117 32-78 32ZM600-560h194L654-700h-54v140Zm-250 0h190v-140H350v140Zm-250 0h190v-140H100v140Zm129.859 310Q255-250 272.5-267.359t17.5-42.5Q290-335 272.641-352.5t-42.5-17.5Q205-370 187.5-352.641t-17.5 42.5Q170-285 187.359-267.5t42.5 17.5Zm500 0Q755-250 772.5-267.359t17.5-42.5Q790-335 772.641-352.5t-42.5-17.5Q705-370 687.5-352.641t-17.5 42.5Q670-285 687.359-267.5t42.5 17.5Z"/></svg>