<svg xmlns="http://www.w3.org/2000/svg" width="48" height="48" viewBox="0 -960 960 960"><path d="M320.175-410q12.825 0 21.325-8.675 8.5-8.676 8.5-21.5 0-12.825-8.675-21.325-8.676-8.5-21.5-8.5-12.825 0-21.325 8.675-8.5 8.676-8.5 21.5 0 12.825 8.675 21.325 8.676 8.5 21.5 8.5Zm160 0q12.825 0 21.325-8.675 8.5-8.676 8.5-21.5 0-12.825-8.675-21.325-8.676-8.5-21.5-8.5-12.825 0-21.325 8.675-8.5 8.676-8.5 21.5 0 12.825 8.675 21.325 8.676 8.5 21.5 8.5Zm160 0q12.825 0 21.325-8.675 8.5-8.676 8.5-21.5 0-12.825-8.675-21.325-8.676-8.5-21.5-8.5-12.825 0-21.325 8.675-8.5 8.676-8.5 21.5 0 12.825 8.675 21.325 8.676 8.5 21.5 8.5ZM479-82q-74 0-139.5-28t-114-77q-48.5-49-77-114.034t-28.5-139.5Q120-515 148.5-580.5 177-646 225.5-695t114-77Q405-800 479-800t139.5 28Q684-744 733-695t77 114.267q28 65.267 28 140T810-301q-28 65-77 114t-114.5 77Q553-82 479-82ZM214-867l42 42L92-667l-42-42 164-158Zm530 0 164 158-42 42-164-158 42-42Z"/></svg>