<svg xmlns="http://www.w3.org/2000/svg" width="48" height="48" viewBox="0 -960 960 960"><path d="M451-94v-314L257-214l-42-42 224-224-224-224 42-42 194 194v-314h30l214 214-172 172 172 172L481-94h-30Zm60-458 100-100-100-98v198Zm0 342 100-98-100-100v198ZM200-432q-20.417 0-34.708-14Q151-460 151-480t14.292-35q14.291-15 34.708-15 20.417 0 34.708 15Q249-500 249-480t-14.292 34Q220.417-432 200-432Zm560 0q-20.417 0-34.708-14Q711-460 711-480t14.292-35q14.291-15 34.708-15 20.417 0 34.708 15Q809-500 809-480t-14.292 34Q780.417-432 760-432Z"/></svg>