<svg xmlns="http://www.w3.org/2000/svg" width="48" height="48" viewBox="0 -960 960 960"><path d="M840-339h-40v172q0 17.351-7.5 30.175Q785-124 772-116t-28.5 9.5Q728-105 713-113L88-425q-17.25-8.25-25.125-22.875T55-478.25q0-15.75 7.875-30.652Q70.75-523.804 88-532l625-312q15.082-8 30.541-6.5T772-841q13 8 20.5 20.825Q800-807.351 800-790v170h40v60H700v-60h40v-168L521-680q32 44 50.5 94.939Q590-534.122 590-480q0 56-19 107t-52 96l220 109v-171h-39v-61h140v61Zm-376 34q29-38 47.5-82.723T530-480q0-48-18-91t-47-81L115-479l349 174Z"/></svg>