<svg xmlns="http://www.w3.org/2000/svg" width="48" height="48" viewBox="0 -960 960 960"><path d="M833-41 714-160H180q-24 0-42-18t-18-42v-520q0-3 .5-6.5t1.5-6.5l-96-95 43-43L876-84l-43 43Zm7-166L682-364q17-5 28-19t11-34v-16h-50v22h-36l-66-66v-72h102v22h50v-42q0-12.75-8.625-21.375T691-599H549q-12.75 0-21.375 8.625T519-569v42L246-800h534q23 0 41.5 18.5T840-740v533ZM270-361h116q23.8 0 39.9-8.625Q442-378.25 442-391v-42h-50v22H290v-138h35l-47-47h-8q-13 0-21.5 8.5T240-566v175q0 12.75 8.625 21.375T270-361Z"/></svg>