<svg xmlns="http://www.w3.org/2000/svg" width="48" height="48" viewBox="0 -960 960 960"><path d="M413-182v-227l57-168q2-7 8-12t17-5h303q11 0 16.5 4.5T823-577l57 168v227q0 9.308-6.346 15.654T858-160h-22.256q-8.744 0-15.244-6.346T814-182v-45H479v45q0 9.308-6.346 15.654T457-160h-22.256q-8.744 0-15.244-6.346T413-182Zm53-257h361l-38-115H504l-38 115Zm54 146q16.575 0 27.787-11.212Q559-315.425 559-332q0-16.575-11.213-27.788Q536.575-371 520-371t-27.788 11.212Q481-348.575 481-332q0 16.575 11.212 27.788Q503.425-293 520-293Zm253 0q16.575 0 27.787-11.212Q812-315.425 812-332q0-16.575-11.213-27.788Q789.575-371 773-371t-27.787 11.212Q734-348.575 734-332q0 16.575 11.213 27.788Q756.425-293 773-293ZM164-160v-21l57-57q-57 0-99-34.5T80-361v-328q0-66 52-88.5T338-800q143 0 200.5 24.5T596-689v65h-60v-77H140v269h243v272H164Zm27-162q16.575 0 27.788-11.212Q230-344.425 230-361q0-16.575-11.212-27.788Q207.575-400 191-400q-16.575 0-27.788 11.212Q152-377.575 152-361q0 16.575 11.212 27.788Q174.425-322 191-322Z"/></svg>