<svg xmlns="http://www.w3.org/2000/svg" width="48" height="48" viewBox="0 -960 960 960"><path d="M480-120q-88 0-168.5-33T169-249l43-43q53.6 53.887 122.965 82.943Q404.329-180 480-180q76.252 0 145.62-28.543Q694.988-237.086 749-291l42 42q-63 62-143 95.5T480-120Zm0-160q-56.354 0-107.677-21Q321-322 282-363l42-41q31 32 71.317 48 40.317 16 84.5 16t84.683-16q40.5-16 71.5-48l42 42q-39 40-90.323 61Q536.354-280 480-280ZM301-660l18 60h322l18-60H301Zm18 120q-19.5 0-35.25-11.625T262-582l-25-78h-57q-24.75 0-42.375-17.625T120-720v-120h720v120q0 25-17.625 42.5T780-660h-57l-30 81q-6.932 17.25-22.338 28.125Q655.257-540 636-540H319Z"/></svg>