<svg xmlns="http://www.w3.org/2000/svg" width="48" height="48" viewBox="0 -960 960 960"><path d="M480-278q-14.571 0-25.286-10.714Q444-299.429 444-314q0-14.571 10.714-25.286Q465.429-350 480-350q14.571 0 25.286 10.714Q516-328.571 516-314q0 14.571-10.714 25.286Q494.571-278 480-278Zm-25-129q0-45 8-64t35-37q30-20 39.5-33t9.5-42q0-29-18-45t-49.5-16q-31.5 0-49.5 19.5T406-585l-47-16q16-42 45.853-67T480-693q50 0 83.5 29t33.5 81q0 34-13 55.5T536-480q-21 15-26 26.5t-5 46.5h-50ZM260-40q-24 0-42-18t-18-42v-760q0-24 18-42t42-18h440q24 0 42 18t18 42v760q0 24-18 42t-42 18H260Zm0-90v30h440v-30H260Zm0-60h440v-580H260v580Zm0-640h440v-30H260v30Zm0 0v-30 30Zm0 700v30-30Z"/></svg>