<svg xmlns="http://www.w3.org/2000/svg" width="48" height="48" viewBox="0 -960 960 960"><path d="M300-160H140q-24.75 0-42.375-17.625T80-220v-520q0-24.75 17.625-42.375T140-800h660v60H140v520h160v60Zm149.882-80Q479-240 499.5-260.382q20.5-20.383 20.5-49.5Q520-339 499.618-359.5q-20.383-20.5-49.5-20.5Q421-380 400.5-359.618q-20.5 20.383-20.5 49.5Q380-281 400.382-260.5q20.383 20.5 49.5 20.5ZM380-160v-65q-18-15-29-37t-11-48q0-26 11-48t29-37.455V-460h140v65q18 15 29 37t11 48q0 26-11 48t-29 37.455V-160H380Zm470 0H630q-12.75 0-21.375-8.625T600-190v-380q0-12.75 8.625-21.375T630-600h220q12.75 0 21.375 8.625T880-570v380q0 12.75-8.625 21.375T850-160Zm-190-60h160v-320H660v320Zm0 0h160-160Z"/></svg>