<svg xmlns="http://www.w3.org/2000/svg" width="48" height="48" viewBox="0 -960 960 960"><path d="M640-80q-67 0-101.5-22.5T480-150q-19-20-36.5-35T399-200q-45 0-100-15.5t-103.5-51Q147-302 114-359T80-499q-2-167 82.5-274T399-880q71 0 120 20.5t84.5 51.5q35.5 31 60 68.5T710-667q12 20 24 36.5t26 30.5q60 60 90 105t30 136q0 120-74.5 199.5T640-80Zm-.371-60Q705-140 762.5-202.5T820-358.921Q820-431 799.5-464.5T718-558q-20-20-36-43t-32-49q-43-69-92.575-119.5T399-820q-136 0-197.5 96T140-505q0 73 30.5 120.5t72 75.5q41.5 28 85.31 38.5Q371.619-260 399-260q45.248 0 72.752 22.4Q499.256-215.2 517-196q24 26 47.51 41 23.511 15 75.119 15ZM480.202-360Q530-360 565-395.202t35-85Q600-530 564.798-565t-85-35Q430-600 395-564.798t-35 85Q360-430 395.202-395t85 35ZM480-480Z"/></svg>