<svg xmlns="http://www.w3.org/2000/svg" width="48" height="48" viewBox="0 -960 960 960"><path d="M480-480q-51 0-85.5-34.5T360-600q0-50 34.5-85t85.5-35q50 0 85 35t35 85q0 51-35 85.5T480-480Zm-.351-60Q505-540 522.5-557.149t17.5-42.5Q540-625 522.649-642.5t-43-17.5Q454-660 437-642.649t-17 43Q420-574 437.149-557t42.5 17ZM240-240v-76q0-27 17.5-47.5T300-397q42-22 86.943-32.5 44.942-10.5 93-10.5Q528-440 573-429.5t87 32.5q25 13 42.5 33.5T720-316v76H240Zm240-140q-47.546 0-92.773 13T300-328v28h360v-28q-42-26-87.227-39-45.227-13-92.773-13Zm0-220Zm0 300h180-360 180ZM140-80q-24 0-42-18t-18-42v-172h60v172h172v60H140ZM80-648v-172q0-24 18-42t42-18h172v60H140v172H80ZM648-80v-60h172v-172h60v172q0 24-18 42t-42 18H648Zm172-568v-172H648v-60h172q24 0 42 18t18 42v172h-60Z"/></svg>