<svg xmlns="http://www.w3.org/2000/svg" width="48" height="48" viewBox="0 -960 960 960"><path d="M141-80q-26 0-43-17t-17-43v-680q0-23 17-41.5t43-18.5h680q23 0 41.5 18.5T881-820v680q0 26-18.5 43T821-80H141Zm0-60h680v-680H141v680Zm184.825-253Q313-393 304.5-401.675q-8.5-8.676-8.5-21.5 0-12.825 8.675-21.325 8.676-8.5 21.5-8.5 12.825 0 21.325 8.675 8.5 8.676 8.5 21.5 0 12.825-8.675 21.325-8.676 8.5-21.5 8.5Zm310 0Q623-393 614.5-401.675q-8.5-8.676-8.5-21.5 0-12.825 8.675-21.325 8.676-8.5 21.5-8.5 12.825 0 21.325 8.675 8.5 8.676 8.5 21.5 0 12.825-8.675 21.325-8.676 8.5-21.5 8.5ZM201-506v272q0 10.5 6.75 17.25T225-210h12q10.5 0 17.25-6.75T261-234v-64h440v64q0 10.5 6.75 17.25T725-210h12q10.5 0 17.25-6.75T761-234v-272l-66-192q-5-14-16.5-23t-25.5-9H309q-14 0-25.5 9T267-698l-66 192Zm77-42 40-122h326l41 122H278ZM141-820v680-680Zm120 462v-130h440v130H261Z"/></svg>