<svg xmlns="http://www.w3.org/2000/svg" width="48" height="48" viewBox="0 -960 960 960"><path d="M272.765-226Q226-226 193-258.958 160-291.917 160-339v-357h60v357q0 22 15.5 37.5t37.57 15.5q22.07 0 37-15.5T325-339v-244q0-47.083 32.941-80.042 32.941-32.958 80-32.958t79.559 32.958Q550-630.083 550-583v244q0 22 15.5 37.5t37.57 15.5q22.07 0 37-15.5T655-339v-287q0-45.833 32.083-77.917Q719.167-736 765-736h80l-57-57 42-43 130 130-130 129-42-43 58-56h-81q-21.25 0-35.625 14.375T715-626v287q0 47.083-32.735 80.042Q649.529-226 602.765-226 556-226 523-258.958 490-291.917 490-339v-244q0-22-14.93-37.5t-37-15.5q-22.07 0-37.57 15.5T385-583v244q0 47.083-32.735 80.042Q319.529-226 272.765-226ZM100-96q-24.75 0-42.375-17.625T40-156v-335h880v335q0 24.75-17.625 42.375T860-96H100Zm0-60h760v-275H100v275Zm760-275H100h760Z"/></svg>