<svg xmlns="http://www.w3.org/2000/svg" width="48" height="48" viewBox="0 -960 960 960"><path d="M477.028-246Q493-246 504-257.028q11-11.028 11-27T503.972-311q-11.028-11-27-11T450-310.972q-11 11.028-11 27T450.028-257q11.028 11 27 11ZM444-394h57q0-31 10-50.5t34.721-44.221Q579-522 592-547.5t13-53.5q0-53-34-84t-91.523-31q-51.866 0-88.171 24.5Q355-667 338-624l53 22q14-28 36.2-42.5Q449.4-659 479-659q32 0 50.5 16t18.5 44.098Q548-579 537-560.5T500-517q-37 35-46.5 60t-9.5 63ZM180-120q-24 0-42-18t-18-42v-600q0-24 18-42t42-18h600q24 0 42 18t18 42v600q0 24-18 42t-42 18H180Zm0-60h600v-600H180v600Zm0-600v600-600Z"/></svg>