<svg xmlns="http://www.w3.org/2000/svg" width="48" height="48" viewBox="0 -960 960 960"><path d="M480.266-80q-82.734 0-155.5-31.5t-127.266-86q-54.5-54.5-86-127.341Q80-397.681 80-480.5q0-82.819 31.5-155.659Q143-709 197.5-763t127.341-85.5Q397.681-880 480.5-880q82.819 0 155.659 31.5Q709-817 763-763t85.5 127Q880-563 880-480.266q0 82.734-31.5 155.5T763-197.684q-54 54.316-127 86Q563-80 480.266-80Zm.234-60Q622-140 721-239.5t99-241Q820-622 721.188-721 622.375-820 480-820q-141 0-240.5 98.812Q140-622.375 140-480q0 141 99.5 240.5t241 99.5Zm-.5-340Zm0 280q18 0 32-11.5t17-28.5h-98q4 17 17.5 28.5T480-200ZM360-310h240v-40H360v40Zm1-90h238q37-27 59-68.5t22-91.5q0-83-58.5-141.5T480-760q-83 0-141.5 58.5T280-560q0 50 22 91.5t59 68.5Zm14-40q-25.581-24.789-40.291-56.394Q320-528 320-560q0-66.286 46.798-113.143t113-46.857Q546-720 593-673.143T640-560q0 32-14.709 63.606Q610.581-464.789 585-440H375Z"/></svg>