<svg xmlns="http://www.w3.org/2000/svg" width="48" height="48" viewBox="0 -960 960 960"><path d="M224.118-161Q175-161 140.5-195.417 106-229.833 106-279H40v-461q0-24 18-42t42-18h579v167h105l136 181v173h-71q0 49.167-34.382 83.583Q780.235-161 731.118-161 682-161 647.5-195.417 613-229.833 613-279H342q0 49-34.382 83.5-34.383 34.5-83.5 34.5ZM224-221q24 0 41-17t17-41q0-24-17-41t-41-17q-24 0-41 17t-17 41q0 24 17 41t41 17ZM100-339h22q17-27 43.041-43 26.041-16 58-16t58.459 16.5Q308-365 325-339h294v-401H100v401Zm631 118q24 0 41-17t17-41q0-24-17-41t-41-17q-24 0-41 17t-17 41q0 24 17 41t41 17Zm-52-204h186L754-573h-75v148ZM360-529Z"/></svg>