<svg xmlns="http://www.w3.org/2000/svg" width="48" height="48" viewBox="0 -960 960 960"><path d="M720-418q-109-93-163-172t-54-147q0-103 65.5-163T720-960q86 0 151.5 60T937-737q0 68-54 147T720-418ZM140-80q-24 0-42-18t-18-42v-500q0-24 18-42t42-18h142l89-100h79q-3 15-5 32t-2 33q0 40 15 80.5t39 81.5q-97-4-154.5 47.5T285-390q0 79 53 132t132 53q66 0 127.5-46.5T653-395q15 15 34 31t33 27q40-32 84-72.5t76-80.5v350q0 24-18 42t-42 18H140Zm330-185q-52 0-88.5-36.5T345-390q0-52 36.5-88.5T470-515q30 0 51 10.5t40 27.5l3 3 3 3q13 17 20.5 37t7.5 44q0 52-36.5 88.5T470-265Zm191-384 59-45 60 45-23-73 60-49h-73l-24-72-24 72h-73l60 49-22 73Z"/></svg>