<svg xmlns="http://www.w3.org/2000/svg" width="48" height="48" viewBox="0 -960 960 960"><path d="M623-441 480-584q20 0 35-15t15-35q0-21.25-14.375-35.625T480-684q-20 0-35 15t-15 35l-47-48q6-14 15-24.5t22-20.5l-42-30q-16-11-34-10.5T311-754l-43-42q16-14 35.554-22.5Q323.108-827 346-827q6 0 12.5.5t12.5.5q14-35 43.338-56.5T480-904q36.324 0 65.662 21.5Q575-861 589-826q6 0 12.5-.5t12.5-.5q47.84 0 81.42 34.063Q729-758.873 729-711q0 20-7.5 39.5T699-634q14 18 22 37.316 8 19.316 8 40.118Q729-511 698.5-478T623-441ZM431-732q14-6 26.5-9t22.5-3q10 0 22.5 3t26.5 9l7-62q2-21-16-35.5T480.5-844q-21.5 0-40 14.773Q422-814.455 424-794l7 62Zm159 94 47-23q15-8 23.5-21.241t8.5-28.889q0-22.87-15.889-39.37Q637.222-767 614-767q-9 0-16.667 2.5Q589.667-762 582-757l-44 30q23 17 35 38t17 51Zm24.2 137q22.8 0 39.3-16.425Q670-533.85 670-556.967q0-17.033-9-29.533T637-607l-47-23q-5 29-16.5 50.5T540-541l42.378 29.815Q589-506 596.8-503.5q7.8 2.5 17.4 2.5ZM824-69 724-169q-50 48-113 76.5T480-64q0-69 28-131.5T584-308l-63-64q-10 4-20 6t-21 2q-36.324 0-65.662-21.5Q385-407 371-442q-6 0-12.5.5t-12.5.5q-47.873 0-81.937-34.063Q230-509.127 230-557q0-19 8-38.5t22-37.5L85-807l43-43 739 738-43 43Zm-344 5q-70 0-135-30t-115-80q-50-50-80-115t-30-135q70 0 135 30t115 80q50 50 80 115t30 135Zm-75-75q-26-79-79-132.5T193-351q26 80 79 133t133 79Zm150 0q38-12 69-30.5t57-42.5l-53-53q-24 26-42.5 57.5T555-139Zm244-127L682-383q37-20 76.5-30.5T840-424q0 42-10.5 81.5T799-266ZM555-139Zm-150 0Zm75-605Zm93 55Zm1 109ZM383-682Z"/></svg>