<svg xmlns="http://www.w3.org/2000/svg" width="48" height="48" viewBox="0 -960 960 960"><path d="M730-40v-130H600v-60h130v-130h60v130h130v60H790v130h-60ZM479.882-489Q529-489 563.5-523.382q34.5-34.383 34.5-83.5Q598-656 563.618-690.5q-34.383-34.5-83.5-34.5Q431-725 396.5-690.618q-34.5 34.383-34.5 83.5Q362-558 396.382-523.5q34.383 34.5 83.5 34.5ZM417-587q-8 0-14-6t-6-14q0-8 6-14t14-6q8 0 14 6t6 14q0 8-6 14t-14 6Zm63 0q-8 0-14-6t-6-14q0-8 6-14t14-6q8 0 14 6t6 14q0 8-6 14t-14 6Zm63 0q-8 0-14-6t-6-14q0-8 6-14t14-6q8 0 14 6t6 14q0 8-6 14t-14 6ZM180-120q-24.75 0-42.375-17.625T120-180v-600q0-24.75 17.625-42.375T180-840h600q24.75 0 42.375 17.625T840-780v375q-19-8-39.333-11.5Q780.333-420 760-420q-91.667 0-155.833 64.167Q540-291.667 540-200q0 20 3.75 40T555-120H180Z"/></svg>