<svg xmlns="http://www.w3.org/2000/svg" width="48" height="48" viewBox="0 -960 960 960"><path d="M318-200 120-480l198-280h522v560H318Zm57-239q17.425 0 29.212-11.788Q416-462.575 416-480q0-17.425-11.788-29.212Q392.425-521 375-521q-17.425 0-29.212 11.788Q334-497.425 334-480q0 17.425 11.788 29.212Q357.575-439 375-439Zm152 0q17.425 0 29.213-11.788Q568-462.575 568-480q0-17.425-11.787-29.212Q544.425-521 527-521t-29.212 11.788Q486-497.425 486-480q0 17.425 11.788 29.212Q509.575-439 527-439Zm152 0q17.425 0 29.213-11.788Q720-462.575 720-480q0-17.425-11.787-29.212Q696.425-521 679-521t-29.213 11.788Q638-497.425 638-480q0 17.425 11.787 29.212Q661.575-439 679-439Z"/></svg>