<svg xmlns="http://www.w3.org/2000/svg" width="48" height="48" viewBox="0 -960 960 960"><path d="M140-80q-24 0-42-18t-18-42v-172h60v172h172v60H140ZM80-648v-172q0-24 18-42t42-18h172v60H140v172H80Zm370 445q-98-11-167-80t-80-167h59q10 74 62.5 126T450-262v59ZM203-510q11-98 80-167t167-80v59q-74 10-126 62t-62 126h-59Zm276.567 100Q451-410 430.5-430.562 410-451.125 410-480q0-29 20.562-49.5Q451.125-550 480-550q29 0 49.5 20.5t20.5 49.933Q550-451 529.5-430.5T479.567-410ZM698-510q-10-74-62-126t-126-62v-59q98 11 167 80t80 167h-59Zm122-138v-172H648v-60h172q24 0 42 18t18 42v172h-60ZM570-80q-7.857 0-13.929-4-6.071-4-11.214-10.98-4.857-6.979-5.357-15.122T544-126l160-279q4-8 11.283-12 7.284-4 15.717-4 7.966 0 14.483 4T757-406l160 280q5 8 4.5 16.161Q921-101.677 916-95q-5 7-11.517 11-6.517 4-14.483 4H570Zm160-40q6 0 10.5-4.5T745-135q0-6-4.5-10.5T730-150q-6 0-10.5 4.5T715-135q0 6 4.5 10.5T730-120Zm-15-65h30v-165h-30v165Z"/></svg>