<svg xmlns="http://www.w3.org/2000/svg" width="48" height="48" viewBox="0 -960 960 960"><path d="M400-720h160v-120H400v120ZM300-80q-17 0-28.5-11.5T260-120q-24.75 0-42.375-17.625T200-180v-470q0-24 14-42t31-23l515 535q0 24.75-17.625 42.375T700-120q0 17-11.5 28.5T660-80q-17 0-28.5-11.5T620-120H340q0 17-11.5 28.5T300-80Zm30-160h40v-350h-40v350Zm130 0h40v-220l-40-40v260Zm130 0h40v-90l-40-40v130ZM833-41 26-848l43-43L876-84l-43 43Zm-73-245L630-416v-184h-40v144l-90-90v-54h-40v14L326-720h34v-130q0-12.5 8.75-21.25T390-880h180q12.5 0 21.25 8.75T600-850v130h100q24.75 0 42.375 17.625T760-660v374Z"/></svg>