<svg xmlns="http://www.w3.org/2000/svg" width="48" height="48" viewBox="0 -960 960 960"><path d="m747-357-42-42q17-17 26-38.267 9-21.266 9-44.733 0-23-8.5-45T706-566l41-42q25 25 39 57.378t14 67.5Q800-448 786-415t-39 58Zm84 84-41-42q33.385-33.234 51.692-76.117Q860-434 860-481.5q0-47.5-19.5-90.5T783-644l46-46q43.966 41.171 67.483 95.086Q920-541 920-481t-23 113.553Q874-313.895 831-273ZM260-40q-24.75 0-42.375-17.625T200-100v-760q0-24.75 17.625-42.375T260-920h440q24.75 0 42.375 17.625T760-860v146h-60v-56H260v580h440v-56h60v146q0 24.75-17.625 42.375T700-40H260Zm0-90v30h440v-30H260Zm0-700h440v-30H260v30Zm0 0v-30 30Zm0 700v30-30Z"/></svg>