<svg xmlns="http://www.w3.org/2000/svg" width="48" height="48" viewBox="0 -960 960 960"><path d="M400-750v-102L108-560h102v40H40v-170h40v102l292-292H270v-40h170v170h-40ZM590-40q-21.882 0-41.941-8T512-72L304-280l15-22q11-16 28.5-22.5T384-326l96 26v-340q0-12.75 8.675-21.375 8.676-8.625 21.5-8.625 12.825 0 21.325 8.625T540-640v420l-124-33 139.178 139.178Q562-107 571.13-103.5q9.131 3.5 18.87 3.5h170q42 0 71-29t29-71v-180q0-12.75 8.675-21.375 8.676-8.625 21.5-8.625 12.825 0 21.325 8.625T920-380v180q0 66-47 113T760-40H590Zm17-290v-170q0-12.75 8.675-21.375 8.676-8.625 21.5-8.625 12.825 0 21.325 8.625T667-500v170h-60Zm126 0v-130q0-12.75 8.675-21.375 8.676-8.625 21.5-8.625 12.825 0 21.325 8.625T793-460v130h-60Zm-46 105Z"/></svg>