<svg xmlns="http://www.w3.org/2000/svg" width="48" height="48" viewBox="0 -960 960 960"><path d="M480-83q-5.32 0-9.88-1-4.56-1-9.12-3-138-47-219.5-168.5T160-522.106V-718q0-19.257 10.875-34.662Q181.75-768.068 199-775l260-97q11-4 21-4t21 4l260 97q17.25 6.932 28.125 22.338Q800-737.257 800-718v196q0 64-17.789 125.564Q764.422-334.873 731-279L604-402q13-17 19-38t6-42q0-63-43.5-106.5T480-632q-62 0-105.5 43.5t-43.5 106q0 62.5 43.5 105.5T480-334q21.677 0 42.839-7 21.161-7 39.896-18L697-229q-42 52-88.5 86T499-87q-4.56 2-9.12 3T480-83Zm-.204-311Q443-394 417-419.5t-26-63q0-37.5 26.204-63.5 26.203-26 63-26Q517-572 543-546t26 63.5q0 37.5-26.204 63-26.203 25.5-63 25.5Z"/></svg>