<svg xmlns="http://www.w3.org/2000/svg" width="48" height="48" viewBox="0 -960 960 960"><path d="m230-334 146-146-146-146-42 42 74 74H80v60h182l-74 74 42 42Zm435.175-316q12.825 0 21.325-8.675 8.5-8.676 8.5-21.5 0-12.825-8.675-21.325-8.676-8.5-21.5-8.5-12.825 0-21.325 8.675-8.5 8.676-8.5 21.5 0 12.825 8.675 21.325 8.676 8.5 21.5 8.5ZM510-180h310v-600H510v600Zm-370 60q-24 0-42-18t-18-42v-210h60v210h310v-600H140v210H80v-210q0-24 18-42t42-18h680q24 0 42 18t18 42v600q0 24-18 42t-42 18H140Zm310-660v600-600Z"/></svg>