<svg xmlns="http://www.w3.org/2000/svg" width="48" height="48" viewBox="0 -960 960 960"><path d="M360.089-490Q389-490 409.5-510.589q20.5-20.588 20.5-49.5Q430-589 409.411-609.5q-20.588-20.5-49.5-20.5Q331-630 310.5-609.411q-20.5 20.588-20.5 49.5Q290-531 310.589-510.5q20.588 20.5 49.5 20.5Zm240 0Q629-490 649.5-510.589q20.5-20.588 20.5-49.5Q670-589 649.411-609.5q-20.588-20.5-49.5-20.5Q571-630 550.5-609.411q-20.5 20.588-20.5 49.5Q530-531 550.589-510.5q20.588 20.5 49.5 20.5ZM350-120v-170h100v170H350Zm160 0v-170h100v170H510Zm-330 0q-24.75 0-42.375-17.625T120-180v-420q0-100 70-170t170-70h240q100 0 170 70t70 170v420q0 24.75-17.625 42.375T780-120H670v-170q0-24.75-17.625-42.375T610-350H350q-24.75 0-42.375 17.625T290-290v170H180Z"/></svg>