<svg xmlns="http://www.w3.org/2000/svg" width="48" height="48" viewBox="0 -960 960 960"><path d="m388-80-20-126q-19-7-40-19t-37-25l-118 54-93-164 108-79q-2-9-2.5-20.5T185-480q0-9 .5-20.5T188-521L80-600l93-164 118 54q16-13 37-25t40-18l20-127h184l20 126q19 7 40.5 18.5T669-710l118-54 93 164-108 80H603.202q-13.056-38.7-46.629-64.35Q523-610 480-610q-53.857 0-91.929 38.071Q350-533.857 350-480q0 43 24 76t62 47v277h-48Zm188 0q-25 0-42.5-17.5T516-140v-200q0-25 17.5-42.5T576-400h60l40-40h80l40 40h60q25 0 42.5 17.5T916-340v200q0 25-17.5 42.5T856-80H576Zm140-80q33 0 56.5-23.5T796-240q0-33-23.5-56.5T716-320q-33 0-56.5 23.5T636-240q0 33 23.5 56.5T716-160Z"/></svg>