<svg xmlns="http://www.w3.org/2000/svg" width="48" height="48" viewBox="0 -960 960 960"><path d="M600-360Zm-280 98q10 2 19.5 2H360q5.5 0 10.25-.25T380-261v121h440v-440H699q.5-5 .75-9.75T700-600v-20.5q0-9.5-2-19.5h122q24.75 0 42.375 17.625T880-580v440q0 24.75-17.625 42.375T820-80H380q-24.75 0-42.375-17.625T320-140v-122Zm40-58q-117 0-198.5-81.5T80-600q0-117 81.5-198.5T360-880q117 0 198.5 81.5T640-600q0 117-81.5 198.5T360-320Zm-.212-60Q451-380 515.5-444.288q64.5-64.288 64.5-155.5T515.712-755.5q-64.288-64.5-155.5-64.5T204.5-755.712q-64.5 64.288-64.5 155.5T204.288-444.5q64.288 64.5 155.5 64.5ZM360-600Z"/></svg>