<svg xmlns="http://www.w3.org/2000/svg" width="48" height="48" viewBox="0 -960 960 960"><path d="M379.911-610Q351-610 330.5-630.589q-20.5-20.588-20.5-49.5Q310-709 330.589-729.5q20.588-20.5 49.5-20.5Q409-750 429.5-729.411q20.5 20.588 20.5 49.5Q450-651 429.411-630.5q-20.588 20.5-49.5 20.5ZM679.894-90Q601-90 545.5-145.606t-55.5-134.5Q490-359 545.606-414.5t134.5-55.5Q759-470 814.5-414.394t55.5 134.5Q870-201 814.394-145.5T679.894-90ZM747-185l28-28-75-75v-112h-40v128l87 87ZM180-80q-26 0-43-17t-17-43v-680q0-24.75 17-42.375T180-880h400q24.75 0 42.375 17.625T640-820v294q-16 2-31.517 6.643T579-509v-311H180v296q20-17 45.5-26.5T280-560h200q32 0 60 12.5t51 34.5q-56 20-95 63.5T440-350h-30v-80h-60v80h-80v60h80v80h60v-80l20 10q0 57 26 112t74 88H180Z"/></svg>