<svg xmlns="http://www.w3.org/2000/svg" width="48" height="48" viewBox="0 -960 960 960"><path d="M290 0q-10 0-17.5-7.5T265-25q0-10 7.5-17.5T290-50q10 0 17.5 7.5T315-25q0 10-7.5 17.5T290 0Zm340 0q-10 0-17.5-7.5T605-25q0-10 7.5-17.5T630-50q10 0 17.5 7.5T655-25q0 10-7.5 17.5T630 0ZM270-90q-42 0-82.5-19T124-163q-2-3.333-3-6t-1-6q0-8 5.263-14t14.474-6q5.263 0 9.763 2t6.5 6q13 22 38.5 35.5T246-132l132-160-60-170q-5-15-2.5-27t10.5-26l110-175H318l-73 118-51-31 92-147h222q23.318 0 37.568 12.907Q559.818-724.186 565-713l21 48q21 48 64.5 80t99.5 35v60q-65-2-120-38t-91-93l-85 136 176 121v234h30q31.57 0 58.785-15Q746-160 764-187q3.333-4 7-6t9-2q8 0 14 5.914 6 5.915 6 13.8 0 3.286-1 6.055-1 2.769-3 6.231-23 35-58.5 54T660-90H270Zm53-40h247v-190L399-439l50 157-126 152Zm284.08-644q-30.08 0-51.58-21.42-21.5-21.421-21.5-51.5 0-30.08 21.42-51.58 21.421-21.5 51.5-21.5 30.08 0 51.58 21.42 21.5 21.421 21.5 51.5 0 30.08-21.42 51.58-21.421 21.5-51.5 21.5Z"/></svg>