<svg xmlns="http://www.w3.org/2000/svg" width="48" height="48" viewBox="0 -960 960 960"><path d="M420-460q17 0 28.5-11.5T460-500q0-17-11.5-28.5T420-540q-17 0-28.5 11.5T380-500q0 17 11.5 28.5T420-460Zm120 0q17 0 28.5-11.5T580-500q0-17-11.5-28.5T540-540q-17 0-28.5 11.5T500-500q0 17 11.5 28.5T540-460Zm-240 0q17 0 28.5-11.5T340-500q0-17-11.5-28.5T300-540q-17 0-28.5 11.5T260-500q0 17 11.5 28.5T300-460Zm360 0q17 0 28.5-11.5T700-500q0-17-11.5-28.5T660-540q-17 0-28.5 11.5T620-500q0 17 11.5 28.5T660-460ZM170-120v-80h-30q-24.75 0-42.375-17.625T80-260v-480q0-24.75 17.625-42.375T140-800h680q24.75 0 42.375 17.625T880-740v480q0 24.75-17.625 42.375T820-200h-30v80h-23l-26-80H220l-27 80h-23Zm-30-140h680v-480H140v480Zm340-240Z"/></svg>