<svg xmlns="http://www.w3.org/2000/svg" width="48" height="48" viewBox="0 -960 960 960"><path d="M180-820v295-4 389-680 186-186Zm99 400h168q12-17 26.5-32t31.5-28H279v60Zm0 170h123q-2-15-1.5-30t2.5-30H279v60ZM180-80q-24 0-42-18t-18-42v-680q0-24 18-42t42-18h361l219 219v155q-14-7-29-11.5t-31-7.5v-109H511v-186H180v680h260q11 17 24 32t28 28H180Zm475-389q80.51 0 137.255 56.745Q849-355.51 849-275q0 80.51-56.745 137.255Q735.51-81 655-81q-80.51 0-137.255-56.745Q461-194.49 461-275q0-80.51 56.745-137.255Q574.49-469 655-469Zm1.108 318Q668-151 676-159.108t8-20Q684-191 675.892-199t-20-8Q644-207 636-198.892t-8 20Q628-167 636.108-159t20 8ZM636-233h40v-10.952Q676-256 682.5-266q6.5-10 15.227-18.4Q713-297 722.5-309.5 732-322 732-342q0-31.719-21.297-50.859Q689.407-412 655.78-412 630-412 609-397.5t-29 39.986L616-342q2-14 13.5-23.5t26.948-9.5q16.552 0 26.052 8.25T692-342q0 11-7 19.5T670-306q-8 7-15.5 14T642-277q-4 7-5 13.3-1 6.3-1 14.7v16Z"/></svg>