<svg xmlns="http://www.w3.org/2000/svg" width="48" height="48" viewBox="0 -960 960 960"><path d="M212-80v-300h-50v-228q0-29 21.5-50.5t50.242-21.5h104.516Q367-680 388.5-658.5 410-637 410-608v228h-50v300H212Zm74.08-654q-30.08 0-51.58-21.42-21.5-21.421-21.5-51.5 0-30.08 21.42-51.58 21.421-21.5 51.5-21.5 30.08 0 51.58 21.42 21.5 21.421 21.5 51.5 0 30.08-21.42 51.58-21.421 21.5-51.5 21.5ZM630-80v-240H526l86-311q7.216-23.593 26.608-36.296Q658-680 684-680q26 0 45.392 12.704Q748.784-654.593 756-631l86 311H738v240H630Zm54.08-654q-30.08 0-51.58-21.42-21.5-21.421-21.5-51.5 0-30.08 21.42-51.58 21.421-21.5 51.5-21.5 30.08 0 51.58 21.42 21.5 21.421 21.5 51.5 0 30.08-21.42 51.58-21.421 21.5-51.5 21.5Z"/></svg>