<svg xmlns="http://www.w3.org/2000/svg" width="48" height="48" viewBox="0 -960 960 960"><path d="M440-88 248-280H40v-400h188l53-54q12.8-12.629 29.365-19.314Q326.929-760 345-760h425q12.75 0 21.375 8.675 8.625 8.676 8.625 21.5 0 12.825-8.625 21.325T770-700H570v85h280q12.75 0 21.375 8.675 8.625 8.676 8.625 21.5 0 12.825-8.625 21.325T850-555H570v90h320q12.75 0 21.375 8.675 8.625 8.676 8.625 21.5 0 12.825-8.625 21.325T890-405H570v85h240q12.75 0 21.375 8.675 8.625 8.676 8.625 21.5 0 12.825-8.625 21.325T810-260H469l19 39q13 26 7.5 54.5T470-118l-30 30Z"/></svg>