<svg xmlns="http://www.w3.org/2000/svg" width="48" height="48" viewBox="0 -960 960 960"><path d="M480-80Q319-217 239.5-334.5T160-552q0-150 96.5-239T480-880q16 0 32 2t32 5v61q-15.667-4-31.333-6Q497-820 480-820q-109.417 0-184.708 75.105Q220-669.79 220-552q0 75 65 173.5T480-159q133-121 196.5-219.5T740-552q0-8-.5-16t-1.5-16h60q1 8 1.5 16t.5 16q0 100-79.5 217.5T480-80Zm0-433Zm195-139 84-84 84 84 42-42-84-84 84-84-42-42-84 84-84-84-42 42 84 84-84 84 42 42ZM480.089-490Q509-490 529.5-510.589q20.5-20.588 20.5-49.5Q550-589 529.411-609.5q-20.588-20.5-49.5-20.5Q451-630 430.5-609.411q-20.5 20.588-20.5 49.5Q410-531 430.589-510.5q20.588 20.5 49.5 20.5Z"/></svg>