<svg xmlns="http://www.w3.org/2000/svg" xml:space="preserve" id="Layer_1" x="0" y="0" style="enable-background:new 0 0 24 24" version="1.1" viewBox="0 0 24 24"><path d="M18 23H6c-2.8 0-5-2.2-5-5V6c0-2.8 2.2-5 5-5h12c2.8 0 5 2.2 5 5v12c0 2.8-2.2 5-5 5z" style="fill:#005bc0"/><path d="M14.6 21.7v-2.6l-6.1-3H3.1V9.8h4.8L10 7.3v-5h6.3v6.3h-4.5l-2.4 2.8v2.7l5.1 2.6v-1.2h6.3v6.3c.1-.1-6.2-.1-6.2-.1zM12.2 6.4H14V4.5h-1.8v1.9zm-6.8 7.4h1.8V12H5.4v1.8zm11.4 5.7h1.8v-1.8h-1.8v1.8z" style="fill:#fbbd0e"/></svg>