<svg xmlns="http://www.w3.org/2000/svg" xml:space="preserve" id="Layer_1" x="0" y="0" style="enable-background:new 0 0 24 24" version="1.1" viewBox="0 0 24 24"><path d="M18 23H6c-2.8 0-5-2.2-5-5V6c0-2.8 2.2-5 5-5h12c2.8 0 5 2.2 5 5v12c0 2.8-2.2 5-5 5z" style="fill:#005bc0"/><path d="M10.7 19.1v-6.4L5.2 9.5v6.4l5.5 3.2zm2.6 0 5.6-3.2V9.5l-5.6 3.2v6.4zM12 10.6l5.5-3.2L12 4.2 6.5 7.4l5.5 3.2zm-8.2 7.6c-.4-.2-.7-.6-1-1-.2-.4-.4-.8-.4-1.3V8.1c0-.5.1-.9.4-1.3.2-.4.6-.7 1-1l6.8-3.9c.4-.2.9-.4 1.3-.4s.9.1 1.3.4L20 5.8c.4.2.7.6 1 1 .2.4.4.8.4 1.3v7.8c0 .5-.1.9-.4 1.3-.2.4-.6.7-1 1l-6.8 3.9c-.4.2-.9.4-1.3.4s-.9-.1-1.3-.4l-6.8-3.9z" style="fill:#fbbd0e"/></svg>