<svg xmlns="http://www.w3.org/2000/svg" xmlns:xlink="http://www.w3.org/1999/xlink" id="svg2195" width="740" height="800" version="1.1"><defs id="defs2197"><linearGradient id="linearGradient7812"><stop id="stop7814" offset="0" style="stop-color:#280997;stop-opacity:1"/><stop id="stop7816" offset="1" style="stop-color:#c39bf6;stop-opacity:1"/></linearGradient><linearGradient id="linearGradient4810"><stop id="stop4812" offset="0" style="stop-color:#653ff2;stop-opacity:1"/><stop id="stop4814" offset="1" style="stop-color:#f4dbff;stop-opacity:1"/></linearGradient><linearGradient xlink:href="#linearGradient4810" id="linearGradient5799" x1="312.857" x2="493.571" y1="650.576" y2="650.576" gradientUnits="userSpaceOnUse"/><linearGradient xlink:href="#linearGradient4810" id="linearGradient5803" x1="312.857" x2="493.571" y1="650.576" y2="650.576" gradientUnits="userSpaceOnUse"/><linearGradient xlink:href="#linearGradient7812" id="linearGradient6838" x1="311.357" x2="495.071" y1="650.576" y2="650.576" gradientUnits="userSpaceOnUse"/><linearGradient xlink:href="#linearGradient7812" id="linearGradient7824" x1="311.357" x2="495.071" y1="650.576" y2="650.576" gradientUnits="userSpaceOnUse"/><linearGradient xlink:href="#linearGradient4810" id="linearGradient10594" x1="106.985" x2="547.301" y1="393.434" y2="393.434" gradientTransform="matrix(.76953 -.13225 .13569 .75005 183.685 233.807)" gradientUnits="userSpaceOnUse"/><linearGradient xlink:href="#linearGradient7812" id="linearGradient11577" x1="311.357" x2="495.071" y1="650.576" y2="650.576" gradientTransform="matrix(.76953 -.13225 .13569 .75005 183.685 233.807)" gradientUnits="userSpaceOnUse"/><linearGradient xlink:href="#linearGradient4810" id="linearGradient2182" x1="312.857" x2="493.571" y1="650.576" y2="650.576" gradientUnits="userSpaceOnUse"/><linearGradient xlink:href="#linearGradient7812" id="linearGradient2184" x1="311.357" x2="495.071" y1="650.576" y2="650.576" gradientUnits="userSpaceOnUse"/><linearGradient xlink:href="#linearGradient4810" id="linearGradient2475" x1="106.985" x2="547.301" y1="393.434" y2="393.434" gradientTransform="matrix(.76953 -.13225 .13569 .75005 183.685 233.807)" gradientUnits="userSpaceOnUse"/><linearGradient xlink:href="#linearGradient7812" id="linearGradient2477" x1="311.357" x2="495.071" y1="650.576" y2="650.576" gradientTransform="matrix(.76953 -.13225 .13569 .75005 183.685 233.807)" gradientUnits="userSpaceOnUse"/><linearGradient xlink:href="#linearGradient4810" id="linearGradient2488" x1="106.985" x2="547.301" y1="393.434" y2="393.434" gradientTransform="matrix(.76953 -.13225 .13569 .75005 183.685 233.807)" gradientUnits="userSpaceOnUse"/><linearGradient xlink:href="#linearGradient7812" id="linearGradient2490" x1="311.357" x2="495.071" y1="650.576" y2="650.576" gradientTransform="matrix(.76953 -.13225 .13569 .75005 183.685 233.807)" gradientUnits="userSpaceOnUse"/><linearGradient xlink:href="#linearGradient4810" id="linearGradient2504" x1="106.985" x2="547.301" y1="393.434" y2="393.434" gradientTransform="matrix(.76953 -.13225 .13569 .75005 183.685 233.807)" gradientUnits="userSpaceOnUse"/><linearGradient xlink:href="#linearGradient7812" id="linearGradient2506" x1="311.357" x2="495.071" y1="650.576" y2="650.576" gradientTransform="matrix(.76953 -.13225 .13569 .75005 183.685 233.807)" gradientUnits="userSpaceOnUse"/><linearGradient xlink:href="#linearGradient4810" id="linearGradient2517" x1="106.985" x2="547.301" y1="393.434" y2="393.434" gradientTransform="matrix(.76953 -.13225 .13569 .75005 183.685 233.807)" gradientUnits="userSpaceOnUse"/><linearGradient xlink:href="#linearGradient7812" id="linearGradient2519" x1="311.357" x2="495.071" y1="650.576" y2="650.576" gradientTransform="matrix(.76953 -.13225 .13569 .75005 183.685 233.807)" gradientUnits="userSpaceOnUse"/><linearGradient xlink:href="#linearGradient4810" id="linearGradient2521" x1="106.985" x2="547.301" y1="393.434" y2="393.434" gradientTransform="matrix(.76953 -.13225 .13569 .75005 183.685 233.807)" gradientUnits="userSpaceOnUse"/><linearGradient xlink:href="#linearGradient7812" id="linearGradient2523" x1="311.357" x2="495.071" y1="650.576" y2="650.576" gradientTransform="matrix(.76953 -.13225 .13569 .75005 183.685 233.807)" gradientUnits="userSpaceOnUse"/><linearGradient xlink:href="#linearGradient4810" id="linearGradient3507" x1="106.985" x2="547.301" y1="393.434" y2="393.434" gradientTransform="matrix(.76953 -.13225 .13569 .75005 -84.887 142.379)" gradientUnits="userSpaceOnUse"/><linearGradient xlink:href="#linearGradient7812" id="linearGradient3509" x1="311.357" x2="495.071" y1="650.576" y2="650.576" gradientTransform="matrix(.76953 -.13225 .13569 .75005 -84.887 142.379)" gradientUnits="userSpaceOnUse"/><linearGradient xlink:href="#linearGradient4810" id="linearGradient3512" x1="106.985" x2="547.301" y1="393.434" y2="393.434" gradientTransform="matrix(.76953 -.13225 .13569 .75005 -84.887 142.379)" gradientUnits="userSpaceOnUse"/><linearGradient xlink:href="#linearGradient7812" id="linearGradient3514" x1="311.357" x2="495.071" y1="650.576" y2="650.576" gradientTransform="matrix(.76953 -.13225 .13569 .75005 -84.887 142.379)" gradientUnits="userSpaceOnUse"/><linearGradient xlink:href="#linearGradient4810" id="linearGradient3517" x1="106.985" x2="547.301" y1="393.434" y2="393.434" gradientTransform="matrix(.76953 -.13225 .13569 .75005 -84.887 142.379)" gradientUnits="userSpaceOnUse"/><linearGradient xlink:href="#linearGradient7812" id="linearGradient3519" x1="311.357" x2="495.071" y1="650.576" y2="650.576" gradientTransform="matrix(.76953 -.13225 .13569 .75005 -84.887 142.379)" gradientUnits="userSpaceOnUse"/><linearGradient xlink:href="#linearGradient4810" id="linearGradient3522" x1="106.985" x2="547.301" y1="393.434" y2="393.434" gradientTransform="matrix(.76953 -.13225 .13569 .75005 -84.887 142.379)" gradientUnits="userSpaceOnUse"/><linearGradient xlink:href="#linearGradient7812" id="linearGradient3524" x1="311.357" x2="495.071" y1="650.576" y2="650.576" gradientTransform="matrix(.76953 -.13225 .13569 .75005 -84.887 142.379)" gradientUnits="userSpaceOnUse"/><linearGradient xlink:href="#linearGradient4810" id="linearGradient3527" x1="106.985" x2="547.301" y1="393.434" y2="393.434" gradientTransform="matrix(.76953 -.13225 .13569 .75005 -84.887 142.379)" gradientUnits="userSpaceOnUse"/><linearGradient xlink:href="#linearGradient7812" id="linearGradient3529" x1="311.357" x2="495.071" y1="650.576" y2="650.576" gradientTransform="matrix(.76953 -.13225 .13569 .75005 -84.887 142.379)" gradientUnits="userSpaceOnUse"/><marker id="ArrowStart" markerHeight="3" markerUnits="strokeWidth" markerWidth="4" orient="auto" refX="10" refY="5" viewBox="0 0 10 10"><path id="path8137" d="M10 0 0 5l10 5Z"/></marker><marker id="ArrowEnd" markerHeight="3" markerUnits="strokeWidth" markerWidth="4" orient="auto" refX="0" refY="5" viewBox="0 0 10 10"><path id="path8134" d="m0 0 10 5-10 5Z"/></marker><filter id="filter3546" width="1.174" height="1.303" x="-.087" y="-.151"><feGaussianBlur id="feGaussianBlur3548" stdDeviation="3.036"/></filter><filter id="filter3562" width="1.074" height="1.092" x="-.037" y="-.046"><feGaussianBlur id="feGaussianBlur3564" stdDeviation="3.207"/></filter></defs><g id="layer1" transform="translate(-603.434 -649.543) scale(1.98442)"><path id="path5801" d="M493.571 650.576a90.357 51.786 0 1 1-180.714 0 90.357 51.786 0 1 1 180.714 0z" style="fill:url(#linearGradient5803);fill-opacity:1;stroke:url(#linearGradient7824);stroke-width:5.20673;stroke-miterlimit:4;stroke-dasharray:none;stroke-opacity:1" transform="matrix(.33035 0 0 .36703 307.633 444.313)"/><path id="path3550" d="M493.571 650.576a90.357 51.786 0 1 1-180.714 0 90.357 51.786 0 1 1 180.714 0z" style="color:#000;display:inline;overflow:visible;visibility:visible;opacity:.798742;fill:none;fill-opacity:1;fill-rule:nonzero;stroke:#000;stroke-width:9.48312;stroke-linecap:butt;stroke-linejoin:miter;stroke-miterlimit:4;stroke-dasharray:none;stroke-dashoffset:0;stroke-opacity:1;marker:none;marker-start:none;marker-mid:none;marker-end:none;filter:url(#filter3546);enable-background:accumulate" transform="matrix(.3577 0 0 .39407 296.96 426.72)"/><path id="path3536" d="M493.571 650.576a90.357 51.786 0 1 1-180.714 0 90.357 51.786 0 1 1 180.714 0z" style="color:#000;display:inline;overflow:visible;visibility:visible;opacity:.798742;fill:none;fill-opacity:1;fill-rule:nonzero;stroke:#000;stroke-width:7.74731;stroke-linecap:butt;stroke-linejoin:miter;stroke-miterlimit:4;stroke-dasharray:none;stroke-dashoffset:0;stroke-opacity:1;marker:none;marker-start:none;marker-mid:none;marker-end:none;filter:url(#filter3546);enable-background:accumulate" transform="matrix(.46135 0 0 .50784 278.77 305.91)"/><path id="path5787" d="M493.571 650.576a90.357 51.786 0 1 1-180.714 0 90.357 51.786 0 1 1 180.714 0z" style="fill:url(#linearGradient5799);fill-opacity:1;stroke:url(#linearGradient6838);stroke-width:4;stroke-miterlimit:4;stroke-dasharray:none;stroke-opacity:1" transform="matrix(.44152 0 0 .47323 287.126 328.07)"/><path id="path2508" d="M483.094 340.66c-5.772.105-12.44.233-17.25 3-6.187-2.417-13.039.827-19.277 1.919-8.836 2.992-18.529 5.987-25.255 12.613-.681 3.175-5.425.292-7.5 3.062-12.292 8.263-25.284 16.245-35.75 26.72-.96 2.672-.657 4.712-3.78 5.593-11.622 11.95-20.666 26.21-29.938 39.906-3.237 8.051-8.036 17.416-11.281 26.281-.777 2.389 1.75 5.135-1.563 5.875-4.834 7.386-5.89 16.875-8.35 25.256-1.06 7.077-4.89 14.208-3.962 21.338.952 2.478-1.141 5.807-.188 8.844.123 12.928 1.323 25.855 5.359 38.205 2.05 4.898 2.3 11.811 7.266 14.639.599 7.716 9.21 11.5 14.928 15.313 6.304 3.011 12.633 7.574 19.728 8.187 2.531-.519 3.5 3.578 6.5 3.375 14.908 2.633 29.226-4.906 43.969-5.032 26.29-3.001 48.6 14.582 73.656 19.157 26.093 5.39 53.875 4.968 79.02-4.578 12.92-4.822 26.404-10.406 36.717-19.406 2.185-5.101 7.92-8.126 11.044-13.11 7.397-8.199 11.618-20.726 5.72-30.906-3.783-7.157-10.136-12.526-16.72-17.032 10.001-3.873 20.149-8.872 28-16.093.853-2.272 5.224-.86 6.532-3.813 10.476-9.418 20.197-21.505 21.218-36.062-1.999-2.886 1.47-5.35 0-8.532-2.107-15.637-4.204-31.422-10.968-45.812-5.068-16.839-19.896-27.592-31.063-40.125-2.37-1.257-4.755-.666-5.906-3.688-12.743-15.233-32.059-22.25-50.438-28-3.313-1.116-5.462 4.247-7.687.438-11.417-6.875-25.654-5.573-38.406-6.656-2.629 2.185-4.274.453-7.094-.219-9.087-.37-18.185-.74-27.281-.656z" style="color:#000;display:inline;overflow:visible;visibility:visible;opacity:.8;fill:none;fill-opacity:1;fill-rule:nonzero;stroke:#000;stroke-width:10;stroke-linecap:butt;stroke-linejoin:miter;stroke-miterlimit:4;stroke-dasharray:none;stroke-dashoffset:0;stroke-opacity:1;marker:none;marker-start:none;marker-mid:none;marker-end:none;filter:url(#filter3562);enable-background:accumulate" transform="matrix(.99414 0 0 .9799 3.945 10.356)"/><path id="path8335" d="M589.737 526.502s8.735 1.678 13.263-.024c8.542-3.213 13.022-5.07 26.387-13.938 4.954-3.287-43.208-23.344-39.829-25.688 3.175-2.203 43.178 24.017 46.38 21.35 7.64-6.356 19.152-18.53 20.986-32.37.74-5.576-20.598-5.002-20.577-9.171.017-3.406 21.727 6.03 20.87 1.55-1.135-5.925-3.017-23.791-5.509-31.406-2.491-7.614-5.592-15.69-9.164-23.465-3.575-7.775-19.237-21.813-25.388-28.956-3.075-3.57 3.57 33.916 1.111 31.965-2.42-1.92-2.83-33.992-8.83-37.219-12.318-15.648-36.503-21.905-45.063-25.368-8.56-3.462 2.006 21.761.2 21.2-1.838-.573-4.324-19.326-14.127-23.437-9.803-4.111-26.923-3.682-31.765-4.276-4.843-.594 4.812 24.039 2.82 21.532-2.77-3.486-7.258-21.604-11.637-21.773-17.517-.68-33.823-1.296-39.363.709-3.839 1.389 4.171 3.824 12.184 20.806 3.929 8.326 17.48 46.714 14.798 46.929-3.686.296-10.361-39.4-21.31-51.643-15.41-17.236-10.402-15.942-17.878-14.91-11.187 1.544-23.396 6.202-32.2 12.015-4.057 2.679 12.367 21.25 10.535 23.996-3.07 1.34-12.938-22.597-19.28-19.227-4.041 2.147-28.41 18.995-34.718 25.214-4.309 4.248 22.494 23.981 21.113 25.58-2.937 3.4-22.825-21.754-26.087-18.467-3.262 3.288-5.635 5.89-6.614 7.226-10.059 13.229-14.608 19.81-21.919 30.458-1.016 1.48 17.89 9.588 17.047 11.655-.67 1.644-18.33-8.425-19.188-6.633-.857 1.792-7.838 17.878-8.801 20.104-4.02 9.285 41.87 23.88 40.632 26.71-1.462 3.136-42.53-22.221-44.422-16.895-1.892 5.326-3.497 10.526-4.823 15.682-.664 2.577-5.298 21.812-5.823 24.378-.525 2.566 23.767 8.667 23.378 11.242-.389 2.575-22.933-7.467-23.188-4.863-.255 2.604.567 9.774.444 12.429-.493 10.618 3.78 27.812 8.176 39.108 2.178 5.595 9.422-7.772 11.468-6.288 3.232 2.346-9.234 10.678-7.174 13.683 2.01 2.933 5.849 5.829 10.183 8.436 6.17 3.711 13.348 6.836 17.693 8.645 3.699 1.54 40.448-16.055 44.493-15.355 4.046.7-44.815 15.656-36.066 18.658 7.951 2.728 23.508-2.472 32.024-3.638 8.517-1.166 17.015-2.092 25.346-1.19 8.337.901 16.508 3.63 24.709 6.794 8.201 3.164 16.434 6.764 24.896 9.408 16.929 5.288 34.775 6.764 52.12 6.176 17.348-.582 49.354-9.791 69.483-24.846 3.562-1.978-43.598-12.501-42.454-13.808 2.647-3.028 42.743 12.331 46.697 8.284 6.777-6.936 13.234-14.85 14.444-21.49 1.212-6.643-1.305-12.52-5.788-17.71-4.482-5.19-10.93-9.696-17.577-13.598a146.717 146.717 0 0 0-20.05-9.796c-6.55-2.595-12.804-4.484-18.259-5.565-10.91-2.162-33.042-2.605-36.767-2.926-3.725-.321-12.55-1.982-18.821-3.295-3.538-1.389-7.246-3.312-10.044-4.872-2.728-1.521 6.838 3.017 6.838 3.017" style="color:#000;display:inline;overflow:visible;visibility:visible;opacity:1;fill:url(#linearGradient10594);fill-opacity:1;fill-rule:nonzero;stroke:url(#linearGradient11577);stroke-width:3.0858;stroke-linecap:butt;stroke-linejoin:miter;stroke-miterlimit:4;stroke-dasharray:none;stroke-dashoffset:0;stroke-opacity:1;marker:none;marker-start:none;marker-mid:none;marker-end:none;enable-background:accumulate"/><path id="text2182" d="M634.263 472.543v16.93H412.49c2.097 23.828 12.059 42.012 29.884 54.553 18 12.415 42.992 18.623 74.973 18.623 18.525 0 36.438-1.63 53.74-4.891 17.476-3.26 10.219-2.167 17.3-4.337l6.139 29.468c-11.162 3.091-6.575 2.208-24.75 4.967-18.175 2.76-36.613 4.139-55.312 4.139-46.837 0-83.974-9.782-111.411-29.346-27.263-19.564-40.895-46.025-40.894-79.384 0-34.487 12.932-61.827 38.797-82.018 26.04-20.316 61.079-30.474 105.12-30.474 39.495 0 70.69 9.155 93.584 27.465 23.069 18.184 34.603 42.952 34.603 74.305m-48.234-10.159c-.35-18.936-7.777-34.048-22.282-45.335-14.33-11.287-33.38-16.93-57.147-16.93-26.914 0-48.497 5.455-64.75 16.366-16.078 10.91-25.34 26.273-27.787 46.087l171.966-.188" style="font-style:normal;font-weight:400;font-size:589.525px;font-family:&quot;Bitstream Vera Sans&quot;;opacity:.5;fill:#000;fill-opacity:1;stroke:none;stroke-width:1px;stroke-linecap:butt;stroke-linejoin:miter;stroke-opacity:1"/><path id="path3188" d="M436.429 356.648a15 15 0 1 1-30 0 15 15 0 1 1 30 0z" style="opacity:.5" transform="matrix(.7814 0 0 .76162 231.593 174.44)"/><path id="path3556" d="M493.571 650.576a90.357 51.786 0 1 1-180.714 0 90.357 51.786 0 1 1 180.714 0z" style="color:#000;display:inline;overflow:visible;visibility:visible;opacity:.754717;fill:none;fill-opacity:1;fill-rule:nonzero;stroke:#000;stroke-width:16.8048;stroke-linecap:butt;stroke-linejoin:miter;stroke-miterlimit:4;stroke-dasharray:none;stroke-dashoffset:0;stroke-opacity:1;marker:none;marker-start:none;marker-mid:none;marker-end:none;filter:url(#filter3546);enable-background:accumulate" transform="matrix(.21778 0 0 .2648 391.437 536.008)"/><path id="path2180" d="M493.571 650.576a90.357 51.786 0 1 1-180.714 0 90.357 51.786 0 1 1 180.714 0z" style="fill:url(#linearGradient2182);fill-opacity:1;stroke:url(#linearGradient2184);stroke-width:5.20673;stroke-miterlimit:4;stroke-dasharray:none;stroke-opacity:1" transform="matrix(.2075 0 0 .23997 395.223 552.161)"/></g></svg>
