<svg xmlns="http://www.w3.org/2000/svg" xml:space="preserve" id="Layer_1" x="0" y="0" style="enable-background:new 0 0 24 24" version="1.1" viewBox="0 0 24 24"><path d="M18 23H6c-2.8 0-5-2.2-5-5V6c0-2.8 2.2-5 5-5h12c2.8 0 5 2.2 5 5v12c0 2.8-2.2 5-5 5z" style="fill:#005bc0"/><path d="M4.9 20.2c-.8 0-1.5-.3-2.1-.8S2 18.1 2 17.3V6.7c0-.8.3-1.5.8-2.1s1.2-.8 2.1-.8h14.2c.8 0 1.5.3 2.1.8.5.6.8 1.3.8 2.1v10.5c0 .8-.3 1.5-.8 2.1-.6.6-1.2.8-2.1.8H4.9zm7.1-6.3L4.9 9.3v7.9h14.2V9.3L12 13.9zm0-2.5 7.1-4.6H4.9l7.1 4.6zM4.9 9.3V6.7v10.5-7.9z" style="fill:#fbbd0e"/></svg>