<svg xmlns="http://www.w3.org/2000/svg" xml:space="preserve" id="Layer_1" x="0" y="0" style="enable-background:new 0 0 24 24" version="1.1" viewBox="0 0 24 24"><path d="M18 23H6c-2.8 0-5-2.2-5-5V6c0-2.8 2.2-5 5-5h12c2.8 0 5 2.2 5 5v12c0 2.8-2.2 5-5 5z" style="fill:#005bc0"/><path d="M4.5 20.1c-.7 0-1.3-.2-1.8-.7-.4-.5-.7-1.1-.7-1.8V6.4c0-.7.2-1.3.7-1.8s1.1-.7 1.8-.7h14.9c.7 0 1.3.2 1.8.7.5.5.8 1.1.8 1.8v11.1c0 .7-.2 1.3-.7 1.8-.5.5-1.1.7-1.8.7 0 .1-15 .1-15 .1zm7.5-6.6L4.5 8.8v8.8h14.9V8.8L12 13.5zm0-2.3 7.5-4.8h-15l7.5 4.8zM4.5 8.8V6.4v11.1-8.7z" style="fill:#fbbd0e"/></svg>