<svg xmlns="http://www.w3.org/2000/svg" width="48" height="48" viewBox="0 -960 960 960"><path d="M80-200v-80h255v-160H83v-80h252v-160H80v-80h255q33.333 0 56.667 23.333Q415-713.333 415-680v131q0 29-19 50t-48 21q29 0 48 19t19 48v131q0 33.333-23.333 56.667Q368.333-200 335-200H80Zm502-80h218v-400H582v400Zm0 80q-33.333 0-56.667-23.333Q502-246.667 502-280v-400q0-33.333 23.333-56.667Q548.667-760 582-760h218q33.333 0 56.667 23.333Q880-713.333 880-680v400q0 33.333-23.333 56.667Q833.333-200 800-200H582Z"/></svg>