<svg xmlns="http://www.w3.org/2000/svg" width="48" height="48" viewBox="0 -960 960 960"><path d="M520-360h50v-90l84 90h66L608-480l112-120h-66l-84 90v-90h-50v240Zm-230 0h103q14.025 0 23.513-9.487Q426-378.975 426-393v-70q0-14.025-9.487-23.513Q407.025-496 393-496h-87v-54h120v-50H289.784Q276-600 266-590.225 256-580.45 256-566v173q0 14.025 9.775 23.513Q275.55-360 290-360Zm16-33v-70h70v70h-70ZM180-120q-24 0-42-18t-18-42v-600q0-24 18-42t42-18h600q24 0 42 18t18 42v600q0 24-18 42t-42 18H180Zm0-60h600v-600H180v600Zm0-600v600-600Z"/></svg>