<svg xmlns="http://www.w3.org/2000/svg" width="48" height="48" viewBox="0 -960 960 960"><path d="M393.187-82Q314-82 257-139q-57-57-57-136t57-136q57-57 136-57v60q-54 0-93.5 39.5T260-275q0 54 39.5 93.5T393-142q54 0 92.5-37.5T524-286h60q0 93-55.813 148.5-55.812 55.5-135 55.5ZM727-112v-204H510q-49 0-73.5-38t-4.5-81l86-189h-94l-27 73-60-20 28-75q5-18 18.5-28t35.638-10H611q40 0 62.5 32t6.5 66l-90 191h122q30.938 0 52.969 22.168Q787-350.663 787-319.533V-112h-60Zm-14.92-604q-30.08 0-51.58-21.42-21.5-21.421-21.5-51.5 0-30.08 21.42-51.58 21.421-21.5 51.5-21.5 30.08 0 51.58 21.42 21.5 21.421 21.5 51.5 0 30.08-21.42 51.58-21.421 21.5-51.5 21.5Z"/></svg>