<svg xmlns="http://www.w3.org/2000/svg" width="48" height="48" viewBox="0 -960 960 960"><path d="M480.089-490Q509-490 529.5-510.589q20.5-20.588 20.5-49.5Q550-589 529.411-609.5q-20.588-20.5-49.5-20.5Q451-630 430.5-609.411q-20.5 20.588-20.5 49.5Q410-531 430.589-510.5q20.588 20.5 49.5 20.5ZM480-80Q319-217 239.5-334.5T160-552q0-150 96.5-239T480-880q22 0 43 3t41 7.581V-732h128v128h104.219Q798-591 799-578.5q1 12.5 1 26.5 0 100-79.5 217.5T480-80Zm252-564v-128H604v-60h128v-128h60v128h128v60H792v128h-60Z"/></svg>