<svg xmlns="http://www.w3.org/2000/svg" width="48" height="48" viewBox="0 -960 960 960"><path d="M697-703h60v-60h-60v60Zm35.5 583Q655-120 600-175.5T545-307q0-78.435 54.99-133.717Q654.98-496 733-496q77 0 132.5 55.283Q921-385.435 921-307q0 76-55.5 131.5t-133 55.5ZM718-180h33v-110h110v-33H751v-110h-33v110H608v33h110v110Zm202-289q-35-42-84.093-64.5T733-556q-24 0-47 4.5T641-538v-87L405-790v-130h515v451ZM40-200v-390l271-194 270 194v87q-45 35-70.5 86.5T485-307q0 27.63 6.5 54.815T510-200H391v-221H231v221H40Z"/></svg>