<svg xmlns="http://www.w3.org/2000/svg" width="48" height="48" viewBox="0 -960 960 960"><path d="M690.882-270q25.883 0 44-19Q753-308 753-333.882q0-25.883-18.118-44-18.117-18.118-44-18.118Q665-396 646-377.882q-19 18.117-19 44Q627-308 646-289q19 19 44.882 19ZM689.5-145q33.5 0 60.5-14t46-40q-26-14-51.962-21-25.961-7-54-7-28.038 0-54.538 7-26.5 7-51.5 21 19 26 45.5 40t60 14Zm3 65Q615-80 560-135.5T505-267q0-78.435 54.99-133.717Q614.98-456 693-456q77 0 132.5 55.283Q881-345.435 881-267q0 76-55.5 131.5T692.5-80ZM480-80q-138-32-229-156.5T160-522v-239l320-120 320 120v270q-25-12-52-18.5t-55-6.5q-102.743 0-175.371 72.921Q445-370.157 445-267q0 48 19.5 94T518-93q-9 5-19 7.5T480-80Z"/></svg>