<svg xmlns="http://www.w3.org/2000/svg" width="48" height="48" viewBox="0 -960 960 960"><path d="M145-599q-11.475 0-19.238-9Q118-617 118-629t7.762-21q7.763-9 19.238-9h149q29 0 45 18t21 42H145Zm83 439q-79 0-133.5-55.575T40-350q0-78.85 55.5-134.425Q151-540 230-540q32 0 63.919 11 31.918 11 58.081 33h69q42 0 70.5-29.669T520-597v-104.358L471-749l-61 61-19-18 142-142 18 18-62 62 49 49h272q26 0 43 17t17 43v259q23 20 36.5 47.244Q920-325.513 920-295q0 55.929-39.551 95.464Q840.899-160 784.95-160q-55.95 0-95.45-39.5T650-292q0-6 .5-14.5T652-320H418q-11 69-64 114.5T228-160Zm1.882-60Q284-220 322-257.882q38-37.883 38-92Q360-404 322.118-442q-37.883-38-92-38Q176-480 138-442.118q-38 37.883-38 92Q100-296 137.882-258q37.883 38 92 38ZM700-490Zm84.824 270Q816-220 838-241.824q22-21.823 22-53Q860-326 838.177-348q-21.824-22-53.001-22Q754-370 732-348.176q-22 21.823-22 53Q710-264 731.823-242q21.824 22 53.001 22Zm-554.706-60Q201-280 180.5-300.382q-20.5-20.383-20.5-49.5Q160-379 180.382-399.5q20.383-20.5 49.5-20.5Q259-420 279.5-399.618q20.5 20.383 20.5 49.5Q300-321 279.618-300.5q-20.383 20.5-49.5 20.5ZM418-381h263q18-22 46.5-35.5t60.059-13.5H810v-229H580v62q0 65-47 113t-112 48h-21q5 10 10.056 24.516Q415.111-396.968 418-381Z"/></svg>