<svg xmlns="http://www.w3.org/2000/svg" width="48" height="48" viewBox="0 -960 960 960"><path d="M450-810v-150h60v150h-60Zm-187 53L152-869l42-43 112 112-43 43ZM150-40q-12.75 0-21.375-8.625T120-70v-324l84-244.651Q210-657 225.5-668.5T261-680h114v-75h153q-23 29-37.5 63T472-620H258l-60 176h323q13 17 29 32.5t34 27.5H180v200h600v-163q16-4 30.915-9.143Q825.831-361.286 840-369v299q0 12.75-8.625 21.375T810-40h-21q-12.75 0-21.375-8.625T759-70v-54H200v54q0 12.75-8.625 21.375T170-40h-20Zm100-214h120q13 0 21.5-8.675 8.5-8.676 8.5-21.5 0-12.825-8.625-21.325T370-314H250v60Zm460 0v-60H590q-13 0-21.5 8.675-8.5 8.676-8.5 21.5 0 12.825 8.625 21.325T590-254h120ZM180-384v200-200Zm518-126 141-142-28-28-113 114-59-60-28 29 87 87Zm27-279q80.51 0 137.255 56.745Q919-675.51 919-595q0 80.51-56.745 137.255Q805.51-401 725-401q-80.51 0-137.255-56.745Q531-514.49 531-595q0-80.51 56.745-137.255Q644.49-789 725-789Z"/></svg>