<svg xmlns="http://www.w3.org/2000/svg" width="48" height="48" viewBox="0 -960 960 960"><path d="M450-810v-150h60v150h-60Zm-187 53L152-869l42-43 112 112-43 43Zm-13 503h120q13 0 21.5-8.675 8.5-8.676 8.5-21.5 0-12.825-8.625-21.325T370-314H250v60Zm340 0h120v-60H590q-13 0-21.5 8.675-8.5 8.676-8.5 21.5 0 12.825 8.625 21.325T590-254Zm108-256 141-142-28-28-113 114-59-60-28 29 87 87Zm27 109q-80.51 0-137.255-56.745Q531-514.49 531-595q0-80.51 56.745-137.255Q644.49-789 725-789q80.51 0 137.255 56.745Q919-675.51 919-595q0 80.51-56.745 137.255Q805.51-401 725-401ZM150-40q-12.75 0-21.375-8.625T120-70v-324l84-244.651Q210-657 225.5-668.5T261-680h114v-75h153q-23 29-37.5 63T472-620H258l-60 176h323q35.633 48.925 89.083 75.962Q663.533-341 725-341q30 0 59-7t56-21v299q0 12.75-8.625 21.375T810-40h-21q-12.75 0-21.375-8.625T759-70v-54H200v54q0 12.75-8.625 21.375T170-40h-20Z"/></svg>