<svg xmlns="http://www.w3.org/2000/svg" width="48" height="48" viewBox="0 -960 960 960"><path d="M480-480Zm-400 0q0-83 31.5-156t86-127Q252-817 325-848.5T480-880q36 0 71 6t67 18q-14 10-25 22.5T574-807q-23-7-46-10t-48-3q-141 0-240.5 99T140-480q0 141 99.5 240.5T480-140q142 0 241-99.5T820-480q0-25-3-48t-10-46q14-8 26.5-19t22.5-25q12 32 18 67t6 71q0 82-31.5 155T763-197.5q-54 54.5-127 86T480-80q-82 0-155-31.5t-127.5-86Q143-252 111.5-325T80-480Zm640-130q-45 0-77.5-32.5T610-720q0-46 32.5-78t77.5-32q46 0 78 32t32 78q0 45-32 77.5T720-610Z"/></svg>