<svg xmlns="http://www.w3.org/2000/svg" width="48" height="48" viewBox="0 -960 960 960"><path d="M480-280q14 0 24.5-10.5T515-315q0-14-10.5-24.5T480-350q-14 0-24.5 10.5T445-315q0 14 10.5 24.5T480-280Zm-31-132h60v-268h-60v268ZM180-120q-24.75 0-42.375-17.625T120-180v-600q0-24.75 17.625-42.375T180-840h205q5-35 32-57.5t63-22.5q36 0 63 22.5t32 57.5h205q24.75 0 42.375 17.625T840-780v600q0 24.75-17.625 42.375T780-120H180Zm0-60h600v-600H180v600Zm300-617q14 0 24.5-10.5T515-832q0-14-10.5-24.5T480-867q-14 0-24.5 10.5T445-832q0 14 10.5 24.5T480-797ZM180-180v-600 600Z"/></svg>