<svg xmlns="http://www.w3.org/2000/svg" width="48" height="48" viewBox="0 -960 960 960"><path d="M298-260q-91.164 0-154.582-64.5Q80-389 80-480t62.5-155.5Q205-700 296-700h430q63.525 0 108.763 45.544Q880-608.911 880-544.956 880-481 834.763-435.5 789.525-390 726-390H331q-38.22 0-64.61-26.141t-26.39-64Q240-518 267.5-544t65.5-26h393v40H332q-21 0-36.5 14.325-15.5 14.324-15.5 35.5Q280-459 295-444.5q15 14.5 36 14.5h395q47.88 0 80.94-33.289 33.06-33.288 33.06-81.5Q840-593 806.94-626.5T726-660H294q-73 0-123.5 52.875T120-480q0 75 51.5 127.5T297-300h429v40H298Z"/></svg>