<svg xmlns="http://www.w3.org/2000/svg" width="48" height="48" viewBox="0 -960 960 960"><path d="M347-840h248v30h189v60h-43v191q-16-5-36-8t-37-3q-20 0-43 4t-42 10v-109h-60v137q-30 19-58.5 50.5T420-414v-251h-60v399h32q3 36 19.5 76t36.5 70H261q-24 0-42-18t-18-42v-570h-43v-60h189v-30Zm321 338q87.98 0 149.99 61.717Q880-378.565 880-291q0 87.98-62.014 149.99Q755.972-79 667.986-79 580-79 518.5-141.014q-61.5-62.014-61.5-150Q457-379 518.718-440.5 580.435-502 668-502Zm-21 92v128l86 86 28-28-74-74v-112h-40Z"/></svg>