<svg xmlns="http://www.w3.org/2000/svg" width="48" height="48" viewBox="0 -960 960 960"><path d="M480-120q-75 0-140.271-28.4-65.271-28.401-114.1-77.229-48.828-48.829-77.229-114.1Q120-405 120-480q0-42.268 10-82.134t29-76.366q19-36.5 45.5-68T265-763l268 268-42 43-230-230q-39 42-60 93.5T180-480q0 125 87.5 212.5T480-180q125 0 212.5-87.5T780-480q0-118-79-204.5T504-779v100h-60v-161h34q74.722 0 140.861 28.5T734-734.5q49 48.5 77.5 114T840-480q0 75-28.4 140.271-28.401 65.271-77.229 114.1-48.829 48.828-114.1 77.229Q555-120 480-120Zm-1.895-103Q462-223 451-233.895q-11-10.894-11-27Q440-277 450.895-288q10.894-11 27-11Q494-299 505-288.105q11 10.894 11 27Q516-245 505.105-234q-10.894 11-27 11Zm221-221Q683-444 672-454.895q-11-10.894-11-27Q661-498 671.895-509q10.894-11 27-11Q715-520 726-509.105q11 10.894 11 27Q737-466 726.105-455q-10.894 11-27 11Zm-439 0Q244-444 233-454.895q-11-10.894-11-27Q222-498 232.895-509q10.894-11 27-11Q276-520 287-509.105q11 10.894 11 27Q298-466 287.105-455q-10.894 11-27 11Z"/></svg>