<svg xmlns="http://www.w3.org/2000/svg" width="48" height="48" viewBox="0 -960 960 960"><path d="M120-80v-397.949L182-662q8-23 26.5-35.5t40.868-12.5q7.158 0 14.316 1.286Q270.842-707.429 278-704l168 74h94v60H432l-116-51-56 169v372H120Zm250-130v-60h470v60H370Zm410-110q-25 0-42.5-17.5T720-380q0-25 17.5-42.5T780-440q25 0 42.5 17.5T840-380q0 25-17.5 42.5T780-320Zm-270-10q-24.75 0-42.375-17.625T450-390v-60h-80v-60h110.175q12.825 0 21.325 8.625T510-480v50h120v-80h60v120q0 24.75-17.625 42.375T630-330H510ZM313.08-774q-30.08 0-51.58-21.42-21.5-21.421-21.5-51.5 0-30.08 21.42-51.58 21.421-21.5 51.5-21.5 30.08 0 51.58 21.42 21.5 21.421 21.5 51.5 0 30.08-21.42 51.58-21.421 21.5-51.5 21.5Z"/></svg>