<svg xmlns="http://www.w3.org/2000/svg" width="48" height="48" viewBox="0 -960 960 960"><path d="M140-80q-24 0-42-18t-18-42v-520q0-24 18-42t42-18h140v60H140v520h680v-520H680v-60h140q24 0 42 18t18 42v520q0 24-18 42t-42 18H140Zm119.941-245Q237-325 221-341.059q-16-16.059-16-39T221.059-419q16.059-16 39-16T299-418.941q16 16.059 16 39T298.941-341q-16.059 16-39 16ZM205-205v-20q0-29 20-49.5t49.318-20.5q13.682 0 27.632 5.958Q315.9-283.083 324-273l45 52q4 4 7.5 8t8.5 8H205Zm160-120v-22q0-29.808 32-48.904Q429-415 480-415t83 19.096q32 19.096 32 48.904v22H365Zm390 120H575q5-4 8.5-7.5t7.5-8.5l45-52q8-8 23.065-15 15.065-7 26.935-7 29 0 49 20.533 20 20.534 20 49.467v20ZM479.941-445Q457-445 441-461.059q-16-16.059-16-39T441.059-539q16.059-16 39-16T519-538.941q16 16.059 16 39T518.941-461q-16.059 16-39 16Zm220 120Q677-325 661-341.059q-16-16.059-16-39T661.059-419q16.059-16 39-16T739-418.941q16 16.059 16 39T738.941-341q-16.059 16-39 16ZM338-660q4-14 5-22.5t1-17.5q0-14.674-7.5-29.837T312-765q-21-24-33-52.04-12-28.039-12-56.554 0-11.406 1.5-22.906 1.5-11.5 3.976-23.5H322q-3 17-4 26.5t-1 19.857Q317-855 325-836t25 39q23 28 33.5 51.448 10.5 23.449 10.5 45.518 0 11.034-1.5 20.534-1.5 9.5-3.946 19.5H338Zm117 0q4-14 5.5-22.5T462-700q0-14.674-8-29.837T429-765q-21-24-32.5-52.04-11.5-28.039-11.5-56.554 0-11.406 1-22.906 1-11.5 3.476-23.5H439q-3 17-3.5 26.5t-.5 19.857Q435-855 442.5-836t24.5 39q23 28 33.5 51.448 10.5 23.449 10.5 45.518 0 11.034-1.5 20.534-1.5 9.5-3.946 19.5H455Zm121 0q4-14 5-22.5t1-17.5q0-14.674-7.5-29.837T550-765q-21-24-33-52.04-12-28.039-12-56.554 0-11.406 1.5-22.906 1.5-11.5 3.976-23.5H560q-3 17-3.5 26.5t-.5 19.857Q556-855 563.5-836t24.5 39q23 28 33.5 51.448 10.5 23.449 10.5 45.518 0 11.034-1.5 20.534-1.5 9.5-3.946 19.5H576Z"/></svg>