<svg xmlns="http://www.w3.org/2000/svg" width="48" height="48" viewBox="0 -960 960 960"><path d="M310-80q-12.75 0-21.375-8.625T280-110v-676q0-12.75 8.625-21.375T310-816h90v-64h160v64h90q12.75 0 21.375 8.625T680-786v676q0 12.75-8.625 21.375T650-80H310Zm162.881-173Q487-253 497.5-263.381q10.5-10.382 10.5-24.5Q508-302 497.619-312.5q-10.382-10.5-24.5-10.5Q459-323 448.5-312.619q-10.5 10.382-10.5 24.5Q438-274 448.381-263.5q10.382 10.5 24.5 10.5ZM449-375h49q0-32.083 13.5-51.042Q525-445 541-462q17-17 30-34.5t13-45.018q0-48.394-30-75.438Q524-644 473-644q-38 0-67.5 21T363-566l46 16q8-22 24.5-34.5T473-597q29 0 45.5 14t16.5 40q0 23-13 37t-29.5 30q-16.5 16-30 38T449-375Z"/></svg>