<svg xmlns="http://www.w3.org/2000/svg" width="48" height="48" viewBox="0 -960 960 960"><path d="M0-196v-60h174q8-72 55.5-124.5T347-447l-58-272H132v-60h146q24.375 0 44.688 14Q343-751 348-728l72 336h-21q-67.65 0-115.825 47.5T235-229v33H0Zm399 76q-45.417 0-77.208-31.792Q290-183.583 290-229t31.792-77.208Q353.583-338 399-338t77.208 31.792Q508-274.417 508-229t-31.792 77.208Q444.417-120 399-120Zm0-60q20 0 34.5-14.5T448-229q0-20-14.5-34.5T399-278q-20 0-34.5 14.5T350-229q0 20 14.5 34.5T399-180Zm371-59q-72.398 0-127.199-44.5T577-398H475l-8-60h110.085Q582-488 595-515t35-46H441l-14-60h236l-54-159H507v-60h93q22 0 40.45 12.115Q658.9-815.769 667-795l59 171h44q78.85 0 134.425 55.867Q960-512.265 960-433q0 80-55 137t-135 57Zm-.5-60q54.5 0 92.5-38.5t38-93.5q0-54-38-92t-92-38h-20l41 113-56 20-41-111q-27 17-41.5 46.5T638-431.081q0 55.034 38.5 93.558Q715-299 769.5-299ZM399-229Zm370-201Z"/></svg>