<svg xmlns="http://www.w3.org/2000/svg" width="48" height="48" viewBox="0 -960 960 960"><path d="M150-120q-45.833 0-77.917-32.083Q40-184.167 40-230v-500q0-45.833 32.083-77.917Q104.167-840 150-840h330q45.833 0 77.917 32.083Q590-775.833 590-730v282h60q28.875 0 49.438 20.562Q720-406.875 720-378v128q0 13 8.5 21.5T750-220q13 0 21.5-8.5T780-250v-290q-32 0-56-19.5T700-610v-110h40v-80h40v80h60v-80h40v80h40v110q0 31-24 50.5T840-540v286q0 37.8-26.141 63.9t-64 26.1Q712-164 686-190.1T660-254v-138h-70v182q0-63-43.5-106.5T440-360H250q-37.8 0-63.9 26.141t-26.1 64Q160-232 186.1-206t63.9 26h190q12.75 0 21.375-8.675 8.625-8.676 8.625-21.5 0-12.825-8.625-21.325T440-240H250q-13 0-21.5-8.5T220-270q0-13 8.5-21.5T250-300h190q38 0 64 26t26 64q0 38-26 64t-64 26H150Z"/></svg>