<svg xmlns="http://www.w3.org/2000/svg" width="48" height="48" viewBox="0 -960 960 960"><path d="M480-80q-83 0-156-31.5T197-197q-54-54-85.5-127T80-480q0-83 31.5-156T197-763q54-54 127-85.5T480-880q83 0 156 31.5T763-763q54 54 85.5 127T880-480q0 83-31.5 156T763-197q-54 54-127 85.5T480-80Zm0-60q142.375 0 241.188-98.812Q820-337.625 820-480q0-60.662-21-116.831Q778-653 740-699L261-220q45 39 101.493 59.5Q418.987-140 480-140ZM221-261l478-478q-46-39-102.169-60T480-820q-142.375 0-241.188 98.812Q140-622.375 140-480q0 61.013 22 117.507Q184-306 221-261Z"/></svg>