<svg xmlns="http://www.w3.org/2000/svg" width="48" height="48" viewBox="0 -960 960 960"><path d="M114-120q-12.75 0-21.375-8.625T84-150v-330l82.133-240q5.867-18 21.439-29t34.661-11H604v60H222l-55 166h437v60h200v324q0 12.75-8.625 21.375T774-120h-19q-13.175 0-22.088-8.625Q724-137.25 724-150v-54H164v54q0 12.75-8.625 21.375T134-120h-20Zm134-194q23.333 0 39.667-15.75Q304-345.5 304-368q0-23.333-16.265-39.667Q271.471-424 248.235-424 225-424 209.5-407.735q-15.5 16.264-15.5 39.5Q194-345 209.75-329.5T248-314Zm391 0q23.333 0 39.667-15.75Q695-345.5 695-368q0-23.333-16.265-39.667Q662.471-424 639.235-424 616-424 600.5-407.735q-15.5 16.264-15.5 39.5Q585-345 600.75-329.5T639-314Zm116-206v-164l-97 97-21-21 112-112-112-112 21-21 97 97v-164h8l114 116-86 84 86 86-114 114h-8Zm35-248 38-36-38-38v74Zm0 172 38-38-38-38v76Z"/></svg>