<svg xmlns="http://www.w3.org/2000/svg" width="48" height="48" viewBox="0 -960 960 960"><path d="M824-61 74-811l43-43 750 750-43 43Zm-422-39q-9 0-15-6t-6-15q0-9 6-15t15-6q9 0 15 6t6 15q0 9-6 15t-15 6Zm162 0q-9 0-15-6t-6-15q0-9 6-15t15-6q9 0 15 6t6 15q0 9-6 15t-15 6ZM240.105-202Q224-202 213-212.895q-11-10.894-11-27Q202-256 212.895-267q10.894-11 27-11Q256-278 267-267.105q11 10.894 11 27Q278-224 267.105-213q-10.894 11-27 11Zm162 0Q386-202 375-212.895q-11-10.894-11-27Q364-256 374.895-267q10.894-11 27-11Q418-278 429-267.105q11 10.894 11 27Q440-224 429.105-213q-10.894 11-27 11Zm156 0Q542-202 531-212.895q-11-10.894-11-27Q520-256 530.895-267q10.894-11 27-11Q574-278 585-267.105q11 10.894 11 27Q596-224 585.105-213q-10.894 11-27 11ZM402-348q-23.4 0-38.7-15.3Q348-378.6 348-402q0-23.4 15.3-38.7Q378.6-456 402-456q23.4 0 38.7 15.3Q456-425.4 456-402q0 23.4-15.3 38.7Q425.4-348 402-348Zm-161.895-16Q224-364 213-374.895q-11-10.894-11-27Q202-418 212.895-429q10.894-11 27-11Q256-440 267-429.105q11 10.894 11 27Q278-386 267.105-375q-10.894 11-27 11ZM720-364l-38-38q0-16 11.047-27 11.046-11 26.953-11 16.15 0 27.075 10.925T758-402q0 15.907-11 26.953Q736-364 720-364Zm-599-17q-9 0-15-6t-6-15q0-9 6-15t15-6q9 0 15 6t6 15q0 9-6 15t-15 6Zm718 0q-9 0-15-6t-6-15q0-9 6-15t15-6q9 0 15 6t6 15q0 9-6 15t-15 6ZM577-507l-70-70q6-16 20-25.5t31-9.5q23.4 0 38.7 15.3Q612-581.4 612-558q0 17-9.5 31T577-507Zm-336.895-13Q224-520 213-530.895q-11-10.894-11-27Q202-574 212.895-585q10.894-11 27-11Q256-596 267-585.105q11 10.894 11 27Q278-542 267.105-531q-10.894 11-27 11Zm480 0Q704-520 693-530.895q-11-10.894-11-27Q682-574 692.895-585q10.894-11 27-11Q736-596 747-585.105q11 10.894 11 27Q758-542 747.105-531q-10.894 11-27 11ZM121-537q-9 0-15-6t-6-15q0-9 6-15t15-6q9 0 15 6t6 15q0 9-6 15t-15 6Zm718 0q-9 0-15-6t-6-15q0-9 6-15t15-6q9 0 15 6t6 15q0 9-6 15t-15 6ZM558.105-682Q542-682 531-692.895q-11-10.894-11-27Q520-736 530.895-747q10.894-11 27-11Q574-758 585-747.105q11 10.894 11 27Q596-704 585.105-693q-10.894 11-27 11ZM402-682l-38-38q0-16 10.983-27t27.458-11Q418-758 429-747.075 440-736.15 440-720q0 16.286-11 27.143T402-682Zm318.105 0Q704-682 693-692.895q-11-10.894-11-27Q682-736 692.895-747q10.894-11 27-11Q736-758 747-747.105q11 10.894 11 27Q758-704 747.105-693q-10.894 11-27 11ZM402-818q-9 0-15-6t-6-15q0-9 6-15t15-6q9 0 15 6t6 15q0 9-6 15t-15 6Zm156 0q-9 0-15-6t-6-15q0-9 6-15t15-6q9 0 15 6t6 15q0 9-6 15t-15 6Z"/></svg>