<svg xmlns="http://www.w3.org/2000/svg" width="48" height="48" viewBox="0 -960 960 960"><path d="M481-29 346-160H160v-186L26-480l134-134v-186h186l135-134 133 134h186v186l134 134-134 134v186H614L481-29Zm0-191q107.917 0 183.458-76.125Q740-372.25 740-481q0-107.917-75.542-183.458Q588.917-740 481-740q-108.75 0-184.875 75.542Q220-588.917 220-481q0 108.75 76.125 184.875T481-220Zm-.5-60q-83.5 0-142-58.5t-58.5-142q0-83.5 58.5-141.5t142-58q83.5 0 141.5 58t58 141.5q0 83.5-58 142T480.5-280Zm.5 167 107.917-107H740v-151l109-109-109-109v-151H589L481-849 371-740H220v151L111-480l109 109v151h150l111 107Zm-1-368Z"/></svg>