<svg xmlns="http://www.w3.org/2000/svg" width="48" height="48" viewBox="0 -960 960 960"><path d="M374-820q-20 0-41 2t-32 5q64 72 98 157t34 176q0 91-34 176.5T302-148q11 3 31 5.5t43 2.5q140.066 0 238.533-98Q713-336 713-480t-99.5-242Q514-820 374-820Zm8-60q80.825 0 151.913 30.5Q605-819 658.5-765.5t84 126.5Q773-566 773-481t-30.947 158.287q-30.948 73.288-84 127.5Q605-141 533.594-110.5 462.188-80 381-80q-54.377 0-106.188-13Q223-106 188-126q88-66 136.5-158T373-479.5Q373-583 324-676T187-833q35-20 87.468-33.5Q326.935-880 382-880Zm51 401Z"/></svg>