<svg xmlns="http://www.w3.org/2000/svg" width="48" height="48" viewBox="0 -960 960 960"><path d="M480-80q-84 0-157-31.5T196-197q-54-54-85-127.5T80-482q0-84 31-156.5T196-765q54-54 127-84.5T480-880q23 0 45.5 2.5T570-870v208q-14-45-37-85.5T480-820q-32 27-54 71t-42 119h186v60H373q-4 31-5 49.5t-1 38.5q0 21 1 40.5t5 50.5h215q4-31 5-50.5t1-40.5q0-20-1-38.5t-5-49.5h61q3 35 4 53.5t1 34.5q0 22-1.5 41.5T648-391h160q7-24 9.5-44.5T820-482q0-26-2.5-45t-9.5-43h63q5 21 7 43t2 45q0 84-31 157.5T764-197q-54 54-127 85.5T480-80ZM152-391h159q-3-27-3.5-48.5T307-482q0-25 1-44.5t4-43.5H152q-7 24-9.5 43t-2.5 45q0 26 2.5 46.5T152-391Zm243 241q-25-38-43-82t-30-99H172q38 71 88 111.5T395-150ZM172-630h151q11-54 28-96.5t43-82.5q-75 19-131 64t-91 115Zm308 492q35-36 58.5-82.5T577-331H384q14 60 37.5 108t58.5 85Zm86-13q72-23 129.5-69T788-331H639q-13 54-30.5 98T566-151Zm94-509v-220h220v220H660Zm100-100h100v-100H760v100Z"/></svg>