<svg xmlns="http://www.w3.org/2000/svg" width="48" height="48" viewBox="0 -960 960 960"><path d="M275-237q-65 0-110-45t-45-110q0-65 45-110t110-45q65 0 110 45t45 110q0 65-45 110t-110 45Zm389.936-173Q575-410 512.5-472.564t-62.5-152.5Q450-715 512.564-777.5t152.5-62.5Q755-840 817.5-777.436t62.5 152.5Q880-535 817.436-472.5t-152.5 62.5Zm-80.054 290Q539-120 507-152.118q-32-32.117-32-78Q475-276 507.118-308q32.117-32 78-32Q631-340 663-307.882q32 32.117 32 78Q695-184 662.882-152q-32.117 32-78 32Z"/></svg>