<svg xmlns="http://www.w3.org/2000/svg" width="48" height="48" viewBox="0 -960 960 960"><path d="m401-60-43-43 57-57H200v-60h217l-59-59 43-43 131 131L401-60Zm159-100v-60h200v60H560ZM200-272v-548q0-24 18-42t42-18h440q24 0 42 18t18 42v548H493l-92-93-93 93H200Zm60-150q52-23 107.5-34.5T480-468q57 0 112.245 11.5Q647.49-445 700-422v-398H260v398Zm219.765-104Q433-526 400.5-558.735q-32.5-32.736-32.5-79.5Q368-685 400.735-717.5q32.736-32.5 79.5-32.5Q527-750 559.5-717.265q32.5 32.736 32.5 79.5Q592-591 559.265-558.5q-32.736 32.5-79.5 32.5Z"/></svg>