<svg xmlns="http://www.w3.org/2000/svg" width="48" height="48" viewBox="0 -960 960 960"><path d="M313-294q-24.75 0-42.375-17.625T253-354v-252q0-24.75 17.625-42.375T313-666h45l30-30h187l30 30h45q24.75 0 42.375 17.625T710-606v252q0 24.75-17.625 42.375T650-294H313Zm0-60h337v-252H313v252Zm168.177-65Q506-419 523.5-436.677t17.5-42.5Q541-504 523.323-521.5t-42.5-17.5Q456-539 438.5-521.323t-17.5 42.5Q421-454 438.677-436.5t42.5 17.5ZM370-947q27.348-7.15 55.098-10.075Q452.848-960 481-960q93 0 177 33.5t148.5 92.681Q871-774.638 912-694.57q41 80.069 49 172.57h-60q-6-78-40-145.5t-87.5-118Q720-836 650-866.5T502-901l76 76-43 43-165-165ZM591-13q-27.101 7.15-54.601 10.075Q508.899 0 481 0q-94 0-177.5-33.5t-148.306-92.575q-64.805-59.075-106-139Q8-345-1-438h60.91Q66-360 100-292.5t87.5 118Q241-124 311-93.5T459-59l-76-76 43-43L591-13ZM482-480Z"/></svg>