<svg xmlns="http://www.w3.org/2000/svg" width="48" height="48" viewBox="0 -960 960 960"><path d="M321-678q-51 0-86-35t-35-86q0-51 35-86t86-35q42 0 74 27t44 68h321v60h-40v87h-60v-87H439q-11 39-44.17 63T321-678Zm.053-60Q347-738 364.5-755.553q17.5-17.552 17.5-43.5Q382-825 364.447-842.5q-17.552-17.5-43.5-17.5Q295-860 277.5-842.447q-17.5 17.552-17.5 43.5Q260-773 277.553-755.5q17.552 17.5 43.5 17.5Zm4.122 475q12.825 0 21.325-8.675 8.5-8.676 8.5-21.5 0-12.825-8.675-21.325-8.676-8.5-21.5-8.5-12.825 0-21.325 8.675-8.5 8.676-8.5 21.5 0 12.825 8.675 21.325 8.676 8.5 21.5 8.5Zm310 0q12.825 0 21.325-8.675 8.5-8.676 8.5-21.5 0-12.825-8.675-21.325-8.676-8.5-21.5-8.5-12.825 0-21.325 8.675-8.5 8.676-8.5 21.5 0 12.825 8.675 21.325 8.676 8.5 21.5 8.5ZM200-376l66-192q5-14 16.5-23t25.5-9h344q14 0 25.5 9t16.5 23l66 192v272q0 10.5-6.75 17.25T736-80h-12q-10.5 0-17.25-6.75T700-104v-64H260v64q0 10.5-6.75 17.25T236-80h-12q-10.5 0-17.25-6.75T200-104v-272Zm77-42h407l-41-122H317l-40 122Zm-17 60v130-130Zm0 130h440v-130H260v130Z"/></svg>