<svg xmlns="http://www.w3.org/2000/svg" width="48" height="48" viewBox="0 -960 960 960"><path d="M150-160q-12.75 0-21.375-8.625T120-190v-324l85-256q5-14 16.5-22t26.5-8h213q-4 14.169-6 29.085Q453-756 452-740H258l-55 166h297q26 41 68.5 70.5T658-461q-17 5-27 19.5T621-408q0 22.5 15.75 38.25T675-354q23.333 0 39.667-15.75Q731-385.5 731-408q0-14-5.5-25.5T709-453h8q34 0 62.5-4t60.5-18v285q0 12.75-8.625 21.375T810-160h-21q-13 0-21-8.625T760-190v-54H200v54q0 12.75-8.625 21.375T170-160h-20Zm135.765-194Q309-354 324.5-369.75T340-408q0-23.333-15.75-39.667Q308.5-464 286-464q-23.333 0-39.667 16.265Q230-431.471 230-408.235 230-385 246.265-369.5q16.264 15.5 39.5 15.5Zm443.422-184Q650-538 594-594.011q-56-56.01-56-135.478Q538-808 594-864t135-56q80 0 135.5 55.5T920-729q0 80-55.813 135.5-55.812 55.5-135 55.5Zm2.313-76q9.5 0 16-6t6.5-16q0-10-6.6-16t-15.4-6q-11 1-16.5 7t-5.5 15.5q0 9.5 6 15.5t15.5 6ZM714-699h35v-143h-35v143Z"/></svg>