<svg xmlns="http://www.w3.org/2000/svg" width="48" height="48" viewBox="0 -960 960 960"><path d="m590-488 160-92-160-92-160 92 160 92Zm0 122 110-64v-84l-110 64-110-64v84l110 64ZM481-480Zm340 320H601q0-15-1-30t-3-30h224v-520H141v60q-15-2-30-3t-30-1v-56q0-24.75 17.625-42.375T141-800h680q24.75 0 42.375 17.625T881-740v520q0 24.75-17.625 42.375T821-160Zm-740 0v-104q41.667 0 70.833 30.333Q181-203.333 181-160H81Zm200 0q0-84.66-58-144.33Q165-364 81-364v-60q108.643 0 184.321 77.5Q341-269 341-160h-60Zm160 0q0-75-28-141.5t-77-116q-49-49.5-114.5-78T81-524v-60q87 0 163.5 33.5t133.5 91q57 57.5 90 135T501-160h-60Z"/></svg>