<svg xmlns="http://www.w3.org/2000/svg" width="48" height="48" viewBox="0 -960 960 960"><path d="M586-160q-12.75 0-21.375-8.675-8.625-8.676-8.625-21.5 0-12.825 8.625-21.325T586-220h145l-118-83q-10-7-12.5-19t4.5-22q7-10 18.826-12.5T646-352l119 82-50-136q-5-11 1-22t18-16q12-5 23 .5t16 17.5l48 136 39-139q3-12 13-18t22-3q12 3 18.5 13t3.5 22l-68.147 255H586Zm-466 0v-620q0-24.75 17.625-42.375T180-840h520q24.75 0 42.375 17.625T760-780v223q-10-2-20-2.5t-20-.5q-5 0-10 .167-5 .166-10 .833v-221H180v440h301q-.667 5-.833 10-.167 5-.167 10 0 10 .5 20t2.5 20H240L120-160Zm160-460h320v-60H280v60Zm0 170h200v-60H280v60ZM180-340v-440 440Z"/></svg>