<svg xmlns="http://www.w3.org/2000/svg" width="48" height="48" viewBox="0 -960 960 960"><path d="m566-62-311-89v57H40v-394h309l255 96q27 10 45.5 32.5T668-295h114q42 0 70 30t28 81v26L566-62Zm-466-92h94v-274h-94v274Zm462 30 256-78q-6-19-15-26t-21-7H575q-30 0-55.5-4T471-250l-81-25 22-58 73 24q25 8 47.5 11t71.5 3q0-13-4.5-24T584-335l-245-93h-84v214l307 90ZM194-291Zm410-4Zm-410 4Zm61 0Zm335-170-60-23v-36q0-54-38.008-92-38.009-38-91.992-38-51 0-84 30t-43 72h-62q10-60 53-103t106-57v-102h-60v-60h210q29.298 0 55.149 8.5Q601-853 624-838l-44 44q-14-8-28.5-12t-31.5-4h-90v102q69 13.545 114.5 66.272Q590-589 590-520v59Zm-227-87Zm404.788-36Q738-584 717-605.15 696-626.3 696-656q0-22.747 17-56.374Q730-746 768-800q38 53 55 87t17 57q0 29.7-21.212 50.85-21.213 21.15-51 21.15Z"/></svg>