<svg xmlns="http://www.w3.org/2000/svg" width="48" height="48" viewBox="0 -960 960 960"><path d="m566-62-311-89v-337h94l255 96q30 11 47 38t17 59h-64q-30 0-60-2t-59-12l-73-24-10 28 75 26q26 9 54 11.5t56 2.5h195q38 0 68 22.5t30 58.5v26L566-62ZM40-94v-394h154v394H40Zm323-454H211q10-60 53-103t106-57v-102h-60v-60h210q29 0 55 8.5t49 23.5l-44 44q-14-8-28.5-12t-31.5-4h-90v102q69 14 114.5 66.5T590-520v59l-227-87Zm405-36q-30 0-51-21t-21-51q0-23 17-56.5t55-87.5q38 53 55 87t17 57q0 30-21 51t-51 21Z"/></svg>