<svg xmlns="http://www.w3.org/2000/svg" width="48" height="48" viewBox="0 -960 960 960"><path d="M333-40q-22.785 0-39.873-14.696Q276.038-69.39 273-92l-73-548h560L687-92q-3.038 22.609-20.127 37.304Q649.785-40 627-40H333Zm147.118-290Q526-330 558-362.083q32-32.084 32-77.917v-70h-60v70q0 21.25-14.325 35.625Q501.351-390 480.175-390 459-390 444.5-404.375 430-418.75 430-440v-70h-60v70q0 45.833 32.118 77.917 32.117 32.083 78 32.083ZM600-700q-20 0-35-15t-15-35.5q0-20.5 15-35t35.5-14.5q20.5 0 35 14.583Q650-770.833 650-750q0 20-14.583 35-14.584 15-35.417 15Zm-200-40q-37 0-63.5-26.5t-26.5-64q0-37.5 26.5-63.5t64-26q37.5 0 63.5 26.1t26 63.9q0 37-26.1 63.5T400-740Z"/></svg>