<svg xmlns="http://www.w3.org/2000/svg" width="48" height="48" viewBox="0 -960 960 960"><path d="M820-480H140q-24.75 0-42.375-17.625T80-540v-280q0-24.75 17.625-42.375T140-880h680q24.75 0 42.375 17.625T880-820v280q0 24.75-17.625 42.375T820-480ZM170-201v-60q50 0 85-34.708 35-34.709 35-84.292h60q0 75-52.65 127T170-201Zm620 0q-75 0-127-52t-52-127h60q0 50 34.708 84.5Q740.417-261 790-261v60Zm-340 41v-220h60v220h-60Zm370-380H140h680Zm-570 0v-110q0-24.75 17.625-42.375T310-710h340q24.75 0 42.375 17.625T710-650v110h-60v-110H310v110h-60Zm-110 0h680v-280H140v280Z"/></svg>