<svg xmlns="http://www.w3.org/2000/svg" width="48" height="48" viewBox="0 -960 960 960"><path d="m361-599 50 50H290v138h102v-22h50v42q0 12.75-8.625 21.375T412-361H270q-12.75 0-21.375-8.625T240-391v-178q0-12.75 8.625-21.375T270-599h91ZM246-800h534q23 0 41.5 18.5T840-740v534l-60-60v-474H306l-60-60Zm475 367v39q0 13-8.5 21.5T691-364h-9l-47-47h36v-22h50Zm-50-94v-22H569v72l-50-50v-42q0-12.75 8.625-21.375T549-599h142q12.75 0 21.375 8.625T721-569v42h-50Zm-128 24Zm-126 46ZM163-797l57 57h-40v520h474L26-848l43-43L876-84l-43 43-119-119H180q-24 0-42-18t-18-42v-520q0-19.922 12.5-35.461Q145-791 163-797Z"/></svg>