<svg xmlns="http://www.w3.org/2000/svg" width="48" height="48" viewBox="0 -960 960 960"><path d="M440-366q-14.45 0-24.225-9.775Q406-385.55 406-400v-160q0-14.45 9.775-24.225Q425.55-594 440-594h120q14.45 0 24.225 9.775Q594-574.45 594-560v160q0 14.45-9.775 24.225Q574.45-366 560-366H440Zm14-48h92v-132h-92v132Zm-294 48q-14.45 0-24.225-9.775Q126-385.55 126-400v-160q0-14.45 9.775-24.225Q145.55-594 160-594h120q14.45 0 24.225 9.775Q314-574.45 314-560v34h-48v-20h-92v132h92v-20h48v33.684Q314-386 304.225-376 294.45-366 280-366H160Zm526 120v-94q0-14.45 9.775-24.225Q705.55-374 720-374h86v-52H686v-48h134q14.45 0 24.225 9.775Q854-454.45 854-440v60q0 14.45-9.775 24.225Q834.45-346 820-346h-86v52h120v48H686Z"/></svg>