<svg xmlns="http://www.w3.org/2000/svg" width="48" height="48" viewBox="0 -960 960 960"><path d="M860-131v-649H100v320H40v-320q0-25 17.625-42.5T100-840h760q24.75 0 42.375 17.625T920-780v580q0 26-17 45.5T860-131ZM360-401q-66 0-108-42t-42-108q0-66 42-108t108-42q66 0 108 42t42 108q0 66-42 108t-108 42Zm0-60q39 0 64.5-25.5T450-551q0-39-25.5-64.5T360-641q-39 0-64.5 25.5T270-551q0 39 25.5 64.5T360-461ZM40-80v-94q0-38 19-65t49-41q67-30 128.5-45T360-340q62 0 123 15.5t127.921 44.694q31.301 14.126 50.19 40.966Q680-212 680-174v94H40Zm60-60h520v-34q0-16-9.5-30.5T587-226q-64-31-117-42.5T360-280q-57 0-111 11.5T132-226q-14 7-23 21.5t-9 30.5v34Zm260-411Zm0 411Z"/></svg>