<svg xmlns="http://www.w3.org/2000/svg" width="48" height="48" viewBox="0 -960 960 960"><path d="m417-433-36-36q8-11 12.5-23.234 4.5-12.234 4.5-25t-4.5-25.266Q389-555 381-565l36-36q17 18 25 39.5t8 44.5q0 23-8 44.5T417-433Zm72 72-36-36q24-29 35.5-59.058t11.5-61Q500-548 488.5-578.5T453-637l36-36q32 36 47 75.265 15 39.264 15 80.735 0 41.168-15 80.584Q521-397 489-361ZM189.956-485Q159-485 137-507.044q-22-22.045-22-53Q115-591 137.044-613q22.045-22 53-22Q221-635 243-612.956q22 22.045 22 53Q265-529 242.956-507q-22.045 22-53 22ZM40-330v-13q0-21.081 11.408-38.649Q62.816-399.216 83-408q25.078-10.522 51.603-16.261Q161.128-430 190.064-430t55.417 5.739Q271.963-418.522 297-408q20.184 8.784 31.592 26.351Q340-364.081 340-343v13H40Zm729.956-155Q739-485 717-507.044q-22-22.045-22-53Q695-591 717.044-613q22.045-22 53-22Q801-635 823-612.956q22 22.045 22 53Q845-529 822.956-507q-22.045 22-53 22ZM620-330v-13q0-21.081 11.408-38.649Q642.816-399.216 663-408q25.078-10.522 51.603-16.261Q741.128-430 770.064-430t55.417 5.739Q851.963-418.522 877-408q20.184 8.784 31.592 26.351Q920-364.081 920-343v13H620Z"/></svg>