<svg xmlns="http://www.w3.org/2000/svg" width="48" height="48" viewBox="0 -960 960 960"><path d="M660-80v-86.667Q606-184 568.5-225T523-320h61q10 44 44 72t82 28h120q20.833 0 35.417 14.583Q880-190.833 880-170v90H660Zm109.956-195Q739-275 717-297.044q-22-22.045-22-53Q695-381 717.044-403q22.045-22 53-22Q801-425 823-402.956q22 22.045 22 53Q845-319 822.956-297q-22.045 22-53 22ZM390-420q0-126 87-213t213-87v60q-101 0-170.5 69.5T450-420h-60Zm120 0q0-75 52.65-127.5T690-600v60q-50 0-85 35t-35 85h-60ZM80-535v-90q0-20.833 15-35.417Q110-675 130-675h120q48 0 82-28t44-72h61q-8 54-45.5 95T300-621.667V-535H80Zm109.956-195Q159-730 137-752.044q-22-22.045-22-53Q115-836 137.044-858q22.045-22 53-22Q221-880 243-857.956q22 22.045 22 53Q265-774 242.956-752q-22.045 22-53 22Z"/></svg>