<svg xmlns="http://www.w3.org/2000/svg" width="48" height="48" viewBox="0 -960 960 960"><path d="M420.118-558Q446-558 464-576.118q18-18.117 18-44Q482-646 463.882-664q-18.117-18-44-18Q394-682 376-663.882q-18 18.117-18 44Q358-594 376.118-576q18.117 18 44 18Zm-80 200Q366-358 384-376.118q18-18.117 18-44Q402-446 383.882-464q-18.117-18-44-18Q314-482 296-463.882q-18 18.117-18 44Q278-394 296.118-376q18.117 18 44 18ZM600-320q17 0 28.5-11.5T640-360q0-17-11.5-28.5T600-400q-17 0-28.5 11.5T560-360q0 17 11.5 28.5T600-320ZM480.234-80Q398-80 325-111.5q-73-31.5-127.5-86t-86-127.5Q80-398 80-480q0-92 39-172t104.5-135.5q65.5-55.5 151-80T552-874q-6 45 8 85t42.5 68q28.5 28 68.5 41t84 6q-20 61 22 109.5T879-511q8 87-20.5 165T775-209q-55 59-130.794 94-75.794 35-163.972 35Z"/></svg>