<svg xmlns="http://www.w3.org/2000/svg" width="48" height="48" viewBox="0 -960 960 960"><path d="m803-243-44-44q26-38 42-82.5t20-94.5q-54-20-87.5-59.5T692-614q-81-11-136.5-70T492-821q-59-2-111 14t-95 47l-43-43q64-48 143.5-68t165.5-3q-6 45 8 85t42.5 68q28.5 28 68.5 41t84 6q-20 61 22 109.5T879-511q7 75-13.458 142.755Q845.085-300.489 803-243ZM339.882-358Q314-358 296-376.118q-18-18.117-18-44Q278-446 296.118-464q18.117-18 44-18Q366-482 384-463.882q18 18.117 18 44Q402-394 383.882-376q-18.117 18-44 18ZM833-41 718-156q-50 36-110 56T480-80q-85 0-158-30.5T195-195q-54-54-84.5-127T80-480q0-68 20-128t56-110L26-848l43-43L876-84l-43 43Zm-353-99q54.643 0 103.821-15.5Q633-171 675-199L199-675q-28 42-43.5 91.179Q140-534.643 140-480q0 145 97.5 242.5T480-140Zm-43-297Zm86-86Z"/></svg>