<svg xmlns="http://www.w3.org/2000/svg" width="48" height="48" viewBox="0 -960 960 960"><path d="M480.266-80q-82.734 0-155.5-31.5t-127.266-86q-54.5-54.5-86-127.341Q80-397.681 80-480.5q0-82.819 31.5-155.659Q143-709 197.5-763t127.341-85.5Q397.681-880 480.5-880q82.819 0 155.659 31.5Q709-817 763-763t85.5 127Q880-563 880-480.266q0 82.734-31.5 155.5T763-197.684q-54 54.316-127 86Q563-80 480.266-80ZM425-267h110q24.75 0 42.375-17.625T595-327v-307q0-24.75-17.625-42.375T535-694H425q-24.75 0-42.375 17.625T365-634v307q0 24.75 17.625 42.375T425-267Zm0-367h110v307H425v-307Z"/></svg>