<svg xmlns="http://www.w3.org/2000/svg" width="48" height="48" viewBox="0 -960 960 960"><path d="M220-380h520v-160H420v-200H320q-42 0-71 29t-29 71v260Zm260.25 240q22.75 0 45.25-3t44.5-10v-167H390v167q22 7 44.75 10t45.5 3ZM480-80q-75.398 0-144.199-28Q267-136 211-187l43-43q17.188 15.75 36.094 28.875Q309-188 330-177v-143H220q-24 0-42-18t-18-42v-260q0-66 47-113t113-47h160v200h260q24 0 42 18t18 42v160q0 24-18 42t-42 18H630v143q20.824-11.306 39.912-24.153Q689-214 706-230l43 43q-56 51-124.801 79T480-80Zm0-480Z"/></svg>