<svg xmlns="http://www.w3.org/2000/svg" width="48" height="48" viewBox="0 -960 960 960"><path d="M570-160v-60h120q21 0 35.5-14.375T740-270v-100q0-37 22.5-66t57.5-40v-8q-35-10-57.5-39.5T740-590v-100q0-21.25-14.375-35.625T690-740H570v-60h120q46 0 78 32.083 32 32.084 32 77.917v100q0 21.25 14.375 35.625T850-540h30v120h-30q-21.25 0-35.625 14.375T800-370v100q0 45.833-32.083 77.917Q735.833-160 690-160H570Zm-300 0q-46 0-78-32.083-32-32.084-32-77.917v-100q0-21.25-14.375-35.625T110-420H80v-120h30q21.25 0 35.625-14.375T160-590v-100q0-45.833 32.083-77.917Q224.167-800 270-800h120v60H270q-21 0-35.5 14.375T220-690v100q0 37-22.5 66.5T140-484v8q35 11 57.5 40t22.5 66v100q0 21.25 14.375 35.625T270-220h120v60H270Z"/></svg>