<svg xmlns="http://www.w3.org/2000/svg" width="48" height="48" viewBox="0 -960 960 960"><path d="M476-80q-81.913 0-153.956-31Q250-142 196-196t-85-126.044Q80-394.087 80-476q0-83.362 31.5-156.681Q143-706 197-760.947q54-54.948 127-87Q397-880 480-880t156 32.053q73 32.052 127 87Q817-706 848.5-632.681 880-559.362 880-476v314q0 33.825-24.088 57.912Q831.825-80 798-80H476Zm0-65q140 0 240-96.197T816-476q0-143-97.65-243.5T480-820q-143 0-241.5 100.5T140-476q0 29.179 5 57.09Q150-391 159-365l162-162 132 112 154-155h-77v-60h180v180h-60v-77L456-334 324-446 186-308q44 74 120.5 118.5T476-145Zm322.5 12q12.5 0 21-9t8.5-21.5q0-12.5-9-21t-21-8.5q-12 0-21 8.625T768-163q0 12 9 21t21.5 9ZM465-483Z"/></svg>