<svg xmlns="http://www.w3.org/2000/svg" width="48" height="48" viewBox="0 -960 960 960"><path d="M240.105-364Q224-364 213-374.895q-11-10.894-11-27Q202-418 212.895-429q10.894-11 27-11Q256-440 267-429.105q11 10.894 11 27Q278-386 267.105-375q-10.894 11-27 11Zm0 162Q224-202 213-212.895q-11-10.894-11-27Q202-256 212.895-267q10.894-11 27-11Q256-278 267-267.105q11 10.894 11 27Q278-224 267.105-213q-10.894 11-27 11Zm0-318Q224-520 213-530.895q-11-10.894-11-27Q202-574 212.895-585q10.894-11 27-11Q256-596 267-585.105q11 10.894 11 27Q278-542 267.105-531q-10.894 11-27 11ZM121-537q-9 0-15-6t-6-15q0-9 6-15t15-6q9 0 15 6t6 15q0 9-6 15t-15 6Zm119.105-145Q224-682 213-692.895q-11-10.894-11-27Q202-736 212.895-747q10.894-11 27-11Q256-758 267-747.105q11 10.894 11 27Q278-704 267.105-693q-10.894 11-27 11ZM121-381q-9 0-15-6t-6-15q0-9 6-15t15-6q9 0 15 6t6 15q0 9-6 15t-15 6Zm281 281q-9 0-15-6t-6-15q0-9 6-15t15-6q9 0 15 6t6 15q0 9-6 15t-15 6Zm0-718q-9 0-15-6t-6-15q0-9 6-15t15-6q9 0 15 6t6 15q0 9-6 15t-15 6Zm.105 136Q386-682 375-692.895q-11-10.894-11-27Q364-736 374.895-747q10.894-11 27-11Q418-758 429-747.105q11 10.894 11 27Q440-704 429.105-693q-10.894 11-27 11ZM402-348q-22.5 0-38.25-15.75T348-402q0-22.5 15.75-38.25T402-456q22.5 0 38.25 15.75T456-402q0 22.5-15.75 38.25T402-348Zm0-156q-22.5 0-38.25-15.75T348-558q0-22.5 15.75-38.25T402-612q22.5 0 38.25 15.75T456-558q0 22.5-15.75 38.25T402-504Zm.105 302Q386-202 375-212.895q-11-10.894-11-27Q364-256 374.895-267q10.894-11 27-11Q418-278 429-267.105q11 10.894 11 27Q440-224 429.105-213q-10.894 11-27 11ZM490-130v-60q117-5 198.5-88.449 81.5-83.45 81.5-201.5Q770-598 688.5-681.5 607-765 490-770v-60q71 2 132.5 30.5t108 75.5q46.5 47 73 109.918 26.5 62.917 26.5 134Q830-409 803.5-346t-73 110q-46.5 47-108 75.5T490-130Zm0-350Z"/></svg>