<svg xmlns="http://www.w3.org/2000/svg" width="48" height="48" viewBox="0 -960 960 960"><path d="m734-94-42-42 73-74H480v-60h285l-73-74 42-42 146 146L734-94ZM80-440v-100h100v100H80Zm300 0q-58 0-99-41t-41-99v-160q0-58 41-99t99-41q58 0 99 41t41 99v160q0 58-41 99t-99 41Zm360 0q-58 0-99-41t-41-99v-160q0-58 41-99t99-41q58 0 99 41t41 99v160q0 58-41 99t-99 41Zm-360.235-60Q413-500 436.5-523.333 460-546.667 460-580v-160q0-33.333-23.265-56.667Q413.471-820 380.235-820 347-820 323.5-796.667 300-773.333 300-740v160q0 33.333 23.265 56.667Q346.529-500 379.765-500Zm360 0Q773-500 796.5-523.333 820-546.667 820-580v-160q0-33.333-23.265-56.667Q773.471-820 740.235-820 707-820 683.5-796.667 660-773.333 660-740v160q0 33.333 23.265 56.667Q706.529-500 739.765-500Z"/></svg>