<svg xmlns="http://www.w3.org/2000/svg" width="48" height="48" viewBox="0 -960 960 960"><path d="M733-229q27.917 0 47.458-19.559Q800-268.118 800-296.059T780.458-343Q760.917-362 733-362q-27.5 0-46.75 19.353t-19.25 47Q667-268 686.25-248.5T733-229Zm-.214 133Q766-96 795-111.5t47-42.5q-26-14-53-22.5t-56-8.5q-29 0-56 8.5T624-154q18 27 46.786 42.5 28.785 15.5 62 15.5ZM180-120q-24.75 0-42.375-17.625T120-180v-600q0-24.75 17.625-42.375T180-840h600q24.75 0 42.375 17.625T840-780v329q-14-8-29.5-13t-30.5-8v-308H180v600h309q4 16 9.023 31.172Q503.045-133.655 510-120H180Zm0-107v47-600 308-4 249Zm100-53h211q4-16 9-31t13-29H280v60Zm0-170h344q14-7 27-11.5t29-8.5v-40H280v60Zm0-170h400v-60H280v60ZM732.5-41Q655-41 600-96.5T545-228q0-78.435 54.99-133.717Q654.98-417 733-417q77 0 132.5 55.283Q921-306.435 921-228q0 76-55.5 131.5T732.5-41Z"/></svg>