<svg xmlns="http://www.w3.org/2000/svg" width="48" height="48" viewBox="0 -960 960 960"><path d="m800-633 25-25-76-76v-122h-35v131l86 92Zm-70.106 93Q651-540 595.5-595.606t-55.5-134.5Q540-809 595.606-864.5t134.5-55.5Q809-920 864.5-864.394t55.5 134.5Q920-651 864.394-595.5t-134.5 55.5ZM246.059-272Q269-272 285-288.059q16-16.059 16-39T284.941-366q-16.059-16-39-16T207-365.941q-16 16.059-16 39T207.059-288q16.059 16 39 16Zm308 0Q577-272 593-288.059q16-16.059 16-39T592.941-366q-16.059-16-39-16T515-365.941q-16 16.059-16 39T515.059-288q16.059 16 39 16ZM169-80q-13 0-23-7.5T136-107v-84q-29-17-42.5-47T80-301v-397q0-42 24.5-71.5t76-46.5q51.5-17 132-21.5T504-836q-17 41.697-21 85.131-4 43.435 7 86.869H140v173h521q10 4 27.5 7t31.5 3v180q0 33-13.5 63T664-191v84q0 12-10 19.5T631-80h-19q-14.45 0-24.225-7.5Q578-95 578-107v-55H222v55q0 12-9.775 19.5T188-80h-19Z"/></svg>