<svg xmlns="http://www.w3.org/2000/svg" width="48" height="48" viewBox="0 -960 960 960"><path d="M699.798-220Q766-220 813-266.798t47-113Q860-446 813.202-493t-113-47Q634-540 587-493.202t-47 113Q540-314 586.798-267t113 47ZM140-80q-24.75 0-42.375-17.625T80-140v-680q0-24.75 17.625-42.375T140-880h360q24.75 0 42.375 17.625T560-820v174q-16.794 8.372-31.397 19.186Q514-616 500-604v-126H140v500h300q21 35 50 64t65 49q-7 17-22 27t-33 10H140Zm480 0v-95q-64-25-102-80.5T480-380q0-69 38-124.5t102-80.955V-680h160v95q64 25 102 80.5T920-380q0 69-38 124.5t-102 80.955V-80H620Z"/></svg>