<svg xmlns="http://www.w3.org/2000/svg" width="48" height="48" viewBox="0 -960 960 960"><path d="M0-40v-820q0-24.75 17.625-42.375T60-920h300q24.75 0 42.375 17.625T420-860v820h-60v-90H60v90H0Zm605 0v-253l92-83-20-137q-45 61-93 80t-104 22v-60q56 0 93-23.5t63-65.5l39-62q15-23 41.5-31.5T768-651l192 81v173h-61v-133l-102-46L914-40h-62l-79-298-108 98v200h-60ZM60-190h300v-670H60v670Zm95-259 125-71-125-71v142Zm527.08-235q-30.08 0-51.58-21.42-21.5-21.421-21.5-51.5 0-30.08 21.42-51.58 21.421-21.5 51.5-21.5 30.08 0 51.58 21.42 21.5 21.421 21.5 51.5 0 30.08-21.42 51.58-21.421 21.5-51.5 21.5ZM60-190h300H60Z"/></svg>