<svg xmlns="http://www.w3.org/2000/svg" width="48" height="48" viewBox="0 -960 960 960"><path d="m140-120-60-60h800l-60 60H140Zm-13-121q7-16 13.5-29t20.5-27v-325h-41v-50h41v-34h-41v-50h41v-34h-41v-50h300q24 0 37 13t13 37v34h370v50H470v34q0 24-13 37t-37 13H315v271q20 2 39 10t36 22q16-63 71.5-106.5T593-469q93 0 151.5 61T803-254v13H127Zm323-60h286q-9-45-49-76.5T593-409q-54 0-94 31.5T450-301ZM315-756h105v-34H315v34Zm0 84h105v-34H315v34Zm-105-84h55v-34h-55v34Zm0 84h55v-34h-55v34Zm0 340q8-6 24-12.5t31-7.5v-270h-55v290Zm240 31h286-286Z"/></svg>