<svg xmlns="http://www.w3.org/2000/svg" width="48" height="48" viewBox="0 -960 960 960"><path d="M833-41 652-222 523-93q-8 8-19.551 12-11.551 4-23.5 4T456.5-81Q445-85 437-93L93-437q-8-8-12-19.551-4-11.551-4-23.5t4-23.449Q85-515 93-523l129-129L26-848l43-43L876-84l-43 43ZM609-265l-73-74-56 56-43-43 56-56-69-68H283v-60h81l-99-99-129 129 344 344 129-129Zm129-43-43-43 129-129-344-344-129 129-43-43 129-129q8-8 19.551-12 11.551-4 23.5-4t23.449 4q11.5 4 19.5 12l344 344q8 8 12 19.551 4 11.551 4 23.5t-4 23.449q-4 11.5-12 19.5L738-308ZM609-437l43-43-197-197-43 43 197 197Zm-86-86Zm-86 86Z"/></svg>