<svg xmlns="http://www.w3.org/2000/svg" width="48" height="48" viewBox="0 -960 960 960"><path d="M833-41 652-222 523-93q-8 8-19.551 12-11.551 4-23.5 4T456.5-81Q445-85 437-93L93-437q-8-8-12-19.551-4-11.551-4-23.5t4-23.449Q85-515 93-523l129-129L26-848l43-43L876-84l-43 43ZM609-265 265-609 136-480l344 344 129-129Zm129-43-43-43 129-129-344-344-129 129-43-43 129-129q8-8 19.551-12 11.551-4 23.5-4t23.449 4q11.5 4 19.5 12l344 344q8 8 12 19.551 4 11.551 4 23.5t-4 23.449q-4 11.5-12 19.5L738-308ZM523-523Zm-86 86Zm-117 77v-160q0-12.75 8.625-21.375T350-550h60l60 60h-90v130h-60Zm283-83 77-77-116-116v86h-68l107 107Z"/></svg>