<svg xmlns="http://www.w3.org/2000/svg" width="48" height="48" viewBox="0 -960 960 960"><path d="M740-226q-13.588 0-23.294-9.706Q707-245.412 707-259q0-13.588 9.706-23.294Q726.412-292 740-292q13.588 0 23.294 9.706Q773-272.588 773-259q0 13.588-9.706 23.294Q753.588-226 740-226Zm-304-74q-8 0-14.5 5T400-272q-17 21-27.5 27.5T350-238q-11 0-23.5-9T314-270q0-2 20-32 12-14 17-26t5-24q0-17-6.5-25.5T320-386q-12 0-27-1t-25-9q-7-5-9.5-14.5T256-428q0-12 6.5-19t23.5-13q14-5 22-10t8-14q0-6-12-28-6-9-8-14.5t-2-11.5q0-11 10.5-21.5T330-570q12 0 20 5.5t26 22.5q17 17 27 22.5t21 5.5q9 0 18.5-6t9.5-14q0-8-3.5-15T436-570q-9-12-14.5-22.5T416-612q0-9 12-16.5t30-7.5q15 0 24.5 11.5T504-586q14 30 27 41t27 11q15 0 29.5-10.5T622-584q29-42 41.5-55t26.5-13q15 0 32.5 20t17.5 40q0 14-13.5 28T672-532q-38 17-51 28.5T608-478q0 9 5 14.5t13 5.5q5 0 11-1.5t17-6.5q11-5 19.5-7.5T690-476q15 0 24.5 13.5T724-432q0 18-17 24t-47 8q-35 2-47.5 5.5T600-382q0 8 7.5 14t24.5 12q20 8 30 16t10 22q0 17-12.5 32.5T626-270q-9 0-22.5-4.5T570-290q-15-8-23-11t-17-3q-9 0-16.5 8.5T506-270q0 19 6 35t6 35q0 15-9 25t-25 10q-16 0-25-10t-9-25q0-17 4-32t4-32q0-17-6.5-26.5T436-300ZM140-120q-24 0-42-18t-18-42v-513q0-23 18-41.5t42-18.5h147l73-87h240l73 87h147q23 0 41.5 18.5T880-693v513q0 24-18.5 42T820-120H140Zm0-60h680v-513H645l-73-87H388l-73 87H140v513Zm340-257Z"/></svg>