<svg xmlns="http://www.w3.org/2000/svg" width="48" height="48" viewBox="0 -960 960 960"><path d="M477-80q-83 0-156-31.5T194-197q-54-54-85.5-127T77-480q0-83 31.5-156T194-763q54-54 127-85.5T477-880q128 0 231.5 73T857-614H756v421q-57 54-129 83.5T477-80Zm.118-230Q548-310 597.5-359.618q49.5-49.617 49.5-120.5Q647-551 597.382-600.5q-49.617-49.5-120.5-49.5Q406-650 356.5-600.382q-49.5 49.617-49.5 120.5Q307-409 356.618-359.5q49.617 49.5 120.5 49.5ZM477-440q-17 0-28.5-11.5T437-480q0-17 11.5-28.5T477-520q17 0 28.5 11.5T517-480q0 17-11.5 28.5T477-440ZM850.018-87Q836-87 826.5-96.483q-9.5-9.482-9.5-23.499 0-14.018 9.482-23.518 9.483-9.5 23.5-9.5 14.018 0 23.518 9.482 9.5 9.483 9.5 23.5Q883-106 873.518-96.5q-9.483 9.5-23.5 9.5ZM817-227v-327h60v327h-60Z"/></svg>