<svg xmlns="http://www.w3.org/2000/svg" width="48" height="48" viewBox="0 -960 960 960"><path d="M220-80q-24 0-42-18t-18-42v-680q0-24 18-42t42-18h520q24 0 42 18t18 42v680q0 24-18 42t-42 18H220Zm100.175-610q12.825 0 21.325-8.675 8.5-8.676 8.5-21.5 0-12.825-8.675-21.325-8.676-8.5-21.5-8.5-12.825 0-21.325 8.675-8.5 8.676-8.5 21.5 0 12.825 8.675 21.325 8.676 8.5 21.5 8.5Zm120 0q12.825 0 21.325-8.675 8.5-8.676 8.5-21.5 0-12.825-8.675-21.325-8.676-8.5-21.5-8.5-12.825 0-21.325 8.675-8.5 8.676-8.5 21.5 0 12.825 8.675 21.325 8.676 8.5 21.5 8.5Zm39.927 440Q539-250 580.5-290.085q41.5-40.084 41.5-97.881Q622-415 611.5-440T581-485L480-586l-97.2 97.2Q363-469 350-443q-13 26-12 55 1.87 57.811 43.005 97.905Q422.14-250 480.102-250Zm.016-57Q446-307 422-330.655t-24-57.448Q398-405 406-421t21-28l53-52 57 56q11 11 18 25.5t7 31.397q0 33.793-23.882 57.448-23.883 23.655-58 23.655Z"/></svg>