<svg xmlns="http://www.w3.org/2000/svg" width="48" height="48" viewBox="0 -960 960 960"><path d="M286.882-717Q266-717 251.5-702.382q-14.5 14.617-14.5 35.5Q237-646 251.618-631.5q14.617 14.5 35.5 14.5Q308-617 322.5-631.618q14.5-14.617 14.5-35.5Q337-688 322.382-702.5q-14.617-14.5-35.5-14.5Zm0 414Q266-303 251.5-288.382q-14.5 14.617-14.5 35.5Q237-232 251.618-217.5q14.617 14.5 35.5 14.5Q308-203 322.5-217.618q14.5-14.617 14.5-35.5Q337-274 322.382-288.5q-14.617-14.5-35.5-14.5ZM154-839h651q16 0 25.5 9.5t9.5 25.813V-535q0 17.425-9.5 29.212Q821-494 805-494H154q-15 0-24.5-11.788Q120-517.575 120-535v-268.687q0-16.313 9.5-25.813T154-839Zm0 413h647q15 0 27 12.5t12 28.527V-121q0 20-12 30.5T801-80H159q-16 0-27.5-10.5T120-121v-263.973q0-16.027 9.5-28.527T154-426Z"/></svg>