<svg xmlns="http://www.w3.org/2000/svg" width="48" height="48" viewBox="0 -960 960 960"><path d="m713-319-42-42 207-207 42 42-207 207Zm-70-70-42-42 165-165-200-200-165 165-42-42 207-207 284 284-207 207ZM806-56 558-304 424-170H30v-115q0-22.88 12.827-40.48Q55.654-343.08 76-351q17-6 42.5-19t53.5-36l46.885 46.885Q224-354 230.182-354T241-359q5-4.636 5-10.818 0-6.182-4.898-11.273L198-425.212Q206-432 216-442t19-21l42.947 42.947Q283-415 289.182-415q6.182 0 10.818-5 4-4 4.5-10.5t-4.339-11.339L255-487q9-11 17.5-24t11.5-23l52.133 54.28q4.6 4.72 10.734 4.72Q353-475 358-480q5-5 5-11.5t-4-10.5L56-805l42-43L848-98l-42 42ZM92-230h307l117-117-104-104-133 133q-19 19-52.5 19T175-318l-10-10q-21 12-38.5 20T92-293v63Zm320-221Zm116-53Z"/></svg>