<svg xmlns="http://www.w3.org/2000/svg" width="48" height="48" viewBox="0 -960 960 960"><path d="m840-206-60-60v-504q0-12.75 8.675-21.375 8.676-8.625 21.5-8.625 12.825 0 21.325 8.625T840-770v564ZM340-705l-60-60v-45q0-12.75 8.675-21.375 8.676-8.625 21.5-8.625 12.825 0 21.325 8.625T340-810v105Zm167 166-60-59v-292q0-12.75 8.675-21.375 8.676-8.625 21.5-8.625 12.825 0 21.325 8.625T507-890v351Zm167 59h-60v-370q0-12.75 8.675-21.375 8.676-8.625 21.5-8.625 12.825 0 21.325 8.625T674-850v370Zm77 357L340-534v252L166-410l195 288q7 11 17.5 16.5T402-100h288q16.897 0 32.948-6Q739-112 751-123ZM402-40q-27 0-51.5-12.5T311-88L54-468l20-16q17-15 39.5-19t44.573 13.188L280-397v-197L26-848l43-43L876-84l-43 43-40-40q-20 19-46.56 30Q719.88-40 690-40H402Zm143-289Zm21-151Z"/></svg>