<svg xmlns="http://www.w3.org/2000/svg" width="48" height="48" viewBox="0 -960 960 960"><path d="M340-120q-24.75 0-42.375-17.625T280-180v-120h200q24.75 0 42.375-17.677t17.625-42.5Q540-385 522.375-402.5T480-420H280v-360q0-24.75 17.625-42.375T340-840h280q24.75 0 42.375 17.625T680-780v600q0 24.75-17.625 42.375T620-120H340ZM190-330q-12.75 0-21.375-8.675-8.625-8.676-8.625-21.5 0-12.825 8.625-21.325T190-390h290q12.75 0 21.375 8.675 8.625 8.676 8.625 21.5 0 12.825-8.625 21.325T480-330H190Zm290.175-240q12.825 0 21.325-8.675 8.5-8.676 8.5-21.5 0-12.825-8.675-21.325-8.676-8.5-21.5-8.5-12.825 0-21.325 8.675-8.5 8.676-8.5 21.5 0 12.825 8.675 21.325 8.676 8.5 21.5 8.5Zm329.65-40Q797-610 788.5-618.625T780-640v-160q0-12.75 8.675-21.375 8.676-8.625 21.5-8.625 12.825 0 21.325 8.625T840-800v160q0 12.75-8.675 21.375-8.676 8.625-21.5 8.625Z"/></svg>