<svg xmlns="http://www.w3.org/2000/svg" width="48" height="48" viewBox="0 -960 960 960"><path d="m885-299-42-42q28-28 42.5-64.189 14.5-36.189 14.5-75T885-555q-15-36-42-64l42-42q36 36 55.5 83t19.5 98q0 51-19.5 98T885-299Zm-107-80-43-42q12-12 18.5-26.857t6.5-32Q760-497 753.5-512T735-539l43-42q20 20 31 45.855 11 25.854 11 55Q820-451 809-425q-11 26-31 46ZM480-80q-83 0-141.5-58.5T280-280v-400q0-83 58.5-141.5T480-880q83 0 141.5 58.5T680-680v400q0 83-58.5 141.5T480-80Zm0-160q33 0 56.5-23.5T560-320q0-33-23.5-56.5T480-400q-33 0-56.5 23.5T400-320q0 33 23.5 56.5T480-240Zm.088-35Q461-275 448-287.912q-13-12.913-13-32Q435-339 447.912-352q12.913-13 32-13Q499-365 512-352.088q13 12.913 13 32Q525-301 512.088-288q-12.913 13-32 13ZM480-560q33 0 56.5-23.5T560-640q0-33-23.5-56.5T480-720q-33 0-56.5 23.5T400-640q0 33 23.5 56.5T480-560Z"/></svg>