<svg xmlns="http://www.w3.org/2000/svg" width="48" height="48" viewBox="0 -960 960 960"><path d="M358.411-160Q326-160 303-183.292t-23-56Q280-272 303.232-295q23.233-23 55.857-23Q391-318 414.5-294.708t23.5 56Q438-206 414.411-183q-23.588 23-56 23Zm241 0Q567-160 544-183.292t-23-56Q521-272 544.232-295t55.857-23Q632-318 655.5-294.708t23.5 56Q679-206 655.411-183q-23.588 23-56 23Zm-241-241Q326-401 303-423.089q-23-22.088-23-57 0-32.624 23.232-55.767Q326.465-559 359.089-559 391-559 414.5-535.768t23.5 55.857Q438-445 414.411-423q-23.588 22-56 22Zm241 0Q567-401 544-423.089q-23-22.088-23-57 0-32.624 23.232-55.767Q567.464-559 600.089-559 632-559 655.5-535.768t23.5 55.857Q679-445 655.411-423q-23.588 22-56 22Zm-241-241Q326-642 303-665.292t-23-56Q280-754 303.232-777q23.233-23 55.857-23Q391-800 414.5-776.708t23.5 56Q438-688 414.411-665q-23.588 23-56 23Zm241 0Q567-642 544-665.292t-23-56Q521-754 544.232-777t55.857-23Q632-800 655.5-776.708t23.5 56Q679-688 655.411-665q-23.588 23-56 23Z"/></svg>