<svg xmlns="http://www.w3.org/2000/svg" width="48" height="48" viewBox="0 -960 960 960"><path d="M279.982-407q14.018 0 23.518-9.482 9.5-9.483 9.5-23.5 0-14.018-9.482-23.518-9.483-9.5-23.5-9.5-14.018 0-23.518 9.482-9.5 9.483-9.5 23.5 0 14.018 9.482 23.518 9.483 9.5 23.5 9.5Zm0-160q14.018 0 23.518-9.482 9.5-9.483 9.5-23.5 0-14.018-9.482-23.518-9.483-9.5-23.5-9.5-14.018 0-23.518 9.482-9.5 9.483-9.5 23.5 0 14.018 9.482 23.518 9.483 9.5 23.5 9.5ZM360-410h360v-60H360v60Zm0-160h360v-60H360v60Zm-30 450v-80H140q-24 0-42-18t-18-42v-520q0-24 18-42t42-18h680q24 0 42 18t18 42v520q0 24-18 42t-42 18H630v80H330Z"/></svg>