<svg xmlns="http://www.w3.org/2000/svg" width="48" height="48" viewBox="0 -960 960 960"><path d="M689.882-120Q644-120 612-152.083 580-184.167 580-230q0-45 32.118-77.5 32.117-32.5 78-32.5Q736-340 768-307.5q32 32.5 32 78T767.882-152q-32.117 32-78 32ZM670-390v-70h40v70h-40Zm0 390v-70h40V0h-40Zm146-328-28-29 50-50 29 28-51 51ZM541-53l-28-28 50-49 28 27-50 50Zm309-157v-40h70v40h-70Zm-390 0v-40h70v40h-70ZM839-53l-50-51 28-28 50 50-28 29ZM562-329l-49-49 28-29 49 50-28 28ZM180-80q-24 0-42-18t-18-42v-620q0-24 18-42t42-18h65v-60h65v60h340v-60h65v60h65q24 0 42 18t18 42v190H180v430h170v60H180Zm0-550h600v-130H180v130Zm0 0v-130 130Z"/></svg>