<svg xmlns="http://www.w3.org/2000/svg" width="48" height="48" viewBox="0 -960 960 960"><path d="M270-40q-63 0-106.5-43.5T120-190v-130h235l128 170 166-167 141-84q16-9 34.5-8t32.5 12l59 44L635-72q-16 16-36.059 24-20.059 8-41.941 8H270ZM120-380v-390q0-12.75 8.675-21.375 8.676-8.625 21.5-8.625 12.825 0 21.325 8.625T180-770v280h107v-360q0-12.75 8.675-21.375 8.676-8.625 21.5-8.625 12.825 0 21.325 8.625T347-850v360h106v-400q0-12.75 8.675-21.375 8.676-8.625 21.5-8.625 12.825 0 21.325 8.625T513-890v400h107v-320q0-12.75 8.675-21.375 8.676-8.625 21.5-8.625 12.825 0 21.325 8.625T680-810v378L488-241 385-380H120Z"/></svg>