<svg xmlns="http://www.w3.org/2000/svg" width="48" height="48" viewBox="0 -960 960 960"><path d="M287-490v-360q0-13 8.675-21.5 8.676-8.5 21.5-8.5 12.825 0 21.325 8.625T347-850v360h-60Zm166 0v-400q0-13 8.675-21.5 8.676-8.5 21.5-8.5 12.825 0 21.325 8.625T513-890v400h-60Zm167 188v-508q0-12.75 8.675-21.375 8.676-8.625 21.5-8.625 12.825 0 21.325 8.625T680-810v473l-60 35ZM270-100h287q9.818 0 18.409-4T592-115l235-236-344 201-128-170H180v130q0 38 26 64t64 26Zm0 60q-63 0-106.5-43.5T120-189.774V-380h265l112 150 183-107 110-64q16-9 34.5-8t32.5 12l59 44L635-72q-16 16-36.059 24-20.059 8-41.941 8H270Zm-90-340h-60v-390q0-12.75 8.675-21.375 8.676-8.625 21.5-8.625 12.825 0 21.325 8.625T180-770v390Zm0-110h440-440Zm90 390h-90 412-322Z"/></svg>