<svg xmlns="http://www.w3.org/2000/svg" width="48" height="48" viewBox="0 -960 960 960"><path d="M193-280q-81 0-137.5-57T-1-475q0-81 57.038-137.5Q113.075-669 194-669q71 0 124.5 45.5T383-508h51l-82-232h-73v-60h188v60h-52l26 71h222l-71-191H487v-60h99q24 0 40.5 11t24.5 33l76 207h38q80.51 0 137.255 56.234Q959-556.532 959-476.746 959-396 902.74-338 846.48-280 765-280q-71.602 0-125.801-48T573-448H383q-11 72-64.5 120T193-280Zm0-60q48 0 83.5-31t47.5-77H205v-60h119q-12-45-48-73t-82-28q-56 0-95.5 39T59-475q0 56.25 39 95.625T193-340Zm305-168h76q4-23 15.5-51t31.5-50H462l36 101Zm267 168q56 0 95-39.375T899-475q0-56-39-95t-95-39h-16l39 113-56 19-43-112q-29 17-43.5 48T631-475q0 56.25 39 95.625T765-340ZM516-40 293-153h147v-76l227 114H516v75ZM192-475Zm573 0Z"/></svg>