<svg xmlns="http://www.w3.org/2000/svg" width="48" height="48" viewBox="0 -960 960 960"><path d="M200-364v54q0 12.75-8.625 21.375T170-280h-20q-12.75 0-21.375-8.625T120-310v-324l85-256q3-14 15.4-22t27.6-8h464q15.2 0 27.6 8 12.4 8 15.4 22l85 256v324q0 12.75-8.625 21.375T810-280h-21q-12.75 0-21.375-8.625T759-310v-54H200Zm3-330h554l-55-166H258l-55 166Zm82.765 220Q309-474 324.5-489.75T340-528q0-23.333-15.75-39.667Q308.5-584 286-584q-23.333 0-39.667 16.265Q230-551.471 230-528.235 230-505 246.265-489.5q16.264 15.5 39.5 15.5ZM675-474q23.333 0 39.667-15.75Q731-505.5 731-528q0-23.333-16.265-39.667Q698.471-584 675.235-584 652-584 636.5-567.735q-15.5 16.264-15.5 39.5Q621-505 636.75-489.5T675-474ZM516-40 292-158h148v-76l228 114H516v80Z"/></svg>