<svg xmlns="http://www.w3.org/2000/svg" width="48" height="48" viewBox="0 -960 960 960"><path d="M191-240q-46.25 0-78.625-32.324Q80-304.647 80-350.824 80-397 112.375-429.5T191-462q38 0 69 21t39 57h240q8-72 57-124.5T717-574l-63-286H496v-60h145q27 0 48.5 16t27.5 42l74 336h-22q-71.775 0-122.888 51.406Q595-423.188 595-351v27H299q-8 38-39 61t-69 23Zm0-60q21 0 36-15t15-36q0-21-15-36t-36-15q-21 0-36 15t-15 36q0 21 15 36t36 15Zm578.176 60Q723-240 690.5-272.324q-32.5-32.323-32.5-78.5Q658-397 690.323-429.5q32.324-32.5 78.501-32.5Q815-462 847.5-429.676q32.5 32.323 32.5 78.5Q880-305 847.677-272.5 815.353-240 769.176-240ZM769-300q21 0 36-15t15-36q0-21-15-36t-36-15q-21 0-36 15t-15 36q0 21 15 36t36 15ZM523-40 294-157h150v-79l229 118H523v78ZM191-351Zm578 0Z"/></svg>