<svg xmlns="http://www.w3.org/2000/svg" width="48" height="48" viewBox="0 -960 960 960"><path d="M480 0Q359-103 299.5-191T240-354q0-102 69.5-174T480-600q101 0 170.5 72T720-354q0 75-59.5 163T480 0Zm.118-310Q501-310 515.5-324.618q14.5-14.617 14.5-35.5Q530-381 515.382-395.5q-14.617-14.5-35.5-14.5Q459-410 444.5-395.382q-14.5 14.617-14.5 35.5Q430-339 444.618-324.5q14.617 14.5 35.5 14.5ZM332-669l-42-42q38-38 87.332-58.5 49.332-20.5 103.5-20.5T584.5-769.5Q634-749 672-711l-42 42q-29-29-67.761-45-38.761-16-81.239-16t-81.239 16Q361-698 332-669ZM220-782l-43-41q61-60 139.333-93.5 78.334-33.5 164.5-33.5Q567-950 646-916.5T786-823l-43 42q-53-53-120.674-81t-141.5-28Q407-890 339.5-862.5T220-782Z"/></svg>