<svg xmlns="http://www.w3.org/2000/svg" width="48" height="48" viewBox="0 -960 960 960"><path d="M413-102v-227l57-168q2-7 8-12t17-5h303q11 0 16.5 4.5T823-497l57 168v227q0 9.308-6.346 15.654T858-80h-22.256Q827-80 820.5-86.346T814-102v-45H479v45q0 9.308-6.346 15.654T457-80h-22.256Q426-80 419.5-86.346T413-102Zm53-257h361l-38-115H504l-38 115Zm54 146q16.575 0 27.787-11.212Q559-235.425 559-252q0-16.575-11.213-27.788Q536.575-291 520-291t-27.788 11.212Q481-268.575 481-252q0 16.575 11.212 27.788Q503.425-213 520-213Zm253 0q16.575 0 27.787-11.212Q812-235.425 812-252q0-16.575-11.213-27.788Q789.575-291 773-291t-27.787 11.212Q734-268.575 734-252q0 16.575 11.213 27.788Q756.425-213 773-213ZM240-388v-73h73v73h-73Zm207-259v-73h73v73h-73ZM240-234v-73h73v73h-73Zm0 154v-73h73v73h-73ZM80-80v-541h207v-259h393v260h-60v-200H347v259H140v481H80Z"/></svg>