<svg xmlns="http://www.w3.org/2000/svg" width="48" height="48" viewBox="0 -960 960 960"><path d="M460-290q70.833 0 120.417-49.583Q630-389.167 630-460v-170H460q-70.833 0-120.417 49.583Q290-530.833 290-460q0 26.351 8.5 50.676Q307-385 321-363l-22 22q-9 9-9 21t9 21q9 9 21 9t21-9l22-22q22 14 46.324 22.5Q433.649-290 460-290Zm20 250L342-148l-173-21-21-173L40-480l108-138 21-173 173-21 138-108 138 108 173 21 21 173 108 138-108 138-21 173-173 21L480-40Zm21-419q9-8.8 9-20.9 0-12.1-9-21.1-9-9-21.1-9-12.1 0-20.9 9l-74 74q-9 9.067-9 21.533Q376-393 384.842-384q8.842 9 21 9T427-384l74-75Z"/></svg>