<svg xmlns="http://www.w3.org/2000/svg" width="48" height="48" viewBox="0 -960 960 960"><path d="M480-120q-66 0-125-23t-107-63l-78 78-42-42 78-78q-40-48-63-107t-23-125q0-150 105.5-255T480-840h360v360q0 149-105 254.5T480-120Zm0-60q125 0 212.5-87.5T780-480v-300H480q-125 0-212.5 87.5T180-480q0 125 87.5 212.5T480-180Zm-53-105 207-185q10-9 6-21.5T622-506l-162-16 97-133q4-5 3.5-10.5T556-676q-5-5-11.5-5t-11.5 5L327-491q-10 9-6 21.5t18 14.5l162 16-98 133q-3 5-3 10.5t5 10.5q5 5 11 5t11-5Zm53-195Z"/></svg>