<svg xmlns="http://www.w3.org/2000/svg" width="48" height="48" viewBox="0 -960 960 960"><path d="M410-450ZM110-90q-24.75 0-42.375-17.625T50-150v-600q0-24.75 17.625-42.375T110-810h370v60H110v600h600v-290h60v290q0 24.75-17.625 42.375T710-90H110Zm104-157h60v-275h-60v275Zm166 0h60v-406h-60v406Zm166 0h60v-148h-60v148Zm184-253q-31 0-59.5-10.5T616-538l-21 20q-9 8-21 8.5t-21-8.5q-9-9-9-21t9-21l22-22q-16-24-25.5-51.325Q540-660.651 540-690q0-78.85 55.575-134.425Q651.15-880 730-880h190v190q0 78.85-55.575 134.425Q808.85-500 730-500Zm0-60q54.167 0 92.083-37.917Q860-635.833 860-690v-130H730q-54.167 0-92.083 37.917Q600-744.167 600-690q0 17 4.5 33.5T616-623l115-115q9-9 21-9t21 9q9 9.067 9 21.533Q782-704 773-695L659-581q17 8 34.5 14.5T730-560Zm-15-120Z"/></svg>