<svg xmlns="http://www.w3.org/2000/svg" width="48" height="48" viewBox="0 -960 960 960"><path d="M240-80v-172q-57-52-88.5-121.5T120-520q0-150 105-255t255-105q125 0 221.5 73.5T827-615l55 218q4 14-5 25.5T853-360h-93v140q0 24.75-17.625 42.375T700-160H600v80h-60v-140h160v-200h114l-45-180q-24-97-105-158.5T480-820q-125 0-212.5 86.5T180-522.46q0 64.417 26.324 122.392Q232.649-342.092 281-297l19 18v199h-60Zm257-370ZM374-80h60l26-250h130v-60H466l5.714-55.186Q474-464 487.973-477T521-490h149v-60H522q-43.083 0-74.25 28.417Q416.583-493.167 412-451L374-80Z"/></svg>