<svg xmlns="http://www.w3.org/2000/svg" width="48" height="48" viewBox="0 -960 960 960"><path d="M479.982-280q14.018 0 23.518-9.482 9.5-9.483 9.5-23.5 0-14.018-9.482-23.518-9.483-9.5-23.5-9.5-14.018 0-23.518 9.482-9.5 9.483-9.5 23.5 0 14.018 9.482 23.518 9.483 9.5 23.5 9.5ZM453-433h60v-253h-60v253Zm27.266 353q-82.734 0-155.5-31.5t-127.266-86q-54.5-54.5-86-127.341Q80-397.681 80-480.5q0-82.819 31.5-155.659Q143-709 197.5-763t127.341-85.5Q397.681-880 480.5-880q82.819 0 155.659 31.5Q709-817 763-763t85.5 127Q880-563 880-480.266q0 82.734-31.5 155.5T763-197.684q-54 54.316-127 86Q563-80 480.266-80Z"/></svg>