<svg xmlns="http://www.w3.org/2000/svg" width="48" height="48" viewBox="0 -960 960 960"><path d="M260.08-727q-30.08 0-51.58-21.42-21.5-21.421-21.5-51.5 0-30.08 21.42-51.58 21.421-21.5 51.5-21.5 30.08 0 51.58 21.42 21.5 21.421 21.5 51.5 0 30.08-21.42 51.58-21.421 21.5-51.5 21.5ZM695-500q-25 0-42.5-17.5T635-560q0-25 17.5-42.5T695-620q25 0 42.5 17.5T755-560q0 25-17.5 42.5T695-500ZM190-80v-290h-70v-250q0-24.75 17.625-42.375T180-680h152q17.448 0 31.724 9T386-646l136 278 73-78q6-7 14.357-10.5T627-460h129q18.333 0 31.167 12.833Q800-434.333 800-416v166h-50v170H610v-303l-59 63h-70L350-583v503H190Z"/></svg>