<svg xmlns="http://www.w3.org/2000/svg" width="48" height="48" viewBox="0 -960 960 960"><path d="M480-735q-8 0-14-6t-6-14q0-8 6-14t14-6q8 0 14 6t6 14q0 8-6 14t-14 6Zm80 0q-8 0-14-6t-6-14q0-8 6-14t14-6q8 0 14 6t6 14q0 8-6 14t-14 6Zm-160 0q-8 0-14-6t-6-14q0-8 6-14t14-6q8 0 14 6t6 14q0 8-6 14t-14 6Zm280 40q-8 0-14-6t-6-14q0-8 6-14t14-6q8 0 14 6t6 14q0 8-6 14t-14 6Zm-320 0q-8 0-14-6t-6-14q0-8 6-14t14-6q8 0 14 6t6 14q0 8-6 14t-14 6Zm-80 0q-8 0-14-6t-6-14q0-8 6-14t14-6q8 0 14 6t6 14q0 8-6 14t-14 6Zm160 0q-8 0-14-6t-6-14q0-8 6-14t14-6q8 0 14 6t6 14q0 8-6 14t-14 6Zm80 0q-8 0-14-6t-6-14q0-8 6-14t14-6q8 0 14 6t6 14q0 8-6 14t-14 6Zm80 0q-8 0-14-6t-6-14q0-8 6-14t14-6q8 0 14 6t6 14q0 8-6 14t-14 6Zm-120 40q-8 0-14-6t-6-14q0-8 6-14t14-6q8 0 14 6t6 14q0 8-6 14t-14 6Zm80 0q-8 0-14-6t-6-14q0-8 6-14t14-6q8 0 14 6t6 14q0 8-6 14t-14 6Zm80 0q-8 0-14-6t-6-14q0-8 6-14t14-6q8 0 14 6t6 14q0 8-6 14t-14 6Zm-240 0q-8 0-14-6t-6-14q0-8 6-14t14-6q8 0 14 6t6 14q0 8-6 14t-14 6Zm-80 0q-8 0-14-6t-6-14q0-8 6-14t14-6q8 0 14 6t6 14q0 8-6 14t-14 6Zm40 40q-8 0-14-6t-6-14q0-8 6-14t14-6q8 0 14 6t6 14q0 8-6 14t-14 6Zm-80 0q-8 0-14-6t-6-14q0-8 6-14t14-6q8 0 14 6t6 14q0 8-6 14t-14 6Zm160 0q-8 0-14-6t-6-14q0-8 6-14t14-6q8 0 14 6t6 14q0 8-6 14t-14 6Zm80 0q-8 0-14-6t-6-14q0-8 6-14t14-6q8 0 14 6t6 14q0 8-6 14t-14 6Zm80 0q-8 0-14-6t-6-14q0-8 6-14t14-6q8 0 14 6t6 14q0 8-6 14t-14 6Zm80 0q-8 0-14-6t-6-14q0-8 6-14t14-6q8 0 14 6t6 14q0 8-6 14t-14 6Zm-480 0q-8 0-14-6t-6-14q0-8 6-14t14-6q8 0 14 6t6 14q0 8-6 14t-14 6Zm40-40q-8 0-14-6t-6-14q0-8 6-14t14-6q8 0 14 6t6 14q0 8-6 14t-14 6Zm80-80q-8 0-14-6t-6-14q0-8 6-14t14-6q8 0 14 6t6 14q0 8-6 14t-14 6Zm40-40q-8 0-14-6t-6-14q0-8 6-14t14-6q8 0 14 6t6 14q0 8-6 14t-14 6Zm80 0q-8 0-14-6t-6-14q0-8 6-14t14-6q8 0 14 6t6 14q0 8-6 14t-14 6Zm80 0q-8 0-14-6t-6-14q0-8 6-14t14-6q8 0 14 6t6 14q0 8-6 14t-14 6Zm80 0q-8 0-14-6t-6-14q0-8 6-14t14-6q8 0 14 6t6 14q0 8-6 14t-14 6Zm40 40q-8 0-14-6t-6-14q0-8 6-14t14-6q8 0 14 6t6 14q0 8-6 14t-14 6Zm80 80q-8 0-14-6t-6-14q0-8 6-14t14-6q8 0 14 6t6 14q0 8-6 14t-14 6Zm40 40q-8 0-14-6t-6-14q0-8 6-14t14-6q8 0 14 6t6 14q0 8-6 14t-14 6ZM353.775-383Q331-383 315.5-398.725q-15.5-15.726-15.5-38.5Q300-460 315.725-475.5q15.726-15.5 38.5-15.5Q377-491 392.5-475.275q15.5 15.726 15.5 38.5Q408-414 392.275-398.5q-15.726 15.5-38.5 15.5Zm253 0Q584-383 568.5-398.725q-15.5-15.726-15.5-38.5Q553-460 568.725-475.5q15.726-15.5 38.5-15.5Q630-491 645.5-475.275q15.5 15.726 15.5 38.5Q661-414 645.275-398.5q-15.726 15.5-38.5 15.5ZM480-80q-82 0-155-31.5t-127.5-86Q143-252 111.5-325T80-480q0-83 31.5-156t86-127Q252-817 325-848.5T480-880q83 0 156 31.5T763-763q54 54 85.5 127T880-480q0 82-31.5 155T763-197.5q-54 54.5-127 86T480-80Zm-.264-60Q622-140 721-239.267q99-99.266 99-240.469Q820-622 721.188-721 622.375-820 480-820q-141.312 0-240.656 98.812Q140-622.375 140-480q0 141.312 99.267 240.656Q338.533-140 479.736-140Z"/></svg>