<svg xmlns="http://www.w3.org/2000/svg" width="48" height="48" viewBox="0 -960 960 960"><path d="M480-40q23 0 46-3t46-8q86 67 192.5 46.5T927-119q44-74 30-158t-78-142v-3q64-57 77.5-141T927-721q-37-63-101.5-94.5T689-838q-32-57-87.5-89.5T480-960q-66 0-121.5 32.5T271-838q-72-9-136.5 22.5T33-721q-43 74-29.5 158T81-422v3Q17-361 3-277t30 158Q89-25 195.5-4.5T388-51q23 5 46 8t46 3ZM312-77q-60 29-125.5 8T86-148q-27-45-26-96t33-94q12 43 32.5 82t48.5 73q28 34 62.5 60.5T312-77Zm336 0q41-19 75.5-45.5T786-183q28-34 49-73t32-82q32 43 33 94t-26 96q-35 58-100.5 79T648-77Zm-168-23q-142 0-241-99t-99-241q0-124 77-216.5T411-773q-1 6-1 11.5v11.5q0 98 68.5 166.5T645-515q45 0 83-14.5t67-39.5q12 30 18.5 62.5T820-440q0 142-99 241t-241 99ZM354-343q-23 0-38.5-15.5T300-397q0-23 15.5-38.5T354-451q23 0 38.5 15.5T408-397q0 23-15.5 38.5T354-343Zm253 0q-23 0-38.5-15.5T553-397q0-23 15.5-38.5T607-451q23 0 38.5 15.5T661-397q0 23-15.5 38.5T607-343ZM87-513q-26-43-27-88.5T85-691q28-48 77-71.5T265-777q-35 22-64 50t-52 62q-23 34-38.5 72T87-513Zm786 0q-8-42-23.5-80T811-665q-23-34-52-62t-64-50q54-9 103 14.5t77 71.5q26 44 25 89.5T873-513Zm-228-62q-72 0-123.5-51.5T470-750q0-8 .5-15t2.5-15h7q46 0 87.5 11t78.5 32q37 21 67.5 50t53.5 65q-22 22-52 34.5T645-575Zm-13-235q-35-14-73-22t-79-8q-41 0-79 8t-73 22q29-38 67-64t85-26q47 0 85 26t67 64ZM149-665Zm331-175Zm166 103Zm165 72Zm-25 482Zm-612 0Z"/></svg>