<svg xmlns="http://www.w3.org/2000/svg" width="48" height="48" viewBox="0 -960 960 960"><path d="M481-161q-134 0-227-92.709-93-92.71-93-226.291 0-134.419 93-227.709Q347-801 481-801t227 93.291q93 93.29 93 227.709 0 133.581-93 226.291Q615-161 481-161Zm2-60q106 0 181-75.25T739-479q0-22-4-42t-12-43q-35 5-51.5 6.5T643-556q-63 0-124.5-34T407-685q-26 69-74.5 119.5T219-495q0 121 77.418 197.5Q373.835-221 483-221Zm-92-189q-17 0-28.5-11.5T351-450q0-17 11.5-28.5T391-490q17 0 28.5 11.5T431-450q0 17-11.5 28.5T391-410Zm179 1q-17 0-29-11.788-12-11.787-12-29.212 0-17.425 11.787-29.212Q552.575-491 570-491q17 0 28.5 11.788Q610-467.425 610-450q0 17.425-11.5 29.212Q587-409 570-409ZM40-728v-132q0-24 18-42t42-18h132v60H100v132H40ZM232-40H100q-24 0-42-18t-18-42v-132h60v132h132v60Zm496 0v-60h132v-132h60v132q0 24-18 42t-42 18H728Zm132-688v-132H728v-60h132q24 0 42 18t18 42v132h-60Z"/></svg>