<svg xmlns="http://www.w3.org/2000/svg" width="48" height="48" viewBox="0 -960 960 960"><path d="M720.08-727q-30.08 0-51.58-21.42-21.5-21.421-21.5-51.5 0-30.08 21.42-51.58 21.421-21.5 51.5-21.5 30.08 0 51.58 21.42 21.5 21.421 21.5 51.5 0 30.08-21.42 51.58-21.421 21.5-51.5 21.5ZM660-80v-336q0-30-15-54t-44-35l41-120q8-25 29.5-40t48.5-15q27 0 48.5 15t29.5 40l102 295H790v250H660ZM495-500q-25 0-42.5-17.5T435-560q0-25 17.5-42.5T495-620q25 0 42.5 17.5T555-560q0 25-17.5 42.5T495-500ZM220.08-727q-30.08 0-51.58-21.42-21.5-21.421-21.5-51.5 0-30.08 21.42-51.58 21.421-21.5 51.5-21.5 30.08 0 51.58 21.42 21.5 21.421 21.5 51.5 0 30.08-21.42 51.58-21.421 21.5-51.5 21.5ZM150-80v-290H80v-250q0-24.75 17.625-42.375T140-680h160q24.75 0 42.375 17.625T360-620v250h-70v290H150Zm290 0v-170h-50v-166q0-18.333 12.833-31.167Q415.667-460 434-460h122q18.333 0 31.167 12.833Q600-434.333 600-416v166h-50v170H440Z"/></svg>