<svg xmlns="http://www.w3.org/2000/svg" width="48" height="48" viewBox="0 -960 960 960"><path d="M80-370v-60h200v-70h-90q-12.75 0-21.375-8.675-8.625-8.676-8.625-21.5 0-12.825 8.625-21.325T190-560h90q24.75 0 42.375 17.625T340-500v70h110v-296q0-64 45.5-109T605-880q44 0 80 22.5t56 61.5l42 84-55 27-41-83q-12-23-34.449-37.5-22.449-14.5-48.265-14.5Q565-820 537.5-792.583 510-765.167 510-726v296h110v-70q0-24.75 17.625-42.375T680-560h90q12.75 0 21.375 8.675 8.625 8.676 8.625 21.5 0 12.825-8.625 21.325T770-500h-90v70h200v60H80Zm140 250q-24.75 0-42.375-17.625T160-180v-150h640v140q0 28.875-20.562 49.438Q758.875-120 730-120H220Z"/></svg>