<svg xmlns="http://www.w3.org/2000/svg" width="48" height="48" viewBox="0 -960 960 960"><path d="M396-76q-44 0-77.5-28T277-176q-3-17-13-28.5T234-216q-4 0-7 .5t-5 .5q-55 10-99-26t-44-93q0-43 27.5-77t72.5-42l118-20 134-192q1 0 .5.5l-.5.5q-14-15-22.5-33.5T400-737q0-42 28-70t69-28q26 0 44 9t26 15q10 7 22 10t25 3q8-24 25.5-43t41.5-28q44-17 85 3t57 62l50 140q17 46-5 86t-60 55q-34 13-67 2.5T687-556h-38L494-334l21 116q10 56-26 99t-93 43Zm0-80q19 0 31.5-14.5T436-204l-24-133q-2-8 0-15.5t7-14.5l164-235q11-16 28.5-25t37.5-9l-29-80q-30 1-55-7t-45-23q-7-5-12.5-7t-10.5-2q-8 0-12.5 5.5T480-737q0 4 1.5 8t4.5 7q13 13 19 28t6 30q0 13-4 24t-11 22L353-413q-5 7-11.5 10.5T327-397l-134 23q-15 3-24.5 14.5T159-334q0 19 15 31.5t34 8.5q7-2 13.5-2H234q23 0 43.5 7.5T314-267q16 14 27 33t15 44q3 15 14.5 24.5T396-156Zm0 0q-14 0-25.5-9.5T356-190q-8-49-41.5-77.5T234-296h-12.5q-6.5 0-13.5 2-19 4-34-8.5T159-334q0-14 9.5-25.5T193-374l134-23q8-2 14.5-5.5T353-413l143-205q7-11 11-22t4-24q0-15-6-30t-19-28q-3-3-4.5-7t-1.5-8q0-7 4.5-12.5T497-755q5 0 10.5 2t12.5 7q20 15 45 23t55 7l29 80q-20 0-37.5 9T583-602L419-367q-5 7-7 14.5t0 15.5l24 133q4 19-8.5 33.5T396-156Z"/></svg>