<svg xmlns="http://www.w3.org/2000/svg" width="48" height="48" viewBox="0 -960 960 960"><path d="M160-80v-60h80v-130h-40q-33 0-56.5-23.5T120-350v-80q0-33 23.5-56.5T200-510h40v-130h-80v-60h88q20-78 83.5-129T480-880q85 0 148.5 51T712-700h88v60h-80v130h40q33 0 56.5 23.5T840-430v80q0 33-23.5 56.5T760-270h-40v130h80v60H160Zm320-170q58 0 99-41t41-99q0-58-41-99t-99-41q-58 0-99 41t-41 99q0 58 41 99t99 41Zm.235-60Q447-310 423.5-333.265q-23.5-23.264-23.5-56.5Q400-423 423.265-446.5q23.264-23.5 56.5-23.5Q513-470 536.5-446.735q23.5 23.264 23.5 56.5Q560-357 536.735-333.5q-23.264 23.5-56.5 23.5Z"/></svg>