<svg xmlns="http://www.w3.org/2000/svg" width="48" height="48" viewBox="0 -960 960 960"><path d="m657-539-99 99 36 35 40-40q-7 72-50 117t-104 45q-17 0-29.5-2.5T427-293l-37 36q21 13 42.5 18.5T480-233q85 0 141.5-59T683-443l38 38 36-35-100-99ZM305-334l99-99-36-35-40 40q7-72 50-117t104-45q17 0 29.5 2.5T535-580l37-36q-21-13-42.5-18.5T482-640q-85 0-141.5 59T279-430l-38-38-36 35 100 99ZM140-120q-24 0-42-18t-18-42v-513q0-23 18-41.5t42-18.5h147l73-87h240l73 87h147q23 0 41.5 18.5T880-693v513q0 24-18.5 42T820-120H140Zm680-60v-513H645l-73-87H388l-73 87H140v513h680ZM480-480Z"/></svg>