<svg xmlns="http://www.w3.org/2000/svg" width="48" height="48" viewBox="0 -960 960 960"><path d="M132-450v230-520 290Zm418.5 350q20.5 0 35-15t14.5-35.5q0-20.5-14.375-35T550-200q-20 0-35 14.375T500-150q0 20 15 35t35.5 15Zm260-420q20.5 0 35-15t14.5-35.5q0-20.5-14.375-35T810-620q-20 0-35 14.375T760-570q0 20 15 35t35.5 15ZM240-540h200v-60H240v60Zm0 180h200v-60H240v60ZM132-160q-24 0-42-18t-18-42v-520q0-24 18-42t42-18h696q24 0 42 18t18 42H132v520h248v60H132ZM549.882-40Q504-40 472-72.083 440-104.167 440-150q0-38 22.5-67t57.5-39v-134h260v-74q-35-10-57.5-39T700-570q0-45.833 32.118-77.917 32.117-32.083 78-32.083Q856-680 888-647.917q32 32.084 32 77.917 0 38-22.5 67T840-464v134H580v74q35 10 57.5 39t22.5 67q0 45.833-32.118 77.917Q595.765-40 549.882-40Z"/></svg>