<svg xmlns="http://www.w3.org/2000/svg" width="48" height="48" viewBox="0 -960 960 960"><path d="M132-160q-24 0-42-18t-18-42v-520q0-24 18-42t42-18h696q24 0 42 18t18 42H580q-51 0-85.5 35T460-620v20H240v60h220v120H240v60h223q11 69 52 121.5T619-160H132Zm618 80q-24.75 0-42.375-17.625T690-140v-62q-73-11-121.5-66.5T520-400v-220q0-24.75 17.25-42.375T580-680h280q24.75 0 42.375 17.625T920-620v220q0 76-49 131.5T750-202v62h130v60H750Zm40-350h75v-195H575v115h55q30.489 0 57.745 14Q715-482 734-458q10 14 24.5 21t31.5 7Z"/></svg>