<svg xmlns="http://www.w3.org/2000/svg" width="48" height="48" viewBox="0 -960 960 960"><path d="M132-160q-24 0-42-18t-18-42v-520q0-24 18-42t42-18h696q24 0 42 18t18 42H132v520h348v60H132Zm0-60v-520 520ZM750-80q-24.75 0-42.375-17.625T690-140v-62q-73-11-121.5-66.5T520-400v-220q0-24.75 17.25-42.375T580-680h280q24.75 0 42.375 17.625T920-620v220q0 76-49 131.5T750-202v62h130v60H750Zm40-350h75v-195H575v115h55q30.489 0 57.745 14Q715-482 734-458q10 14 24.5 21t31.5 7Zm-70 175q53 0 92-32.5t50-82.5h-72q-30.848 0-58.424-13.5T686-422q-10.588-12.833-25.294-20.417Q646-450 630-450h-55v50q0 61 42 103t103 42Zm-34-203Zm-446-82h220v-60H240v60Zm0 180h220v-60H240v60Z"/></svg>