<svg xmlns="http://www.w3.org/2000/svg" width="48" height="48" viewBox="0 -960 960 960"><path d="M141-220v-7 7-460 460Zm0 60q-24 0-42-18t-18-42v-520q0-24 18-42t42-18h280l60 60h340q24 0 42 18t18 42v195q-14-11-28.5-19.5T821-520v-160H141v460h327q4 16 9.143 30.915Q482.286-174.169 490-160H141Zm420 0v-19q0-42 42.5-65T721-267q75 0 117.5 23t42.5 65v19H561Zm160.08-174q-30.08 0-51.58-21.42-21.5-21.421-21.5-51.5 0-30.08 21.42-51.58 21.421-21.5 51.5-21.5 30.08 0 51.58 21.42 21.5 21.421 21.5 51.5 0 30.08-21.42 51.58-21.421 21.5-51.5 21.5Z"/></svg>