<svg xmlns="http://www.w3.org/2000/svg" width="48" height="48" viewBox="0 -960 960 960"><path d="M561-160v-19q0-42 42.5-65T721-267q75 0 117.5 23t42.5 65v19H561Zm160.08-174q-30.08 0-51.58-21.42-21.5-21.421-21.5-51.5 0-30.08 21.42-51.58 21.421-21.5 51.5-21.5 30.08 0 51.58 21.42 21.5 21.421 21.5 51.5 0 30.08-21.42 51.58-21.421 21.5-51.5 21.5ZM141-160q-24.75 0-42.375-17.625T81-220v-520q0-24.75 17.625-42.375T141-800h280l60 60h340q24.75 0 42.375 17.625T881-680v195q-35-27-75.5-41T721-540q-108.643 0-184.321 75.679Q461-388.643 461-280q0 32 7.5 62t21.5 58H141Z"/></svg>