<svg xmlns="http://www.w3.org/2000/svg" width="48" height="48" viewBox="0 -960 960 960"><path d="M150-130q-45.833 0-77.917-32.083Q40-194.167 40-240q0-24.575 10.5-46.788Q61-309 80-325v-195h80v-240h308l186 436q7 15 11.5 30.953Q670-277.093 670-260q0 53.857-38.071 91.929Q593.857-130 540-130q-38.764 0-71.382-22T420-210H256q-10 35-39.5 57.5T150-130Zm590-40v-630h60v570h120v60H740Zm-590.175-20Q171-190 185.5-204.325q14.5-14.324 14.5-35.5Q200-261 185.675-275.5q-14.324-14.5-35.5-14.5Q129-290 114.5-275.675q-14.5 14.324-14.5 35.5Q100-219 114.325-204.5q14.324 14.5 35.5 14.5Zm390.057 0Q569-190 589.5-210.382q20.5-20.383 20.5-49.5Q610-289 589.618-309.5q-20.383-20.5-49.5-20.5Q511-330 490.5-309.618q-20.5 20.383-20.5 49.5Q470-231 490.382-210.5q20.383 20.5 49.5 20.5ZM343-391h217L429-700H220v180l123 129Z"/></svg>