<svg xmlns="http://www.w3.org/2000/svg" width="48" height="48" viewBox="0 -960 960 960"><path d="m255-917 43-43 347.686 347.686Q669-589 669-555.374q0 33.627-23 56.374L468-321q-23 23-54 23t-54-23L182-499q-23-22.774-23-56.439 0-33.666 23-56.44L371-801 255-917Zm159 159L215-559h398L414-758Zm337.788 477Q722-281 701-302.15 680-323.3 680-353q0-17.348 8-37.174T710-431q8-13 19.5-28t22.5-28q11 13 22.5 28t19.5 28q14 21 22 40.826T824-353q0 29.7-21.212 50.85-21.213 21.15-51 21.15ZM80 1v-121h800V1H80Z"/></svg>