<svg xmlns="http://www.w3.org/2000/svg" width="48" height="48" viewBox="0 -960 960 960"><path d="M718-134h33v-110h110v-33H751v-110h-33v110H608v33h110v110Zm14.5 60Q655-74 600-129.5T545-261q0-78.435 54.99-133.717Q654.98-450 733-450q77 0 132.5 55.283Q921-339.435 921-261q0 76-55.5 131.5T732.5-74ZM377-703v-60h463v60H377ZM189-161q-28.05 0-48.025-19Q121-199 121-227.5t19.5-48q19.5-19.5 48-19.5t47.5 19.975Q255-255.05 255-227q0 27.225-19.387 46.613Q216.225-161 189-161Zm0-252q-28.05 0-48.025-19.681Q121-452.362 121-480t19.975-47.319Q160.95-547 189-547q27.225 0 46.613 19.681Q255-507.638 255-480t-19.387 47.319Q216.225-413 189-413Zm-1-253q-27.637 0-47.319-19.681Q121-705.362 121-733t19.681-47.319Q160.363-800 188-800q27.637 0 47.319 19.681Q255-760.638 255-733t-19.681 47.319Q215.637-666 188-666Zm189 468v-60h108q0 16 2 31t6 29H377Zm0-252v-60h356q-46.471 0-87.236 16Q605-478 573-450H377Z"/></svg>