<svg xmlns="http://www.w3.org/2000/svg" width="48" height="48" viewBox="0 -960 960 960"><path d="M360-310v-212h-54v-49h104v261h-50Zm147 0q-18.7 0-31.35-12.65Q463-335.3 463-354v-173q0-18.7 12.65-31.35Q488.3-571 507-571h83q18.7 0 31.35 12.65Q634-545.7 634-527v173q0 18.7-12.65 31.35Q608.7-310 590-310h-83Zm6-50h71v-162h-71v162ZM480-80q-75 0-140.5-28T225-185q-49-49-77-114.5T120-440q0-75 28-140.5T225-695q49-49 114.5-77T480-800h21l-78-78 41-41 147 147-147 147-41-41 74-74h-17q-125.357 0-212.679 87.321Q180-565.357 180-440t87.321 212.679Q354.643-140 480-140t212.679-87.321Q780-314.643 780-440h60q0 75-28 140.5T735-185q-49 49-114.5 77T480-80Z"/></svg>