<svg xmlns="http://www.w3.org/2000/svg" width="48" height="48" viewBox="0 -960 960 960"><path d="M480-80q-75 0-140.5-28T225-185q-49-49-77-114.5T120-440q0-75 28-140.5T225-695q49-49 114.5-77T480-800h21l-78-78 41-41 147 147-147 147-41-41 74-74h-17q-125.357 0-212.679 87.321Q180-565.357 180-440t87.321 212.679Q354.643-140 480-140t212.679-87.321Q780-314.643 780-440h60q0 75-28 140.5T735-185q-49 49-114.5 77T480-80ZM380-310v-50h127v-56H380v-155h176v49H430v57h92q14.45 0 24.225 9.775Q556-445.45 556-431v87q0 14.45-9.775 24.225Q536.45-310 522-310H380Z"/></svg>