<svg xmlns="http://www.w3.org/2000/svg" width="48" height="48" viewBox="0 -960 960 960"><path d="M150-170q-46.218 0-78.11-32.083Q40-234.167 40-280v-270q0-24.75 17.625-42.375T100-610h230v-200h207q45.417 0 77.208 32Q646-746 647-700v180h60v-60q0-12 4.435-22.976Q715.87-613.951 724-622l70-71 166 313H767q-24.75 0-42.375-17.625T707-440v-20h-60v95q19 16 29.5 38.212Q687-304.575 687-280q0 45.833-32.083 77.917Q622.833-170 577-170q-37 0-65.5-22T472-249H255q-11 35-39.5 57T150-170Zm-.19-60q20.811 0 35.5-14.325 14.69-14.324 14.69-35.5Q200-301 185.675-315.5q-14.324-14.5-35.5-14.5Q129-330 114.5-315.675q-14.5 14.324-14.5 35.5Q100-259 114.5-244.5 129-230 149.81-230Zm427.015 0Q598-230 612.5-244.325q14.5-14.324 14.5-35.5Q627-301 612.675-315.5q-14.324-14.5-35.5-14.5Q556-330 541.5-315.675q-14.5 14.324-14.5 35.5Q527-259 541.325-244.5q14.324 14.5 35.5 14.5ZM861-440l-84-154q-5 3-7.5 8t-2.5 11v135h94Zm-471-80h197v-180q0-21.25-14.375-35.625T537-750H390v230Z"/></svg>