<svg xmlns="http://www.w3.org/2000/svg" width="48" height="48" viewBox="0 -960 960 960"><path d="M495.062-40q-139.938 0-237.5-97Q160-234 160-374v-396q0-12.75 8.675-21.375 8.676-8.625 21.5-8.625 12.825 0 21.325 8.625T220-770v260h106v-340q0-12.75 8.675-21.375 8.676-8.625 21.5-8.625 12.825 0 21.325 8.625T386-850v340h107v-380q0-12.75 8.675-21.375 8.676-8.625 21.5-8.625 12.825 0 21.325 8.625T553-890v380h107v-300q0-12.75 8.675-21.375 8.676-8.625 21.5-8.625 12.825 0 21.325 8.625T720-810v276q-17 20-28.5 43.919Q680-466.162 680-440v50h-70q-57 0-93.5 45T480-240v30h40v-30q0-43 24.5-76.5T610-350h110v-90q0-38 26-64t64-26h30v154q-8 141-106.5 238.5T495.062-40Z"/></svg>