<svg xmlns="http://www.w3.org/2000/svg" width="48" height="48" viewBox="0 -960 960 960"><path d="M120-80v-240q0-46 32.083-78 32.084-32 77.917-32h80q75 0 102.5-33t27.5-77q0-32-17.25-51T380-610q-24.75 0-42.375-17.625T320-670v-210h60v210q2 0 0 0 50 0 85 36.5t35 93.5q0 69-45 119.5T310-370h-80q-21.25 0-35.625 14.375T180-320v240h-60Zm240 0h-60v-80q0-46 32.083-78 32.084-32 77.917-32h160q88 0 149-61t61-149v-40q0-88-66-149t-154-61q-24.75 0-42.375-17.625T500-790v-90h60v90q112 0 196 79t84 191v40q0 112-79 191t-191 79H410q-21.25 0-35.625 14.375T360-160v80Zm-180 0v-240q0-21.25 14.375-35.625T230-370h80q100 0 145-50.5T500-540q0-57-35-93.5T377-670l3-210-3 210q53 0 88 36.5t35 93.5q0 69-45 119.5T310-370h-80q-21.25 0-35.625 14.375T180-320v240Z"/></svg>