<svg xmlns="http://www.w3.org/2000/svg" width="48" height="48" viewBox="0 -960 960 960"><path d="M565-80q-29 0-56-12t-45-35L247-403l21-23q14-15 34.5-18.5T341-438l99 53v-425q0-12.75 8.675-21.375 8.676-8.625 21.5-8.625 12.825 0 21.325 8.625T500-810v525l-144-77 156 198q10 12 23.76 18 13.76 6 29.24 6h205q38 0 64-26t26-64v-300q0-12.75 8.675-21.375 8.676-8.625 21.5-8.625 12.825 0 21.325 8.625T920-530v300q0 63-43.5 106.5T770-80H565Zm15-360v-210q0-12.75 8.675-21.375 8.676-8.625 21.5-8.625 12.825 0 21.325 8.625T640-650v210h-60Zm140 0v-170q0-12.75 8.675-21.375 8.676-8.625 21.5-8.625 12.825 0 21.325 8.625T780-610v170h-60ZM180-560q-58 0-99-40t-41-98q0-42 25-75.5t52-65.5l63-72 63 73q27 32 52 65t25 75q0 58-41 98t-99 40Zm-.235-60Q213-620 236.5-642.862T260-698q0-30-20.518-52.805T199-797l-20-21-19 21-40 46q-20 23-20 53 0 32.276 23.265 55.138Q146.529-620 179.765-620ZM668-310ZM180-719Z"/></svg>