<svg xmlns="http://www.w3.org/2000/svg" xml:space="preserve" id="Layer_1" x="0" y="0" style="enable-background:new 0 0 254.5 225" version="1.1" viewBox="0 0 254.5 225"><style>.st0{fill:#00acd7}</style><path d="M21.5 103.5c-.5 0-.6-.2-.4-.6l2.5-3.3c.2-.4.8-.6 1.3-.6h43.3c.5 0 .6.4.4.7l-2.1 3.2c-.2.4-.8.7-1.2.7l-43.8-.1zM3.2 114.7c-.5 0-.6-.2-.4-.6l2.5-3.3c.2-.4.8-.6 1.3-.6H62c.5 0 .7.4.6.7l-1 2.9c-.1.5-.6.7-1.1.7.1.1-57.3.2-57.3.2zm29.4 11.1c-.5 0-.6-.4-.4-.7l1.7-3c.2-.4.7-.7 1.2-.7h24.2c.5 0 .7.4.7.8l-.2 2.9c0 .5-.5.8-.8.8 0 .1-26.4-.1-26.4-.1z" class="st0"/><g id="CXHf1q_3_"><path d="M158.4 92c-7.6 1.9-12.9 3.4-20.4 5.3-1.8.5-1.9.6-3.5-1.2-1.8-2.1-3.2-3.4-5.7-4.6-7.6-3.8-15-2.7-21.9 1.8-8.2 5.3-12.5 13.2-12.4 23 .1 9.7 6.8 17.7 16.4 19 8.2 1.1 15.2-1.8 20.6-8 1.1-1.3 2.1-2.8 3.3-4.5h-23.4c-2.5 0-3.2-1.6-2.3-3.6 1.6-3.8 4.5-10.1 6.2-13.2.4-.7 1.2-1.9 3-1.9h44.1c-.2 3.3-.2 6.5-.7 9.8-1.3 8.7-4.6 16.7-9.9 23.8-8.7 11.5-20.1 18.7-34.6 20.6-11.9 1.6-22.9-.7-32.6-8-9-6.8-14.1-15.8-15.4-26.9-1.6-13.2 2.3-25.1 10.3-35.5 8.6-11.3 20-18.4 33.9-21 11.4-2.1 22.3-.7 32.1 5.9 6.4 4.2 11 10.1 14.1 17.1.8 1.1.3 1.7-1.2 2.1z" class="st0"/><path d="M198.5 159c-11-.2-21.1-3.4-29.6-10.7-7.2-6.2-11.6-14.1-13.1-23.4-2.2-13.7 1.6-25.8 9.8-36.6 8.9-11.6 19.5-17.7 33.9-20.2 12.4-2.2 24-1 34.6 6.2 9.6 6.5 15.5 15.4 17.1 27 2.1 16.4-2.7 29.7-13.9 41.1-8 8.1-17.8 13.2-29.1 15.5-3.2.6-6.5.8-9.7 1.1zm28.9-49c-.1-1.6-.1-2.8-.4-4-2.2-12-13.2-18.8-24.7-16.1-11.3 2.5-18.5 9.7-21.2 21.1-2.2 9.5 2.4 19 11.2 22.9 6.7 2.9 13.3 2.5 19.8-.7 9.5-5 14.7-12.7 15.3-23.2z" class="st0"/></g></svg>