<svg xmlns="http://www.w3.org/2000/svg" width="48" height="48" viewBox="0 -960 960 960"><path d="M182.736-120Q159-120 139.5-139 120-158 120-181.789v-596.422Q120-802 139.5-821t43.236-19h595.528Q802-840 821-821q19 19 19 42.789v596.422Q840-158 821-139t-42.736 19H182.736ZM437-524v86h85v-86h-85Zm-171 0v86h85v-86h-85Zm85 86v86h86v-86h-86Zm171 0v86h86v-86h-86Zm-342 0v86h86v-86h-86Zm428-86v86h86v86h86v-86h-86v-86h-86ZM265.5-352v86H180v86h85.6v-86h85.6v86h85.6v-86h85.6v86H608v-86h86v86h86v-86h-86v-86h-86v86h-86v-86h-85.5v86H351v-86h-85.5ZM780-524v86-86Zm0 172v86-86Z"/></svg>