<svg xmlns="http://www.w3.org/2000/svg" width="48" height="48" viewBox="0 -960 960 960"><path d="m880-175-60-60v-95h-95l-60-60h155v-189H639v163l-60-60v-103H476l-60-60h163v-181H389v154l-60-60v-94h-94l-60-60h645q23 0 41.5 18.5T880-820v645ZM639-639h181v-181H639v181ZM902 17l-98-97H140q-23 0-41.5-18.5T80-140v-665l-99-98 43-41L944-25l-42 42ZM639-140h105L639-245v105ZM389-390h107L389-495v105Zm0 250h190v-166l-25-24H389v190ZM140-639h105L140-746v107Zm0 249h189v-165l-24-24H140v189Zm189 250v-190H140v190h189Z"/></svg>