<svg xmlns="http://www.w3.org/2000/svg" width="48" height="48" viewBox="0 -960 960 960"><path d="m150-400 82-80-82-82-80 82 80 80Zm573-10 87-140 88 140H723Zm-243-70q-50 0-85-35t-35-85q0-51 35-85.5t85-34.5q51 0 85.5 34.5T600-600q0 50-34.5 85T480-480ZM0-240v-53q0-39.464 42-63.232T150.398-380q12.158 0 23.38.5T196-377.273q-8 17.273-12 34.842-4 17.57-4 37.431v65H0Zm240 0v-65q0-65 66.5-105T480-450q108 0 174 40t66 105v65H240Zm570-140q67.5 0 108.75 23.768T960-293v53H780v-65q0-19.861-3.5-37.431Q773-360 765-377.273q11-1.727 22.171-2.227 11.172-.5 22.829-.5Z"/></svg>