<svg xmlns="http://www.w3.org/2000/svg" width="48" height="48" viewBox="0 -960 960 960"><path d="M240-40q-83 0-141.5-58.5T40-240h50q0 63 43.5 106.5T240-90v50Zm162 0q-27 0-51.5-12.5T311-88L54-468l20-16q17-15 39.5-19t44.573 13.188L280-397v-413q0-12.75 8.675-21.375 8.676-8.625 21.5-8.625 12.825 0 21.325 8.625T340-810v330h107v-410q0-12.75 8.675-21.375 8.676-8.625 21.5-8.625 12.825 0 21.325 8.625T507-890v410h107v-370q0-12.75 8.675-21.375 8.676-8.625 21.5-8.625 12.825 0 21.325 8.625T674-850v370h106v-290q0-12.75 8.675-21.375 8.676-8.625 21.5-8.625 12.825 0 21.325 8.625T840-770v580q0 63-43.5 106.5T690-40H402Zm488-719q0-54-38.5-92.5T759-890v-50q75 0 128 53t53 128h-50Z"/></svg>