<svg xmlns="http://www.w3.org/2000/svg" width="48" height="48" viewBox="0 -960 960 960"><path d="M475-140q5 0 11.5-2.5T497-149l337-338q13-13 19.5-29.667Q860-533.333 860-550q0-17-6.5-34T834-614L654-794q-13-13-30-19.5t-34-6.5q-16.667 0-33.333 6.5Q540-807 527-794l-18 18 81 82q13 14 23 32.5t10 40.5q0 38-29.5 67T526-525q-25 0-41.5-7.5t-30.185-21.341L381-627 200-446q-5 5-7 10.526-2 5.527-2 11.842 0 12.632 8.5 21.132 8.5 8.5 21.167 8.5 6.333 0 11.833-3t9.5-7l138-138 42 42-137 137q-5 5-7 11t-2 12q0 12 9 21t21 9q6 0 11.5-2.5t9.5-6.5l138-138 42 42-137 137q-4 4-6.5 10.333Q361-261.333 361-255q0 12 9 21t21 9q6 0 11-2t10-7l138-138 42 42-138 138q-5 5-7 11t-2 11q0 14 8 22t22 8Zm.064 60Q442-80 416-104.5t-31-60.619Q351-170 328-193t-28-57q-34-5-56.5-28.5T216-335q-37-5-61-30t-24-60q0-17 6.724-34.049T157-489l224-224 110 110q8 8 17.333 12.5Q517.667-586 527-586q13 0 24.5-11.5t11.5-24.654q0-5.846-3.5-13.346T548-651L405-794q-13-13-30-19.5t-34-6.5q-16.667 0-33.333 6.5Q291-807 278.059-794.143L126-642q-14 14-19.5 29.5t-6.5 35q-1 19.5 7.5 38T128-506l-43 43q-20-22-32.5-53T40-579q0-30 11.5-57.5T84-685l151-151q22-22 49.793-32.5 27.794-10.5 57-10.5Q371-879 398.5-868.5T448-836l18 18 18-18q22-22 49.793-32.5 27.794-10.5 57-10.5Q620-879 647.5-868.5T697-836l179 179q22 22 33 50.033t11 57Q920-521 909-493.5T876-444L539-107q-13 13-29.532 20t-34.404 7ZM377-626Z"/></svg>