<svg xmlns="http://www.w3.org/2000/svg" width="48" height="48" viewBox="0 -960 960 960"><path d="M183-391.091q-6 3.091-12.375.524Q164.25-393.133 162-399l-28-76q-4-10-4.5-19.5T137-507q21-8 38.917 6.771Q193.833-485.459 203-462l14 38q2 5 0 11t-7 8l-27 13.909ZM420-90q-14 0-26-5.704-12-5.703-20-16.296L218-300q-8-10-7.333-21.907.666-11.907 9.333-20.093 10-8 21.907-6.9 11.907 1.1 20.093 9.9l108 128v-39q0-7.652 1.5-14.826T377-279l-45-130q-5-11.826.5-22.913T350-447q12-4 23.571 1.133Q385.143-440.733 389-429l41 119h40v-130q0-12.75 8.675-21.375 8.676-8.625 21.5-8.625 12.825 0 21.325 8.625T530-440v130h42l23-97q3-12 13.5-18.5T631-429q12 3 18.5 13.5T653-393l-19 83h16q6 0 12 1.5t12 3.5l18-45q5-12 16-18t22.871-1Q742-364 747.5-353q5.5 11 .5 23l-38 100v80q0 24.75-17.625 42.375T650-90H420ZM315-709q-6.182 1-11.205-3.389Q298.773-716.778 298-723l-8-74q-2-12.952 6-22.476t21-11.024q13-1.5 22.259 6.513Q348.519-815.974 350-803l8 74q1 6.154-3.272 11.154t-10.307 5.769L315-709Zm20.75 203.333q-6.75 1.667-12.375-2.28Q317.75-511.895 317-519l-11-98q-2-12.952 6-22.476t21-11.024q13-1.5 22.259 6.513Q364.519-635.974 366-623l10 93q1 5-2.5 9.5T365-514l-29.25 8.333ZM485-530q-6 0-10.5-4.5T470-545v-95q0-12.75 8.675-21.375 8.676-8.625 21.5-8.625 12.825 0 21.325 8.625T530-640v95q0 6-4.5 10.5T515-530h-30Zm0-200q-6 0-10.5-4.5T470-745v-95q0-12.75 8.675-21.375 8.676-8.625 21.5-8.625 12.825 0 21.325 8.625T530-840v95q0 6-4.5 10.5T515-730h-30Zm167 245-30-8q-5-2-9-6.5t-3-9.5l11-94q2-12 11.226-20.5T654-630q12.974 1.482 20.987 10.741Q683-610 681-597l-10 99q-.76 6.882-6.46 10.941Q658.84-483 652-485Zm22-200-30.345-3.077q-6.069-.769-10.362-5.769T630-705l8-74q1.482-12.974 10.741-20.987Q658-808 670.982-806.483q12.982 1.517 21 11T698-773l-7 74q-.773 6.222-5.795 10.611Q680.182-684 674-685Zm82 264-29.043-9.429Q721-432 718-437.091q-3-5.091-1-10.909l14-51q3-12 13.5-18.5t22.5-2.851q12 3.648 18 13.5Q791-497 788-485l-13 53q-2 6-7.543 9.5Q761.913-419 756-421Zm42.036-150.571-29.072-7.858Q763-581 759.5-586.543 756-592.087 758-598l12-41q6-20 11.5-39.5t23.304-14.955Q826-688 829-665t-4 48l-9 35q-1.5 6-6.75 9t-11.214 1.429Z"/></svg>