<svg xmlns="http://www.w3.org/2000/svg" width="48" height="48" viewBox="0 -960 960 960"><path d="M430.141-491Q447-491 458.5-502.641t11.5-28.5Q470-548 458.359-559.5t-28.5-11.5Q413-571 401.5-559.359t-11.5 28.5Q390-514 401.641-502.5t28.5 11.5ZM437-315l209-209-43-43-209 209 43 43Zm173.141 4Q627-311 638.5-322.641t11.5-28.5Q650-368 638.359-379.5t-28.5-11.5Q593-391 581.5-379.359t-11.5 28.5Q570-334 581.641-322.5t28.5 11.5ZM780-160H260q-24 0-42-18t-18-42v-640q0-24 18-42t42-18h348l232 232v468q0 24-18 42t-42 18ZM578-662v-198H260v640h520v-442H578ZM140-40q-24 0-42-18t-18-42v-619h60v619h498v60H140Zm120-820v198-198 640-640Z"/></svg>