<svg xmlns="http://www.w3.org/2000/svg" width="48" height="48" viewBox="0 -960 960 960"><path d="M481-84Q346-220 266.5-303t-121-137.5Q104-495 92-533.821t-12-86.601Q80-712 144-776t156-64q45 0 87 16.5t75 47.5l-62 216h121l-46 383 127-423H480l71-212q25-14 52.5-21t56.5-7q92 0 156 64t64 156q0 46-11.5 84.5T816-442q-41 55-120 138T481-84Zm-60-144 32-272H320l73-254q-22-11-45-18.5t-48-7.5q-66.286 0-113.143 46.857T140-620q0 32.667 12.5 65.333Q165-522 196.5-478t86 103.5Q337-315 421-228Zm136-18q140-136 201.5-223.5T820-620.368Q820-686 773.143-733T660-780q-15.333 0-30.667 3Q614-774 600-769l-36 109h117L557-246Zm124-414ZM320-500Z"/></svg>