<svg xmlns="http://www.w3.org/2000/svg" width="48" height="48" viewBox="0 -960 960 960"><path d="M272.941-226Q320-226 352.5-258.958 385-291.917 385-339v-244q0-22 15.5-37.5t37.57-15.5q22.07 0 37 15.5T490-583v244q0 47.083 32.941 80.042 32.941 32.958 80 32.958t79.559-32.958Q715-291.917 715-339v-287q0-21.25 14.375-35.625T765-676h81l-58 56 42 43 130-129-130-130-42 43 57 57h-80q-45.833 0-77.917 32.083Q655-671.833 655-626v287q0 22-14.93 37.5t-37 15.5q-22.07 0-37.57-15.5T550-339v-244q0-47.083-32.735-80.042Q484.529-696 437.765-696 391-696 358-663.042 325-630.083 325-583v244q0 22-14.93 37.5t-37 15.5q-22.07 0-37.57-15.5T220-339v-357h-60v357q0 47.083 32.941 80.042 32.941 32.958 80 32.958ZM100-96q-24.75 0-42.375-17.625T40-156v-335h880v335q0 24.75-17.625 42.375T860-96H100Z"/></svg>