<svg xmlns="http://www.w3.org/2000/svg" width="48" height="48" viewBox="0 -960 960 960"><path d="M181-530h60v-180q0-13.5-8.25-21.75T211-740q-13.5 0-21.75 8.25T181-710v180Zm30 370q-72 0-121-49.035T41-329.737Q41-375 63-412.24T121-473v-237q0-37.8 26.141-63.9t64-26.1Q249-800 275-773.9t26 63.9v237q36 23.52 58 60.76 22 37.24 22 82.503 0 70.724-49.583 120.23Q281.833-160 211-160Zm340-200q-45-32-78-83.5T440-560q0-99 70.5-169.5T680-800q101 0 170.5 70T920-560q0 65-33 116.5T809-360H551Zm129 200q-18 0-31.5-11.5T631-200h98q-4 17-17.5 28.5T680-160Zm-110-80v-60h220v60H570Z"/></svg>