<svg xmlns="http://www.w3.org/2000/svg" width="48" height="48" viewBox="0 -960 960 960"><path d="M266-627q-29 0-49-20t-20-49q0-29 20-49t49-20q29 0 49 20t20 49q0 29-20 49t-49 20ZM140-80q-25 0-42.5-17.5T80-140v-313h122v-56q0-31 21.5-53t52.5-22q19 0 34.5 8t28.5 22l57 64q8 9 18.5 18t25.5 19h440v313q0 25-17.5 42.5T820-80H140Zm602-480 1-12q3-40-8.5-63T702-688q-24-34-34.5-71t-6.5-72l1-9h54l-1 14q-2 35 5 57t30 52q25 32 38 72.5t9 75.5l-1 9h-54Zm-160 0 1-12q3-40-8.5-63T542-688q-24-34-34.5-71t-6.5-72l1-9h54l-1 14q-2 35 5 57t30 52q25 32 38 72.5t9 75.5l-1 9h-54Zm98 420h110v-253H680v253Zm-170 0h110v-253H510v253Zm-170 0h110v-253H340v253Zm-170 0h110v-253H170v253Z"/></svg>