<svg xmlns="http://www.w3.org/2000/svg" width="48" height="48" viewBox="0 -960 960 960"><path d="M80-80v-60h160v-110H120v-590h360v180q0 30.423 13.5 55.211Q507-580 536-572l115 29q48 12 78.5 51.941 30.5 39.942 30.5 90.691V-250H640v110h90q54.167 0 92.083-37.917Q860-215.833 860-270h60q0 75-57.5 132.5T730-80H80Zm100-230h520v-90.467Q700-431 681.5-454t-47.08-31L519-515q-38-11-57.5-34.5T431-605h-95q-6 0-10.5-4.5T321-620q0-6 4.5-10.5T336-635h86q-2-13-2-24.5V-685h-84q-6 0-10.5-4.5T321-700q0-6 4.5-10.5T336-715h84v-65H180v470Zm120 170h280v-110H300v110ZM180-310Z"/></svg>