<svg xmlns="http://www.w3.org/2000/svg" width="48" height="48" viewBox="0 -960 960 960"><path d="M663-149h40v-160h-40v160Zm100 0h40v-160h-40v160ZM240-620h480v-60H240v60ZM732.5-41Q655-41 600-96.5T545-228q0-78.435 54.99-133.717Q654.98-417 733-417q77 0 132.5 55.283Q921-306.435 921-228q0 76-55.5 131.5T732.5-41ZM120-81v-699q0-24.75 17.625-42.375T180-840h600q24.75 0 42.375 17.625T840-780v327q-14.169-6.857-29.085-11.429Q796-469 780-472v-308H180v599h310q2.885 18.172 8.942 34.586Q505-130 513-114l-33 33-60-60-60 60-60-60-60 60-60-60-60 60Zm120-199h252.272q3.728-16 8.228-31t12.5-29H240v60Zm0-170h384q22-11 46-17.5t50-8.5v-34H240v60Zm-60 269v-599 599Z"/></svg>