<svg xmlns="http://www.w3.org/2000/svg" width="48" height="48" viewBox="0 -960 960 960"><path d="m544-176-42-42q50.553-50.966 79.277-117.762Q610-402.558 610-479.779q0-77.221-28.723-144.177Q552.553-690.912 502-742l42-42q59 59 92.5 136.711Q670-569.578 670-480q0 89.578-33.5 167.289Q603-235 544-176Zm-85-85-42-42q34.17-34.46 53.585-79.885Q490-428.31 490-480t-19.415-97.115Q451.17-622.54 417-657l42-42q42 41.58 66.5 97.79Q550-545 550-480t-24.5 121.21Q501-302.58 459-261Zm-85-85-42-42q17.787-17.932 27.894-41.568Q370-453.205 370-480.103q0-26.897-10.106-50.459Q349.787-554.125 332-572l42-42q26 26 41 60.404 15 34.405 15 73.5Q430-441 415-406.5 400-372 374-346ZM180-160v-640h60v250q29 0 49.5 20.589 20.5 20.588 20.5 49.5Q310-451 289.438-430.5 268.875-410 240-410v250h-60Z"/></svg>