<svg xmlns="http://www.w3.org/2000/svg" width="48" height="48" viewBox="0 -960 960 960"><path d="M140-80q-24.75 0-42.375-17.625T80-140v-680q0-24.75 17.625-42.375T140-880h400q24.75 0 42.375 17.625T600-820v680q0 24.75-17.625 42.375T540-80H140Zm0-445q20-17 45.5-26t54.5-9h200q29 0 54.5 9t45.5 26v-295H140v295Zm199.911-85Q311-610 290.5-630.589q-20.5-20.588-20.5-49.5Q270-709 290.589-729.5q20.588-20.5 49.5-20.5Q369-750 389.5-729.411q20.5 20.588 20.5 49.5Q410-651 389.411-630.5q-20.588 20.5-49.5 20.5ZM780-340 640-480l140-140 42 42-67 68h165v60H755l67 68-42 42ZM140-140h400v-260q0-42-29-71t-71-29H240q-42 0-71 29t-29 71v260Zm170-70h60v-80h80v-60h-80v-80h-60v80h-80v60h80v80Zm-170 70h400-400Z"/></svg>