<svg xmlns="http://www.w3.org/2000/svg" width="48" height="48" viewBox="0 -960 960 960"><path d="m384-335 43-43-101-102 101-101-43-43-144 144.5L384-335Zm192 0 145-145-144-144-43 43 101 101-102 102 43 43ZM180-120q-24.75 0-42.375-17.625T120-180v-600q0-24.75 17.625-42.375T180-840h205q5-35 32-57.5t63-22.5q36 0 63 22.5t32 57.5h205q24.75 0 42.375 17.625T840-780v600q0 24.75-17.625 42.375T780-120H180Zm0-60h600v-600H180v600Zm300-617q14 0 24.5-10.5T515-832q0-14-10.5-24.5T480-867q-14 0-24.5 10.5T445-832q0 14 10.5 24.5T480-797ZM180-180v-600 600Z"/></svg>