<svg xmlns="http://www.w3.org/2000/svg" fill-rule="evenodd" stroke-miterlimit="1.414" viewBox="0 0 16 16" clip-rule="evenodd" stroke-linejoin="round"><path style="stroke-width:2%" d="M8.017 16a7.751 7.751 0 0 0 3.058-.638 8.298 8.298 0 0 0 2.535-1.698 8.067 8.067 0 0 0 1.635-2.287 7.85 7.85 0 0 0 .685-2.32 8.302 8.302 0 0 0-.026-2.335 7.62 7.62 0 0 0-1.1-2.94c-.783-1.226-1.915-2.213-3.21-2.87a8.687 8.687 0 0 0-1.45-.58h-.005c.08.042.16.088.237.134.08.05.158.098.235.15.378.257.728.552 1.038.888.706.763 1.194 1.7 1.48 2.696.188.656.29 1.334.33 2.014.03.496.032.995-.027 1.488a5.865 5.865 0 0 1-.827 2.4 5.08 5.08 0 0 1-1.268 1.39c-.833.62-1.926.99-2.962.744a2.658 2.658 0 0 1-.502-.172A4.149 4.149 0 0 1 5.816 9.86a4.865 4.865 0 0 1-.334-1.695c-.02-.85.148-1.704.565-2.45a4.257 4.257 0 0 1 1.58-1.6l.01-.004a3.404 3.404 0 0 0-1.785.074 3.849 3.849 0 0 0-1.181.628c-.146.115-.284.24-.413.37-.752.77-1.186 1.794-1.353 2.845-.102.65-.102 1.312-.054 1.967.067.927.253 1.853.626 2.707.228.523.527 1.014.898 1.447a5.402 5.402 0 0 0 2.088 1.488c.45.18.925.31 1.407.357.048.003.096.007.144.007zm-1.958-.265c-.103-.047-.202-.1-.3-.152a5.678 5.678 0 0 1-1.351-1.025c-.733-.758-1.225-1.712-1.505-2.723a9.528 9.528 0 0 1-.323-2.116c-.022-.464-.02-.93.03-1.39.09-.837.33-1.663.757-2.39a4.64 4.64 0 0 1 1.197-1.367c.332-.25.7-.454 1.094-.593.55-.193 1.14-.26 1.718-.177.217.03.44.08.644.156.02.006.02.007.036.018.013.01.028.012.042.02.037.015.072.032.108.05a4.208 4.208 0 0 1 1.865 1.957c.283.614.41 1.29.42 1.963.008.72-.12 1.445-.427 2.1a4.21 4.21 0 0 1-1.76 1.888 2.675 2.675 0 0 0 .641.102c.98.033 1.928-.44 2.632-1.097a4.97 4.97 0 0 0 1.179-1.697c.15-.355.266-.726.343-1.105.135-.665.144-1.345.1-2.02-.092-1.348-.45-2.7-1.226-3.82a5.498 5.498 0 0 0-1.076-1.17 5.47 5.47 0 0 0-.914-.61A4.964 4.964 0 0 0 8.828.09L8.61.056a5.548 5.548 0 0 0-.425-.04 6.429 6.429 0 0 0-.68.01c-.475.03-.947.106-1.41.224C3.85.823 1.89 2.385.843 4.456a7.836 7.836 0 0 0-.707 2.088 8.195 8.195 0 0 0-.07 2.52 7.633 7.633 0 0 0 1.076 3.079c.735 1.186 1.795 2.154 3.015 2.825.46.253.942.46 1.44.63.153.05.307.097.462.138z"/></svg>
