<svg xmlns="http://www.w3.org/2000/svg" width="48" height="48" viewBox="0 -960 960 960"><path d="M320-80q-83 0-141.5-58.5T120-280v-360q-33 0-56.5-23.5T40-720v-80q0-33 23.5-56.5T120-880h400q33 0 56.5 23.5T600-800v80q0 33-23.5 56.5T520-640v157q-28 21-48 50t-31 63H320v-60h140v-60H320v-60h140v-90H180v360q0 58.333 40.833 99.167Q261.667-140 320-140q42 0 75-21t50-56q6 16 14.5 30.5T479-158q-28 36-69 57t-90 21Zm0-170v-60h110q-1 15 .5 30t4.5 30H320ZM100-700h440v-120H100v120Zm0 0v-120 120Zm559.859 510Q706-190 738-221.859q32-31.859 32-78T738.141-378q-31.859-32-78-32T582-378.141q-32 31.859-32 78T581.859-222q31.859 32 78 32ZM864-54 757-161q-22 15-46.324 23-24.325 8-50.676 8-70.833 0-120.417-49.618Q490-229.235 490-300.118 490-371 539.618-420.5q49.617-49.5 120.5-49.5Q731-470 780.5-420.417 830-370.833 830-300q0 26.351-8 50.676Q814-225 799-203L906-96l-42 42Z"/></svg>