<svg xmlns="http://www.w3.org/2000/svg" width="48" height="48" viewBox="0 -960 960 960"><path d="M120-404v-60q78 0 146.36-29.603 68.361-29.603 119.5-80.5Q437-625 466.5-693.695T496-840h60q0 90.173-34.186 169.445-34.187 79.273-93.641 138.728-59.455 59.454-138.728 93.641Q210.173-404 120-404Zm0-120v-60q106.24 0 181.12-74.88Q376-733.76 376-840h60q0 132-92 224t-224 92Zm0-120v-196h196q0 81-57.5 138.5T120-644Zm284 524q0-90.173 34.186-169.445 34.187-79.273 93.641-138.728 59.455-59.454 138.728-93.641Q749.827-556 840-556v60q-78 0-146.36 29.603-68.361 29.603-119.5 80.5Q523-335 493.5-266.305T464-120h-60Zm120 0q0-132 92-224t224-92v60q-106.24 0-181.12 74.88Q584-226.24 584-120h-60Zm120 0q0-81 57.5-138.5T840-316v196H644Z"/></svg>