<svg xmlns="http://www.w3.org/2000/svg" width="48" height="48" viewBox="0 -960 960 960"><path d="M140-120q-24 0-42-18t-18-42v-513q0-23 18-41.5t42-18.5h147l73-87h240v60H388l-73 87H140v513h680v-460h60v460q0 24-18.5 42T820-120H140Zm694-560q0-81-56.323-137.5Q721.355-874 640-874v-46q100 0 170 70t70 170h-46Zm-87 0q0-45-31-76t-76-31v-46q63 0 108 45t45 108h-46ZM480-436Zm-.5 170q72.5 0 121.5-49t49-121.5q0-72.5-49-121T479.5-606q-72.5 0-121 48.5t-48.5 121q0 72.5 48.5 121.5t121 49Zm0-60q-47.5 0-78.5-31.5t-31-79q0-47.5 31-78.5t78.5-31q47.5 0 79 31t31.5 78.5q0 47.5-31.5 79t-79 31.5Z"/></svg>