<svg xmlns="http://www.w3.org/2000/svg" width="48" height="48" viewBox="0 -960 960 960"><path d="M140-120q-24 0-42-18t-18-42v-513q0-23 18-41.5t42-18.5h147l73-87h240v93q45 0 76 31t31 76h173v460q0 24-18.5 42T820-120H140Zm340-146q72 0 121-49t49-121q0-73-49-121.5T480-606q-73 0-121.5 48.5T310-436q0 72 48.5 121T480-266Zm0-60q-48 0-79-31.5T370-436q0-48 31-79t79-31q47 0 78.5 31t31.5 79q0 47-31.5 78.5T480-326Zm354-354q0-81-56.5-137.5T640-874v-46q100 0 170 70t70 170h-46Zm-87 0q0-45-31-76t-76-31v-46q63 0 108 45t45 108h-46Z"/></svg>