<svg xmlns="http://www.w3.org/2000/svg" width="48" height="48" viewBox="0 -960 960 960"><path d="M180-180v-600 600-9 9Zm0 60q-24 0-42-18t-18-42v-600q0-24 18-42t42-18h600q24 0 42 18t18 42v388q-13.655-7.92-28.828-12.96Q796-410 780-414v-366H180v600h320q1 16 3.077 30.915Q505.154-134.169 510-120H180Zm520 80v-120H580v-60h120v-120h60v120h120v60H760v120h-60ZM300-286q12 0 21-9t9-21q0-12-9-21t-21-9q-12 0-21 9t-9 21q0 12 9 21t21 9Zm0-164q12 0 21-9t9-21q0-12-9-21t-21-9q-12 0-21 9t-9 21q0 12 9 21t21 9Zm0-164q12 0 21-9t9-21q0-12-9-21t-21-9q-12 0-21 9t-9 21q0 12 9 21t21 9Zm132 164h244v-60H432v60Zm0-164h244v-60H432v60Zm0 328h89q8-17 18.5-31.5T562-346H432v60Z"/></svg>