<svg xmlns="http://www.w3.org/2000/svg" width="48" height="48" viewBox="0 -960 960 960"><path d="M700-40v-120H580v-60h120v-120h60v120h120v60H760v120h-60ZM300-286q12 0 21-9t9-21q0-12-9-21t-21-9q-12 0-21 9t-9 21q0 12 9 21t21 9Zm0-164q12 0 21-9t9-21q0-12-9-21t-21-9q-12 0-21 9t-9 21q0 12 9 21t21 9Zm0-164q12 0 21-9t9-21q0-12-9-21t-21-9q-12 0-21 9t-9 21q0 12 9 21t21 9Zm132 164h244v-60H432v60Zm0-164h244v-60H432v60ZM180-120q-24.75 0-42.375-17.625T120-180v-600q0-24.75 17.625-42.375T180-840h600q24.75 0 42.375 17.625T840-780v388q-26-14-53.548-20.5Q758.903-419 730-419q-50 0-92 19.5T564-346H432v60h92q-11 24-17.5 50.5T500-180q1 15.333 3 30.667Q505-134 510-120H180Z"/></svg>