<svg xmlns="http://www.w3.org/2000/svg" width="48" height="48" viewBox="0 -960 960 960"><path d="M550-560q0-28.875-20.562-49.438Q508.875-630 480-630q-14 0-25.5 5T434-612l98 98q8-9 13-20.5t5-25.5Zm167 231-44-44q34-51 50.5-96t16.5-83q0-117.79-75.292-192.895Q589.417-820 480-820q-54 0-100.5 18.5T298-748l-42-42q45-44 103.229-67T480-880q127 0 223.5 89T800-552q0 51-20.5 106.5T717-329Zm-120 52L233-641q-7 20-10 42.5t-3 46.5q0 75 65 173.5T480-159q34-31 63-60.5t54-57.5ZM833-41 640-234q-33 37-72.5 75.5T480-80Q319-217 239.5-334.5T160-552q0-37.689 6.5-71.844Q173-658 186-688L26-848l43-43L876-84l-43 43ZM415-459Zm71-101Z"/></svg>