<svg xmlns="http://www.w3.org/2000/svg" width="48" height="48" viewBox="0 -960 960 960"><path d="M480-333q30-25 52.5-49t37.5-46.5q15-22.5 22.5-43T600-510q0-49.846-35.109-84.923-35.108-35.077-85-35.077Q430-630 395-594.923 360-559.846 360-510q0 23 7.5 44.5T390-423q15 21 37.5 43t52.5 47Zm0-147q-17 0-28.5-11.5T440-520q0-17 11.5-28.5T480-560q17 0 28.5 11.5T520-520q0 17-11.5 28.5T480-480ZM320-200q-117 0-198.5-81.5T40-480q0-117 81.5-198.5T320-760h320q117 0 198.5 81.5T920-480q0 117-81.5 198.5T640-200H320Zm0-60h320q91.3 0 155.65-64.288Q860-388.576 860-479.788T795.65-635.5Q731.3-700 640-700H320q-91.3 0-155.65 64.288Q100-571.424 100-480.212T164.35-324.5Q228.7-260 320-260Zm160-220Z"/></svg>