<svg xmlns="http://www.w3.org/2000/svg" width="48" height="48" viewBox="0 -960 960 960"><path d="M480-80 80-685q86-72 188-113.5T480-840q110 0 212 41.5T880-685L480-80Zm0-107 321-484q-72-47-153.172-78T480-780q-87.04 0-168.02 31T159-671l321 484ZM370.059-565Q393-565 409-581.059q16-16.059 16-39T408.941-659q-16.059-16-39-16T331-658.941q-16 16.059-16 39T331.059-581q16.059 16 39 16Zm110 215Q503-350 519-366.059q16-16.059 16-39T518.941-444q-16.059-16-39-16T441-443.941q-16 16.059-16 39T441.059-366q16.059 16 39 16ZM483-187Z"/></svg>