<svg xmlns="http://www.w3.org/2000/svg" width="48" height="48" viewBox="0 -960 960 960"><path d="M275.741-80Q243-80 223.5-99t-22.536-49.079L120-880h720l-80.964 731.921Q756-118 736.5-99T685-80H275.741ZM214-580l47.964 440H698l48-440H214Zm-7-60h546l20-180H187l20 180Zm273 447q45 0 76.5-30.684T588-299q0-47-28.5-100T480-500q-51 48-79.5 101T372-299q0 44.632 31.5 75.316Q435-193 480-193Zm266-387H214h532ZM480-253q-20.4 0-34.2-13.8Q432-280.6 432-301q0-21 11.5-50t36.5-61q25 33 36.5 62t11.5 49q0 20.4-13.8 34.2Q500.4-253 480-253Z"/></svg>