<svg xmlns="http://www.w3.org/2000/svg" width="48" height="48" viewBox="0 -960 960 960"><path d="M180-80q-24.75 0-42.375-17.625T120-140v-530q0-24.75 17.625-42.375T180-730h110q0-78 53.5-134T475-920q80.925 0 137.963 55Q670-810 670-730h110q24.75 0 42.375 17.625T840-670v530q0 24.75-17.625 42.375T780-80H180Zm0-60h600v-530H180v530Zm300-290q79 0 137-58t58-137h-60q0 55-40 95t-95 40q-55 0-95-40t-40-95h-60q0 79 58 137t137 58ZM350-730h260q0-55-37.5-92.5T480-860q-55 0-92.5 37.5T350-730ZM180-140v-530 530Z"/></svg>