<svg xmlns="http://www.w3.org/2000/svg" width="48" height="48" viewBox="0 -960 960 960"><path d="m480-840 320 240v480H160v-480l320-240Zm.118 470Q526-370 558-402.118q32-32.117 32-78Q590-526 557.882-558q-32.117-32-78-32Q434-590 402-557.882q-32 32.117-32 78Q370-434 402.118-402q32.117 32 78 32Zm.057-60Q459-430 444.5-444.325q-14.5-14.324-14.5-35.5Q430-501 444.325-515.5q14.324-14.5 35.5-14.5Q501-530 515.5-515.675q14.5 14.324 14.5 35.5Q530-459 515.675-444.5q-14.324 14.5-35.5 14.5ZM479-250q-55 0-106.5 18T278-180h403q-44-34-95.5-52T479-250ZM220-574v365q54-48 120.516-74.5T479-310q72.67 0 139.835 27T740-208v-366L480-763 220-574Zm260 94Z"/></svg>