<svg xmlns="http://www.w3.org/2000/svg" width="48" height="48" viewBox="0 -960 960 960"><path d="M350-634h260v-93q0-55.417-37.882-94.208-37.883-38.792-92-38.792Q426-860 388-821.208 350-782.417 350-727v93ZM753-46q-81 0-137-56t-56-137q0-81 56-137t137-56q81 0 137 56t56 137q0 81-56 137T753-46Zm74-92 27-27-84-76v-124h-42v135.776L827-138ZM557-80H220q-24.75 0-42.375-17.625T160-140v-434q0-24.75 17.625-42.375T220-634h70v-93q0-80.095 55.606-136.547Q401.212-920 480.106-920T614.5-863.547Q670-807.095 670-727v93h70q24.75 0 42.375 17.625T800-574v87q-15-3.5-30-4.75t-30-.25q-102 4-171 77.5T500-239q0 44 15 84.5T557-80Z"/></svg>