<svg xmlns="http://www.w3.org/2000/svg" width="48" height="48" viewBox="0 -960 960 960"><path d="M260-120q-24.75 0-42.375-17.625T200-180v-470q0-28.875 20.562-49.438Q241.125-720 270-720h90v-120q0-16.667 11.667-28.333Q383.333-880 400-880h160q16.667 0 28.333 11.667Q600-856.667 600-840v120h100q24.75 0 42.375 17.625T760-660v480q0 24.75-17.625 42.375T700-120q0 17-11.5 28.5T660-80q-17 0-28.5-11.5T620-120H340q0 17-11.5 28.5T300-80q-17 0-28.5-11.5T260-120Zm0-60h440v-480H260v480Zm70-60h40v-360h-40v360Zm130 0h40v-360h-40v360Zm130 0h40v-360h-40v360ZM480-420Zm-80-300h160v-120H400v120Z"/></svg>