<svg xmlns="http://www.w3.org/2000/svg" width="48" height="48" viewBox="0 -960 960 960"><path d="M80-558v-40q0-109 105-175.5T480-840q190 0 295 66.5T880-598v40H80Zm62-60h676q-3-69-96.5-115.5T480-780q-148 0-242.5 46.5T142-618ZM80-382v-60q33 0 57.5-22t78.5-22q54 0 71.5 22t58.5 22q41 0 60.5-22t73.5-22q54 0 73.5 22t60.5 22q41 0 58.5-22t71.5-22q54 0 78.5 22t57.5 22v60q-54 0-74.5-22T744-426q-41 0-58.5 22T614-382q-54 0-73.5-22T480-426q-41 0-60.5 22T346-382q-54 0-71.5-22T216-426q-41 0-61.357 22T80-382Zm60 262q-24 0-42-18t-18-42v-128h800v128q0 24-18 42t-42 18H140Zm0-60h680v-68H140v68Zm0-68h680-680Zm2-370h676-676Z"/></svg>