<svg xmlns="http://www.w3.org/2000/svg" width="48" height="48" viewBox="0 -960 960 960"><path d="M240-410h160v-60H240v60Zm519.882-80Q714-490 682-522.118q-32-32.117-32-78Q650-646 682.083-678q32.084-32 77.917-32 13 0 25.5 3t24.5 8v-221h150v60h-90v260q0 45.833-32.118 77.917-32.117 32.083-78 32.083ZM240-530h280v-60H240v60Zm0-120h280v-60H240v60Zm0 410L80-80v-740q0-24.75 17.625-42.375T140-880h480q24.75 0 42.375 17.625T680-820v59q-45 24-72.5 67T580-600q0 51 27.5 94t72.5 67v139q0 24.75-17.625 42.375T620-240H240Z"/></svg>