<svg xmlns="http://www.w3.org/2000/svg" width="48" height="48" viewBox="0 -960 960 960"><path d="m480-463 340-217v-60L480-527 140-740v60l340 217Zm285 303q-14 0-24.5-10.5T730-195v-120q0-14.875 12-24.938Q754-350 770-350v-45q0-30.938 22.044-52.969 22.045-22.031 53-22.031Q876-470 898-447.969q22 22.031 22 52.969v45q16 0 28 10.062 12 10.063 12 24.938v120q0 14-10.5 24.5T925-160H765Zm35-190h90v-44.912Q890-414 877.088-427q-12.913-13-32-13Q826-440 813-427.062 800-414.125 800-395v45ZM143-160q-25.988 0-44.494-17T80-220v-520q0-24.75 17.625-42.375T140-800h680q24.75 0 42.375 17.625T880-740v210h-30q-74.7 0-127.35 52.65Q670-424.7 670-350v190H143Z"/></svg>