<svg viewBox="0 0 1195 1195" xmlns="http://www.w3.org/2000/svg"><path d="M1003.605 496.96c-17.344-2.56-35.968-18.304-41.344-35.008L936.15 398.72c-8.128-15.552-6.272-39.872 4.352-53.952l42.112-56.192c10.624-14.08 9.728-36.352-1.984-49.536l-46.272-46.4c-13.12-11.712-35.52-12.544-49.6-1.984l-56.128 42.24c-14.144 10.496-38.4 12.48-54.016 4.288l-63.168-26.048c-16.832-5.312-32.64-24-35.008-41.472l-9.984-69.504c-2.496-17.408-18.816-33.152-36.352-34.944 0 0-10.816-1.216-32.768-1.216s-32.768 1.216-32.768 1.216c-17.536 1.792-33.92 17.536-36.352 34.944l-9.984 69.504c-2.432 17.472-18.176 36.16-35.008 41.472l-63.168 26.048c-15.552 8.192-39.808 6.208-53.888-4.288l-56.256-42.24c-14.016-10.624-36.416-9.728-49.6 1.984l-46.208 46.272c-11.648 13.184-12.544 35.52-1.984 49.6l42.176 56.192c10.56 14.08 12.48 38.4 4.288 53.952l-26.048 63.296c-5.376 16.704-24 32.448-41.408 35.008l-69.504 9.792c-17.472 2.56-33.216 18.88-35.008 36.416 0 0-1.152 10.88-1.152 32.832 0 21.952 1.152 32.896 1.152 32.896 1.856 17.472 17.6 33.792 35.008 36.288l69.504 9.856c17.408 2.496 36.032 18.304 41.408 35.008l26.112 63.232c8.192 15.616 6.272 39.808-4.288 53.888l-42.176 56.256c-10.56 14.144-13.12 33.28-5.632 42.496 7.424 9.216 28.864 32.064 28.928 32.064 0 .128 7.232 6.72 16 14.656 8.768 8.064 44.48 19.2 58.56 8.64l56.256-42.112c14.08-10.624 38.336-12.544 53.888-4.352l63.04 25.984c16.832 5.44 32.576 24 35.008 41.472l9.984 69.504c2.432 17.344 18.816 33.28 36.288 35.072 0 0 10.88 1.152 32.832 1.152s32.768-1.152 32.768-1.152c17.472-1.792 33.856-17.664 36.352-35.072l9.984-69.504c2.368-17.472 18.112-36.032 35.008-41.472l63.104-25.984c15.616-8.192 39.872-6.272 54.016 4.224l56.256 42.24c14.144 10.56 36.352 9.664 49.6-1.92l46.272-46.336c11.648-13.184 12.48-35.52 1.856-49.6l-42.112-56.256c-10.624-14.08-12.48-38.272-4.352-53.888l26.112-63.232c5.376-16.768 24-32.512 41.344-35.008l69.504-9.856c17.344-2.496 33.152-18.816 35.008-36.288 0 0 1.152-10.88 1.152-32.896 0-21.952-1.152-32.832-1.152-32.832-1.856-17.536-17.6-33.856-35.008-36.416l-69.44-9.792zM597.333 704c-70.656 0-128-57.344-128-128 0-70.72 57.344-128 128-128 70.592 0 128 57.344 128 128s-57.344 128-128 128z"/></svg>