<svg xmlns="http://www.w3.org/2000/svg" width="48" height="48" viewBox="0 -960 960 960"><path d="M140-160q-24 0-42-18t-18-42v-520q0-24 18-42t42-18h434q-3 15-4 30t1 30H145l335 218 151-98q10 9 21 16.673 11 7.673 23 13.327L480-462 140-685v465h680v-360q16.794-4.783 31.397-13.391Q866-602 880-613v393q0 24-18 42t-42 18H140Zm0-580v520-520Zm619.882 90Q714-650 682-682.118q-32-32.117-32-78Q650-806 682.118-838q32.117-32 78-32Q806-870 838-837.882q32 32.117 32 78Q870-714 837.882-682q-32.117 32-78 32Z"/></svg>