<svg xmlns="http://www.w3.org/2000/svg" width="48" height="48" viewBox="0 -960 960 960"><path d="m314-203 132-82-132-82v164Zm216-472h140v-40H530v40ZM100-40q-24.75 0-42.375-17.625T40-100v-370q0-24.75 17.625-42.375T100-530h520q24.75 0 42.375 17.625T680-470v370q0 24.75-17.625 42.375T620-40H100Zm640-370v-60q0-41-24-72.5T654-585h26q45.833 0 77.917-32.118 32.083-32.117 32.083-78Q790-741 757.917-773 725.833-805 680-805h-40v40h40q29.167 0 49.583 20.382Q750-724.235 750-695.118 750-666 729.583-645.5 709.167-625 680-625h-40v37q-5.333-1.333-10-1.667-4.667-.333-10-.333h-60v-35h-40q-29.167 0-49.583-20.382Q450-665.765 450-694.882 450-724 470.417-744.5 490.833-765 520-765h40v-40h-40q-45.833 0-77.917 32.083Q410-740.833 410-695q0 37 21.5 65.5T487-590H280v-270q0-24.75 17.625-42.375T340-920h520q24.75 0 42.375 17.625T920-860v390q0 24.75-17.625 42.375T860-410H740Z"/></svg>