<svg xmlns="http://www.w3.org/2000/svg" width="48" height="48" viewBox="0 -960 960 960"><path d="M120-780v-60h480v60H120Zm190 510h100v-100h100v-100H410v-100H310v100H210v100h100v100ZM140-120q-24 0-42-18t-18-42v-480q0-24 18-42t42-18h440q24 0 42 18t18 42v480q0 24-18 42t-42 18H140Zm0-60h440v-480H140v480Zm640-246q-35-17-57.5-55T700-570q0-63 32-106.5t78-43.5q46 0 78 43.5T920-570q0 51-22.5 89T840-426v276q0 12-8.625 21T810-120q-12 0-21-9t-9-21v-276Zm30-54q15 0 32.5-24.188Q860-528.375 860-570t-17.5-65.812Q825-660 810-660t-32.5 24.188Q760-611.625 760-570t17.5 65.812Q795-480 810-480Zm-450 60Zm450-150Z"/></svg>