<svg xmlns="http://www.w3.org/2000/svg" width="48" height="48" viewBox="0 -960 960 960"><path d="M314-203v-164l132 82-132 82Zm206-382q-45.833 0-77.917-32.118-32.083-32.117-32.083-78Q410-741 442.083-773q32.084-32 77.917-32h40v40h-40q-29.167 0-49.583 20.382Q450-724.235 450-695.118 450-666 470.417-645.5 490.833-625 520-625h40v40h-40Zm120 0v-40h40q29.167 0 49.583-20.382Q750-665.765 750-694.882 750-724 729.583-744.5 709.167-765 680-765h-40v-40h40q45.833 0 77.917 32.118 32.083 32.117 32.083 78Q790-649 757.917-617 725.833-585 680-585h-40Zm-110-90v-40h140v40H530Zm123 265v-80h207v-370H340v370h-60v-370q0-24.75 17.625-42.375T340-920h520q24.75 0 42.375 17.625T920-860v390q0 24.75-17.625 42.375T860-410H653ZM100-40q-24.75 0-42.375-17.625T40-100v-370q0-24.75 17.625-42.375T100-530h520q24.75 0 42.375 17.625T680-470v370q0 24.75-17.625 42.375T620-40H100Zm0-60h520v-370H100v370Zm500-575ZM360-285Z"/></svg>