<svg xmlns="http://www.w3.org/2000/svg" width="48" height="48" viewBox="0 -960 960 960"><path d="M184-692q-14-15-19-34t-5-39q0-47.917 33.25-81.458Q226.5-880 274-880t80.75 33.542Q388-812.917 388-765q0 20-5 39t-19 34H184ZM396-80q-63.938 0-109.469-45Q241-170 241-235h-34l-40-416h214l-40 416h-40q0 39.188 27.867 67.094 27.868 27.906 67 27.906Q435-140 462.5-167.906 490-195.812 490-235v-490q0-65 45-110t110-45q65 0 110 45t45 110v645h-60v-645q0-39.188-27.867-67.094-27.867-27.906-67-27.906Q606-820 578-792.094 550-764.188 550-725v490q0 65-45.237 110Q459.525-80 396-80Z"/></svg>