<svg xmlns="http://www.w3.org/2000/svg" width="48" height="48" viewBox="0 -960 960 960"><path d="m686-361-43-43q21-26 31-58.5t10-66.5h60q0 46-15 89t-43 79ZM461-586Zm97 97-53-52v-238q0-17.425-11.788-29.213Q481.425-820 464-820q-17.425 0-29.212 11.787Q423-796.425 423-779v155l-60-60v-95q0-42.083 29.441-71.542Q421.882-880 463.941-880t71.559 29.458Q565-821.083 565-779v250q0 8-1.5 20t-5.5 20ZM434-120v-136q-106-11-178-89t-72-184h60q0 91 64.5 153T464-314q38 0 73.11-12.337Q572.221-338.675 601-361l43 43q-31 26-69.014 41.568Q536.972-260.865 494-256v136h-60Zm397 65L36-850l38-38L869-93l-38 38Z"/></svg>