<svg xmlns="http://www.w3.org/2000/svg" width="48" height="48" viewBox="0 -960 960 960"><path d="M320-728 214-834l42-42 106 106-42 42Zm320 0-42-42 106-106 42 42-106 106Zm-190-52v-180h60v180h-60ZM150 0q-12.75 0-21.375-8.625T120-30v-324l85-256q5-14 16.5-22t26.5-8h464q15 0 26.5 8t16.5 22l85 256v324q0 12.75-8.625 21.375T810 0h-21q-12.75 0-21.375-8.625T759-30v-54H200v54q0 12.75-8.625 21.375T170 0h-20Zm53-414h554l-55-166H258l-55 166Zm82.765 220Q309-194 324.5-209.75T340-248q0-23.333-15.75-39.667Q308.5-304 286-304q-23.333 0-39.667 16.265Q230-271.471 230-248.235 230-225 246.265-209.5q16.264 15.5 39.5 15.5ZM675-194q23.333 0 39.667-15.75Q731-225.5 731-248q0-23.333-16.265-39.667Q698.471-304 675.235-304 652-304 636.5-287.735q-15.5 16.264-15.5 39.5Q621-225 636.75-209.5T675-194Z"/></svg>