<svg xmlns="http://www.w3.org/2000/svg" width="48" height="48" viewBox="0 -960 960 960"><path d="M207.858-432Q188-432 174-446.142q-14-14.141-14-34Q160-500 174.142-514q14.141-14 34-14Q228-528 242-513.858q14 14.141 14 34Q256-460 241.858-446q-14.141 14-34 14Zm272 0Q460-432 446-446.142q-14-14.141-14-34Q432-500 446.142-514q14.141-14 34-14Q500-528 514-513.858q14 14.141 14 34Q528-460 513.858-446q-14.141 14-34 14Zm272 0Q732-432 718-446.142q-14-14.141-14-34Q704-500 718.142-514q14.141-14 34-14Q772-528 786-513.858q14 14.141 14 34Q800-460 785.858-446q-14.141 14-34 14Z"/></svg>