<svg xmlns="http://www.w3.org/2000/svg" width="48" height="48" viewBox="0 -960 960 960"><path d="M320-760v-60q0-24.75 17.625-42.375T380-880h200q24.75 0 42.375 17.625T640-820v60h140q24.75 0 42.375 17.625T840-700v70H120v-70q0-24.75 17.625-42.375T180-760h140ZM180-120q-24.75 0-42.375-17.625T120-180v-390h160v110q0 24.75 17.625 42.375T340-400h280q24.75 0 42.375-17.625T680-460v-110h160v390q0 24.75-17.625 42.375T780-120H180Zm130.175-130q12.825 0 21.325-8.675 8.5-8.676 8.5-21.5 0-12.825-8.675-21.325-8.676-8.5-21.5-8.5-12.825 0-21.325 8.675-8.5 8.676-8.5 21.5 0 12.825 8.675 21.325 8.676 8.5 21.5 8.5Zm170 0q12.825 0 21.325-8.675 8.5-8.676 8.5-21.5 0-12.825-8.675-21.325-8.676-8.5-21.5-8.5-12.825 0-21.325 8.675-8.5 8.676-8.5 21.5 0 12.825 8.675 21.325 8.676 8.5 21.5 8.5Zm170 0q12.825 0 21.325-8.675 8.5-8.676 8.5-21.5 0-12.825-8.675-21.325-8.676-8.5-21.5-8.5-12.825 0-21.325 8.675-8.5 8.676-8.5 21.5 0 12.825 8.675 21.325 8.676 8.5 21.5 8.5ZM340-460v-110h280v110H340Zm40-300h200v-60H380v60Z"/></svg>