<svg xmlns="http://www.w3.org/2000/svg" width="48" height="48" viewBox="0 -960 960 960"><path d="M230-80v-60h220v-180h-90q-83 0-141.5-58.5T160-520q0-60 33-110.5t89-73.5q9-75 65.5-125.5T480-880q76 0 132.5 50.5T678-704q56 23 89 73.5T800-520q0 83-58.5 141.5T600-320h-90v180h230v60H230Zm130-300h240q58.333 0 99.167-40.833Q740-461.667 740-520q0-42-24-76.5T654-648l-32-14-4-35q-7-53-46.183-88T480-820q-52.634 0-91.817 35Q349-750 342-697l-4 35-32 14q-38 17-62 51.726t-24 76.397Q220-462 260.833-421q40.834 41 99.167 41Zm120-220Z"/></svg>