<svg xmlns="http://www.w3.org/2000/svg" width="48" height="48" viewBox="0 -960 960 960"><path d="M815-213v-343h60v343h-60Zm30 140q-14 0-24.5-10.5T810-108q0-14 10.5-24.5T845-143q14 0 24.5 10.5T880-108q0 14-10.5 24.5T845-73ZM479.814-83q-11.187 0-22-5Q447-93 438-101L101-438q-8-9-12.5-20.305t-4.5-23Q84-493 88.5-504t12.5-19l338-338q9-8.5 19.875-12.75T481-878q11.25 0 22.125 4T522-861l233 233v110L480-793 167-480l313 313 275-275v109L523-101q-9.366 9-20.683 13.5T479.814-83ZM480-257 257-480l223-223 223 223-223 223Z"/></svg>