<svg xmlns="http://www.w3.org/2000/svg" width="48" height="48" viewBox="0 -960 960 960"><path d="M480.106-190Q559-190 614.5-245.575T670-380v-200q0-78.85-55.606-134.425Q558.788-770 479.894-770T345.5-714.425Q290-658.85 290-580v200q0 78.85 55.606 134.425Q401.212-190 480.106-190Zm.012-60Q426-250 388-287.917 350-325.833 350-380v-200q0-54.167 37.882-92.083 37.883-37.917 92-37.917Q534-710 572-672.083q38 37.916 38 92.083v200q0 54.167-37.882 92.083-37.883 37.917-92 37.917Zm.057-340q12.825 0 21.325-8.675 8.5-8.676 8.5-21.5 0-12.825-8.675-21.325-8.676-8.5-21.5-8.5-12.825 0-21.325 8.675-8.5 8.676-8.5 21.5 0 12.825 8.675 21.325 8.676 8.5 21.5 8.5ZM180-40q-24.75 0-42.375-17.625T120-100v-760q0-24.75 17.625-42.375T180-920h600q24.75 0 42.375 17.625T840-860v760q0 24.75-17.625 42.375T780-40H180Z"/></svg>