<svg xmlns="http://www.w3.org/2000/svg" width="48" height="48" viewBox="0 -960 960 960"><path d="M729.911-240Q701-240 680.5-260.589q-20.5-20.588-20.5-49.5Q660-339 680.589-359.5q20.588-20.5 49.5-20.5Q759-380 779.5-359.411q20.5 20.588 20.5 49.5Q800-281 779.411-260.5q-20.588 20.5-49.5 20.5ZM580-80v-13q0-40 40.5-63.5T730-180q69 0 109.5 23.5T880-93v13H580Zm100-400h-60v-200q0-60-41.5-100T480-820q-57 0-98.5 40.25T340-680v400q0 57 41.5 98.5T480-140v60q-85 0-142.5-57.5T280-280v-400q0-85 57.5-142.5T480-880q85 0 142.5 57.5T680-680v200Zm-200-80q33 0 56.5-23.5T560-640q0-33-23.5-56.5T480-720q-33 0-56.5 23.5T400-640q0 33 23.5 56.5T480-560Zm0 80Zm-80 160q0 33 23.5 56.5T480-240q33 0 56.5-23.5T560-320q0-33-23.5-56.5T480-400q-33 0-56.5 23.5T400-320Zm80.172 45Q460-275 447.5-289.091q-12.5-14.091-12.5-31T447.328-351q12.327-14 32.5-14Q500-365 512.5-352.6q12.5 12.4 12.5 32.691Q525-303 512.672-289q-12.327 14-32.5 14Z"/></svg>