<svg xmlns="http://www.w3.org/2000/svg" width="48" height="48" viewBox="0 -960 960 960"><path d="M63-537 0-600q93-95 218-147.5T480-800q24 0 54 1.5t62 5.5l-42 86q-18-2-36-2.5t-38-.5q-119 0-225.5 46T63-537Zm123 118-63-63q69-67 165.5-102T508-611l-39 81q-77-2-154.5 29T186-419Zm258 255q-27-11-39.5-41t1.5-59l237-490q3-7 10.5-10t15.5-1q8 2 13 9t3 15L547-206q-8 32-41 42.5t-62-.5Zm330-255q-16-17-44.5-37T681-485l21-86q35 12 73 38.5t62 50.5l-63 63Zm123-118q-39-38-85-69t-88-50l22-90q65 27 116 63.5t98 82.5l-63 63Z"/></svg>