<svg xmlns="http://www.w3.org/2000/svg" width="48" height="48" viewBox="0 -960 960 960"><path d="M593-80q-88.114 0-166.557-32.5Q348-145 288.43-200.408q-59.57-55.409-94-129.625Q160-404.25 160-487.617 160-572 194.5-646.5q34.5-74.5 94-130t137.943-88Q504.886-897 593-897q47 0 88 10t79 27q-90 64-146 160t-56 211.5q0 115.5 56 212T760-117q-38 17-79 27t-88 10Zm0-60h26.419Q632-140 640-141q-66-74-104-162t-38-185q0-97 38-185t104-163q-8-1-20.581-1H593q-153 0-263 101.962-110 101.963-110 247Q220-343 330-241.5T593-140Zm-95-349Z"/></svg>