<svg xmlns="http://www.w3.org/2000/svg" width="48" height="48" viewBox="0 -960 960 960"><path d="M833-41 720-154v30q0 18-13.2 31T676-80H124q-18.333 0-31.167-12.833Q80-105.667 80-124v-416q0-18.333 12.833-31.167Q105.667-584 124-584h127l18-21L26-848l43-43L876-84l-43 43Zm-693-99h520v-74L540-334q-2 57-42.5 95.5T400-200q-58 0-99-41t-41-99q0-57 38.5-97.5T394-480l-82-82-35 38H140v384Zm580-186-60-60v-138H522l-60-60-56-56h93l51 56h126q18.333 0 31.167 12.833Q720-558.333 720-540v214Zm54-220v-164h-30v-170h136l-59 134h59L774-546ZM660-386Zm-174-2Zm-86.235 128Q433-260 456.5-283.265q23.5-23.264 23.5-56.5Q480-373 456.735-396.5q-23.264-23.5-56.5-23.5Q367-420 343.5-396.735q-23.5 23.264-23.5 56.5Q320-307 343.265-283.5q23.264 23.5 56.5 23.5Z"/></svg>