<svg xmlns="http://www.w3.org/2000/svg" width="48" height="48" viewBox="0 -960 960 960"><path d="m760-286-60-60v-314H386l-60-60h34v-130q0-12.5 8.75-21.25T390-880h180q12.5 0 21.25 8.75T600-850v130h100q24.75 0 42.375 17.625T760-660v374ZM630-416l-40-40v-144h40v184ZM500-546l-40-40v-14h40v54ZM400-720h160v-120H400v120ZM300-80q-17 0-28.5-11.5T260-120q-24.75 0-42.375-17.625T200-180v-470q0-24 14-42t31-23l55 55h-40v480h440v-62l60 61.593Q760-155 742.375-137.5 724.75-120 700-120q0 17-11.5 28.5T660-80q-17 0-28.5-11.5T620-120H340q0 17-11.5 28.5T300-80Zm30-160v-350h40v350h-40Zm130-260 40 40v220h-40v-260Zm130 130 40 40v90h-40v-130Zm-47-133Zm-66 106ZM833-41 26-848l43-43L876-84l-43 43Z"/></svg>