<svg xmlns="http://www.w3.org/2000/svg" width="48" height="48" viewBox="0 -960 960 960"><path d="M239.823-80Q215-80 197.5-97.677t-17.5-42.5Q180-165 197.677-182.5t42.5-17.5Q265-200 282.5-182.323t17.5 42.5Q300-115 282.323-97.5t-42.5 17.5ZM681-363 466-579l182-214q18-21 45-34t53-13q56 0 95 39t39 95v26h-60v-26q0-31-21.5-52.5T746-780q-16 0-29.5 7T690-749l-9 11v375Zm-41.414 43L682-278q-8 8-18.578 13T640-260H281q-26 0-36.5-23t6.5-43l137-160L26-848l43-43L876-84l-43 43-279-279h85.586Zm-9.763 240Q605-80 587.5-97.677t-17.5-42.5Q570-165 587.677-182.5t42.5-17.5Q655-200 672.5-182.323t17.5 42.5Q690-115 672.323-97.5t-42.5 17.5ZM431-614 241-804q34-17 76-26.5t84-9.5q49 0 95.5 12.5T583-793L431-614Z"/></svg>