<svg xmlns="http://www.w3.org/2000/svg" width="48" height="48" viewBox="0 -960 960 960"><path d="M480.017-325Q495-325 506-336.017t11-26Q517-377 505.983-388t-26-11Q465-399 454-387.983t-11 26Q443-347 454.017-336t26 11ZM455-449h50q0-15 .5-26t5.5-19q4-8 11-15t25-24q23-20 32.5-39.5T589-618q0-44.696-28.5-70.848T483.355-715Q445-715 414-694.19q-31 20.809-42 55.19l45 18q8-20 26-33t40.4-13q25.6 0 40.6 14t15 37q0 17.405-8 30.202-8 12.798-27.528 30.931Q486-539 476.5-528.5T463-508.048q-4 9.048-6 22.548-2 13.5-2 36.5Zm25 369Q319-217 239.5-334.5T160-552q0-150 96.5-239T480-880q127 0 223.5 89T800-552q0 100-79.5 217.5T480-80Z"/></svg>