<svg xmlns="http://www.w3.org/2000/svg" width="48" height="48" viewBox="0 -960 960 960"><path d="M480-80q-33 0-56.5-23.5T400-160h160q0 33-23.5 56.5T480-80ZM160-200v-60h80v-304q0-84 49.5-150.5T420-798v-22q0-25 17.5-42.5T480-880q25 0 42.5 17.5T540-820v22q23 5 43.816 14.043Q604.633-774.913 623-761q-11.375 11.922-19.688 24.961Q595-723 587-709q-23-17-50.176-26-27.177-9-56.824-9-75 0-127.5 52.5T300-564v304h360v-146q14 10 28.5 18t31.5 14v114h80v60H160Zm320-302Zm290 62v-130H640v-60h130v-130h60v130h130v60H830v130h-60Z"/></svg>