<svg xmlns="http://www.w3.org/2000/svg" width="48" height="48" viewBox="0 -960 960 960"><path d="M160-200v-60h80v-304q0-84 49.5-150.5T420-798v-22q0-25 17.5-42.5T480-880q25 0 42.5 17.5T540-820v22q81 17 130.5 83.5T720-564v304h80v60H160ZM480-80q-33 0-56.5-23.5T400-160h160q0 33-23.5 56.5T480-80Zm-30-346h60v-214h-60v214Zm29.982 106q14.018 0 23.518-9.482 9.5-9.483 9.5-23.5 0-14.018-9.482-23.518-9.483-9.5-23.5-9.5-14.018 0-23.518 9.482-9.5 9.483-9.5 23.5 0 14.018 9.482 23.518 9.483 9.5 23.5 9.5Z"/></svg>