<svg xmlns="http://www.w3.org/2000/svg" width="48" height="48" viewBox="0 -960 960 960"><path d="M120-80v-240q0-46 32.083-78 32.084-32 77.917-32h80q75 0 102.5-33t27.5-77q0-32-17.25-51T380-610q-24.75 0-42.375-17.625T320-670v-210h60v210h-1 1q50 0 85 36.5t35 93.5q0 69-45 119.5T310-370h-80q-21.25 0-35.625 14.375T180-320v240h-60Zm260-590v-210 210h-1 1q50 0 85 36.5t35 93.5q0 69-45 119.5T310-370h-80q-21.25 0-35.625 14.375T180-320v240-240q0-21.25 14.375-35.625T230-370h80q100 0 145-50.5T500-540q0-57-35-93.5T380-670h-1 1Zm460 225q-14-11-28.603-21.016Q796.794-476.032 780-483v-37q0-88-66-149t-154-61q-24.75 0-42.375-17.625T500-790v-90h60v90q112 0 196 79t84 191v75ZM300-80v-80q0-46 32.083-78 32.084-32 77.917-32h50q0 16 2 30.915 2 14.916 6 29.085h-58q-21.25 0-35.625 14.375T360-160v80h-60Zm390-101q38 0 64-26t26-64q0-38-26-64t-64-26q-38 0-64 26t-26 64q0 38 26 64t64 26ZM870-45l-98.6-99q-17.4 11-37.718 17-20.317 6-43.682 6-63 0-106.5-43.5T540-271q0-63 43.5-106.5T690-421q63 0 106.5 43.5T840-271q0 24.078-7 45.539Q826-204 813-186l99 99-42 42Z"/></svg>