<svg xmlns="http://www.w3.org/2000/svg" width="48" height="48" viewBox="0 -960 960 960"><path d="M280-440q-66-5-113-50t-47-110q0-66 47-113t113-47h40v-160h320v160h40q66 0 113 47t47 113q0 65-47 110t-113 50h-97q9-10 15.5-21.5T610-486q5.053-15.111 18.316-24.556Q641.579-520 658-520h22v-60h-22q-35 0-63.98 20.579Q565.04-538.841 554-505q-7 20-24.5 32.5T491-460h-22q-20.625 0-37.812-12.5Q414-485 407-505q-11.2-33.841-40.6-54.421Q337-580 302-580h-22v60h22q16 0 29.5 9.5T350-486q5 13 11.5 24.5T377-440h-97Zm40 360q-20 0-36-11.5T257-120H150q-45.833 0-77.917-32.083Q40-184.167 40-230v-150h60v150q0 21.25 14.375 35.625T150-180h107q10-17 26.5-28.5T320-220h50v-50q0-12.75 8.675-21.375 8.676-8.625 21.5-8.625 12.825 0 21.325 8.625T430-270v50h100v-50q0-12.75 8.675-21.375 8.676-8.625 21.5-8.625 12.825 0 21.325 8.625T590-270v50h50q20 0 36.5 11.5T703-180h107q21.25 0 35.625-14.375T860-230v-150h60v150q0 45.833-32.083 77.917Q855.833-120 810-120H703q-10 17-26.5 28.5T640-80H320Z"/></svg>