<svg xmlns="http://www.w3.org/2000/svg" width="48" height="48" viewBox="0 -960 960 960"><path d="M140-160q-24.75 0-42.375-17.625T80-220v-520q0-24.75 17.625-42.375T140-800h680q24.75 0 42.375 17.625T880-740v520q0 24.75-17.625 42.375T820-160H140Zm0-60h680v-520H140v520Zm0 0v-520 520Zm517-48 42-42-99-99q14-21.312 21-44.562 7-23.25 7-48.438 0-70.417-48.708-119.708Q530.583-671 461-671q-71.25 0-121.125 49T290-502q0 71 49.875 120T461-333q26 0 51.5-8.5T558-367l99 99ZM461-393q-46 0-78.5-31.655t-32.5-77.5Q350-548 382.5-579.5t78-31.5q45.5 0 76.5 32t31 77q0 45-31.03 77T461-393Z"/></svg>