<svg xmlns="http://www.w3.org/2000/svg" width="48" height="48" viewBox="0 -960 960 960"><path d="M398-121q-24.513 0-46.757-10.5Q329-142 313-162L59-473l24-26q19-20 47-21.5t51 15.5l99 68v-413q0-12.75 8.675-21.375 8.676-8.625 21.5-8.625 12.825 0 21.325 8.625T340-850v359h107v-219q0-12.75 8.675-21.375 8.676-8.625 21.5-8.625 12.825 0 21.325 8.625T507-710v219h107v-159q0-12.75 8.675-21.375 8.676-8.625 21.5-8.625 12.825 0 21.325 8.625T674-650v159h106v-60q0-12.75 8.675-21.375 8.676-8.625 21.5-8.625 12.825 0 21.325 8.625T840-551v280q0 63-43.5 106.5T690-121H398Z"/></svg>