<svg xmlns="http://www.w3.org/2000/svg" width="48" height="48" viewBox="0 -960 960 960"><path d="M398-121q-24.513 0-46.757-10.5Q329-142 313-162L59-473l24-26q19-20 47-21.5t51 15.5l99 68v-413q0-12.75 8.675-21.375 8.676-8.625 21.5-8.625 12.825 0 21.325 8.625T340-850v528L157-449l204 250q7.161 8.4 16.71 13.2 9.548 4.8 20.29 4.8h292q38 0 64-26t26-64v-280q0-12.75 8.675-21.375 8.676-8.625 21.5-8.625 12.825 0 21.325 8.625T840-551v280q0 63-43.5 106.5T690-121H398Zm49-320v-269q0-12.75 8.675-21.375 8.676-8.625 21.5-8.625 12.825 0 21.325 8.625T507-710v269h-60Zm167 0v-209q0-12.75 8.675-21.375 8.676-8.625 21.5-8.625 12.825 0 21.325 8.625T674-650v209h-60ZM507-336Z"/></svg>