<svg xmlns="http://www.w3.org/2000/svg" width="48" height="48" viewBox="0 -960 960 960"><path d="M450-770v-150h60v150h-60Zm256 106-42-43 106-106 42 43-106 106Zm64 214v-60h150v60H770Zm1 302L665-254l43-43 106 106-43 43ZM254-664 148-770l42-42 106 106-42 42Zm-14 484h180q33.333 0 56.667-23.265Q500-226.529 500-259.765 500-293 477.237-317 454.475-341 421-341h-44l-18-41q-15.145-35.75-47.6-56.875T240-460q-58.333 0-99.167 40.765-40.833 40.764-40.833 99Q100-262 140.833-221q40.834 41 99.167 41Zm0 60q-83 0-141.5-58.5T40-320q0-83 58.5-141.5T240-520q57.736 0 105.368 32.5T416-401q60.117 0 101.058 43.589Q558-313.822 558-253q-5 56-44.033 94.5Q474.935-120 420-120H240Zm318-133q-3-15.385-6-30t-6-30q52-20 83-65.538 31-45.539 31-101.324Q660-555 607.5-607.5T480-660q-67.215 0-117.627 42.674Q311.962-574.652 303-509q-16-3-31.5-5.5T240-520q14-88 82.5-144T480-720q100 0 170 70t70 170.342Q720-402 675.5-340 631-278 558-253Zm-77-227Z"/></svg>