<svg xmlns="http://www.w3.org/2000/svg" width="48" height="48" viewBox="0 -960 960 960"><path d="M100-160q-24.75 0-42.375-17.625T40-220v-460h60v460h700v60H100Zm120-120q-24.75 0-42.375-17.625T160-340v-400q0-24.75 17.625-42.375T220-800h640q24.75 0 42.375 17.625T920-740v400q0 24.75-17.625 42.375T860-280H220Zm100-60q0-42-29-71t-71-29v100h100Zm440 0h100v-100q-42 0-71 29t-29 71Zm-220-80q50 0 85-35t35-85q0-50-35-85t-85-35q-50 0-85 35t-35 85q0 50 35 85t85 35ZM220-640q42 0 71-29t29-71H220v100Zm640 0v-100H760q0 42 29 71t71 29Z"/></svg>