<svg xmlns="http://www.w3.org/2000/svg" width="48" height="48" viewBox="0 -960 960 960"><path d="M691-80q-78.435 0-133.718-55.283Q502-190.565 502-269q0-78.435 55.282-133.717Q612.565-458 691-458q78.435 0 133.718 55.283Q880-347.435 880-269q0 78.435-55.282 133.717Q769.435-80 691-80Zm58.243-88L777-196l-75-75v-112h-39v126l86.243 89ZM180-120q-24.75 0-42.375-17.625T120-180v-600q0-26 17-43t43-17h202q7-35 34.5-57.5T480-920q36 0 63.5 22.5T578-840h202q26 0 43 17t17 43v308q-15-9-29.516-15.48Q795.968-493.96 780-499v-281h-60v90H240v-90h-60v600h280q5 15 12 29.5t17 30.5H180Zm300-660q17 0 28.5-11.5T520-820q0-17-11.5-28.5T480-860q-17 0-28.5 11.5T440-820q0 17 11.5 28.5T480-780Z"/></svg>