<svg xmlns="http://www.w3.org/2000/svg" width="48" height="48" viewBox="0 -960 960 960"><path d="M440.5-500Q378-500 334-544.062 290-588.125 290-650q0-63 44.062-106.5Q378.125-800 440-800q63 0 106.5 43.5t43.5 106q0 62.5-43.5 106.5t-106 44Zm-.5-60q38 0 64-26.438 26-26.437 26-63.562 0-38-26-64t-63.5-26q-37.5 0-64 26T350-650.5q0 37.5 26.438 64Q402.875-560 440-560ZM898-20 758-160q-23 17-47.5 23.5t-50.065 6.5q-71.015 0-120.725-49.618Q490-229.235 490-300.118 490-371 539.618-420.5q49.617-49.5 120.5-49.5Q731-470 780.5-420.29T830-299.565q0 25.565-6.5 50.065Q817-225 800-202L940-62l-42 42ZM660-190q47 0 78.5-31.5T770-300q0-47-31.5-78.5T660-410q-47 0-78.5 31.5T550-300q0 47 31.5 78.5T660-190Zm-540 30v-94q0-37 17.5-63t50.5-43q47-23 122.5-43.5T464-419q-8 13-15 28.5T438-360q-78-1-136 18.5T212-306q-14 8-23 21.5t-9 30.5v34h258q11 17 20 31.5t20 28.5H120Zm320-490Zm-2 430Z"/></svg>