<svg xmlns="http://www.w3.org/2000/svg" width="48" height="48" viewBox="0 -960 960 960"><path d="M850-28 28-864l42-42L893-70l-43 42ZM200-732l60 61v481h433l66 67v23q1 25-16.919 42.5T699-40H260q-24.75 0-42.375-17.625T200-100v-632Zm60 602v30h440v-30H260Zm0-668v-32h440v-30H260v62l-60-60v-2q0-25 17.5-42.5T260-920h440q24.75 0 42.375 18T760-860v146h-60v-56H288l-28-28Zm0 668v30-30Zm487-227-42-42q17-17 26-38.267 9-21.266 9-44.733 0-23-8.5-45T706-566l41-42q25 25 39 57.378t14 67.5Q800-448 786-415t-39 58Zm84 84-41-42q33.385-33.234 51.692-76.117Q860-434 860-481.5q0-47.5-19.5-90.5T783-644l46-46q43.966 41.171 67.483 95.086Q920-541 920-481t-23 113.553Q874-313.895 831-273ZM700-860v30-30Z"/></svg>