<svg xmlns="http://www.w3.org/2000/svg" width="48" height="48" viewBox="0 -960 960 960"><path d="M630-567q-12.75 0-21.375-8.625T600-597v-143q0-12.75 8.625-21.375T630-770l13 8 2-47.333q0-32.45 22-55.559Q689-888 721-888t54 23.108q22 23.109 22 55.559L795-762l17-8q12.75 0 21.375 8.625T842-740v143q0 12.75-8.625 21.375T812-567H630Zm47-195h85l2-47q0-19.125-12.5-32.062Q739-854 722-854t-30 12.938Q679-828.125 679-809l-2 47Zm118 642q-116 0-236.5-56T335-335Q232-438 176-558.5T120-795q0-19.286 12.857-32.143T165-840h140q14 0 24 10t14 25l26.929 125.641Q372-665 369.5-653.5q-2.5 11.5-10.729 19.726L259-533q26 44 55 82t64 72q37 38 78 69.5t86 55.5l95-98q10-11 23.151-15T686-369l119 26q15 4 25 16.044T840-300v135q0 19.286-12.857 32.143T795-120Z"/></svg>