<svg xmlns="http://www.w3.org/2000/svg" width="48" height="48" viewBox="0 -960 960 960"><path d="M320-286h320v-19q0-42-42.5-65T480-393q-75 0-117.5 23T320-305v19Zm159.92-174q30.08 0 51.58-21.42 21.5-21.421 21.5-51.5 0-30.08-21.42-51.58-21.421-21.5-51.5-21.5-30.08 0-51.58 21.42-21.5 21.421-21.5 51.5 0 30.08 21.42 51.58 21.421 21.5 51.5 21.5ZM140-120q-24 0-42-18t-18-42v-513q0-23 18-41.5t42-18.5h147l73-87h240l73 87h147q23 0 41.5 18.5T880-693v513q0 24-18.5 42T820-120H140Zm680-60v-513H645l-73-87H388l-73 87H140v513h680ZM480-480Z"/></svg>