<svg xmlns="http://www.w3.org/2000/svg" width="48" height="48" viewBox="0 -960 960 960"><path d="M480-298q103.95-83.86 156.975-161.43Q690-537 690-604q0-59-21.5-100t-53.009-66.88q-31.51-25.881-68.271-37.5Q510.459-820 480-820q-30.459 0-67.22 11.62-36.761 11.619-68.271 37.5Q313-745 291.5-704T270-604q0 67 53.025 144.57T480-298Zm0 76Q343-325 276.5-419.199q-66.5-94.2-66.5-184.554Q210-672 234.5-723.5T298-810q39-35 86.98-52.5 47.98-17.5 95-17.5T575-862.5q48 17.5 87 52.5t63.5 86.533Q750-671.934 750-603.544 750-513 683.5-419 617-325 480-222Zm.089-318Q509-540 529.5-560.589q20.5-20.588 20.5-49.5Q550-639 529.411-659.5q-20.588-20.5-49.5-20.5Q451-680 430.5-659.411q-20.5 20.588-20.5 49.5Q410-581 430.589-560.5q20.588 20.5 49.5 20.5ZM210-80v-60h540v60H210Zm270-524Z"/></svg>