<svg xmlns="http://www.w3.org/2000/svg" width="48" height="48" viewBox="0 -960 960 960"><path d="m54-476-28-28 130-131H55v-40h170v170h-40v-101L54-476Zm230-258v-170h40v101l131-131 29 29-131 131h101v40H284ZM590-40q-21.882 0-41.941-8T512-72L304-280l15-22q11-16 28.5-22.5T384-326l96 26v-340q0-12.75 8.675-21.375 8.676-8.625 21.5-8.625 12.825 0 21.325 8.625T540-640v290h67v-150q0-12.75 8.675-21.375 8.676-8.625 21.5-8.625 12.825 0 21.325 8.625T667-500v150h66v-110q0-12.75 8.675-21.375 8.676-8.625 21.5-8.625 12.825 0 21.325 8.625T793-460v110h67v-30q0-12.75 8.675-21.375 8.676-8.625 21.5-8.625 12.825 0 21.325 8.625T920-380v180q0 66-47 113T760-40H590Z"/></svg>