<svg xmlns="http://www.w3.org/2000/svg" width="48" height="48" viewBox="0 -960 960 960"><path d="M270-820v278l96-59 96 59v-278H270ZM727.774-40Q648-40 592-96.226t-56-136Q536-312 592-368t137-56q79.265 0 135.133 56.226Q920-311.548 920-231.774T863.774-96q-56.226 56-136 56ZM679-140l143-92-143-92v184Zm-203-92.268Q476-190 486.27-150.5T522-79H180q-24.75 0-42.375-17.625T120-139v-681q0-24.75 17.625-42.375T180-880h520q24.75 0 42.375 17.625T760-820v339q-7.75-1-15.5-1.5T729-483q-104.814 0-178.907 73.055Q476-336.89 476-232.268Z"/></svg>