<svg xmlns="http://www.w3.org/2000/svg" width="48" height="48" viewBox="0 -960 960 960"><path d="M260-630q-24.75 0-42.375-17.625T200-690v-130q0-24.75 17.625-42.375T260-880h440q24.75 0 42.375 17.625T760-820v130q0 24.75-17.625 42.375T700-630H260Zm0-60h440v-130H260v130ZM140-80q-24.75 0-42.375-17.625T80-140v-70h800v70q0 24.75-17.625 42.375T820-80H140ZM80-240l145-324q8-16 22.603-26 14.603-10 31.397-10h402q16.794 0 31.397 10Q727-580 735-564l145 324H80Zm260-80h40q8 0 14-6t6-14q0-8-6-14t-14-6h-40q-8 0-14 6t-6 14q0 8 6 14t14 6Zm0-80h40q8 0 14-6t6-14q0-8-6-14t-14-6h-40q-8 0-14 6t-6 14q0 8 6 14t14 6Zm0-80h40q8 0 14-6t6-14q0-8-6-14t-14-6h-40q-8 0-14 6t-6 14q0 8 6 14t14 6Zm120 160h40q8 0 14-6t6-14q0-8-6-14t-14-6h-40q-8 0-14 6t-6 14q0 8 6 14t14 6Zm0-80h40q8 0 14-6t6-14q0-8-6-14t-14-6h-40q-8 0-14 6t-6 14q0 8 6 14t14 6Zm0-80h40q8 0 14-6t6-14q0-8-6-14t-14-6h-40q-8 0-14 6t-6 14q0 8 6 14t14 6Zm120 160h40q8 0 14-6t6-14q0-8-6-14t-14-6h-40q-8 0-14 6t-6 14q0 8 6 14t14 6Zm0-80h40q8 0 14-6t6-14q0-8-6-14t-14-6h-40q-8 0-14 6t-6 14q0 8 6 14t14 6Zm0-80h40q8 0 14-6t6-14q0-8-6-14t-14-6h-40q-8 0-14 6t-6 14q0 8 6 14t14 6Z"/></svg>