<svg xmlns="http://www.w3.org/2000/svg" width="48" height="48" viewBox="0 -960 960 960"><path d="M480-81q-140-35-230-162.5T160-523v-238l320-120 320 120v238q0 152-90 279.5T480-81Zm0-399Zm0 86q37 0 63-25.5t26-62.5q0-38-26-64t-63-26q-37 0-63 26t-26 64q0 37 26 62.5t63 25.5Zm0 251q52-17 95.5-49.5T653-269l-90-90q-19 11-40 18t-43 7q-62 0-105.5-43T331-482q0-63 43.5-106.5T480-632q62 0 105.5 43.5T629-482q0 21-6 42t-19 38l83 83q26-45 39.5-97T740-523v-196l-260-98-260 98v196q0 131 72.5 236.5T480-143Z"/></svg>