<svg xmlns="http://www.w3.org/2000/svg" width="48" height="48" viewBox="0 -960 960 960"><path d="M289.788-80Q260-80 239-101.212q-21-21.213-21-51Q218-182 239.212-203q21.213-21 51-21Q320-224 341-202.788q21 21.213 21 51Q362-122 340.788-101q-21.213 21-51 21Zm404 0Q664-80 643-101.212q-21-21.213-21-51Q622-182 643.212-203q21.213-21 51-21Q724-224 745-202.788q21 21.213 21 51Q766-122 744.788-101q-21.213 21-51 21ZM480-584q-14.45 0-24.225-9.775Q446-603.55 446-618q0-14.45 9.775-24.225Q465.55-652 480-652q14.45 0 24.225 9.775Q514-632.45 514-618q0 14.45-9.775 24.225Q494.45-584 480-584Zm-30-136v-200h60v200h-60ZM290-287q-42 0-61.5-34t.5-69l61-111-150-319H62v-60h116l170 364h292l156-280 52 28-153 277q-9.362 16.667-24.681 25.833Q655-456 634-456H334l-62 109h494v60H290Z"/></svg>