<svg xmlns="http://www.w3.org/2000/svg" width="48" height="48" viewBox="0 -960 960 960"><path d="M190-120q-46 0-78-32t-32-78v-185l108-279q12-31 40.071-48.5 28.072-17.5 60.822-17.5Q331-760 360.5-730.428T390-659v39h-60v-39q0-17.194-12.825-29.097Q304.35-700 287.25-700 273-700 261-693.5T244-674L140-405v175q0 21.25 14.375 35.625T190-180h140q21.25 0 35.625-14.375T380-230v-70h60v70q0 46-32.083 78-32.084 32-77.917 32H190Zm580 0H630q-45.833 0-77.917-32Q520-184 520-230v-70h60v70q0 21.25 14.375 35.625T630-180h140q21.25 0 35.625-14.375T820-230v-175L716-674q-5-13-17-19.5t-26-6.5q-17 0-30 11.903T630-659v39h-60v-39q0-41.856 29.517-71.428Q629.035-760 671.203-760 704-760 732-742.5t40 48.5l108 279v185q0 46-32.083 78-32.084 32-77.917 32ZM334-456Zm292 0Zm-146-62L376-414l-42-42 116-116v-308h60v308l116 116-42 42-104-104Z"/></svg>