<svg xmlns="http://www.w3.org/2000/svg" width="48" height="48" viewBox="0 -960 960 960"><path d="M180-80q-23 0-41.5-18.5T120-140v-520q0-23 18.5-41.5T180-720h70v-200h460v200h70q23 0 41.5 18.5T840-660v520q0 23-18.5 41.5T780-80H180Zm130-640h340v-140H310v140ZM180-140h600v-520H180v520Zm299.947-65Q399-205 342-262.053t-57-138Q285-481 342.053-538t138-57Q561-595 618-537.947t57 138Q675-319 617.947-262t-138 57Zm.002-50Q540-255 582.5-297.449q42.5-42.45 42.5-102.5Q625-460 582.551-502.5q-42.45-42.5-102.5-42.5Q420-545 377.5-502.551q-42.5 42.45-42.5 102.5Q335-340 377.449-297.5q42.45 42.5 102.5 42.5ZM526-326l-66-66v-108h40v92l54 54-28 28Zm-46-74Z"/></svg>