<svg xmlns="http://www.w3.org/2000/svg" width="48" height="48" viewBox="0 -960 960 960"><path d="M180-820v293-3 390-680 186-186Zm99 400h185q11-17 24-32t29-28H279v60Zm0 170h156q-3-15-4.5-30t-.5-30H279v60ZM180-80q-24 0-42-18t-18-42v-680q0-24 18-42t42-18h361l219 219v154q-14-7-29-12t-31-8v-107H511v-186H180v680h315q20 21 44.5 36T593-80H180Zm480-110q47 0 78.5-31.5T770-300q0-47-31.5-78.5T660-410q-47 0-78.5 31.5T550-300q0 47 31.5 78.5T660-190ZM864-54 756.837-161Q736-147 711.5-138.5 687-130 660-130q-70.833 0-120.417-49.618Q490-229.235 490-300.118 490-371 539.618-420.5q49.617-49.5 120.5-49.5Q731-470 780.5-420.417 830-370.833 830-300q0 27-8.5 51.5T799-203.163L906-96l-42 42Z"/></svg>