<svg xmlns="http://www.w3.org/2000/svg" width="48" height="48" viewBox="0 -960 960 960"><path d="M400.059-275Q423-275 439-291.059q16-16.059 16-39T438.941-369q-16.059-16-39-16T361-368.941q-16 16.059-16 39T361.059-291q16.059 16 39 16ZM160-80v-40l60-40q-59 0-99.5-40.5T80-300v-380q0-85 78.5-122.5T400-840q17 0 49 1t50 3q-10 18-13.5 28.5T477-778q-11 0-37.5-1t-37.5-1q-95 0-161.5 13T151-720h319q0 17 1.5 30.5T476-660H140v155h448q14 10 30.5 17t41.5 13v30H140v145q0 35 23 60.5t57 25.5h360q34 0 57-25.5t23-60.5v-175q12 3 28.258 5T720-468v168q0 59-40.5 99.5T580-160l60 40v40H160Zm560-440q-83 0-141.5-58.5T520-720q0-83 58.5-141.5T720-920q83 0 141.5 58.5T920-720q0 83-58.5 141.5T720-520Zm-140 75H140h520-80ZM151-720h319-319Zm563 23h34v-149h-34v149Zm17 89q9.6 0 16.8-7.2 7.2-7.2 7.2-16.8 0-9.6-7.2-16.8-7.2-7.2-16.8-7.2-9.6 0-16.8 7.2-7.2 7.2-7.2 16.8 0 9.6 7.2 16.8 7.2 7.2 16.8 7.2Z"/></svg>