<svg xmlns="http://www.w3.org/2000/svg" width="48" height="48" viewBox="0 -960 960 960"><path d="M720-520q-83 0-141.5-58.5T520-720q0-83 58.5-141.5T720-920q83 0 141.5 58.5T920-720q0 83-58.5 141.5T720-520Zm-6-177h34v-149h-34v149Zm17 89q9.6 0 16.8-7.2 7.2-7.2 7.2-16.8 0-9.6-7.2-16.8-7.2-7.2-16.8-7.2-9.6 0-16.8 7.2-7.2 7.2-7.2 16.8 0 9.6 7.2 16.8 7.2 7.2 16.8 7.2ZM400.059-275Q423-275 439-291.059q16-16.059 16-39T438.941-369q-16.059-16-39-16T361-368.941q-16 16.059-16 39T361.059-291q16.059 16 39 16ZM160-80v-40l60-40q-59 0-99.5-40.5T80-300v-380q0-85 78.5-122.5T400-840q17 0 49 1t50 3q-14 26-21.5 56t-7.5 60q0 17 1.5 30.5T476-660H140v155h448q26 19 63 28t69 9v168q0 59-40.5 99.5T580-160l60 40v40H160Z"/></svg>