<svg xmlns="http://www.w3.org/2000/svg" width="48" height="48" viewBox="0 -960 960 960"><path d="m430-605-42-42 83-83H316q-8 32-31 55t-55 31v328q39 10 64.5 42t25.5 74q0 50-35 85t-85 35q-50 0-85-35t-35-85q0-42 25.5-74t64.5-42v-328q-39-10-64.5-42T80-760q0-50 35-85t85-35q42 0 74 25.5t42 64.5h155l-83-83 42-42 156 155-156 155Zm330-275q50 0 85 35t35 85q0 50-35 85t-85 35q-50 0-85-35t-35-85q0-50 35-85t85-35ZM630-481l171 168L570-80H400v-170l230-231Zm200 139L659-510l43-42q17-17 42.5-17t42.5 18l84 85q17 18 17 42.5T870-382l-40 40Z"/></svg>