<svg xmlns="http://www.w3.org/2000/svg" width="48" height="48" viewBox="0 -960 960 960"><path d="m430-605-42-42 83-83H316q-8 32-31 55t-55 31v328q39 10 64.5 42t25.5 74q0 50-35 85t-85 35q-50 0-85-35t-35-85q0-42 25.5-74t64.5-42v-328q-39-10-64.5-42T80-760q0-50 35-85t85-35q42 0 74 25.5t42 64.5h155l-83-83 42-42 156 155-156 155Zm330-275q50 0 85 35t35 85q0 50-35 85t-85 35q-50 0-85-35t-35-85q0-50 35-85t85-35ZM200-140q25.5 0 42.75-17.25T260-200q0-25.5-17.25-42.75T200-260q-25.5 0-42.75 17.25T140-200q0 25.5 17.25 42.75T200-140Zm0-560q25.5 0 42.75-17.25T260-760q0-25.5-17.25-42.75T200-820q-25.5 0-42.75 17.25T140-760q0 25.5 17.25 42.75T200-700Zm560 0q25.5 0 42.75-17.25T820-760q0-25.5-17.25-42.75T760-820q-25.5 0-42.75 17.25T700-760q0 25.5 17.25 42.75T760-700ZM200-200Zm0-560Zm560 0ZM629-479l43 42-212 211v86h85l213-213 42 42L570-80H400v-170l229-229Zm171 168L629-479l65-65q17-17 42.311-17T779-543l84 85q17 18 17 42.472T862-374l-62 63Z"/></svg>