<svg xmlns="http://www.w3.org/2000/svg" width="48" height="48" viewBox="0 -960 960 960"><path d="m597-246 63-62v-52 52l-63 62Zm184 0-61-62v-52 52l61 62ZM480-480ZM80-570v-170q0-24 18-42t42-18h680q24 0 42 18t18 42v260h-60v-260H140v170H80Zm60 410q-24 0-42-18t-18-42v-170h60v170h260v60H140Zm140-130q-9 0-16-4t-12-12l-71-144H80v-60h120q7.806 0 14.903 4.5T226-493l54 106 133-266q4-8 11.381-11.5t15.5-3.5q8.119 0 15.619 3.5T467-653l87 176q-15.931 1.875-29.966 8.438Q510-462 497-452l-57-120-134 266q-3.611 8-10.833 12-7.223 4-15.167 4ZM510-40q-20.833 0-35.417-14.583Q460-69.167 460-90v-144.958L512-374q7.8-20.346 25.567-33.173Q555.333-420 577-420h83v-80h60v80h82q21.667 0 39.433 12.827Q859.2-394.346 867-374l53 139.042V-90q0 20.833-15 35.417Q890-40 870-40h-80q-20.833 0-35.417-14.583Q740-69.167 740-90v-50h60v40h60v-124l-51-136h-89v52l61 62-42 42-49-49-50 49-43-42 63-62v-52h-90l-50 136v124h60v-40h60v50.118Q640-69 625-54.5 610-40 590-40h-80Zm180-190Z"/></svg>