<svg xmlns="http://www.w3.org/2000/svg" width="48" height="48" viewBox="0 -960 960 960"><path d="M160-330v-590h320v125H376q-6 0-10.5 4.5T361-780q0 6 4.5 10.5T376-765h104v27q0 5.75.5 11.5T482-715H376q-6 0-10.5 4.5T361-700q0 6 4.5 10.5T376-685h116q13 25 35.123 41.8Q549.246-626.4 576-618l115 32q49 14 79 54.054T800-441v111H160Zm29.882 290Q144-40 112-72.118q-32-32.117-32-78Q80-196 112.118-228q32.117-32 78-32Q236-260 268-227.882q32 32.117 32 78Q300-104 267.882-72q-32.117 32-78 32Zm580 0Q724-40 692-72.118q-32-32.117-32-78Q660-196 692.118-228q32.117-32 78-32Q816-260 848-227.882q32 32.117 32 78Q880-104 847.882-72q-32.117 32-78 32Zm-290 0Q434-40 402-72.118q-32-32.117-32-78Q370-196 402.118-228q32.117-32 78-32Q526-260 558-227.882q32 32.117 32 78Q590-104 557.882-72q-32.117 32-78 32Z"/></svg>