<svg xmlns="http://www.w3.org/2000/svg" width="48" height="48" viewBox="0 -960 960 960"><path d="M173-120q-24 0-42-18t-18-42v-207q0-24 18-42t42-18h462v-177h60v177h104q24 0 42 18t18 42v207q0 24-18 42t-42 18H173Zm626-60v-207H173v207h626ZM311-283.105Q311-301 298.895-313q-12.106-12-30-12Q251-325 239-312.895q-12 12.106-12 30Q227-265 239.105-253q12.106 12 30 12Q287-241 299-253.105q12-12.106 12-30Zm148 0Q459-301 446.895-313q-12.106-12-30-12Q399-325 387-312.895q-12 12.106-12 30Q375-265 387.105-253q12.106 12 30 12Q435-241 447-253.105q12-12.106 12-30ZM565.105-241Q583-241 595-253.105q12-12.106 12-30Q607-301 594.895-313q-12.106-12-30-12Q547-325 535-312.895q-12 12.106-12 30Q523-265 535.105-253q12.106 12 30 12ZM585-667l-41-41q24-24 54.431-38 30.432-14 66.569-14t66.569 14Q762-732 786-708l-41 41q-14-14-35-23.5t-44.5-9.5q-23.5 0-45 9.5T585-667Zm-85-85-44-44q33-33 88-58.5T665-880q66 0 121 25.5t88 58.5l-44 44q-26-29-68.5-48.5T665-820q-54 0-96.5 19.5T500-752ZM173-180v-207 207Z"/></svg>