<svg xmlns="http://www.w3.org/2000/svg" width="48" height="48" viewBox="0 -960 960 960"><path d="m784-101-43-43 63-63H470q-10 39-42.5 62.5T356-121q-39 0-71.5-23.5T242-207h-42q-53 0-86.5-33.5T80-327v-236h241v-137H80v-60h520q24 0 42 18t18 42v433h144l-63-63 43-43 136 136-136 136ZM381-563h219v-136H381v136Zm-24.754 382Q381-181 397.5-197.746q16.5-16.745 16.5-41.5Q414-264 397.254-280.5q-16.745-16.5-41.5-16.5Q331-297 314.5-280.254q-16.5 16.745-16.5 41.5Q298-214 314.746-197.5q16.745 16.5 41.5 16.5Z"/></svg>