<svg xmlns="http://www.w3.org/2000/svg" width="48" height="48" viewBox="0 -960 960 960"><path d="M680-650q-20 0-35-15t-15-35.238Q630-714 643.5-737.5T680-785q23 24 36.5 47.397T730-700q0 20-14.583 35-14.584 15-35.417 15Zm110 280q-37 0-63.5-26.5T700-460.091Q700-491 727.5-537.5 755-584 790-625q34 41 62 87.275 28 46.276 28 77.725 0 37-26.1 63.5T790-370ZM360-250h60v-80h80v-60h-80v-80h-60v80h-80v60h80v80ZM220-80q-24 0-42-18t-18-42v-350q0-86 57-150.192Q274-704.384 360-718v-102h-90v-60h240q29.298 0 55.149 8Q591-864 614-849l-44 45q-14-8-28.5-12t-31.5-4h-90v102q86 13.616 143 77.808Q620-576 620-490v350q0 24-18 42t-42 18H220Zm0-60h340v-350q0-71-49.5-120.5t-120-49.5Q320-660 270-610.5T220-490v350Zm0 0h340-340Z"/></svg>