<svg xmlns="http://www.w3.org/2000/svg" width="48" height="48" viewBox="0 -960 960 960"><path d="M560-32v-60q125 0 212.5-87.321Q860-266.643 860-392h60q0 75-28.5 140.5t-77 114q-48.5 48.5-114 77T560-32Zm0-120v-60q69 0 124.5-55.5T740-392h60q0 95-72.5 167.5T560-152ZM222-49q-11.667 0-23.333-4.5Q187-58 179-66L9-236q-8-8-12.5-19.557Q-8-267.115-8-278.672-8-291-3.565-301.875T9-321l151-151q17-17 42.5-17t42.5 17l64 64 37-37-64-64q-17-17.315-17-42.157Q265-576 282-593l75-75q17.378-17 42.689-17T442-668l64 64 37-37-64-64q-17-17.378-17-42.689T479-790l151-151q8.857-9 19.929-13.5Q661-959 673-959q12 0 23 4t20 13l170 170q8.87 8.521 12.935 19.754Q903-741.014 903-728.62q0 11.62-5 23.12-5 11.5-13 19.5L734-535q-23 23-42.5 23T649-535l-64-64-37 37 64 64q17 17.378 16.5 42.689T611-413l-74 74q-17.378 17-42.689 17T452-339l-64-64-37 37 64 64q17 17 17 42.5T415-217L264-66q-8.25 8.13-19.125 12.565Q234-49 222-49Zm0-59 54-54-170-170-54 54 170 170Zm97-97 54-54-170-170-54 54 170 170Zm373-373 54-54-170-170-54 54 170 170Zm97-97 54-54-170-170-54 54 170 170Z"/></svg>