<svg xmlns="http://www.w3.org/2000/svg" width="48" height="48" viewBox="0 -960 960 960"><path d="M180-120q-24.75 0-42.375-17.625T120-180v-600q0-24.75 17.625-42.375T180-840h503l157 157v258l-60 60v-291L656-780H180v600h416l-60 60H180Zm299.765-125Q523-245 553.5-275.265q30.5-30.264 30.5-73.5Q584-392 553.735-422.5q-30.264-30.5-73.5-30.5Q437-453 406.5-422.735q-30.5 30.264-30.5 73.5Q376-306 406.265-275.5q30.264 30.5 73.5 30.5ZM233-584h358v-143H233v143ZM590-40v-50l228-228 50 50L640-40h-50Zm304-254-50-50 39-39q6-6 10.5-6t10.5 6l27 27q6 6 6 12.5t-6 12.5l-37 37ZM180-180v-600 600Z"/></svg>