<svg xmlns="http://www.w3.org/2000/svg" width="48" height="48" viewBox="0 -960 960 960"><path d="m733-490 43-43 53 53q19 19 19 46t-19 46L663-223q-20 20-46 20t-46-20L246-548q-20-20-20-46t20-46l166-165q20-20 46-20t46 20l48 48-42 43-52-52-172 172 331 332 172-172-56-56ZM533.096-31q-98.674 0-185.885-37.5Q260-106 195-171.5 130-237 92.5-324.181 55-411.361 55-510h60q0 80 29 151.5T223-232q50 55 118.5 90.5T488-98L358-228l43-43L629-43q-22.899 6-44.949 9-22.051 3-50.955 3ZM662-600q-15 0-27.5-12.5T622-640v-120q0-15 12.5-27.5T662-800h1v-42q0-33 22.5-55.5T741-920q33 0 55.5 22.5T819-842v42h2q15 0 27.5 12.5T861-760v120q0 15-12.5 27.5T821-600H662Zm39-200h80v-42.105Q781-860 770-871t-29-11q-18 0-29 11t-11 28.895V-800ZM540-514Z"/></svg>