<svg xmlns="http://www.w3.org/2000/svg" width="48" height="48" viewBox="0 -960 960 960"><path d="M140-160q-24 0-42-18t-18-42v-520q0-24 18-42t42-18h680q24 0 42 18t18 42v520q0 24-18 42t-42 18H140Zm0-60h680v-520H140v520Zm133-137h127q14 0 27-9.487 13-9.488 13-23.513v-73q0-14.025-13-23.513Q414-496 400-496H290v-57h100v17h50v-32.982Q440-583 427-593t-27-10H273q-14.025 0-23.512 9.775Q240-583.45 240-569v73q0 14.025 9.488 23.513Q258.975-463 273-463h117v56H290v-16h-50v32.982q0 14.018 9.488 23.518Q258.975-357 273-357Zm247 0h150q20 0 35-15t15-35v-146q0-20-15-35t-35-15H520v246Zm50-50v-146h100v146H570ZM140-220v-520 520Z"/></svg>