<svg xmlns="http://www.w3.org/2000/svg" width="48" height="48" viewBox="0 -960 960 960"><path d="M180-120q-24 0-42-18t-18-42h60v60Zm-60-120v-125h60v125h-60Zm0-185v-111h60v111h-60Zm0-171v-124h60v124h-60Zm0-184q0-24 18-42t42-18v60h-60Zm120 660v-60h125v60H240Zm0-660v-60h125v60H240Zm185 660v-60h111v60H425Zm0-660v-60h111v60H425Zm171 660v-60h124v60H596Zm0-660v-60h124v60H596Zm184 660v-60h60q0 24-18 42t-42 18Zm0-120v-125h60v125h-60Zm0-185v-111h60v111h-60Zm0-171v-124h60v124h-60Zm0-184v-60q24 0 42 18t18 42h-60Z"/></svg>