<svg xmlns="http://www.w3.org/2000/svg" width="48" height="48" viewBox="0 -960 960 960"><path d="m298-456 143-104-143-104-36 48 77 56-77 56 36 48Zm364 0 36-48-77-56 77-56-36-48-143 104 143 104ZM420-278l60-60 60 60 60-60 39 39 42-42-81-81-60 60-60-60-60 60-60-60-81 81 42 42 39-39 60 60Zm60 198q-83 0-156-31.5T197-197q-54-54-85.5-127T80-480q0-83 31.5-156T197-763q54-54 127-85.5T480-880q83 0 156 31.5T763-763q54 54 85.5 127T880-480q0 83-31.5 156T763-197q-54 54-127 85.5T480-80Zm0-400Zm0 340q142.375 0 241.188-98.812Q820-337.625 820-480t-98.812-241.188Q622.375-820 480-820t-241.188 98.812Q140-622.375 140-480t98.812 241.188Q337.625-140 480-140Z"/></svg>