<svg xmlns="http://www.w3.org/2000/svg" width="48" height="48" viewBox="0 -960 960 960"><path d="M100-360q-24.75 0-42.375-17.625T40-420v-400q0-24.75 17.625-42.375T100-880h760q24.75 0 42.375 17.625T920-820v400q0 24.75-17.625 42.375T860-360H100Zm23 140-3-60 719-38 3 60-719 38Zm-3 99v-60h720v60H120Zm300-389q70.844 0 136.422-24.5T672-610q5 37 37 57.5t71 22.5v-180q-40 3-72.5 23T671-629q-50.775-48.63-115.441-74.815Q490.893-730 420-730q-74.787 0-143.893 25.5Q207-679 162-620q45 59 114.107 84.5Q345.213-510 420-510Z"/></svg>