<svg xmlns="http://www.w3.org/2000/svg" width="48" height="48" viewBox="0 -960 960 960"><path d="M450-504v-376h60v376h-60Zm29.5 269Q351-235 261-324.803T171-544q0-76 35.5-141.5T306-799l43 43q-54 38-86 92.5t-32 119.432Q231-441 304-368q73 73 176 73t176-73q73-73 73-176.068Q729-609 698-667t-85-89l43-43q65 44 99 111.5t34 143.533Q789-415 698.5-325t-219 90ZM310 2q-17.425 0-29.212-11.787Q269-21.575 269-39t11.788-29.213Q292.575-80 310-80q17.425 0 29.212 11.787Q351-56.425 351-39T339.212-9.788Q327.425 2 310 2Zm170 0q-17.425 0-29.212-11.787Q439-21.575 439-39t11.788-29.213Q462.575-80 480-80q17.425 0 29.212 11.787Q521-56.425 521-39T509.212-9.788Q497.425 2 480 2Zm170 0q-17.425 0-29.213-11.787Q609-21.575 609-39t11.787-29.213Q632.575-80 650-80t29.213 11.787Q691-56.425 691-39T679.213-9.788Q667.425 2 650 2Z"/></svg>