<svg xmlns="http://www.w3.org/2000/svg" width="48" height="48" viewBox="0 -960 960 960"><path d="M457-525q-17 0-28.5-11.5T417-565q0-17 11.5-28.5T457-605q17 0 28.5 11.5T497-565q0 17-11.5 28.5T457-525Zm175 0q-16.575 0-28.787-11.5Q591-548 591-565t12.213-28.5Q615.425-605 632-605q17.425 0 30.213 11.5Q675-582 675-565t-12.787 28.5Q649.425-525 632-525Zm177 0q-17.425 0-30.213-11.5Q766-548 766-565t12.787-28.5Q791.575-605 809-605q16.575 0 28.787 11.5Q850-582 850-565t-12.213 28.5Q825.575-525 809-525Zm-14 405q-116 0-236.5-56T335-335Q232-438 176-558.5T120-795q0-19.286 12.857-32.143T165-840h140q14 0 24 10t14 25l26.929 125.641Q372-665 369.5-653.5q-2.5 11.5-10.729 19.726L259-533q26 44 55 82t64 72q37 38 78 69.5t86 55.5l95-98q10-11 23.151-15T686-369l119 26q15 4 25 16.044T840-300v135q0 19.286-12.857 32.143T795-120ZM229-588l81-82-23-110H180q0 39 12 85.5T229-588Zm369 363q41 19 89 31t93 14v-107l-103-21-79 83ZM229-588q-25-60-37-106.5T180-780h107l23 110-81 82Zm369 363 79-83 103 21v107q-45-2-93-14t-89-31Z"/></svg>