<svg xmlns="http://www.w3.org/2000/svg" width="48" height="48" viewBox="0 -960 960 960"><path d="M450-504v-376h60v376h-60Zm29.5 269Q351-235 261-324.803T171-544q0-76 35.5-141.5T306-799l43 43q-54 38-86 92.5t-32 119.432Q231-441 304-368q73 73 176 73t176-73q73-73 73-176.068Q729-609 698-667t-85-89l43-43q65 44 99 111.5t34 143.533Q789-415 698.5-325t-219 90ZM309 2q-17 0-28.5-12.787Q269-23.575 269-41t11.5-28.213Q292-80 309-80q17.85 0 29.925 10.787Q351-58.425 351-41t-12.075 30.212Q326.85 2 309 2Zm172 0q-17.85 0-29.925-12.075T439-40q0-17 12.075-28.5T481-80q17 0 28.5 11.5T521-40q0 17.85-11.5 29.925T481 2Zm170 0q-17.85 0-29.925-12.075T609-40q0-17 12.075-28.5T651-80q17 0 28.5 11.5T691-40q0 17.85-11.5 29.925T651 2Z"/></svg>