<svg xmlns="http://www.w3.org/2000/svg" width="48" height="48" viewBox="0 -960 960 960"><path d="M313.825 0Q301 0 292.5-8.675q-8.5-8.676-8.5-21.5Q284-43 292.675-51.5q8.676-8.5 21.5-8.5Q327-60 335.5-51.325q8.5 8.676 8.5 21.5Q344-17 335.325-8.5q-8.676 8.5-21.5 8.5ZM480 0q-12.325 0-20.663-9Q451-18 451-30t8.474-21q8.473-9 21-9Q493-60 502-51.325q9 8.676 9 21.5Q511-17 502.087-8.5 493.175 0 480 0Zm166.825 0Q634 0 625.5-8.675q-8.5-8.676-8.5-21.5Q617-43 625.675-51.5q8.676-8.5 21.5-8.5Q660-60 668.5-51.325q8.5 8.676 8.5 21.5Q677-17 668.325-8.5q-8.676 8.5-21.5 8.5ZM480-423q-43 0-72-30.917-29-30.916-29-75.083v-251q0-41.667 29.441-70.833Q437.882-880 479.941-880t71.559 29.167Q581-821.667 581-780v251q0 44.167-29 75.083Q523-423 480-423Zm0-228Zm-30 531v-136q-106-11-178-89t-72-184h60q0 91 64.288 153t155.5 62Q571-314 635.5-376 700-438 700-529h60q0 106-72 184t-178 89v136h-60Zm30-363q18 0 29.5-13.5T521-529v-251q0-17-11.788-28.5Q497.425-820 480-820q-17.425 0-29.212 11.5Q439-797 439-780v251q0 19 11.5 32.5T480-483Z"/></svg>