<svg xmlns="http://www.w3.org/2000/svg" width="48" height="48" viewBox="0 -960 960 960"><path d="M40-480q0-92 34.5-172T169-791.5q60-59.5 140-94T480-920q91 0 171 34.5t140 94Q851-732 885.5-652T920-480h-60q0-79.194-29.971-148.357t-81.5-120.903Q697-801 627.5-830.5 558-860 479.878-860q-78.122 0-147.271 29.455-69.148 29.454-120.878 81Q160-698 130-628.684 100-559.369 100-480H40Zm175 0q0-111 77.652-188 77.651-77 187.5-77Q590-745 667.5-668 745-591 745-480h-60q0-86-59.947-145.5t-145-59.5Q395-685 335-625.5T275-480h-60ZM360-64l-42-42 132-132v-156q-27-12-43.5-35.5T390-480q0-37.8 26.141-63.9t64-26.1Q518-570 544-543.9t26 63.9q0 27-16.5 50.5T510-394v156l132 132-42 42-120-120L360-64Z"/></svg>