<svg xmlns="http://www.w3.org/2000/svg" width="48" height="48" viewBox="0 -960 960 960"><path d="M305.825 0Q293 0 284.5-8.675q-8.5-8.676-8.5-21.5Q276-43 284.675-51.5q8.676-8.5 21.5-8.5Q319-60 327.5-51.325q8.5 8.676 8.5 21.5Q336-17 327.325-8.5q-8.676 8.5-21.5 8.5Zm174 0Q467 0 458.5-8.675q-8.5-8.676-8.5-21.5Q450-43 458.675-51.5q8.676-8.5 21.5-8.5Q493-60 501.5-51.325q8.5 8.676 8.5 21.5Q510-17 501.325-8.5q-8.676 8.5-21.5 8.5Zm170 0Q637 0 628.5-8.675q-8.5-8.676-8.5-21.5Q620-43 628.675-51.5q8.676-8.5 21.5-8.5Q663-60 671.5-51.325q8.5 8.676 8.5 21.5Q680-17 671.325-8.5q-8.676 8.5-21.5 8.5ZM451-174v-314L257-294l-42-42 224-224-224-224 42-42 194 194v-314h30l214 214-172 172 172 172-214 214h-30Zm60-116 100-98-100-100v198Zm0-342 100-100-100-98v198Z"/></svg>