<svg xmlns="http://www.w3.org/2000/svg" width="48" height="48" viewBox="0 -960 960 960"><path d="M123-40v-170q-34-13-58.5-42.5T40-317v-398h83v-175q0-14 8-22t22-8q14 0 22 8t8 22v175h83v398q0 35-24 64.5T183-210v170h-60Zm327 0v-170q-34-13-58.5-42.5T367-317v-398h83v-175q0-14 8-22t22-8q14 0 22 8t8 22v175h83v398q0 35-24 64.5T510-210v170h-60Zm327 0v-170q-34-13-58.5-42.5T694-317v-398h83v-175q0-14 8-22t22-8q14 0 22 8t8 22v175h83v398q0 35-24.5 64.5T837-210v170h-60ZM100-655v184h106v-184H100Zm327 0v184h106v-184H427Zm327 0v184h106v-184H754ZM153-267q22 0 37.5-15.5T206-320v-91H100v91q0 22 15.5 37.5T153-267Zm327 0q22 0 37.5-15.5T533-320v-91H427v91q0 22 15.5 37.5T480-267Zm327 0q22 0 37.5-15.5T860-320v-91H754v91q0 22 15.5 37.5T807-267ZM153-441Zm327 0Zm327 0Zm-707-30h106-106Zm327 0h106-106Zm327 0h106-106Zm-601 60h-53 106-53Zm327 0h-53 106-53Zm327 0h-53 106-53Z"/></svg>