<svg xmlns="http://www.w3.org/2000/svg" width="48" height="48" viewBox="0 -960 960 960"><path d="M727.035-712Q750-712 765.5-727.535q15.5-15.535 15.5-38.5T765.465-804.5q-15.535-15.5-38.5-15.5T688.5-804.465q-15.5 15.535-15.5 38.5t15.535 38.465q15.535 15.5 38.5 15.5Zm0 572Q750-140 765.5-155.535q15.5-15.535 15.5-38.5T765.465-232.5q-15.535-15.5-38.5-15.5T688.5-232.465q-15.5 15.535-15.5 38.5t15.535 38.465q15.535 15.5 38.5 15.5ZM727-766Zm0 572ZM230-40q-78 0-134-56T40-230q0-78 56-134t134-56q78 0 134 56t56 134q0 78-56 134T230-40ZM120-476q0-47 33.5-82.5T234-594q23 0 44 9t38 26l303-174q-3-7.071-4.5-15.911Q613-757.75 613-766q0-47.5 33.25-80.75T727-880q47.5 0 80.75 33.25T841-766q0 47.5-33.25 80.75T727-652q-23.354 0-44.677-7.5T646-684L343-516q3 11 4 21.5t0 21.5q-27-13-56-20t-61-7q-29.217 0-56.609 6.5Q146-487 120-476ZM727-80q-47.5 0-80.75-33.346Q613-146.693 613-194.331q0-6.669 1.5-16.312T619-228l-129-75q-7-24-18-45.5T447-390l199 113q15-14 35-22.5t46-8.5q47.5 0 80.75 33.25T841-194q0 47.5-33.25 80.75T727-80ZM230-205l68 68 23-23-69-69 71-71-23-23-70 70-70-70-23 23 70 70-70 70 24 24 69-69Z"/></svg>