<svg xmlns="http://www.w3.org/2000/svg" width="48" height="48" viewBox="0 -960 960 960"><path d="M727-80q-47.5 0-80.75-33.346Q613-146.693 613-194.331q0-6.669 1.5-16.312T619-228L316-404q-15 17-37 27.5T234-366q-47.5 0-80.75-33.25T120-480q0-47.5 33.25-80.75T234-594q23 0 44 9t38 26l303-174q-3-7.071-4.5-15.911Q613-757.75 613-766q0-47.5 33.25-80.75T727-880q47.5 0 80.75 33.25T841-766q0 47.5-33.25 80.75T727-652q-23.354 0-44.677-7.5T646-684L343-516q2 8 3.5 18.5t1.5 17.741q0 7.242-1.5 15Q345-457 343-449l303 172q15-14 35-22.5t46-8.5q47.5 0 80.75 33.25T841-194q0 47.5-33.25 80.75T727-80Z"/></svg>