<svg xmlns="http://www.w3.org/2000/svg" width="48" height="48" viewBox="0 -960 960 960"><path d="m480-574-42-42 74-74H330v-60h182l-74-74 42-42 146 146-146 146ZM289.788-80Q260-80 239-101.212q-21-21.213-21-51Q218-182 239.212-203q21.213-21 51-21Q320-224 341-202.788q21 21.213 21 51Q362-122 340.788-101q-21.213 21-51 21Zm404 0Q664-80 643-101.212q-21-21.213-21-51Q622-182 643.212-203q21.213-21 51-21Q724-224 745-202.788q21 21.213 21 51Q766-122 744.788-101q-21.213 21-51 21ZM62-820v-60h116l170 364h287.706L796-796h67L701-493q-11 19-28.559 30.5Q654.881-451 634-451H331l-56 104h491v60H284q-37.663 0-57.332-30Q207-347 224-378l64-118-148-324H62Z"/></svg>