<svg xmlns="http://www.w3.org/2000/svg" width="48" height="48" viewBox="0 -960 960 960"><path d="M220-80q-24 0-42-18t-18-42v-520q0-24 18-42t42-18h110v-10q0-63 43.5-106.5T480-880q63 0 106.5 43.5T630-730v10h110q24 0 42 18t18 42v520q0 24-18 42t-42 18H220Zm0-60h520v-520H630v90q0 12.75-8.675 21.375-8.676 8.625-21.5 8.625-12.825 0-21.325-8.625T570-570v-90H390v90q0 12.75-8.675 21.375-8.676 8.625-21.5 8.625-12.825 0-21.325-8.625T330-570v-90H220v520Zm170-580h180v-10q0-38-26-64t-64-26q-38 0-64 26t-26 64v10ZM220-140v-520 520Z"/></svg>