<svg xmlns="http://www.w3.org/2000/svg" width="48" height="48" viewBox="0 -960 960 960"><path d="M527-670 303-838q-11-8-13-19.5t6-22.5q8-11 19.5-12.5T338-886l225 167-36 49Zm-120-15-42 43-102-76q-11-8-12.5-19.5T257-760q8-11 19.5-12.5T299-766l108 81Zm227 80Zm112-53L438-887q-11-8-12.5-19.5T432-929q8-11 19.5-12.5T474-935l226 168 12-98q1.971-15.31 12.486-26.155Q735-902 750-904l42-6 91.235 306.787Q891-577 886.37-551.835 881.741-526.671 866-506L760-364q-1-20-6-38t-15-35l78-105q8.25-10.154 9.625-21.577Q828-575 825-586l-61-208-18 136ZM341-510l-86-64q-11-8-12.5-19.5T249-616q8-11 19.5-12.5T291-622l49 37q0 19 6 38t16 37h-21ZM70-290q-13 0-21.5-8.675-8.5-8.676-8.5-21.5Q40-333 48.625-341.5T70-350h280v60H70Zm40 120q-13 0-21.5-8.675-8.5-8.676-8.5-21.5Q80-213 88.625-221.5T110-230h240v60H110Zm80 120q-12.75 0-21.375-8.675Q160-67.351 160-80.175 160-93 168.625-101.5T190-110h420q21.25 0 35.625-14.375T660-160v-200q0-12.5-5-22.5T640-400L466-530l67 120H150q-12.75 0-21.375-8.675-8.625-8.676-8.625-21.5 0-12.825 8.625-21.325T150-470h281l-49-86q-8-13-6-28t13-26l30-30 257 192q21.083 15.731 32.542 38.866Q720-386 720-360v200q0 45.833-32.083 77.917Q655.833-50 610-50H190Zm295-210Z"/></svg>