<svg xmlns="http://www.w3.org/2000/svg" width="48" height="48" viewBox="0 -960 960 960"><path d="M240-80v-170q-36-16-65.5-43T124-355.5Q103-391 91.5-433T80-520q0-158 112-259t288-101q176 0 288 101t112 259q0 45-11.5 87T836-355.5Q815-320 785.5-293T720-250v170H240Zm60-60h60v60h60v-60h120v60h60v-60h60v-147q37-11 66.5-33t50.5-52.5q21-30.5 32-68.019 11-37.52 11-79.327 0-133.997-94-217.076Q632-820 480.043-820t-246 83.088Q140-653.824 140-519.812 140-478 151-440.5t32 68q21 30.5 50.5 52.5t66.5 33v147Zm120-200h120l-60-120-60 120Zm-79.911-120Q369-460 389.5-480.589q20.5-20.588 20.5-49.5Q410-559 389.411-579.5q-20.588-20.5-49.5-20.5Q311-600 290.5-579.411q-20.5 20.588-20.5 49.5Q270-501 290.589-480.5q20.588 20.5 49.5 20.5Zm280 0Q649-460 669.5-480.589q20.5-20.588 20.5-49.5Q690-559 669.411-579.5q-20.588-20.5-49.5-20.5Q591-600 570.5-579.411q-20.5 20.588-20.5 49.5Q550-501 570.589-480.5q20.588 20.5 49.5 20.5ZM300-140v-147q-37-11-66.5-33T183-372.5q-21-30.5-32-68.019-11-37.52-11-79.327 0-133.997 94-217.076Q328-820 479.957-820t246 83.088Q820-653.824 820-519.812 820-478 809-440.5t-32 68Q756-342 726.5-320T660-287v147h-60v-60h-60v60H420v-60h-60v60h-60Z"/></svg>