<svg xmlns="http://www.w3.org/2000/svg" width="48" height="48" viewBox="0 -960 960 960"><path d="M616-887q112 0 191 79t79 191h-60q0-42-15.574-79.016Q794.852-733.031 768-762l-40 66q-9.394 16-20.197 35Q697-642 684-629q-12 12-28.625 12t-28.5-12Q615-641 615.5-657t12.5-28q13-13 31.5-24.5T694-730l67-39q-28.969-26.852-65.984-42.426Q658-827 616-827v-60ZM483-80q-84 0-157.5-32t-128-86.5Q143-253 111-326.5T79-484q0-146 93-257.5T409-880q-18 98 11 192.635 29 94.635 100 165.736 71 71.101 165.5 100.143Q780-392.445 879-410.471q-26 144.206-138 237.338Q629-80 483-80Zm0-60q100 0 182-57t132-145q-90-8-173-41.5T477.5-480Q414-543 381-625.5T340-797q-88 48-144.5 130.5T139-484q0 143.333 100.333 243.667Q339.667-140 483-140Zm-6-340Z"/></svg>