<svg xmlns="http://www.w3.org/2000/svg" width="48" height="48" viewBox="0 -960 960 960"><path d="M290-450h60v-140h-60v140Zm160 160h60v-30.345Q510-334 501.75-342q-8.25-8-21.75-8t-21.75 8.25Q450-333.5 450-320v30Zm160-160h60v-140h-60v140ZM480.266-80q-82.734 0-155.5-31.5t-127.266-86q-54.5-54.5-86-127.341Q80-397.681 80-480.5q0-82.819 31.5-155.659Q143-709 197.5-763t127.341-85.5Q397.681-880 480.5-880q82.819 0 155.659 31.5Q709-817 763-763t85.5 127Q880-563 880-480.266q0 82.734-31.5 155.5T763-197.684q-54 54.316-127 86Q563-80 480.266-80Z"/></svg>