<svg xmlns="http://www.w3.org/2000/svg" width="48" height="48" viewBox="0 -960 960 960"><path d="M147-376q-45 0-76-31.208Q40-438.417 40-483t31.208-75.792Q102.417-590 147-590v-123q0-24 18-42t42-18h166q0-45 31.208-76 31.209-31 75.792-31t75.792 31.208Q587-817.583 587-773h166q24 0 42 18t18 42v123q45 0 76 31.208 31 31.209 31 75.792t-31.208 75.792Q857.583-376 813-376v196q0 24-18 42t-42 18H207q-24 0-42-18t-18-42v-196Zm196.235-100Q360-476 371.5-487.735q11.5-11.736 11.5-28.5Q383-533 371.265-544.5q-11.736-11.5-28.5-11.5Q326-556 314.5-544.265q-11.5 11.736-11.5 28.5Q303-499 314.735-487.5q11.736 11.5 28.5 11.5Zm274 0Q634-476 645.5-487.735q11.5-11.736 11.5-28.5Q657-533 645.265-544.5q-11.736-11.5-28.5-11.5Q600-556 588.5-544.265q-11.5 11.736-11.5 28.5Q577-499 588.735-487.5q11.736 11.5 28.5 11.5ZM312-285h336v-60H312v60Z"/></svg>