<svg xmlns="http://www.w3.org/2000/svg" width="48" height="48" viewBox="0 -960 960 960"><path d="M230-80q-63 0-106.5-43.5T80-230v-216q0-28 13.5-53t36.5-40l324.343-209L474-728q14.815 14.933 17.407 35.467Q494-672 483-654l-59 94h346q12.75 0 21.375 8.625T800-530q0 12-8.625 21T770-500H480v80h370q12.75 0 21.375 8.625T880-390q0 12-8.625 21T850-360H480v80h330q12.75 0 21.375 8.625T840-250q0 12-8.625 21T810-220H480v80h250q12.75 0 21.375 8.625T760-110q0 12-8.625 21T730-80H230Zm399.899-580Q605-660 587.5-677.601t-17.5-42.5Q570-745 587.601-762.5t42.5-17.5Q655-780 672.5-762.399t17.5 42.5Q690-695 672.399-677.5t-42.5 17.5Zm69.983-160Q679-820 664.5-834.618q-14.5-14.617-14.5-35.5Q650-891 664.618-905.5q14.617-14.5 35.5-14.5Q721-920 735.5-905.382q14.5 14.617 14.5 35.5Q750-849 735.382-834.5q-14.617 14.5-35.5 14.5Zm140.029 160Q811-660 790.5-680.589q-20.5-20.588-20.5-49.5Q770-759 790.589-779.5q20.588-20.5 49.5-20.5Q869-800 889.5-779.411q20.5 20.588 20.5 49.5Q910-701 889.411-680.5q-20.588 20.5-49.5 20.5Z"/></svg>