<svg xmlns="http://www.w3.org/2000/svg" width="48" height="48" viewBox="0 -960 960 960"><path d="M299-120q-91 0-155-64T80-339q0-86 57.5-148.5T281-557L120-880h280l80 160 80-160h280L680-559q85 8 142.5 70.5T880-340q0 92-64 156t-156 64q-9 0-18.5-.5T623-123q59-31 88-90.5T740-340q0-109-75.5-184.5T480-600q-109 0-184.5 75.5T220-340q0 66 30 124t86 93q-9 2-18.5 2.5t-18.5.5Zm181.235-20Q397-140 338.5-198.265q-58.5-58.264-58.5-141.5Q280-423 338.265-481.5q58.264-58.5 141.5-58.5Q563-540 621.5-481.735q58.5 58.264 58.5 141.5Q680-257 621.735-198.5q-58.264 58.5-141.5 58.5ZM406-230l74-56 74 56-28-91 74-53h-91l-29-96-29 96h-91l74 53-28 91Z"/></svg>