<svg xmlns="http://www.w3.org/2000/svg" width="48" height="48" viewBox="0 -960 960 960"><path d="M240-120 87-273l153-153 49 49-69 69h520l-69-69 49-49 153 153-153 153-49-49 69-69H220l69 69-49 49ZM99-535v-13q0-21.081 11.408-38.649Q121.816-604.216 142-613q25.078-10.522 51.603-16.261Q220.128-635 249.064-635t55.417 5.739Q330.963-623.522 356-613q20.184 8.784 31.592 26.351Q399-569.081 399-548v13H99Zm462 0v-13q0-21.081 11.408-38.649Q583.816-604.216 604-613q25.078-10.522 51.603-16.261Q682.128-635 711.064-635t55.417 5.739Q792.963-623.522 818-613q20.184 8.784 31.592 26.351Q861-569.081 861-548v13H561ZM248.956-690Q218-690 196-712.044q-22-22.045-22-53Q174-796 196.044-818q22.045-22 53-22Q280-840 302-817.956q22 22.045 22 53Q324-734 301.956-712q-22.045 22-53 22Zm462 0Q680-690 658-712.044q-22-22.045-22-53Q636-796 658.044-818q22.045-22 53-22Q742-840 764-817.956q22 22.045 22 53Q786-734 763.956-712q-22.045 22-53 22Z"/></svg>