<svg xmlns="http://www.w3.org/2000/svg" width="48" height="48" viewBox="0 -960 960 960"><path d="M400-280q-24.75 0-42.375-17.625T340-340v-280q0-24.75 17.625-42.375T400-680h160q24.75 0 42.375 17.625T620-620v280q0 24.75-17.625 42.375T560-280H400Zm-360 0v-60h180v-110H100q-24.75 0-42.375-17.625T40-510v-110q0-24.75 17.625-42.375T100-680h180v60H100v110h120q24.75 0 42.375 17.625T280-450v110q0 24.75-17.625 42.375T220-280H40Zm640 0v-60h180v-110H740q-24.75 0-42.375-17.625T680-510v-110q0-24.75 17.625-42.375T740-680h180v60H740v110h120q24.75 0 42.375 17.625T920-450v110q0 24.75-17.625 42.375T860-280H680Zm-280-60h160v-280H400v280Z"/></svg>