<svg xmlns="http://www.w3.org/2000/svg" width="48" height="48" viewBox="0 -960 960 960"><path d="M480-441q-66 0-108-42t-42-108q0-66 42-108t108-42q66 0 108 42t42 108q0 66-42 108t-108 42ZM160-120v-94q0-38 19-64.5t49-41.5q51-26 120.5-43T480-380q62 0 131 17t120 43q30 15 49.5 41.5T800-214v94H160ZM39-779v-60q17 0 31-6.581T95-863.3q11-11.138 17-25.312 6-14.175 6-31.388h61q0 29-10.938 54.575-10.937 25.575-30.187 44.976-19.25 19.402-44.625 30.425Q67.875-779 39-779Zm0 140v-60q46 0 86.21-17.394Q165.42-733.789 195-764q30-30 47-70.007 17-40.008 17-85.993h61q0 58-22 109.5T238-721q-38 38-89.027 60Q97.945-639 39-639Zm881 0q-58 0-109.5-22T721-721q-38-38-60-89.467T639-920h61q0 46 17.127 85.875T764-764q30.282 29.746 70.2 46.873Q874.118-700 920-700v61Zm0-141q-29 0-54.346-10.938-25.347-10.937-44.575-30.187-19.229-19.25-30.154-44.625T780-920h60q0 17 6.5 31t17.5 25q11 11 25 17.5t31 6.5v60Z"/></svg>