<svg xmlns="http://www.w3.org/2000/svg" width="48" height="48" viewBox="0 -960 960 960"><path d="M689.567-570Q661-570 640.5-590.5T620-640v-160q0-29 20.562-49.5Q661.125-870 690-870q29 0 49.5 20.5T760-800v160q0 29-20.5 49.5T689.567-570ZM180-80q-24.75 0-42.375-17.625T120-140v-680q0-24.75 17.625-42.375T180-880h340v60H180v680h480v-110h60v110q0 24.75-17.625 42.375T660-80H180Zm100-170v-60h280v60H280Zm0-120v-60h200v60H280Zm440 40h-60v-102q-76-11-128-70.002Q480-561.005 480-640h60q0 62 43.884 106 43.885 44 105.965 44Q753-490 796.5-533.929 840-577.857 840-640h60q0 79-51.5 138T720-432v102Z"/></svg>