<svg xmlns="http://www.w3.org/2000/svg" width="48" height="48" viewBox="0 -960 960 960"><path d="M80-80v-534q0-82 42.5-144T241-850q56-21 119-25.5t120-4.5q57 0 120.5 4.5T720-850q76 30 118 92t42 144v534H80Zm267-60h266l-81-81H428l-81 81Zm-62-288h390v-175H285v175Zm335 127q16.575 0 27.787-11.212Q659-323.425 659-340q0-16.575-11.213-27.788Q636.575-379 620-379t-27.787 11.212Q581-356.575 581-340q0 16.575 11.213 27.788Q603.425-301 620-301Zm-280 0q16.575 0 27.788-11.212Q379-323.425 379-340q0-16.575-11.212-27.788Q356.575-379 340-379q-16.575 0-27.788 11.212Q301-356.575 301-340q0 16.575 11.212 27.788Q323.425-301 340-301ZM140-140h159v-20l61-61q-38 0-79-29.5T240-340v-263q0-72 67-94.5T480-720q90 0 165 22.5t75 94.5v263q0 56-36.5 87.5T600-221l61 61v20h159v-474q0-66-31.5-109.5t-93.937-69.375Q648-812 591.172-816t-111-4Q426-820 369.5-816t-103.063 23.125Q204-767 172-723.5T140-614v474Zm0 0h680-680Z"/></svg>