<svg xmlns="http://www.w3.org/2000/svg" width="48" height="48" viewBox="0 -960 960 960"><path d="M40-420v-60h160v60H40Zm221-207L148-740l42-42 113 113-42 42Zm-21.141 422Q223-205 211.5-216.641t-11.5-28.5Q200-262 211.641-273.5t28.5-11.5Q257-285 268.5-273.359t11.5 28.5Q280-228 268.359-216.5t-28.5 11.5ZM290-420v-30q0-78.85 55.606-134.425Q401.212-640 480.106-640T614.5-584.425Q670-528.85 670-450v30H290Zm69.859 380Q343-40 331.5-51.64 320-63.283 320-80.14q0-16.86 11.641-28.36t28.5-11.5Q377-120 388.5-108.359q11.5 11.64 11.5 28.5Q400-63 388.359-51.5t-28.5 11.5Zm120-165Q463-205 451.5-216.641t-11.5-28.5Q440-262 451.641-273.5t28.5-11.5Q497-285 508.5-273.359t11.5 28.5Q520-228 508.359-216.5t-28.5 11.5ZM450-730v-160h60v160h-60ZM599.859-40Q583-40 571.5-51.64 560-63.283 560-80.14q0-16.86 11.641-28.36t28.5-11.5Q617-120 628.5-108.359q11.5 11.64 11.5 28.5Q640-63 628.359-51.5t-28.5 11.5ZM698-626l-42-42 114-114 42 42-114 114Zm21.859 421Q703-205 691.5-216.641t-11.5-28.5Q680-262 691.641-273.5t28.5-11.5Q737-285 748.5-273.359t11.5 28.5Q760-228 748.359-216.5t-28.5 11.5ZM760-420v-60h160v60H760Z"/></svg>