<svg xmlns="http://www.w3.org/2000/svg" width="48" height="48" viewBox="0 -960 960 960"><path d="M482.824-368Q529-368 561.5-400.324q32.5-32.323 32.5-78.5Q594-525 561.677-557.5 529.353-590 483.176-590 437-590 404.5-557.677 372-525.353 372-479.176 372-433 404.324-400.5q32.323 32.5 78.5 32.5ZM675-287q38-38 58.5-88T754-479q0-54-20.5-104T675-671l-43 43q29 31 45.5 69.17t16.5 80Q694-437 677.5-399T632-330l43 43Zm-384 0 43-43q-29-31-45.5-69.17t-16.5-80Q272-521 288.5-559t45.5-69l-43-43q-38 38-58.5 88T212-479q0 54 20.5 104t58.5 88ZM140-160q-24.75 0-42.375-17.625T80-220v-520q0-24.75 17.625-42.375T140-800h680q24.75 0 42.375 17.625T880-740v520q0 24.75-17.625 42.375T820-160H140Z"/></svg>