<svg xmlns="http://www.w3.org/2000/svg" width="48" height="48" viewBox="0 -960 960 960"><path d="M470-80q-21.882 0-41.941-8T392-112L184-320l15-22q11-16 28.5-22.5T264-366l96 26v-340q0-12.75 8.675-21.375 8.676-8.625 21.5-8.625 12.825 0 21.325 8.625T420-680v290h67v-150q0-12.75 8.675-21.375 8.676-8.625 21.5-8.625 12.825 0 21.325 8.625T547-540v150h66v-110q0-12.75 8.675-21.375 8.676-8.625 21.5-8.625 12.825 0 21.325 8.625T673-500v110h67v-30q0-12.75 8.675-21.375 8.676-8.625 21.5-8.625 12.825 0 21.325 8.625T800-420v180q0 66-47 113T640-80H470ZM80-700q49-105 152.5-162.5T470-920q103 0 196 34.5T840-787v-93h40v180H700v-40h133q-79-69-171.016-104.5Q569.968-880 470-880q-115 0-204.5 46T125-700H80Z"/></svg>