<svg xmlns="http://www.w3.org/2000/svg" width="48" height="48" viewBox="0 -960 960 960"><path d="M880-700H700v-40h133q-75-65-164.5-102.5T480-880q-99 0-188.5 37.5T127-740h133v40H80v-180h40v93q78-62 169-97.5T480-920q100 0 191 35.5T840-787v-93h40v180ZM470-80q-21.882 0-41.941-8T392-112L184-320l15-22q11-16 28.5-22.5T264-366l96 26v-340q0-12.75 8.675-21.375 8.676-8.625 21.5-8.625 12.825 0 21.325 8.625T420-680v290h67v-150q0-12.75 8.675-21.375 8.676-8.625 21.5-8.625 12.825 0 21.325 8.625T547-540v150h66v-110q0-12.75 8.675-21.375 8.676-8.625 21.5-8.625 12.825 0 21.325 8.625T673-500v110h67v-30q0-12.75 8.675-21.375 8.676-8.625 21.5-8.625 12.825 0 21.325 8.625T800-420v180q0 66-47 113T640-80H470Z"/></svg>