<svg xmlns="http://www.w3.org/2000/svg" width="48" height="48" viewBox="0 -960 960 960"><path d="M470-80q-21.882 0-41.941-8T392-112L184-320l15-22q11-16 28.5-22.5T264-366l96 26v-340q0-12.75 8.675-21.375 8.676-8.625 21.5-8.625 12.825 0 21.325 8.625T420-680v290h67v-150q0-12.75 8.675-21.375 8.676-8.625 21.5-8.625 12.825 0 21.325 8.625T547-540v150h66v-110q0-12.75 8.675-21.375 8.676-8.625 21.5-8.625 12.825 0 21.325 8.625T673-500v110h67v-30q0-12.75 8.675-21.375 8.676-8.625 21.5-8.625 12.825 0 21.325 8.625T800-420v180q0 66-47 113T640-80H470ZM80-700v-180h40v93q81-64 174-98.5T490-920q134 0 237.5 57.5T880-700h-45q-51-88-140.5-134T490-880q-99.968 0-191.984 35.5T127-740h133v40H80Z"/></svg>