<svg xmlns="http://www.w3.org/2000/svg" width="48" height="48" viewBox="0 -960 960 960"><path d="M539.882-480Q589-480 623.5-514.382q34.5-34.383 34.5-83.5Q658-647 623.618-681.5q-34.383-34.5-83.5-34.5Q491-716 456.5-681.618q-34.5 34.383-34.5 83.5Q422-549 456.382-514.5q34.383 34.5 83.5 34.5ZM260-200q-24.75 0-42.375-17.625T200-260v-560q0-24.75 17.625-42.375T260-880h560q24.75 0 42.375 17.625T880-820v560q0 24.75-17.625 42.375T820-200H260ZM140-80q-24.75 0-42.375-17.625T80-140v-570h60v570h570v60H140Zm120-180h560q-51-65-124-102.5T540-400q-83 0-156 37.5T260-260Z"/></svg>