<svg xmlns="http://www.w3.org/2000/svg" width="48" height="48" viewBox="0 -960 960 960"><path d="M340-120q-24.75 0-42.375-17.625T280-180v-440q0-24.75 17.625-42.375T340-680h440q24.75 0 42.375 17.625T840-620v440q0 24.75-17.625 42.375T780-120H340Zm0-394h440v-106H340v106Zm166 168h108v-108H506v108Zm0 166h108v-106H506v106ZM340-346h106v-108H340v108Zm334 0h106v-108H674v108ZM340-180h106v-106H340v106Zm334 0h106v-106H674v106ZM180-280q-24.75 0-42.375-17.625T120-340v-440q0-24.75 17.625-42.375T180-840h440q24.75 0 42.375 17.625T680-780v70h-60v-70H180v440h70v60h-70Z"/></svg>