<svg xmlns="http://www.w3.org/2000/svg" width="48" height="48" viewBox="0 -960 960 960"><path d="M153.238-230Q142-230 130.5-235T111-248L8-351l4-3q5-5 11.5-8.5T38-366q10 0 18 2.5T71-353l39 39v-246q0-8.667 6.07-14.333Q122.14-580 130.233-580q8.767 0 14.267 5.667Q150-568.667 150-560v120h30v-180q0-8.667 6.07-14.333Q192.14-640 200.233-640q8.767 0 14.267 5.667Q220-628.667 220-620v180h30v-140q0-8.667 6.07-14.333Q262.14-600 270.233-600q8.767 0 14.267 5.667Q290-588.667 290-580v140h30v-100q0-8.667 6.07-14.333Q332.14-560 340.233-560q8.767 0 14.267 5.667Q360-548.667 360-540v250q0 25-17.25 42.5T300-230H153.238ZM440-280v-340q0-24.75-17.625-42.375T380-680H80v-180q0-24 18-42t42-18h520q24 0 42 18t18 42v215l160-160v410L720-555v215q0 24-18 42t-42 18H440Z"/></svg>