<svg xmlns="http://www.w3.org/2000/svg" width="48" height="48" viewBox="0 -960 960 960"><path d="M848-27 699-176q-8.211 8-17.961 12-9.75 4-21.039 4H440v-275L315-560H80v-180q0-11.289 4-21.039 4-9.75 12-17.961l-57-57 42-42L890-69l-42 42Zm32-248L720-435v111L244-800h416q24.75 0 42.375 17.625T720-740v215l160-160v410ZM153.238-110Q142-110 130.5-115T111-128L8-231l4-3q4.8-5.333 11.4-8.667Q30-246 38.5-246t17.5 3q9 3 15 10l39 39v-246q0-8.667 6.07-14.333Q122.14-460 130.233-460q8.767 0 14.267 5.667Q150-448.667 150-440v120h30v-180q0-8.667 6.07-14.333Q192.14-520 200.233-520q8.767 0 14.267 5.667Q220-508.667 220-500v180h30v-140q0-8.667 6.07-14.333Q262.14-480 270.233-480q8.767 0 14.267 5.667Q290-468.667 290-460v140h30v-100q0-8.667 6.07-14.333Q332.14-440 340.233-440q8.767 0 14.267 5.667Q360-428.667 360-420v250q0 25-17.25 42.5T300-110H153.238Z"/></svg>