<svg xmlns="http://www.w3.org/2000/svg" width="48" height="48" viewBox="0 -960 960 960"><path d="M250-40v-370H150q-37 0-63.5-26.5t-26.5-64Q60-538 86.5-564t63.5-26h100v-60H150q-37 0-63.5-26.5t-26.5-64Q60-778 86.5-804t63.5-26h100v-90h60v90h100q37.8 0 63.9 26.1T500-740q0 37-26.1 63.5T410-650H310v60h100q37.8 0 63.9 26.1T500-500q0 37-26.1 63.5T410-410H310v370h-60ZM150-470h260q13 0 21.5-9t8.5-21q0-13-8.5-21.5T410-530H150q-12 0-21 8.5t-9 21q0 12.5 9 21.5t21 9Zm0-240h260q13 0 21.5-9t8.5-21q0-13-8.5-21.5T410-770H150q-12 0-21 8.5t-9 21q0 12.5 9 21.5t21 9ZM600-40v-60h90v-304q-56-11-93-54t-37-102v-360h320v360q0 58-37 101.5T750-404v304h90v60H600Zm120-420q42 0 71-29t29-71v-100H620v100q0 42 29 71t71 29ZM620-700h200v-160H620v160ZM120-470v-60 60Zm0-240v-60 60Zm600 50Z"/></svg>