<svg xmlns="http://www.w3.org/2000/svg" width="48" height="48" viewBox="0 -960 960 960"><path d="M640-90q-41.525 0-79.324-13.6Q522.878-117.2 492-141l-31 31q-8.067 9-20.533 9Q428-101 420-110q-9-8.067-9-20.533Q411-143 420-151l31-31q-23.8-30.878-37.4-68.676Q400-288.475 400-330q0-100 70-170.5T640-570h239v240q2 100-68.5 170T640-90ZM521.054-211q8.053 8 20.5 8Q554-203 562-211l99-99q8-8.067 8-20.533Q669-343 660.946-351q-8.053-8-20.5-8Q628-359 620-351l-99 99q-8 8.067-8 20.533Q513-219 521.054-211ZM200-490q-49.714 0-84.857-35.143T80-610v-120h120q49.714 0 84.857 35.143T320-610v120H200Zm280-240v-79.577Q480-843 503.5-866.5t56.923-23.5H640v79.577Q640-777 616.5-753.5T559.577-730H480Z"/></svg>