<svg xmlns="http://www.w3.org/2000/svg" width="48" height="48" viewBox="0 -960 960 960"><path d="M160-80v-374q-50-12-83.5-48.5T40-589h61q3 33 28.285 56T189-510h51v-104q-50-12-83.5-48.5T120-749h61q3 33 28.285 56T269-670h24l187-250 187 250h24q34.43 0 59.715-23Q776-716 779-749h61q-3 50-36 86.5T720-614v104h51q34.43 0 59.715-23Q856-556 859-589h61q-3 50-36 86.5T800-454v374H530v-160q0-21.25-14.325-35.625Q501.351-290 480.175-290 459-290 444.5-275.625 430-261.25 430-240v160H160Zm208-590h224L480-819 368-670Zm-68 160h360v-100H300v100Zm-80 370h150v-100q0-45.833 32.118-77.917 32.117-32.083 78-32.083Q526-350 558-317.917q32 32.084 32 77.917v100h150v-310H220v310Zm260-310Zm0-220Zm0 160Z"/></svg>