<svg xmlns="http://www.w3.org/2000/svg" width="48" height="48" viewBox="0 -960 960 960"><path d="M480-730v-79.577Q480-843 503.5-866.5t56.923-23.5H640v79.577Q640-777 616.5-753.5T559.577-730H480ZM200-490q-49.714 0-84.857-35.143T80-610v-120h120q49.714 0 84.857 35.143T320-610v120H200ZM640-90q-41.525 0-79.324-13.6Q522.878-117.2 492-141l-31 31q-8.067 9-20.533 9Q428-101 420-110q-9-8.067-9-20.533Q411-143 420-151l31-31q-23.8-30.878-37.4-68.676Q400-288.475 400-330q0-100 70-170.5T640-570h239v240q2 100-68.5 170T640-90Zm0-60q75 0 127-53t52-128v-179H641q-75 0-128 52.547Q460-404.907 460-330q0 29.469 9 55.734Q478-248 494-225l126-126q8.067-9 20.533-9Q653-360 661-351q9 8.067 9 20.533Q670-318 661-310L535-184q23 16 49.266 25 26.265 9 55.734 9Zm0-180Z"/></svg>