<?xml version="1.0" encoding="iso-8859-1"?>
<svg version="1.1" id="Capa_1" xmlns="http://www.w3.org/2000/svg" xmlns:xlink="http://www.w3.org/1999/xlink" x="0px" y="0px"
	 width="548.291px" height="548.291px" viewBox="0 0 548.291 548.291" style="enable-background:new 0 0 548.291 548.291;"
	 xml:space="preserve">
<g>
	<path d="M472.929,131.39c-0.031-2.514-0.829-4.997-2.556-6.96L364.656,3.677c-0.021-0.034-0.053-0.044-0.084-0.075
		c-0.63-0.704-1.354-1.284-2.132-1.796c-0.23-0.149-0.462-0.283-0.703-0.419c-0.683-0.365-1.387-0.667-2.121-0.888
		c-0.2-0.058-0.377-0.139-0.577-0.191C358.231,0.113,357.411,0,356.572,0H96.757C84.904,0,75.255,9.649,75.255,21.502V526.79
		c0,11.858,9.649,21.501,21.502,21.501h354.775c11.863,0,21.503-9.643,21.503-21.501V132.595
		C473.036,132.191,472.971,131.795,472.929,131.39z M226.48,418.578h-32.315v95.88h-26.866v-95.88h-31.78V396.1h90.961V418.578z
		 M316.234,514.458h-75.512V396.1h73.055v21.952h-46.191v24.585h43.558v21.778h-43.558v28.096h48.648V514.458z M396.855,514.458
		l-10.709-21.422c-4.388-8.253-7.202-14.399-10.541-21.25h-0.346c-2.457,6.851-5.449,12.997-9.134,21.25l-9.832,21.422h-30.558
		l34.242-59.89L326.964,396.1h30.729l10.363,21.597c3.512,7.201,6.152,12.997,8.955,19.669h0.353
		c2.808-7.549,5.085-12.824,8.079-19.669l10.004-21.597h30.562l-33.365,57.774l35.118,60.583H396.855z M96.757,365.081V21.502
		H345.82v110.011c0,5.935,4.81,10.751,10.752,10.751h94.961l0.011,222.816H96.757z"/>
	<g>
		<path d="M217.564,180.635v-25.021h-87.935v25.021h2.923c0.236-3.741,0.875-6.8,1.924-9.181c1.053-2.37,2.478-4.247,4.273-5.612
			c1.791-1.365,3.919-2.301,6.375-2.805c2.457-0.507,5.278-0.765,8.478-0.765h12.743v81.267c0,3.509-0.252,6.278-0.766,8.304
			c-0.507,2.026-1.221,3.565-2.158,4.612c-0.935,1.061-2.108,1.743-3.504,2.053c-1.396,0.312-3.042,0.467-4.919,0.467h-3.734v2.92
			h45.019v-2.92h-3.625c-1.874,0-3.503-0.134-4.905-0.413c-1.415-0.27-2.575-0.908-3.517-1.924c-0.93-1.009-1.657-2.553-2.155-4.614
			c-0.517-2.073-0.764-4.89-0.764-8.48v-81.272h14.966c6.002,0,10.541,1.387,13.625,4.155c3.076,2.769,5.042,7.504,5.903,14.208
			H217.564z"/>
		<path d="M288.072,276.539c-1.329,1.249-2.567,2.29-3.744,3.098c-1.164,0.818-2.514,1.465-4.03,1.933
			c-1.522,0.462-3.329,0.786-5.438,0.935c-2.105,0.156-4.675,0.23-7.719,0.23h-18.011c-2.26,0-3.974-0.111-5.139-0.348
			c-1.179-0.235-2.032-0.755-2.575-1.568c-0.549-0.823-0.856-2.01-0.932-3.57c-0.083-1.563-0.118-3.671-0.118-6.322v-35.074h23.271
			c3.431,0,6.16,0.257,8.182,0.764c2.025,0.509,3.608,1.365,4.738,2.575c1.127,1.21,1.947,2.822,2.451,4.854
			c0.515,2.027,0.961,4.564,1.343,7.596h2.93v-36.951h-2.93c-0.151,2.65-0.473,4.95-0.935,6.897c-0.462,1.95-1.312,3.546-2.52,4.801
			c-1.207,1.251-2.857,2.176-4.965,2.803c-2.103,0.619-4.869,0.937-8.3,0.937h-23.271v-41.982h29.119
			c3.579,0,6.524,0.173,8.825,0.528c2.304,0.354,4.199,1.155,5.674,2.396c1.485,1.247,2.672,3.027,3.568,5.318
			c0.898,2.298,1.729,5.364,2.511,9.18h1.873v-23.266h-81.854v2.919h3.74c4.446,0,7.602,1.053,9.478,3.161
			c1.323,1.559,1.984,5.725,1.984,12.509v68.992c0,5.14-0.312,8.572-0.937,10.284c-0.312,0.939-0.853,1.748-1.633,2.456
			c-0.784,0.704-1.661,1.266-2.629,1.696c-0.984,0.431-2.01,0.761-3.1,0.997c-1.097,0.236-2.147,0.348-3.163,0.348h-3.74v2.917
			h81.854l9.239-26.653h-3.16C294.502,268.637,291.189,273.505,288.072,276.539z"/>
		<path d="M398.403,252.639c-1.753-0.504-3.548-1.501-5.379-2.984c-1.838-1.483-3.822-3.638-5.965-6.488
			c-2.142-2.842-4.851-6.681-8.12-11.52l-22.809-34.024l21.045-27.011c4.446-5.609,7.752-9.349,9.946-11.226
			c2.028-1.795,4.147-3.237,6.379-4.325c2.215-1.093,5.118-1.754,8.709-1.99v-2.918h-37.66v2.918
			c4.212,0.161,7.162,0.627,8.835,1.402c1.686,0.784,2.516,2.306,2.516,4.564c0,0.63-0.042,1.179-0.116,1.64
			c-0.073,0.467-0.272,0.995-0.582,1.58c-0.314,0.585-0.782,1.329-1.402,2.226c-0.623,0.893-1.521,2.084-2.688,3.557l-18.83,23.977
			l-16.366-24.439c-2.506-3.663-3.739-6.477-3.739-8.417c0-1.478,0.773-2.822,2.337-4.032c1.554-1.21,4.399-1.892,8.536-2.053
			v-2.918h-49.124v2.918c2.649,0.161,5.064,0.527,7.254,1.113c2.184,0.585,4.347,1.602,6.489,3.042
			c2.141,1.447,4.366,3.468,6.666,6.074c2.299,2.614,4.893,6.026,7.773,10.236l20.931,30.633l-25.019,31.693
			c-2.184,2.725-4.284,5.16-6.32,7.3c-2.026,2.144-4.074,3.939-6.132,5.389c-2.08,1.438-4.23,2.577-6.489,3.443
			c-2.268,0.861-4.683,1.365-7.259,1.522v2.919h37.653v-2.919c-3.979-0.157-6.667-0.779-8.068-1.881
			c-1.4-1.087-2.104-2.446-2.104-4.087c0-0.545,0.021-1.052,0.058-1.52c0.036-0.467,0.215-1.01,0.524-1.64
			c0.321-0.617,0.805-1.402,1.465-2.344c0.662-0.93,1.617-2.176,2.866-3.741l22.326-28.527l18.01,27.242
			c1.093,1.717,1.986,3.076,2.688,4.097c0.704,1.011,1.229,1.851,1.576,2.512c0.352,0.667,0.566,1.166,0.64,1.515
			c0.09,0.354,0.121,0.732,0.121,1.113c0,2.268-0.688,4.021-2.046,5.268c-1.366,1.236-4.191,1.903-8.474,1.984v2.919h45.591v-2.919
			C402.241,253.435,400.153,253.148,398.403,252.639z"/>
	</g>
</g>
</svg>
