<svg xmlns="http://www.w3.org/2000/svg" width="48" height="48" viewBox="0 -960 960 960"><path d="M480-120q-75.53 0-128.765-53.235Q298-226.47 298-302q0-49.099 24-91.55Q346-436 388-462v-286q0-38.333 26.765-65.167 26.764-26.833 65-26.833Q518-840 545-813.167q27 26.834 27 65.167v286q42 26 66 68.45 24 42.451 24 91.55 0 75.53-53.235 128.765Q555.53-120 480-120Zm.118-59Q531-179 566.5-214.875 602-250.75 602-302q0-37.81-18-70.405T532-420l-20-9v-319q0-13.6-9.2-22.8-9.2-9.2-22.8-9.2-13.6 0-22.8 9.2-9.2 9.2-9.2 22.8v319l-20 9q-34 15-52 47.595T358-302q0 51.25 35.618 87.125Q429.235-179 480.118-179ZM480-302Z"/></svg>