<svg xmlns="http://www.w3.org/2000/svg" width="48" height="48" viewBox="0 -960 960 960"><path d="M480-71q-11 0-21.963-4.435Q447.073-79.87 438-88L88-438q-8.13-9.073-12.565-20.037Q71-469 71-480q0-11 4.435-22.341Q79.87-513.683 88-522l350-350q9.073-8.87 20.037-12.935Q469-889 480-889q11 0 22.341 4.065Q513.683-880.87 522-872l350 350q8.87 8.317 12.935 19.659Q889-491 889-480q0 11-4.065 21.963Q880.87-447.073 872-438L522-88q-8.317 8.13-19.659 12.565Q491-71 480-71Zm0-60 349-349-349-349-349 349 349 349Zm0-349Z"/></svg>