<svg xmlns="http://www.w3.org/2000/svg" width="48" height="48" viewBox="0 -960 960 960"><path d="M394.924-80q-15.959-47-23.942-92Q363-217 361-258q-2-41-.5-75t4.5-58q0-1 0 0-22.458-5.178-51.552-13.011-29.094-7.833-62.271-21.411Q218-439 183.5-458 149-477 116-502.929L360-841l260 119q63.546 29 101.773 88T760-503v423H394.924ZM545-201q7.5 0 14.167-4 6.666-4 10.833-10 5 6 11 10t14 4q12.75 0 21.375-9T625-231.5q0-12.5-8.625-21T595-261h-5v-199h5q12.75 0 21.375-9T625-490.5q0-12.5-8.625-21T595-520q-8 0-14.222 3.5-6.222 3.5-10.889 9.5-3.889-6-10.609-9.5-6.72-3.5-14.28-3.5-12 0-21 8.625T515-490q0 12 9 21t21 9h5v199h-5q-12 0-21 8.625T515-231q0 12 9 21t21 9Z"/></svg>