<svg xmlns="http://www.w3.org/2000/svg" width="48" height="48" viewBox="0 -960 960 960"><path d="M367-280h177v-400H367v400Zm0 80q-33.333 0-56.667-23.333Q287-246.667 287-280v-400q0-33.333 23.333-56.667Q333.667-760 367-760h177q33.333 0 56.667 23.333Q624-713.333 624-680v400q0 33.333-23.333 56.667Q577.333-200 544-200H367Zm-240 0v-480H40v-80h167v560h-80Zm567 0v-60h166v-70H736q-17 0-29.5-12.5T694-372v-106q0-17 12.5-29.5T736-520h184v60H754v70h124q17 0 29.5 12.5T920-348v106q0 17-12.5 29.5T878-200H694Z"/></svg>