<svg xmlns="http://www.w3.org/2000/svg" width="48" height="48" viewBox="0 -960 960 960"><path d="M109.912-240Q81-240 60.5-260.589 40-281.177 40-310.089 40-339 60.494-359.5t49.273-20.5q5.233 0 10.233.5 5 .5 13 2.5l200-200q-2-8-2.5-13t-.5-10.233q0-28.779 20.589-49.273Q371.177-670 400.089-670 429-670 449.5-649.366t20.5 49.61Q470-598 467-577l110 110q8-2 13-2.5t10-.5q5 0 10 .5t13 2.5l160-160q-2-8-2.5-13t-.5-10.233q0-28.779 20.589-49.273Q821.177-720 850.089-720 879-720 899.5-699.411q20.5 20.588 20.5 49.5Q920-621 899.506-600.5T850.233-580Q845-580 840-580.5q-5-.5-13-2.5L667-423q2 8 2.5 13t.5 10.233q0 28.779-20.589 49.273Q628.823-330 599.911-330 571-330 550.5-350.494T530-399.767q0-5.233.5-10.233.5-5 2.5-13L423-533q-8 2-13 2.5t-10.25.5q-1.75 0-22.75-3L177-333q2 8 2.5 13t.5 10.233q0 28.779-20.589 49.273Q138.823-240 109.912-240Z"/></svg>