<svg xmlns="http://www.w3.org/2000/svg" width="48" height="48" viewBox="0 -790 960 620"><path d="m 280,-240 c -66.66667,0 -123.33333,-23.33333 -170,-70 -46.666667,-46.66667 -70,-103.33333 -70,-170 0,-66.66667 23.333333,-123.33333 70,-170 46.66667,-46.66667 103.33333,-70 170,-70 h 400 c 66.66667,0 123.33333,23.33333 170,70 46.66667,46.66667 70,103.33333 70,170 0,66.66667 -23.33333,123.33333 -70,170 -46.66667,46.66667 -103.33333,70 -170,70 z m 0,-60 h 400 c 50,0 92.5,-17.5 127.5,-52.5 35,-35 52.5,-77.5 52.5,-127.5 0,-50 -17.5,-92.5 -52.5,-127.5 C 772.5,-642.5 730,-660 680,-660 H 280 c -50,0 -92.5,17.5 -127.5,52.5 -35,35 -52.5,77.5 -52.5,127.5 0,50 17.5,92.5 52.5,127.5 35,35 77.5,52.5 127.5,52.5 z m 217.72776,-74.32619 c 28.03933,0 51.89233,-9.81367 71.559,-29.441 19.66666,-19.62734 29.5,-43.46067 29.5,-71.5 0,-28.03934 -9.81367,-51.89234 -29.441,-71.559 -19.62734,-19.66667 -43.46067,-29.5 -71.5,-29.5 -28.03934,0 -51.89234,9.81366 -71.559,29.441 -19.66667,19.62733 -29.5,43.46066 -29.5,71.5 0,28.03933 9.81366,51.89233 29.441,71.559 19.62733,19.66666 43.46066,29.5 71.5,29.5 z"/> </svg>