<svg xmlns="http://www.w3.org/2000/svg" width="48" height="48" viewBox="0 -960 960 960"><path d="M445-80q-29 0-56-12t-45-35L127-403l21-23q14-15 34.5-18.5T221-438l99 53v-365q0-12.75 8.675-21.375 8.676-8.625 21.5-8.625 12.825 0 21.325 8.625T380-750v465l-144-77 156 198q10 12 23.76 18 13.76 6 29.24 6h205q38 0 64-26t26-64v-170q0-25.5-17.25-42.75T680-460H460v-60h219.646q50.148 0 85.251 35T800-400v170q0 63-43.5 106.5T650-80H445ZM203-665q-11.074-18.754-17.037-40.492Q180-727.229 180-750.246 180-821 229.725-870.5T350-920q70.55 0 120.275 49.738Q520-820.524 520-749.956q0 22.956-5.963 44.614Q508.074-683.685 497-665l-52-30q7-12 11-26t4-29.478Q460-796 427.882-828q-32.117-32-78-32Q304-860 272-827.917 240-795.833 240-750q0 15 4 29t11 26l-52 30Zm285 335Z"/></svg>