<svg xmlns="http://www.w3.org/2000/svg" width="48" height="48" viewBox="0 -960 960 960"><path d="M479.798-340Q546-340 593-386.798t47-113Q640-566 593.202-613t-113-47Q414-660 367-613.202t-47 113Q320-434 366.798-387t113 47ZM450-40v-80h-80v-60h80v-101q-82.333-14.103-136.167-75.551Q260-418 260-500q0-36 11-70.11T304-633l-42-42-56 56-42-42 56-56-100-100v117H60v-220h220v60H163l100 100 56-56 42 42-56 56 43 43q29-22 62.5-33.5T480-720q36 0 70 11t63 33l184-184H680v-60h220v220h-60v-117L656-633q22 29 33 62.773T700-500q0 82-53.833 143.449Q592.333-295.103 510-281v101h80v60h-80v80h-60Z"/></svg>