<svg xmlns="http://www.w3.org/2000/svg" width="48" height="48" viewBox="0 -960 960 960"><path d="M770-319q-72 0-122.5-44.5T583-478H413l-35-60h205q3-27 15-53.5t31-47.5H317l-36-60h383l-55-161H440v-60h169q20.091 0 35.545 11.5Q660-897 666-879l61 180h33q87 0 143.5 52T960-509q0 78-56 134t-134 56Zm0-60q52 0 91-39t39-91q0-56-37-93t-92.882-37q-1.118 0-9.618.5t-9.5.5l40 110-56 20-41-111q-27 23-40.5 49.5T640-509q0 54.167 37.917 92.083Q715.833-379 770-379ZM280-40q-45.417 0-77.208-31.792Q171-103.583 171-149v-11H0v-60h197q13-15 34-26.5t49-11.5q25 0 45.5 10t37.5 28h127v-120H0v-60h90v-120H0v-60h282l108 180h100q24.75 0 42.375 17.625T550-340v120q0 24.75-17.625 42.375T490-160H389v11q0 45.417-31.792 77.208Q325.417-40 280-40ZM150-400h170l-72-120h-98v120Zm130 300q20 0 34.5-14.5T329-149q0-20-14.5-34.5T280-198q-20 0-34.5 14.5T231-149q0 20 14.5 34.5T280-100Zm-35-180Z"/></svg>