<svg xmlns="http://www.w3.org/2000/svg" width="48" height="48" viewBox="0 -960 960 960"><path d="M458-81q-79-4-148-37t-120-86.5q-51-53.5-80.5-124.269Q80-399.537 80-480q0-83 31.5-156T197-763q54-54 127-85.5T480-880q149 0 259 94t135 236h-61q-17-84-71-150t-135-99v18q0 35-24 61t-59 26h-87v87q0 16.575-13.5 27.787Q410-568 393-568h-83v88h110v125h-67L149-559q-5 20-7 39.667-2 19.666-2 39.333 0 135 91 233t227 106v60Zm392-26L716-241q-21 15-45.5 23t-50.065 8q-71.015 0-120.725-49.618Q450-309.235 450-380.118 450-451 499.618-500.5q49.617-49.5 120.5-49.5Q691-550 740.5-500.29T790-379.565q0 25.565-8.5 50.065Q773-305 759-283l134 133-43 43ZM619.859-270Q666-270 698-301.859q32-31.859 32-78T698.141-458q-31.859-32-78-32T542-458.141q-32 31.859-32 78T541.859-302q31.859 32 78 32Z"/></svg>