<svg
   xmlns="http://www.w3.org/2000/svg"
   width="20.560116"
   height="19.570278"
   viewBox="0 0 20.560115 19.570278">
  <defs
     id="defs4729" />
  <ellipse
     style="fill:#ffff00;fill-opacity:1;stroke:#00f100;stroke-width:0.80000001;stroke-miterlimit:4;stroke-dasharray:3.20000005, 0.80000001;stroke-dashoffset:0;stroke-opacity:1"
     id="path4768"
     cx="10.280059"
     cy="9.7851391"
     rx="9.8800583"
     ry="9.3851395" />
  <text
     xml:space="preserve"
     style="font-style:normal;font-variant:normal;font-weight:normal;font-stretch:normal;font-size:17.41890526px;line-height:125%;font-family:Times;-inkscape-font-specification:'Times, Normal';text-align:start;letter-spacing:-0.87094527px;word-spacing:0px;writing-mode:lr-tb;text-anchor:start;fill:#000000;fill-opacity:1;stroke:none;stroke-width:1px;stroke-linecap:butt;stroke-linejoin:miter;stroke-opacity:1"
     x="9.084094"
     y="13.137547"
     id="text4764"
     transform="scale(0.86537455,1.155569)"><tspan
       id="tspan4766"
       x="9.084094"
       y="13.137547">t</tspan></text>
  <path
     id="path4159"
     d="M 9.5420262,19.09219 C 9.4964175,19.058682 9.4591013,18.958503 9.4591013,18.869571 9.4591013,18.730679 9.3655446,18.694432 8.7957021,18.612549 8.1089734,18.51387 7.3781839,18.32854 6.8077464,18.108397 6.6265448,18.038467 6.4673443,18.012266 6.4539675,18.050173 6.3638095,18.305655 6.2960133,18.324659 5.9540055,18.190314 5.6499322,18.070871 5.6196839,18.035726 5.6968521,17.891536 5.8000365,17.698734 5.8362254,17.734076 4.922351,17.135176 4.5251385,16.874865 3.9995169,16.478521 3.7543029,16.254409 3.3334054,15.869733 3.3003856,15.854821 3.1641637,15.987914 3.027987,16.120962 3.0060998,16.112592 2.7751693,15.839154 2.5630074,15.587939 2.5473025,15.537105 2.6570584,15.45685 2.8342995,15.327248 2.8280208,15.308625 2.4092124,14.721718 2.2032739,14.433121 1.865038,13.83867 1.6575772,13.400716 1.3163205,12.680316 1.2650027,12.612663 1.1190533,12.690773 0.98543685,12.762282 0.94552541,12.744493 0.88666268,12.587192 0.69699297,12.080331 0.69402785,12.024112 0.85696447,12.024112 1.0982237,12.024112 1.1070321,11.981146 0.98885938,11.380749 0.92834029,11.073273 0.87572982,10.385497 0.87194721,9.8523597 0.86534428,8.92171 0.85784803,8.8819906 0.68414053,8.8572608 0.58462947,8.8430939 0.51254037,8.8035155 0.52394254,8.769309 0.53534472,8.7351024 0.54467377,8.5765086 0.54467377,8.4168781 0.54467377,8.1556808 0.56749085,8.1265824 0.77271726,8.1260558 0.98615847,8.1255082 1.0096513,8.0885965 1.1396036,7.5496066 1.2159671,7.2328813 1.456823,6.5945183 1.6748387,6.1310219 2.0526286,5.3278495 2.0640155,5.2830253 1.9174775,5.1758741 1.769277,5.0675072 1.7708816,5.0530011 1.9619099,4.7742136 2.1462878,4.5051316 2.1726252,4.4931902 2.3399347,4.6028156 2.5050546,4.7110063 2.5317848,4.7022344 2.6665235,4.4956417 2.9038877,4.1316947 3.6999935,3.3258133 4.2143302,2.928829 4.6193787,2.6161973 4.6788276,2.5371756 4.6082235,2.4052508 4.4927618,2.1895085 4.4913187,2.1923429 4.8133654,2.0023307 5.1010176,1.8326118 5.10192,1.8326011 5.2174592,1.9975564 5.3331183,2.1626828 5.3335936,2.1626822 5.6143916,1.9970073 6.0307025,1.7513779 6.9782787,1.3754081 7.6095858,1.2053742 8.0999779,1.0732939 8.1678347,1.0305651 8.1900602,0.83985529 8.2108099,0.66180853 8.2688504,0.61525905 8.5207067,0.57467121 8.7847833,0.53211401 8.8322197,0.54948284 8.870706,0.70282371 8.9135707,0.87361184 8.9577008,0.88002914 10.057875,0.87545856 10.686332,0.87284769 11.387105,0.88936963 11.615149,0.91217398 11.998789,0.95053794 12.031789,0.93942362 12.056745,0.76344785 12.075378,0.63205636 12.12665,0.58480996 12.222595,0.61062181 12.298978,0.6311712 12.464594,0.67094748 12.590629,0.69901354 12.778486,0.74084572 12.81133,0.78373613 12.772866,0.93698851 12.729912,1.1081328 12.78429,1.1429348 13.416208,1.3487278 13.795853,1.4723642 14.439743,1.7450107 14.847075,1.954609 15.525511,2.3037073 15.596326,2.323871 15.690692,2.1948183 15.786576,2.0636895 15.814072,2.0665269 16.087991,2.2358184 16.339768,2.3914257 16.369669,2.4412535 16.294995,2.5807818 16.218932,2.7229081 16.307905,2.8419714 16.987325,3.5072497 17.416109,3.9271103 17.871059,4.4292266 17.998326,4.6230636 18.225013,4.9683275 18.39485,5.0593346 18.498752,4.8912169 18.572249,4.7722965 18.684884,4.8614636 18.839947,5.1613231 18.964071,5.4013517 18.963363,5.4269624 18.829909,5.5245466 18.696358,5.6222011 18.707948,5.6798638 18.995849,6.3501669 19.166084,6.7465153 19.384904,7.404197 19.482115,7.8116818 19.64284,8.4853909 19.675077,8.549469 19.837678,8.5184362 19.980893,8.4911031 20.02629,8.533312 20.065721,8.7304653 20.144621,9.1249673 20.12592,9.1915717 19.928371,9.2196285 19.750367,9.244909 19.739235,9.2918694 19.686209,10.241226 19.638108,11.102388 19.542256,11.620821 19.237753,12.66678 19.197903,12.803662 19.21784,12.853361 19.3126,12.853361 19.516412,12.853361 19.543156,12.978187 19.408427,13.300639 19.270825,13.629966 19.26011,13.636203 19.037045,13.516822 18.913887,13.45091 18.871714,13.467046 18.83088,13.5957 18.747038,13.859867 17.967535,15.015608 17.537217,15.513772 17.160016,15.950443 17.145364,15.984769 17.278626,16.119567 17.411875,16.254353 17.403422,16.276138 17.129655,16.503443 16.863185,16.724689 16.830747,16.732951 16.733531,16.604339 16.659004,16.505743 16.59425,16.488273 16.514884,16.54535 15.833205,17.035591 14.992971,17.554098 14.533766,17.767895 14.031056,18.001948 13.974807,18.05159 14.017876,18.223192 14.058409,18.384689 14.018367,18.435787 13.769938,18.539587 13.451072,18.672818 13.31511,18.641712 13.31511,18.435532 13.31511,18.337343 13.259495,18.317552 13.087066,18.354383 12.961642,18.381173 12.597809,18.459771 12.278548,18.529045 11.959287,18.598318 11.352899,18.679862 10.931018,18.710252 10.196603,18.763158 10.163963,18.773809 10.163963,18.960581 10.163963,19.12564 10.122497,19.155458 9.8944571,19.154384 9.7462288,19.153686 9.5876349,19.125699 9.5420262,19.09219 Z M 10.9016,15.205518 C 11.509201,14.902739 12.233947,13.895076 12.0072,13.668329 11.93509,13.596219 11.819813,13.65744 11.537211,13.917934 10.994422,14.41826 10.622601,14.369478 10.381247,13.766276 10.265324,13.476555 10.246888,12.981258 10.246888,10.156623 L 10.246888,6.8827673 10.993212,6.8827673 11.739536,6.8827673 11.739536,6.4681428 11.739536,6.0535182 10.993212,6.0535182 10.246888,6.0535182 10.246888,4.7681822 C 10.246888,3.7934266 10.221841,3.483648 10.143232,3.4861649 10.086221,3.4879901 9.8035755,3.9122451 9.515132,4.4289535 9.2266877,4.945662 8.7681619,5.6414454 8.4961857,5.9751387 8.2242095,6.308832 8.0127642,6.6402303 8.0263074,6.7115794 8.0441492,6.8055754 8.1706246,6.8482083 8.4855103,6.8663698 L 8.9200894,6.8914346 8.9200894,10.354896 C 8.9200894,13.298621 8.9401456,13.885947 9.0537395,14.268764 9.2214186,14.833852 9.4517475,15.161654 9.7821983,15.305502 10.162711,15.471143 10.413516,15.448741 10.9016,15.205518 Z"
     style="fill:#e4ffe1;fill-opacity:1;stroke:#00f100;stroke-width:0.06633992;stroke-miterlimit:4;stroke-dasharray:0.26535971, 0.06633993000000001;stroke-dashoffset:0;stroke-opacity:1" />
</svg>
