<svg xmlns="http://www.w3.org/2000/svg" width="48" height="48" viewBox="0 -960 960 960"><path d="M720-82q-23 0-45.5-8T634-116q-2-2-3.5-4t-2.5-2h-88q-46 0-73-31.5T440-223q0-22 10-42.73 10-20.731 30-36.91L520-335v-222l-62-88q-9-14-13.5-28.659Q440-688.318 440-702q0-39 27.5-69.5T540-802h200q43 0 71.5 29.5t28.5 69.289Q840-689 836-675q-4 14-14 28l-62 90v224l39 39q19 19 30 42.693 11 23.692 11 48.897Q840-152 805-117t-85 35Zm-367-52q-11 5-23 8t-23.158 3Q265-123 232.5-153.5T200-229v-364l-70-147q-5-11-7.5-21.56-2.5-10.56-2.5-21.12 0-40.32 28.5-69.82Q177-882 220-882h180v80q42 0 71 29t29 71q0 15-4.5 30T480-643l-40 54v200l43 65q8 13 12.5 27.5T500-268q0 27-14 51t-41 38l-92 45Z"/></svg>