<svg xmlns="http://www.w3.org/2000/svg" width="48" height="48" viewBox="0 -960 960 960"><path d="M655-81q-80.51 0-137.255-56.745Q461-194.49 461-275q0-80.51 56.745-137.255Q574.49-469 655-469q80.51 0 137.255 56.745Q849-355.51 849-275q0 80.51-56.745 137.255Q735.51-81 655-81Zm1.108-70Q668-151 676-159.108t8-20Q684-191 675.892-199t-20-8Q644-207 636-198.892t-8 20Q628-167 636.108-159t20 8ZM636-233h40v-10.952Q676-256 682.5-266q6.5-10 15.227-18.4Q713-297 722.5-309.5 732-322 732-342q0-31.719-21.297-50.859Q689.407-412 655.78-412 630-412 609-397.5t-29 39.986L616-342q2-14 13.5-23.5t26.948-9.5q16.552 0 26.052 8.25T692-342q0 11-7 19.5T670-306q-8 7-15.5 14T642-277q-4 7-5 13.3-1 6.3-1 14.7v16ZM511-634h189L511-820l189 186-189-186v186ZM180-80q-24.75 0-42.375-17.625T120-140v-680q0-24.75 17.625-42.375T180-880h361l219 219v155q-25-11-51.667-17-26.666-6-53.333-6-42 0-80 13t-70 36H279v60h167q-17 24-27.4 52.197Q408.2-339.607 403-310H279v60h123q5 50 28.5 94T492-80H180Z"/></svg>