<svg xmlns="http://www.w3.org/2000/svg" width="48" height="48" viewBox="0 -960 960 960"><path d="m480-463 340-217v-60L480-527 140-740v60l340 217ZM773-40q-77.605 0-132.302-54Q586-148 586-226.014q0-78.014 54.698-133Q695.395-414 773-414q77.605 0 132.302 54.986Q960-304.028 960-226.014 960-148 905.302-94 850.605-40 773-40ZM660-210h226v-40H660v40Zm-520 50q-24.75 0-42.375-17.625T80-220v-520q0-24.75 17.625-42.375T140-800h680q24.75 0 42.375 17.625T880-740v291q-25-13-52-19t-55.349-6Q669-474 597.5-399.5 526-325 526-220q0 15 2.25 30t6.75 30H140Z"/></svg>