<svg xmlns="http://www.w3.org/2000/svg" width="48" height="48" viewBox="0 -960 960 960"><path d="M813-61 542-332h-32v111q19.95 10 30.975 28.5Q552-174 552-152q0 29.7-21.212 50.85-21.213 21.15-51 21.15Q450-80 429-101.15 408-122.3 408-152q0-21.737 11-40.368Q430-211 450-221v-111H302q-24.75 0-42.375-17.625T242-392v-109q-20-9-31-27t-11-40q0-21 10.5-39t29.5-27L61-813l43-43 752 752-43 43ZM698-348l-40-40v-108h-42v-144h144v144h-42v104q0 13-5.5 24.5T698-348Zm-396-44h148v-32L338-536q-5 12-14.5 21T302-501v109Zm208-144-60-60v-136h-80l110-149 110 149h-80v196Z"/></svg>