<svg xmlns="http://www.w3.org/2000/svg" width="48" height="48" viewBox="0 -960 960 960"><path d="M500-660h200v-120H500v120ZM160-260q25.5 0 42.75-17.25T220-320q0-25.5-17.25-42.75T160-380q-25.5 0-42.75 17.25T100-320q0 25.5 17.25 42.75T160-260Zm320 130q-73.491 0-139.245-22.5Q275-175 221-217q-14 8-29 12.5t-32 4.5q-50 0-85-35t-35-85q0-25.556 10.5-47.778Q61-390 78-407q-9-24-15.5-49T53-507l59-6q2 20 6.5 39.5T130-436q7-2 14.393-3 7.393-1 15.607-1 50 0 85 35t35 85q0 16.872-4 31.936T264-259q40 29 86.851 46.062Q397.701-195.875 450-191v-209q0-21.25-14.375-35.625T400-450q-63 0-106.5-43.5T250-600q0-63 43.5-106.5T400-750h40v-30q0-24.75 17.625-42.375T500-840h200q24.75 0 42.375 17.625T760-780v30h40q12.75 0 21.375 8.675 8.625 8.676 8.625 21.5 0 12.825-8.625 21.325T800-690h-40v30q0 24.75-17.625 42.375T700-600H500q-24.75 0-42.375-17.625T440-660v-30h-40q-38 0-64 26t-26 64q0 38 26 64t64 26q45.833 0 77.917 32.083Q510-445.833 510-400v209q96-8 173.5-60T805-384l-50-24 27-54 47 24q6-18 11-36.5t7-38.5l60 6q-3 25-9.3 48.986Q891.4-434.027 883-411l42 20-27 54-39-20q-55 102-156.064 164.5T480-130Zm20-530v-120 120ZM160-320Z"/></svg>