<svg xmlns="http://www.w3.org/2000/svg" width="48" height="48" viewBox="0 -960 960 960"><path d="M448-167 228-296q-13.775-8.29-21.387-22.232Q199-332.174 199-348v-257q0-15.826 7.613-29.768Q214.225-648.71 228-657l221-131q14-8 31-8t31 8l221 131q13.775 8.29 21.388 22.232Q761-620.826 761-605v257q0 15.826-7.875 29.768T731-296L508-167q-14.328 8-30.164 8Q462-159 448-167ZM80-691v-129q0-24.75 17.625-42.375T140-880h129v60H140v129H80ZM269-80H140q-24.75 0-42.375-17.625T80-140v-129h60v129h129v60Zm422 0v-60h129v-129h60v129q0 24.75-17.625 42.375T820-80H691Zm129-611v-129H691v-60h129q24.75 0 42.375 17.625T880-820v129h-60Zm-530 67-30 18v37l190 109v224l30 18 30-18v-224l191-109v-37l-31-18-190 110-190-110Z"/></svg>