<svg xmlns="http://www.w3.org/2000/svg" width="48" height="48" viewBox="0 -960 960 960"><path d="M448-167 228-296q-13.775-8.426-21.387-22.213Q199-332 199-348v-257q0-16 7.613-29.787Q214.225-648.574 228-657l221-131q14-8 31-8t31 8l221 131q13.775 8.426 21.388 22.213Q761-621 761-605v257q0 16-7.875 29.787Q745.25-304.426 731-296L508-167q-14.328 8-30.164 8Q462-159 448-167Zm2-69v-224L260-569v219l190 114Zm60 0 191-114v-219L510-460v224ZM80-691v-129q0-24.75 17.625-42.375T140-880h129v60H140v129H80ZM269-80H140q-24.75 0-42.375-17.625T80-140v-129h60v129h129v60Zm422 0v-60h129v-129h60v129q0 24.75-17.625 42.375T820-80H691Zm129-611v-129H691v-60h129q24.75 0 42.375 17.625T880-820v129h-60ZM480-514l190-110-190-109-190 109 190 110Zm0 25Zm0-25Zm30 54Zm-60 0Z"/></svg>