<svg xmlns="http://www.w3.org/2000/svg" width="48" height="48" viewBox="0 -960 960 960"><path d="M280-412q29 0 48.5-19.5T348-480q0-29-19.5-48.5T280-548q-29 0-48.5 19.5T212-480q0 29 19.5 48.5T280-412Zm599.825 172Q867-240 858.5-248.675q-8.5-8.676-8.5-21.5 0-12.825 8.675-21.325 8.676-8.5 21.5-8.5 12.825 0 21.325 8.675 8.5 8.676 8.5 21.5 0 12.825-8.675 21.325-8.676 8.5-21.5 8.5ZM850-360v-223h60v223h-60ZM280-240q-100 0-170-70T40-480q0-100 70-170t170-70q86 0 146.5 49t83.55 118H754v313h-66v-167H510q-23 69-83.5 118T280-240Z"/></svg>