<svg xmlns="http://www.w3.org/2000/svg" width="48" height="48" viewBox="0 -960 960 960"><path d="M110-880h80q12.75 0 21.375 8.625T220-850v770q-23-8-41.5-22.5T160-140v-680h-50q-12 0-21-9t-9-21.5q0-12.5 9-21t21-8.5ZM340-80q-24.75 0-42.375-17.625T280-140v-680q0-24.75 17.625-42.375T340-880h400q24.75 0 42.375 17.625T800-820v680q0 24.75-17.625 42.375T740-80H340Zm0-445q20-17 45.5-26t54.5-9h200q29 0 54.5 9t45.5 26v-295H340v295Zm199.911-85Q511-610 490.5-630.589q-20.5-20.588-20.5-49.5Q470-709 490.589-729.5q20.588-20.5 49.5-20.5Q569-750 589.5-729.411q20.5 20.588 20.5 49.5Q610-651 589.411-630.5q-20.588 20.5-49.5 20.5ZM340-140h400v-260q0-42-29-71t-71-29H440q-42 0-71 29t-29 71v260Zm170-70h60v-80h80v-60h-80v-80h-60v80h-80v60h80v80Zm-170 70h400-400Z"/></svg>