<svg xmlns="http://www.w3.org/2000/svg" width="48" height="48" viewBox="0 -960 960 960"><path d="M710.072-660Q675-660 647.5-687.45T620-750q0-34 21-73.5t69-99.5q48 60 69 99.5t21 73.5q0 35.1-27.428 62.55-27.428 27.45-62.5 27.45ZM230-80q-63 0-106.5-43.5T80-230v-216q0-28 13.5-53t36.5-40l324.343-209L474-728q14.815 14.933 17.407 35.467Q494-672 483-654l-59 94h346q12.75 0 21.375 8.625T800-530q0 12-8.625 21T770-500H316l91-147-244 159q-11 7-17 17.862-6 10.862-6 24.138v216q0 37.125 26.438 63.562Q192.875-140 230-140h500q12.75 0 21.375 8.625T760-110q0 12-8.625 21T730-80H230Zm250-280v-60h370q12.75 0 21.375 8.625T880-390q0 12-8.625 21T850-360H480Zm0 140v-60h330q12.75 0 21.375 8.625T840-250q0 12-8.625 21T810-220H480ZM310-360Z"/></svg>