<svg xmlns="http://www.w3.org/2000/svg" width="48" height="48" viewBox="0 -960 960 960"><path d="M350-634h260v-96q0-54.167-37.882-92.083-37.883-37.917-92-37.917Q426-860 388-822.083 350-784.167 350-730v96ZM770-80q-37 0-63.5-26.5T680-169.581q0-17.419 6-32.919 6-15.5 17-27.5l67-75 67 75q11 12 17 27.5t6 32.919Q860-133 833.9-106.5T770-80ZM480.168-280Q512-280 534.5-302.031T557-355q0-30-22.668-54.5t-54.5-24.5Q448-434 425.5-409.5t-22.5 55q0 30.5 22.668 52.5t54.5 22ZM220-80q-24.75 0-42.375-17.625T160-140v-434q0-24.75 17.625-42.375T220-634h70v-96q0-78.85 55.606-134.425Q401.212-920 480.106-920T614.5-864.425Q670-808.85 670-730v96h70q24.75 0 42.375 17.625T800-574v197q-8-2-16-2.5t-16-.5q-77.859 0-132.929 55.085Q580-269.829 580-191q0 30.221 9.5 58.611Q599-104 616-80H220Z"/></svg>