<svg xmlns="http://www.w3.org/2000/svg" width="48" height="48" viewBox="0 -960 960 960"><path d="M100-260h207q-29-23-52-53.5T218-380H100v120Zm379.788 0Q571-260 635.5-324.288q64.5-64.288 64.5-155.5T635.712-635.5q-64.288-64.5-155.5-64.5T324.5-635.712q-64.5 64.288-64.5 155.5T324.288-324.5q64.288 64.5 155.5 64.5ZM742-580h118v-120H653q29 23 52 53.5t37 66.5ZM40-160v-320h60v40h103q-2-10-2.5-19.5T200-480q0-117 81.5-198.5T480-760h380v-40h60v320h-60v-40H757q2 10 2.5 19.5t.5 20.5q0 117-81.5 198.5T480-200H100v40H40Zm60-100v-120 120Zm760-320v-120 120ZM480-480Zm-.089 104Q451-376 430.5-396.562 410-417.125 410-446q0-23 7-39t31-52l32-47 32 47q24 36 31 52t7 39q0 28.875-20.589 49.438Q508.823-376 479.911-376Z"/></svg>