<svg xmlns="http://www.w3.org/2000/svg" width="48" height="48" viewBox="0 -960 960 960"><path d="m434-498 276-275q9-9 21-9t21 9q9 9 9 21t-9 21L476-455l-42-43Zm104 104 247-247q9.067-9 21.533-9Q819-650 828-641.158q9 8.842 9 21T828-599L580-351l-42-43ZM195-199q-91-91-91.5-218T194-635l122-122 42 42q12 12 19.5 28t8.5 30l163-164q9.067-9 21.533-9Q583-830 592-820.947q9 9.052 9 21.5Q601-787 592-778L389-575l-65 65 26 26q42 42 40.5 100.5T347-283l-7 7-42-43 7-7q25-25 25.5-58.5T307-442l-47-47q-9-9.067-9-21.533Q251-523 260-532l56-55q17-17 17-42.5T316-672l-80 80q-73 73-72.5 175T237-242q74 74 177 75.5T590-238l241-241q9.067-9 21.533-9Q865-488 874-479.158q9 8.842 9 21T874-437L633-196q-91 91-219 89.5T195-199Zm217-217ZM689-40l1-60q71 0 120.5-49.5T860-270l60-1q0 95.851-67.575 163.425Q784.851-40 689-40ZM40-689q0-95.851 67.575-163.425Q175.149-920 271-920l-1 60q-71 0-120.5 49.5T100-690l-60 1Z"/></svg>