<svg xmlns="http://www.w3.org/2000/svg" width="48" height="48" viewBox="0 -960 960 960"><path d="M450-810v-110h60v110h-60Zm0 770v-110h60v110h-60Zm360-410v-60h110v60H810Zm-770 0v-60h110v60H40Zm702-250-43-43 66-66 43 43-66 66ZM195-151l-43-43 66-66 43 43-66 66Zm570 0-66-66 43-43 66 66-43 43ZM218-700l-66-66 43-43 66 66-43 43Zm261.824 445Q386-255 320.5-320.676q-65.5-65.677-65.5-159.5Q255-574 320.676-639.5q65.677-65.5 159.5-65.5Q574-705 639.5-639.323 705-573.647 705-479.824 705-386 639.323-320.5 573.647-255 479.824-255Z"/></svg>