<svg xmlns="http://www.w3.org/2000/svg" width="48" height="48" viewBox="0 -960 960 960"><path d="M202-150q-57-55-90.5-129.5T78-440q0-83 31.5-156T195-723q54-54 127-85.5T478-840q115.429 0 209.214 58.5Q781-723 832-627h-70q-46-69-120-111t-164-42q-142.375 0-241.188 98.812Q138-582.375 138-440q0 74 28.5 137T245-193l-43 43Zm113-113q-35-33-56-78.5T238-440q0-100 70-170t170-70q100 0 170 70t70 170q0 53-21 98.5T641-263l-43-43q27.778-25.165 43.889-59.082Q658-399 658-440q0-75-52.5-127.5T478-620q-75 0-127.5 52.5T298-439.941Q298-399 314-365t44 59l-43 43Zm163-97q-33 0-56.5-23.5T398-440q0-33 23.5-56.5T478-520q33 0 56.5 23.5T558-440q0 33-23.5 56.5T478-360Zm370 215q-14 0-24.5-10.5T813-180q0-14 10.5-24.5T848-215q14 0 24.5 10.5T883-180q0 14-10.5 24.5T848-145Zm-30-142v-240h60v240h-60Z"/></svg>