<svg xmlns="http://www.w3.org/2000/svg" width="48" height="48" viewBox="0 -960 960 960"><path d="M682-120q-17 0-28.5-11.385T642-159.6v-118.8q0-16.83 11.5-28.215Q665-318 682-318h1v-39q0-33.825 24.124-57.913 24.124-24.087 58-24.087Q799-439 823-414.913q24 24.088 24 57.913v39h1q17 0 28.5 11.385T888-278.4v118.8q0 16.83-11.5 28.215Q865-120 848-120H682Zm41-198h84v-39q0-19-11.5-30.5T765-399q-19 0-30.5 11.5T723-357v39ZM480-120 0-600q99-94 221-147t259-53q137 0 259 53t221 147L844-484q-16-6-32.646-10.091Q794.708-498.182 777-499l95-95q-87-68-184.5-107T480-740q-110 0-207.5 39T88-594l392 392 66-66q.727 18.056 4.364 35.028Q554-216 560-200l-80 80Zm0-351Z"/></svg>