<svg xmlns="http://www.w3.org/2000/svg" width="48" height="48" viewBox="0 -960 960 960"><path d="M120-120q14-119 34.5-215.5t46.5-164q26-67.5 56.5-104T320-640q40 0 81.5 77T468-369q12-102 31-188.5t41.5-149q22.5-62.5 48.5-98t51-35.5q35 0 66 50.5t57 144q26 93.5 46 227T840-120h-62q-27-99-68.5-170.5T640-370q-25 8-64 80t-64 170h-63q-10-90-25.5-166T391-421.5q-17-59.5-35.5-100T320-580q-25 26-46 67.5t-38.5 99Q218-356 204.5-283T180-120h-60Zm402-187q26-59 56.5-91t61.5-32q32 0 65.5 33t57.5 90q-16-165-49-302t-74-169q-37 29-68.5 163T522-307Z"/></svg>