<svg xmlns="http://www.w3.org/2000/svg" width="48" height="48" viewBox="0 -960 960 960"><path d="M660-541q-17 0-28.5-11.5T620-581q0-17 11.5-28.5T660-621q17 0 28.5 11.5T700-581q0 17-11.5 28.5T660-541Zm-92-96-38-39q26-26 59.637-40.5 33.638-14.5 70.5-14.5Q697-731 730.5-716.5T790-676l-38 39q-19-19-42.269-29-23.268-10-49.731-10t-49.731 10Q587-656 568-637Zm-77-79-38-38q42-42 95-64.5T660-841q59 0 112 22.5t95 64.5l-38 38q-34.021-34.079-77.697-52.039Q707.627-786 659.814-786q-47.814 0-90.897 18.421Q525.833-749.158 491-716Zm304 596q-116 0-236.5-56T335-335Q232-438 176-558.5T120-795q0-19.286 12.857-32.143T165-840h140q14 0 24 10t14 25l26.929 125.641Q372-665 369.5-653.5q-2.5 11.5-10.729 19.726L259-533q26 44 55 82t64 72q37 38 78 69.5t86 55.5l95-98q10-11 23.151-15T686-369l119 26q15 4 25 16.044T840-300v135q0 19.286-12.857 32.143T795-120ZM229-588l81-82-23-110H180q2 42 13.5 88.5T229-588Zm369 363q41 19 89 31t93 14v-107l-103-21-79 83ZM229-588Zm369 363Z"/></svg>