<svg xmlns="http://www.w3.org/2000/svg" width="48" height="48" viewBox="0 -960 960 960"><path d="M120-120q14-119 34.5-215.5t46.5-164q26-67.5 56.5-104T320-640q40 0 81.5 80T467-356q12-104 30.5-193T539-702.5q23-64.5 49-101t52-36.5q35 0 66 50.5t57 144q26 93.5 46 227T840-120h-62q-27-99-68.5-170.5T640-370q-25 8-64 80t-64 170h-63q-9-74-24-148.5T392.5-406Q375-469 356-515.5T320-580q-21 14-41.5 54T240-425.5q-18 60.5-33.5 138T180-120h-60Zm402-187q26-59 56.5-91t61.5-32q32 0 65.5 33t57.5 90q-16-165-49-294t-74-180q-37 47-68.5 173.5T522-307Z"/></svg>