<svg xmlns="http://www.w3.org/2000/svg" width="48" height="48" viewBox="0 -960 960 960"><path d="M723-318h84v-39q0-19-11.5-30.5T765-399q-19 0-30.5 11.5T723-357v39ZM480-120 0-600q99-94 221-147t259-53q137 0 259 53t221 147L844-484q-18.589-7.857-38.795-11.429Q785-499 765-499q-91.25 0-155.125 63.875T546-280q0 20 3 40.5t11 39.5l-80 80Zm202 0q-17 0-28.5-11.385T642-159.6v-118.8q0-16.83 11.5-28.215Q665-318 682-318h1v-39q0-33.825 24.124-57.913 24.124-24.087 58-24.087Q799-439 823-414.913q24 24.088 24 57.913v39h1q17 0 28.5 11.385T888-278.4v118.8q0 16.83-11.5 28.215Q865-120 848-120H682Z"/></svg>