<svg xmlns="http://www.w3.org/2000/svg" width="48" height="48" viewBox="0 -960 960 960"><path d="M430-40q0-25 17.625-42.5T490-100v-246q7 2 14.419 3.5 7.42 1.5 15.581 1.5 42 0 70.5-28.5T619-440v-9l128 31q16 4 29 14t21 24l91 164q15 27 11 57t-26 52q-27 27-64.5 27T744-107L550-302v202q25 0 42.5 17.625T610-40H430Zm-310-90v-60h200v60H120Zm166-160-180-51q-29-8-47.5-32.5T40-429q0-38 26.5-64.5T131-520h330q-19 14-29.5 34.5T421-440q0 23 9 42t25 33l-105 67q-14 8-30.5 10.5T286-290Zm234.118-80Q491-370 470.5-390.382q-20.5-20.383-20.5-49.5Q450-469 470.382-489.5q20.383-20.5 49.5-20.5Q549-510 569.5-489.618q20.5 20.383 20.5 49.5Q590-411 569.618-390.5q-20.383 20.5-49.5 20.5ZM612-478q-11-27-35.5-44T520-539q-11 0-21 2t-19 6v-158q0-17 6.5-32t18.5-26l137-128q23-22 53.5-25t56.5 13q32 20 41.5 56.5T783-762L612-478ZM40-610v-60h200v60H40Zm120-160v-60h240v60H160Z"/></svg>