<svg xmlns="http://www.w3.org/2000/svg" width="48" height="48" viewBox="0 -960 960 960"><path d="M440-88 248-280H40v-60h232l168 167-71-147h441q12.75 0 21.375 8.675 8.625 8.676 8.625 21.5 0 12.825-8.625 21.325T810-260H465l19 39q13 26 9.5 54.5T470-118l-30 30ZM40-620v-60h188l53-54q12.8-12.629 29.365-19.314Q326.929-760 345-760h425q12.75 0 21.375 8.675 8.625 8.676 8.625 21.5 0 12.825-8.625 21.325T770-700H353q-9.818 0-18.409 4T318-685l-66 65H40Zm0 140Zm530 75v-60h320q13 0 21.5 8.675 8.5 8.676 8.5 21.5 0 12.825-8.625 21.325T890-405H570Zm0-150v-60h280q13 0 21.5 8.675 8.5 8.676 8.5 21.5 0 12.825-8.625 21.325T850-555H570Z"/></svg>