<svg xmlns="http://www.w3.org/2000/svg" width="48" height="48" viewBox="0 -960 960 960"><path d="M480-180q0-97-69.5-166.5T244-416q0 97 69.5 166.5T480-180Zm0-220q27 0 43.5-16.5T540-460v-8q8 7 18 9t19 2q27 0 43.5-16.5t16.5-43.065Q637-537 628-550q-9-13-24-24 15-6 24-21.395 9-15.394 9-35.921Q637-658 620.5-674.5 604-691 577-691q-9 0-19 2t-18 9v-8q0-27-16.5-43.5T480-748q-27 0-43.5 16.5T420-688v8q-8-7-18-9t-19-2q-27 0-43.5 16.5T323-631.435q0 20.435 8.5 33.935Q340-584 356-574q-16 7-24.5 22t-8.5 35q0 27 16.5 43.5T383-457q9 0 19.5-2t17.5-9v8q0 27 16.5 43.5T480-400Zm-.205-96Q447-496 424.5-518.5T402-574q0-32.71 22.705-55.355Q447.409-652 480.205-652 513-652 535.5-629.355T558-574q0 33-22.705 55.5-22.704 22.5-55.5 22.5ZM480-180q97 0 166.5-69.5T716-416q-97 0-166.5 69.5T480-180ZM140-80q-24 0-42-18t-18-42v-680q0-24 18-42t42-18h680q24 0 42 18t18 42v680q0 24-18 42t-42 18H140Zm0-60h680v-680H140v680Zm0 0v-680 680Z"/></svg>